M48
; DRILL file {KiCad (5.1.9)-1} date 05/04/21 19:46:41
; FORMAT={-:-/ absolute / inch / decimal}
; #@! TF.CreationDate,2021-05-04T19:46:41-07:00
; #@! TF.GenerationSoftware,Kicad,Pcbnew,(5.1.9)-1
; #@! TF.FileFunction,Plated,1,2,PTH
FMAT,2
INCH
T1C0.0157
T2C0.0236
T3C0.0315
T4C0.0350
T5C0.0394
T6C0.0512
T7C0.0791
T8C0.0866
%
G90
G05
T1
X4.4395Y-5.5885
X4.565Y-5.73
X4.61Y-5.3225
X4.6425Y-5.435
X4.6475Y-4.7805
X4.67Y-5.0025
X4.6915Y-5.3345
X4.7175Y-4.8545
X4.7538Y-5.1048
X4.7575Y-4.809
X4.8155Y-4.809
X4.8754Y-5.6444
X4.8755Y-5.2925
X4.9035Y-5.1825
X4.9335Y-4.9925
X4.935Y-5.38
X5.0395Y-5.2465
X5.075Y-5.38
X5.1335Y-5.8669
X5.1575Y-5.7305
X5.1855Y-5.6965
X5.1975Y-5.211
X5.2095Y-5.0105
X5.21Y-5.265
X5.2335Y-5.8492
X5.2755Y-5.2985
X5.2835Y-5.5905
X5.3175Y-4.7665
X5.3675Y-5.5905
X5.3716Y-5.3865
X5.3937Y-5.8669
X5.4015Y-5.1105
X5.4295Y-5.4645
X5.4426Y-5.7676
X5.4435Y-4.9705
X5.4575Y-5.4145
X5.4658Y-5.7039
X5.4675Y-5.2185
X5.4735Y-4.9965
X5.4857Y-5.7647
X5.5084Y-5.1474
X5.5225Y-5.38
X5.5235Y-5.8325
X5.5237Y-5.7267
X5.5257Y-5.5925
X5.5435Y-5.2185
X5.5435Y-5.2965
X5.5695Y-5.6845
X5.6175Y-5.6075
X5.6315Y-5.139
X5.6371Y-5.2604
X5.6735Y-5.2985
X5.74Y-5.0025
X5.7515Y-5.4145
X5.7915Y-5.0085
X5.7935Y-5.4125
X5.83Y-5.285
X5.8675Y-5.1145
X5.8695Y-5.2565
X5.8975Y-5.8669
X5.9055Y-5.1445
X5.934Y-5.252
X5.9595Y-5.0085
X5.9675Y-5.4545
X5.9825Y-5.66
X6.0125Y-4.995
X6.0246Y-5.1431
X6.0335Y-5.4265
X6.0375Y-5.255
X6.075Y-5.7675
X6.0775Y-5.1125
X6.0895Y-5.4285
X6.0955Y-5.1525
X6.1015Y-5.3105
X6.1125Y-5.005
X6.15Y-5.465
X6.155Y-5.1325
X6.2215Y-5.4285
X6.2335Y-4.9685
X6.2595Y-5.2045
X6.2695Y-4.9985
X6.275Y-5.3175
X6.3175Y-5.4405
X6.3715Y-5.0845
X6.4Y-5.3975
X6.5075Y-5.21
T3
X5.4985Y-4.912
X5.4985Y-5.512
X5.5985Y-4.912
X5.5985Y-5.512
X5.6985Y-4.912
X5.6985Y-5.512
X5.7985Y-4.912
X5.7985Y-5.512
X5.8985Y-4.912
X5.8985Y-5.512
X5.9985Y-4.912
X5.9985Y-5.512
X6.0985Y-4.912
X6.0985Y-5.512
X6.1985Y-4.912
X6.1985Y-5.512
X6.2985Y-4.912
X6.2985Y-5.512
X6.3985Y-4.912
X6.3985Y-5.512
X6.4985Y-4.912
X6.4985Y-5.512
X6.5985Y-4.912
X6.5985Y-5.512
X6.6985Y-4.912
X6.6985Y-5.512
X6.7985Y-4.912
X6.7985Y-5.512
X6.8985Y-4.912
X6.8985Y-5.512
T4
X4.309Y-4.9065
X4.309Y-5.0065
T5
X3.9325Y-5.2725
X4.204Y-5.6785
X4.365Y-5.395
X4.404Y-5.6785
X4.484Y-4.8
X4.484Y-4.9
X4.5035Y-5.102
X4.6685Y-5.102
X4.838Y-5.099
X5.0005Y-5.098
X5.9Y-5.6675
X6.0425Y-4.71
X6.07Y-5.6675
X6.2125Y-4.7125
X6.2425Y-5.6675
X6.38Y-4.7075
X6.4125Y-5.6675
X6.48Y-4.7075
X6.5125Y-5.6675
X6.6475Y-4.7125
X6.68Y-5.6675
X6.78Y-5.6675
T6
X3.8645Y-5.603
X4.085Y-5.603
X4.5245Y-5.623
X4.745Y-5.623
T7
X4.109Y-4.7065
X4.109Y-5.1065
T8
X3.9Y-5.79
X5.025Y-4.6775
X6.8975Y-4.6775
X6.8975Y-5.79
T2
G00X6.5938Y-5.0171
M15
G01X6.6292Y-5.0171
M16
G05
G00X6.5938Y-5.1156
M15
G01X6.6292Y-5.1156
M16
G05
G00X6.5938Y-5.3124
M15
G01X6.6292Y-5.3124
M16
G05
G00X6.5938Y-5.4109
M15
G01X6.6292Y-5.4109
M16
G05
G00X6.8084Y-5.2317
M15
G01X6.8084Y-5.1963
M16
G05
T0
M30
