G04 #@! TF.GenerationSoftware,KiCad,Pcbnew,(5.1.9)-1*
G04 #@! TF.CreationDate,2021-05-04T19:46:14-07:00*
G04 #@! TF.ProjectId,SDRReciever,53445252-6563-4696-9576-65722e6b6963,1*
G04 #@! TF.SameCoordinates,Original*
G04 #@! TF.FileFunction,Copper,L2,Bot*
G04 #@! TF.FilePolarity,Positive*
%FSLAX46Y46*%
G04 Gerber Fmt 4.6, Leading zero omitted, Abs format (unit mm)*
G04 Created by KiCad (PCBNEW (5.1.9)-1) date 2021-05-04 19:46:14*
%MOMM*%
%LPD*%
G01*
G04 APERTURE LIST*
G04 #@! TA.AperFunction,ComponentPad*
%ADD10R,1.600000X1.600000*%
G04 #@! TD*
G04 #@! TA.AperFunction,ComponentPad*
%ADD11O,1.600000X1.600000*%
G04 #@! TD*
G04 #@! TA.AperFunction,ComponentPad*
%ADD12R,1.700000X1.700000*%
G04 #@! TD*
G04 #@! TA.AperFunction,ComponentPad*
%ADD13O,2.600000X1.300000*%
G04 #@! TD*
G04 #@! TA.AperFunction,ComponentPad*
%ADD14O,1.300000X2.600000*%
G04 #@! TD*
G04 #@! TA.AperFunction,ComponentPad*
%ADD15O,1.700000X1.700000*%
G04 #@! TD*
G04 #@! TA.AperFunction,ComponentPad*
%ADD16C,2.600000*%
G04 #@! TD*
G04 #@! TA.AperFunction,ComponentPad*
%ADD17C,2.000000*%
G04 #@! TD*
G04 #@! TA.AperFunction,ComponentPad*
%ADD18C,4.400000*%
G04 #@! TD*
G04 #@! TA.AperFunction,ComponentPad*
%ADD19O,7.000000X3.500000*%
G04 #@! TD*
G04 #@! TA.AperFunction,ComponentPad*
%ADD20O,2.500000X1.600000*%
G04 #@! TD*
G04 #@! TA.AperFunction,ViaPad*
%ADD21C,0.800000*%
G04 #@! TD*
G04 #@! TA.AperFunction,Conductor*
%ADD22C,0.250000*%
G04 #@! TD*
G04 #@! TA.AperFunction,Conductor*
%ADD23C,0.254000*%
G04 #@! TD*
G04 #@! TA.AperFunction,Conductor*
%ADD24C,0.100000*%
G04 #@! TD*
G04 APERTURE END LIST*
D10*
X139661900Y-140004800D03*
D11*
X172681900Y-124764800D03*
X142201900Y-140004800D03*
X170141900Y-124764800D03*
X144741900Y-140004800D03*
X167601900Y-124764800D03*
X147281900Y-140004800D03*
X165061900Y-124764800D03*
X149821900Y-140004800D03*
X162521900Y-124764800D03*
X152361900Y-140004800D03*
X159981900Y-124764800D03*
X154901900Y-140004800D03*
X157441900Y-124764800D03*
X157441900Y-140004800D03*
X154901900Y-124764800D03*
X159981900Y-140004800D03*
X152361900Y-124764800D03*
X162521900Y-140004800D03*
X149821900Y-124764800D03*
X165061900Y-140004800D03*
X147281900Y-124764800D03*
X167601900Y-140004800D03*
X144741900Y-124764800D03*
X170141900Y-140004800D03*
X142201900Y-124764800D03*
X172681900Y-140004800D03*
X139661900Y-124764800D03*
X175221900Y-140004800D03*
X175221900Y-124764800D03*
D12*
X153479500Y-119634000D03*
X99885500Y-133921500D03*
X168846500Y-119697500D03*
X157797500Y-119697500D03*
X110871000Y-137033000D03*
X149860000Y-143954500D03*
X158559500Y-143954500D03*
X154178000Y-143954500D03*
X114388900Y-129590800D03*
X118579900Y-129590800D03*
X122885200Y-129514600D03*
X127012700Y-129489200D03*
D13*
X167932600Y-127435600D03*
X167932600Y-137435600D03*
X167932600Y-134935600D03*
X167932600Y-129935600D03*
D14*
X172932600Y-132435600D03*
D15*
X113893600Y-124460000D03*
D12*
X113893600Y-121920000D03*
D15*
X164592000Y-119570500D03*
D12*
X162052000Y-119570500D03*
X165417500Y-143954500D03*
D15*
X162877500Y-143954500D03*
D12*
X172212000Y-143954500D03*
D15*
X169672000Y-143954500D03*
D16*
X103758300Y-142316200D03*
X98158300Y-142316200D03*
D17*
X111861600Y-144233900D03*
X106781600Y-144233900D03*
D16*
X114922300Y-142824200D03*
X120522300Y-142824200D03*
D18*
X99060000Y-147066000D03*
X175196500Y-147066000D03*
X127635000Y-118808500D03*
X175196500Y-118808500D03*
D19*
X104368600Y-129705100D03*
X104368600Y-119545100D03*
D20*
X109448600Y-124625100D03*
X109448600Y-127165100D03*
D21*
X147104100Y-127215900D03*
X151371300Y-127215900D03*
X158330900Y-126199900D03*
X154368500Y-129857500D03*
X149999700Y-130670300D03*
X153024138Y-130633836D03*
X158026100Y-137883900D03*
X154978100Y-134886700D03*
X154825700Y-130873500D03*
X153250900Y-137833100D03*
X147154900Y-137477500D03*
X146088100Y-137528300D03*
X138620500Y-137528300D03*
X159245300Y-126961900D03*
X161836100Y-129146300D03*
X158991300Y-132194300D03*
X140271500Y-136652000D03*
X136438300Y-136817100D03*
X136334500Y-141998700D03*
X134200900Y-141998700D03*
X131000500Y-145554700D03*
X123833947Y-143366547D03*
X143040100Y-130531700D03*
X139912397Y-130742997D03*
X138264900Y-126250700D03*
X132321300Y-127266700D03*
X138240999Y-146495999D03*
X119824500Y-123304300D03*
X142684500Y-142430500D03*
X132334000Y-133731000D03*
X154305000Y-146494500D03*
X151955001Y-143764499D03*
X165290500Y-132334000D03*
X117094000Y-135191500D03*
X118618000Y-127063500D03*
X125349000Y-136652000D03*
X128905000Y-136652000D03*
X162560000Y-137096500D03*
X115951000Y-145542000D03*
X156337000Y-130365500D03*
X152717500Y-126873000D03*
X155257500Y-127127000D03*
X143182100Y-133614400D03*
X153352500Y-133477000D03*
X145796000Y-127063500D03*
X148082000Y-134239000D03*
X156210000Y-138811000D03*
X159385000Y-135064500D03*
X117919500Y-138049000D03*
X144106900Y-134581900D03*
X140804900Y-134531100D03*
X138874500Y-132549900D03*
X140804900Y-132549900D03*
X132930900Y-148569490D03*
X112763300Y-141947900D03*
X139026900Y-126911100D03*
X135064500Y-121069100D03*
X118046500Y-121424700D03*
X154673300Y-137883900D03*
X119164100Y-135496300D03*
X133997700Y-134581900D03*
X123837700Y-134429500D03*
X120747337Y-129662737D03*
X128003300Y-133261100D03*
X132016500Y-132360500D03*
X125310900Y-126809500D03*
X120840500Y-122149700D03*
X160464500Y-138188700D03*
X124548900Y-131635500D03*
X122313700Y-122149700D03*
X149796500Y-149019500D03*
X137000070Y-149019500D03*
X140296900Y-148145500D03*
X130390900Y-149019500D03*
X139337852Y-146424452D03*
X131711700Y-144691100D03*
X137198100Y-129806700D03*
X149034500Y-129908300D03*
X137909300Y-138798300D03*
X151574500Y-138544300D03*
X150724700Y-133401118D03*
X149085300Y-133515100D03*
X138830224Y-144880089D03*
X141465300Y-144386300D03*
X140303052Y-145459252D03*
X140351899Y-142049500D03*
D22*
X147104100Y-127215900D02*
X151371300Y-127215900D01*
X171246800Y-126199900D02*
X172681900Y-124764800D01*
X158330900Y-126199900D02*
X171246800Y-126199900D01*
X150056599Y-142779499D02*
X147281900Y-140004800D01*
X161702499Y-142779499D02*
X150056599Y-142779499D01*
X162877500Y-143954500D02*
X161702499Y-142779499D01*
X157441900Y-126784100D02*
X157441900Y-124764800D01*
X154368500Y-129857500D02*
X157441900Y-126784100D01*
X152987674Y-130670300D02*
X153024138Y-130633836D01*
X149999700Y-130670300D02*
X152987674Y-130670300D01*
X155028900Y-134886700D02*
X154978100Y-134886700D01*
X158026100Y-137883900D02*
X155028900Y-134886700D01*
X153643499Y-126023201D02*
X154901900Y-124764800D01*
X153643499Y-130256984D02*
X153643499Y-126023201D01*
X154260015Y-130873500D02*
X153643499Y-130256984D01*
X154825700Y-130873500D02*
X154260015Y-130873500D01*
X152895300Y-137477500D02*
X147154900Y-137477500D01*
X153250900Y-137833100D02*
X152895300Y-137477500D01*
X146088100Y-137528300D02*
X138620500Y-137528300D01*
X172212000Y-144081500D02*
X175196500Y-147066000D01*
X172212000Y-143954500D02*
X172212000Y-144081500D01*
X168529000Y-147066000D02*
X175196500Y-147066000D01*
X165417500Y-143954500D02*
X168529000Y-147066000D01*
X101892100Y-144233900D02*
X99060000Y-147066000D01*
X106781600Y-144233900D02*
X101892100Y-144233900D01*
X160694010Y-128410610D02*
X159245300Y-126961900D01*
X172193309Y-125889801D02*
X169672500Y-128410610D01*
X173221901Y-125889801D02*
X172193309Y-125889801D01*
X173806901Y-125304801D02*
X173221901Y-125889801D01*
X173806901Y-120198099D02*
X173806901Y-125304801D01*
X175196500Y-118808500D02*
X173806901Y-120198099D01*
X161836100Y-128485900D02*
X161760810Y-128410610D01*
X161836100Y-129146300D02*
X161836100Y-128485900D01*
X161760810Y-128410610D02*
X160694010Y-128410610D01*
X169672500Y-128410610D02*
X161760810Y-128410610D01*
X163646901Y-142183901D02*
X165417500Y-143954500D01*
X163646901Y-136849901D02*
X163646901Y-142183901D01*
X158991300Y-132194300D02*
X163646901Y-136849901D01*
X136452100Y-136803300D02*
X136438300Y-136817100D01*
X141617700Y-136803300D02*
X136452100Y-136803300D01*
X136334500Y-141998700D02*
X134200900Y-141998700D01*
X128812347Y-143366547D02*
X123833947Y-143366547D01*
X131000500Y-145554700D02*
X128812347Y-143366547D01*
X140123694Y-130531700D02*
X139912397Y-130742997D01*
X143040100Y-130531700D02*
X140123694Y-130531700D01*
X137248900Y-127266700D02*
X132321300Y-127266700D01*
X138264900Y-126250700D02*
X137248900Y-127266700D01*
X138240999Y-146495999D02*
X137353498Y-147383500D01*
X132829300Y-147383500D02*
X131000500Y-145554700D01*
X137353498Y-147383500D02*
X132829300Y-147383500D01*
X116478198Y-121920000D02*
X113893600Y-121920000D01*
X119589698Y-118808500D02*
X116478198Y-121920000D01*
X127635000Y-118808500D02*
X119589698Y-118808500D01*
X117862498Y-123304300D02*
X119824500Y-123304300D01*
X116478198Y-121920000D02*
X117862498Y-123304300D01*
X140855700Y-134581900D02*
X140804900Y-134531100D01*
X144106900Y-134581900D02*
X140855700Y-134581900D01*
X109943900Y-142316200D02*
X111861600Y-144233900D01*
X103758300Y-142316200D02*
X109943900Y-142316200D01*
X138874500Y-132549900D02*
X140804900Y-132549900D01*
X113512001Y-141199199D02*
X112763300Y-141947900D01*
X121289599Y-141199199D02*
X113512001Y-141199199D01*
X123108946Y-143714548D02*
X123108946Y-143018546D01*
X123108946Y-143018546D02*
X121289599Y-141199199D01*
X123485946Y-144091548D02*
X123108946Y-143714548D01*
X128452958Y-144091548D02*
X123485946Y-144091548D01*
X132930900Y-148569490D02*
X128452958Y-144091548D01*
X139180602Y-126911100D02*
X139026900Y-126911100D01*
X140786901Y-125304801D02*
X139180602Y-126911100D01*
X140786901Y-124514797D02*
X140786901Y-125304801D01*
X141661899Y-123639799D02*
X140786901Y-124514797D01*
X153855201Y-123639799D02*
X141661899Y-123639799D01*
X157797500Y-119697500D02*
X153855201Y-123639799D01*
X134708900Y-121424700D02*
X118046500Y-121424700D01*
X135064500Y-121069100D02*
X134708900Y-121424700D01*
X152285700Y-135496300D02*
X119164100Y-135496300D01*
X154673300Y-137883900D02*
X152285700Y-135496300D01*
X123990100Y-134581900D02*
X123837700Y-134429500D01*
X133997700Y-134581900D02*
X123990100Y-134581900D01*
X120675400Y-129590800D02*
X120747337Y-129662737D01*
X118579900Y-129590800D02*
X120675400Y-129590800D01*
X128903900Y-132360500D02*
X132016500Y-132360500D01*
X128003300Y-133261100D02*
X128903900Y-132360500D01*
X120840500Y-122339100D02*
X120840500Y-122149700D01*
X125310900Y-126809500D02*
X120840500Y-122339100D01*
X153911300Y-131635500D02*
X124548900Y-131635500D01*
X160464500Y-138188700D02*
X153911300Y-131635500D01*
X127012700Y-126848700D02*
X122313700Y-122149700D01*
X127012700Y-129489200D02*
X127012700Y-126848700D01*
X106908600Y-129705100D02*
X109448600Y-127165100D01*
X104368600Y-129705100D02*
X106908600Y-129705100D01*
X111188500Y-127165100D02*
X113893600Y-124460000D01*
X109448600Y-127165100D02*
X111188500Y-127165100D01*
X104368600Y-122085100D02*
X109448600Y-127165100D01*
X104368600Y-119545100D02*
X104368600Y-122085100D01*
X149796500Y-149019500D02*
X137000070Y-149019500D01*
X154368500Y-148145500D02*
X158559500Y-143954500D01*
X140296900Y-148145500D02*
X154368500Y-148145500D01*
X135674100Y-149272468D02*
X135674100Y-149294490D01*
X136801068Y-148145500D02*
X135674100Y-149272468D01*
X140296900Y-148145500D02*
X136801068Y-148145500D01*
X130665890Y-149294490D02*
X130390900Y-149019500D01*
X135674100Y-149294490D02*
X130665890Y-149294490D01*
X137604500Y-144691100D02*
X131711700Y-144691100D01*
X139337852Y-146424452D02*
X137604500Y-144691100D01*
X152808048Y-146424452D02*
X139337852Y-146424452D01*
X154178000Y-145054500D02*
X152808048Y-146424452D01*
X154178000Y-143954500D02*
X154178000Y-145054500D01*
X171266901Y-134101299D02*
X172932600Y-132435600D01*
X171266901Y-142359599D02*
X171266901Y-134101299D01*
X169672000Y-143954500D02*
X171266901Y-142359599D01*
X148932900Y-129806700D02*
X149034500Y-129908300D01*
X137198100Y-129806700D02*
X148932900Y-129806700D01*
X151320500Y-138798300D02*
X151574500Y-138544300D01*
X137909300Y-138798300D02*
X151320500Y-138798300D01*
X149199282Y-133401118D02*
X149085300Y-133515100D01*
X150724700Y-133401118D02*
X149199282Y-133401118D01*
X141465300Y-142089899D02*
X141465300Y-144386300D01*
X140699900Y-141324499D02*
X141465300Y-142089899D01*
X140003898Y-141324499D02*
X140699900Y-141324499D01*
X138830224Y-142498173D02*
X140003898Y-141324499D01*
X138830224Y-144880089D02*
X138830224Y-142498173D01*
X140303052Y-142098347D02*
X140351899Y-142049500D01*
X140303052Y-145459252D02*
X140303052Y-142098347D01*
D23*
X125824830Y-116818725D02*
X127635000Y-118628895D01*
X129445170Y-116818725D01*
X129371233Y-116699500D01*
X173460267Y-116699500D01*
X173386330Y-116818725D01*
X175196500Y-118628895D01*
X175210643Y-118614753D01*
X175390248Y-118794358D01*
X175376105Y-118808500D01*
X175390248Y-118822643D01*
X175210643Y-119002248D01*
X175196500Y-118988105D01*
X173386330Y-120798275D01*
X173626476Y-121185518D01*
X174120377Y-121446141D01*
X174655633Y-121605401D01*
X175211674Y-121657178D01*
X175767132Y-121599481D01*
X176300661Y-121434528D01*
X176766524Y-121185518D01*
X177006669Y-120798277D01*
X177051501Y-120843109D01*
X177051500Y-145031392D01*
X177006669Y-145076223D01*
X176766524Y-144688982D01*
X176272623Y-144428359D01*
X175737367Y-144269099D01*
X175181326Y-144217322D01*
X174625868Y-144275019D01*
X174092339Y-144439972D01*
X173699231Y-144650093D01*
X173697000Y-144240250D01*
X173538250Y-144081500D01*
X172339000Y-144081500D01*
X172339000Y-145280750D01*
X172497750Y-145439500D01*
X172906959Y-145441728D01*
X172819482Y-145495976D01*
X172558859Y-145989877D01*
X172399599Y-146525133D01*
X172347822Y-147081174D01*
X172405519Y-147636632D01*
X172570472Y-148170161D01*
X172819482Y-148636024D01*
X173206723Y-148876169D01*
X173098392Y-148984500D01*
X150831500Y-148984500D01*
X150831500Y-148917561D01*
X150829101Y-148905500D01*
X154331178Y-148905500D01*
X154368500Y-148909176D01*
X154405822Y-148905500D01*
X154405833Y-148905500D01*
X154517486Y-148894503D01*
X154660747Y-148851046D01*
X154792776Y-148780474D01*
X154908501Y-148685501D01*
X154932304Y-148656497D01*
X158146230Y-145442572D01*
X159409500Y-145442572D01*
X159533982Y-145430312D01*
X159653680Y-145394002D01*
X159763994Y-145335037D01*
X159860685Y-145255685D01*
X159940037Y-145158994D01*
X159999002Y-145048680D01*
X160035312Y-144928982D01*
X160047572Y-144804500D01*
X160047572Y-143539499D01*
X161387698Y-143539499D01*
X161436291Y-143588092D01*
X161392500Y-143808240D01*
X161392500Y-144100760D01*
X161449568Y-144387658D01*
X161561510Y-144657911D01*
X161724025Y-144901132D01*
X161930868Y-145107975D01*
X162174089Y-145270490D01*
X162444342Y-145382432D01*
X162731240Y-145439500D01*
X163023760Y-145439500D01*
X163310658Y-145382432D01*
X163580911Y-145270490D01*
X163824132Y-145107975D01*
X163955987Y-144976120D01*
X163977998Y-145048680D01*
X164036963Y-145158994D01*
X164116315Y-145255685D01*
X164213006Y-145335037D01*
X164323320Y-145394002D01*
X164443018Y-145430312D01*
X164567500Y-145442572D01*
X165131750Y-145439500D01*
X165290500Y-145280750D01*
X165290500Y-144081500D01*
X165544500Y-144081500D01*
X165544500Y-145280750D01*
X165703250Y-145439500D01*
X166267500Y-145442572D01*
X166391982Y-145430312D01*
X166511680Y-145394002D01*
X166621994Y-145335037D01*
X166718685Y-145255685D01*
X166798037Y-145158994D01*
X166857002Y-145048680D01*
X166893312Y-144928982D01*
X166905572Y-144804500D01*
X166902500Y-144240250D01*
X166743750Y-144081500D01*
X165544500Y-144081500D01*
X165290500Y-144081500D01*
X165270500Y-144081500D01*
X165270500Y-143827500D01*
X165290500Y-143827500D01*
X165290500Y-142628250D01*
X165544500Y-142628250D01*
X165544500Y-143827500D01*
X166743750Y-143827500D01*
X166902500Y-143668750D01*
X166905572Y-143104500D01*
X166893312Y-142980018D01*
X166857002Y-142860320D01*
X166798037Y-142750006D01*
X166718685Y-142653315D01*
X166621994Y-142573963D01*
X166511680Y-142514998D01*
X166391982Y-142478688D01*
X166267500Y-142466428D01*
X165703250Y-142469500D01*
X165544500Y-142628250D01*
X165290500Y-142628250D01*
X165131750Y-142469500D01*
X164567500Y-142466428D01*
X164443018Y-142478688D01*
X164323320Y-142514998D01*
X164213006Y-142573963D01*
X164116315Y-142653315D01*
X164036963Y-142750006D01*
X163977998Y-142860320D01*
X163955987Y-142932880D01*
X163824132Y-142801025D01*
X163580911Y-142638510D01*
X163310658Y-142526568D01*
X163023760Y-142469500D01*
X162731240Y-142469500D01*
X162511092Y-142513291D01*
X162266303Y-142268502D01*
X162242500Y-142239498D01*
X162126775Y-142144525D01*
X161994746Y-142073953D01*
X161851485Y-142030496D01*
X161739832Y-142019499D01*
X161739821Y-142019499D01*
X161702499Y-142015823D01*
X161665177Y-142019499D01*
X150371401Y-142019499D01*
X149791702Y-141439800D01*
X149963235Y-141439800D01*
X150240474Y-141384653D01*
X150501627Y-141276480D01*
X150736659Y-141119437D01*
X150936537Y-140919559D01*
X151091900Y-140687041D01*
X151247263Y-140919559D01*
X151447141Y-141119437D01*
X151682173Y-141276480D01*
X151943326Y-141384653D01*
X152220565Y-141439800D01*
X152503235Y-141439800D01*
X152780474Y-141384653D01*
X153041627Y-141276480D01*
X153276659Y-141119437D01*
X153476537Y-140919559D01*
X153631900Y-140687041D01*
X153787263Y-140919559D01*
X153987141Y-141119437D01*
X154222173Y-141276480D01*
X154483326Y-141384653D01*
X154760565Y-141439800D01*
X155043235Y-141439800D01*
X155320474Y-141384653D01*
X155581627Y-141276480D01*
X155816659Y-141119437D01*
X156016537Y-140919559D01*
X156171900Y-140687041D01*
X156327263Y-140919559D01*
X156527141Y-141119437D01*
X156762173Y-141276480D01*
X157023326Y-141384653D01*
X157300565Y-141439800D01*
X157583235Y-141439800D01*
X157860474Y-141384653D01*
X158121627Y-141276480D01*
X158356659Y-141119437D01*
X158556537Y-140919559D01*
X158711900Y-140687041D01*
X158867263Y-140919559D01*
X159067141Y-141119437D01*
X159302173Y-141276480D01*
X159563326Y-141384653D01*
X159840565Y-141439800D01*
X160123235Y-141439800D01*
X160400474Y-141384653D01*
X160661627Y-141276480D01*
X160896659Y-141119437D01*
X161096537Y-140919559D01*
X161251900Y-140687041D01*
X161407263Y-140919559D01*
X161607141Y-141119437D01*
X161842173Y-141276480D01*
X162103326Y-141384653D01*
X162380565Y-141439800D01*
X162663235Y-141439800D01*
X162940474Y-141384653D01*
X163201627Y-141276480D01*
X163436659Y-141119437D01*
X163636537Y-140919559D01*
X163791900Y-140687041D01*
X163947263Y-140919559D01*
X164147141Y-141119437D01*
X164382173Y-141276480D01*
X164643326Y-141384653D01*
X164920565Y-141439800D01*
X165203235Y-141439800D01*
X165480474Y-141384653D01*
X165741627Y-141276480D01*
X165976659Y-141119437D01*
X166176537Y-140919559D01*
X166331900Y-140687041D01*
X166487263Y-140919559D01*
X166687141Y-141119437D01*
X166922173Y-141276480D01*
X167183326Y-141384653D01*
X167460565Y-141439800D01*
X167743235Y-141439800D01*
X168020474Y-141384653D01*
X168281627Y-141276480D01*
X168516659Y-141119437D01*
X168716537Y-140919559D01*
X168871900Y-140687041D01*
X169027263Y-140919559D01*
X169227141Y-141119437D01*
X169462173Y-141276480D01*
X169723326Y-141384653D01*
X170000565Y-141439800D01*
X170283235Y-141439800D01*
X170506901Y-141395309D01*
X170506901Y-142044797D01*
X170038408Y-142513290D01*
X169818260Y-142469500D01*
X169525740Y-142469500D01*
X169238842Y-142526568D01*
X168968589Y-142638510D01*
X168725368Y-142801025D01*
X168518525Y-143007868D01*
X168356010Y-143251089D01*
X168244068Y-143521342D01*
X168187000Y-143808240D01*
X168187000Y-144100760D01*
X168244068Y-144387658D01*
X168356010Y-144657911D01*
X168518525Y-144901132D01*
X168725368Y-145107975D01*
X168968589Y-145270490D01*
X169238842Y-145382432D01*
X169525740Y-145439500D01*
X169818260Y-145439500D01*
X170105158Y-145382432D01*
X170375411Y-145270490D01*
X170618632Y-145107975D01*
X170750487Y-144976120D01*
X170772498Y-145048680D01*
X170831463Y-145158994D01*
X170910815Y-145255685D01*
X171007506Y-145335037D01*
X171117820Y-145394002D01*
X171237518Y-145430312D01*
X171362000Y-145442572D01*
X171926250Y-145439500D01*
X172085000Y-145280750D01*
X172085000Y-144081500D01*
X172065000Y-144081500D01*
X172065000Y-143827500D01*
X172085000Y-143827500D01*
X172085000Y-142628250D01*
X172339000Y-142628250D01*
X172339000Y-143827500D01*
X173538250Y-143827500D01*
X173697000Y-143668750D01*
X173700072Y-143104500D01*
X173687812Y-142980018D01*
X173651502Y-142860320D01*
X173592537Y-142750006D01*
X173513185Y-142653315D01*
X173416494Y-142573963D01*
X173306180Y-142514998D01*
X173186482Y-142478688D01*
X173062000Y-142466428D01*
X172497750Y-142469500D01*
X172339000Y-142628250D01*
X172085000Y-142628250D01*
X172004135Y-142547385D01*
X172015904Y-142508585D01*
X172026901Y-142396932D01*
X172026901Y-142396931D01*
X172030578Y-142359599D01*
X172026901Y-142322266D01*
X172026901Y-141286723D01*
X172263326Y-141384653D01*
X172540565Y-141439800D01*
X172823235Y-141439800D01*
X173100474Y-141384653D01*
X173361627Y-141276480D01*
X173596659Y-141119437D01*
X173796537Y-140919559D01*
X173951900Y-140687041D01*
X174107263Y-140919559D01*
X174307141Y-141119437D01*
X174542173Y-141276480D01*
X174803326Y-141384653D01*
X175080565Y-141439800D01*
X175363235Y-141439800D01*
X175640474Y-141384653D01*
X175901627Y-141276480D01*
X176136659Y-141119437D01*
X176336537Y-140919559D01*
X176493580Y-140684527D01*
X176601753Y-140423374D01*
X176656900Y-140146135D01*
X176656900Y-139863465D01*
X176601753Y-139586226D01*
X176493580Y-139325073D01*
X176336537Y-139090041D01*
X176136659Y-138890163D01*
X175901627Y-138733120D01*
X175686956Y-138644201D01*
X175792836Y-138623140D01*
X176017592Y-138530043D01*
X176219867Y-138394887D01*
X176391887Y-138222867D01*
X176527043Y-138020592D01*
X176620140Y-137795836D01*
X176667600Y-137557237D01*
X176667600Y-137313963D01*
X176620140Y-137075364D01*
X176527043Y-136850608D01*
X176391887Y-136648333D01*
X176219867Y-136476313D01*
X176017592Y-136341157D01*
X175792836Y-136248060D01*
X175554237Y-136200600D01*
X175310963Y-136200600D01*
X175072364Y-136248060D01*
X174847608Y-136341157D01*
X174645333Y-136476313D01*
X174473313Y-136648333D01*
X174338157Y-136850608D01*
X174245060Y-137075364D01*
X174197600Y-137313963D01*
X174197600Y-137557237D01*
X174245060Y-137795836D01*
X174338157Y-138020592D01*
X174473313Y-138222867D01*
X174645333Y-138394887D01*
X174847608Y-138530043D01*
X174988028Y-138588207D01*
X174803326Y-138624947D01*
X174542173Y-138733120D01*
X174307141Y-138890163D01*
X174107263Y-139090041D01*
X173951900Y-139322559D01*
X173796537Y-139090041D01*
X173596659Y-138890163D01*
X173361627Y-138733120D01*
X173159933Y-138649576D01*
X173292836Y-138623140D01*
X173517592Y-138530043D01*
X173719867Y-138394887D01*
X173891887Y-138222867D01*
X174027043Y-138020592D01*
X174120140Y-137795836D01*
X174167600Y-137557237D01*
X174167600Y-137313963D01*
X174120140Y-137075364D01*
X174027043Y-136850608D01*
X173891887Y-136648333D01*
X173719867Y-136476313D01*
X173517592Y-136341157D01*
X173292836Y-136248060D01*
X173054237Y-136200600D01*
X172810963Y-136200600D01*
X172572364Y-136248060D01*
X172347608Y-136341157D01*
X172145333Y-136476313D01*
X172026901Y-136594745D01*
X172026901Y-134416100D01*
X172259914Y-134183087D01*
X172438474Y-134278529D01*
X172680697Y-134352007D01*
X172932600Y-134376817D01*
X173184504Y-134352007D01*
X173426727Y-134278529D01*
X173649962Y-134159208D01*
X173845628Y-133998628D01*
X174006208Y-133802962D01*
X174125529Y-133579727D01*
X174199007Y-133337504D01*
X174217600Y-133148723D01*
X174217600Y-131722477D01*
X174199007Y-131533696D01*
X174125529Y-131291473D01*
X174006208Y-131068238D01*
X173845628Y-130872572D01*
X173649961Y-130711992D01*
X173426726Y-130592671D01*
X173184503Y-130519193D01*
X172932600Y-130494383D01*
X172680696Y-130519193D01*
X172438473Y-130592671D01*
X172215238Y-130711992D01*
X172019572Y-130872572D01*
X171858992Y-131068239D01*
X171739671Y-131291474D01*
X171666193Y-131533697D01*
X171647600Y-131722478D01*
X171647600Y-132645798D01*
X170755899Y-133537500D01*
X170726901Y-133561298D01*
X170703103Y-133590296D01*
X170703102Y-133590297D01*
X170631927Y-133677023D01*
X170561355Y-133809053D01*
X170536953Y-133889499D01*
X170521824Y-133939376D01*
X170517899Y-133952314D01*
X170503225Y-134101299D01*
X170506902Y-134138631D01*
X170506901Y-138614291D01*
X170283235Y-138569800D01*
X170000565Y-138569800D01*
X169723326Y-138624947D01*
X169462173Y-138733120D01*
X169227141Y-138890163D01*
X169027263Y-139090041D01*
X168871900Y-139322559D01*
X168716537Y-139090041D01*
X168516659Y-138890163D01*
X168281627Y-138733120D01*
X168251401Y-138720600D01*
X168645723Y-138720600D01*
X168834504Y-138702007D01*
X169076727Y-138628529D01*
X169299962Y-138509208D01*
X169495628Y-138348628D01*
X169656208Y-138152962D01*
X169775529Y-137929727D01*
X169849007Y-137687504D01*
X169873817Y-137435600D01*
X169849007Y-137183696D01*
X169775529Y-136941473D01*
X169656208Y-136718238D01*
X169495628Y-136522572D01*
X169299962Y-136361992D01*
X169076727Y-136242671D01*
X168888590Y-136185600D01*
X169076727Y-136128529D01*
X169299962Y-136009208D01*
X169495628Y-135848628D01*
X169656208Y-135652962D01*
X169775529Y-135429727D01*
X169849007Y-135187504D01*
X169873817Y-134935600D01*
X169849007Y-134683696D01*
X169775529Y-134441473D01*
X169656208Y-134218238D01*
X169495628Y-134022572D01*
X169299962Y-133861992D01*
X169076727Y-133742671D01*
X168834504Y-133669193D01*
X168645723Y-133650600D01*
X168154784Y-133650600D01*
X168292836Y-133623140D01*
X168517592Y-133530043D01*
X168719867Y-133394887D01*
X168891887Y-133222867D01*
X169027043Y-133020592D01*
X169120140Y-132795836D01*
X169167600Y-132557237D01*
X169167600Y-132313963D01*
X169120140Y-132075364D01*
X169027043Y-131850608D01*
X168891887Y-131648333D01*
X168719867Y-131476313D01*
X168517592Y-131341157D01*
X168292836Y-131248060D01*
X168154784Y-131220600D01*
X168645723Y-131220600D01*
X168834504Y-131202007D01*
X169076727Y-131128529D01*
X169299962Y-131009208D01*
X169495628Y-130848628D01*
X169656208Y-130652962D01*
X169775529Y-130429727D01*
X169849007Y-130187504D01*
X169873817Y-129935600D01*
X169849007Y-129683696D01*
X169775529Y-129441473D01*
X169656208Y-129218238D01*
X169495628Y-129022572D01*
X169299962Y-128861992D01*
X169076727Y-128742671D01*
X168888590Y-128685600D01*
X169076727Y-128628529D01*
X169299962Y-128509208D01*
X169495628Y-128348628D01*
X169656208Y-128152962D01*
X169775529Y-127929727D01*
X169849007Y-127687504D01*
X169873817Y-127435600D01*
X169861837Y-127313963D01*
X171697600Y-127313963D01*
X171697600Y-127557237D01*
X171745060Y-127795836D01*
X171838157Y-128020592D01*
X171973313Y-128222867D01*
X172145333Y-128394887D01*
X172347608Y-128530043D01*
X172572364Y-128623140D01*
X172810963Y-128670600D01*
X173054237Y-128670600D01*
X173292836Y-128623140D01*
X173517592Y-128530043D01*
X173719867Y-128394887D01*
X173891887Y-128222867D01*
X174027043Y-128020592D01*
X174120140Y-127795836D01*
X174167600Y-127557237D01*
X174167600Y-127313963D01*
X174197600Y-127313963D01*
X174197600Y-127557237D01*
X174245060Y-127795836D01*
X174338157Y-128020592D01*
X174473313Y-128222867D01*
X174645333Y-128394887D01*
X174847608Y-128530043D01*
X175072364Y-128623140D01*
X175310963Y-128670600D01*
X175554237Y-128670600D01*
X175792836Y-128623140D01*
X176017592Y-128530043D01*
X176219867Y-128394887D01*
X176391887Y-128222867D01*
X176527043Y-128020592D01*
X176620140Y-127795836D01*
X176667600Y-127557237D01*
X176667600Y-127313963D01*
X176620140Y-127075364D01*
X176527043Y-126850608D01*
X176391887Y-126648333D01*
X176219867Y-126476313D01*
X176017592Y-126341157D01*
X175792836Y-126248060D01*
X175554237Y-126200600D01*
X175310963Y-126200600D01*
X175072364Y-126248060D01*
X174847608Y-126341157D01*
X174645333Y-126476313D01*
X174473313Y-126648333D01*
X174338157Y-126850608D01*
X174245060Y-127075364D01*
X174197600Y-127313963D01*
X174167600Y-127313963D01*
X174120140Y-127075364D01*
X174027043Y-126850608D01*
X173891887Y-126648333D01*
X173719867Y-126476313D01*
X173517592Y-126341157D01*
X173292836Y-126248060D01*
X173054237Y-126200600D01*
X172810963Y-126200600D01*
X172572364Y-126248060D01*
X172347608Y-126341157D01*
X172145333Y-126476313D01*
X171973313Y-126648333D01*
X171838157Y-126850608D01*
X171745060Y-127075364D01*
X171697600Y-127313963D01*
X169861837Y-127313963D01*
X169849007Y-127183696D01*
X169781119Y-126959900D01*
X171209478Y-126959900D01*
X171246800Y-126963576D01*
X171284122Y-126959900D01*
X171284133Y-126959900D01*
X171395786Y-126948903D01*
X171539047Y-126905446D01*
X171671076Y-126834874D01*
X171786801Y-126739901D01*
X171810604Y-126710897D01*
X172358014Y-126163488D01*
X172540565Y-126199800D01*
X172823235Y-126199800D01*
X173100474Y-126144653D01*
X173361627Y-126036480D01*
X173596659Y-125879437D01*
X173796537Y-125679559D01*
X173951900Y-125447041D01*
X174107263Y-125679559D01*
X174307141Y-125879437D01*
X174542173Y-126036480D01*
X174803326Y-126144653D01*
X175080565Y-126199800D01*
X175363235Y-126199800D01*
X175640474Y-126144653D01*
X175901627Y-126036480D01*
X176136659Y-125879437D01*
X176336537Y-125679559D01*
X176493580Y-125444527D01*
X176601753Y-125183374D01*
X176656900Y-124906135D01*
X176656900Y-124623465D01*
X176601753Y-124346226D01*
X176493580Y-124085073D01*
X176336537Y-123850041D01*
X176136659Y-123650163D01*
X175901627Y-123493120D01*
X175640474Y-123384947D01*
X175363235Y-123329800D01*
X175080565Y-123329800D01*
X174803326Y-123384947D01*
X174542173Y-123493120D01*
X174307141Y-123650163D01*
X174107263Y-123850041D01*
X173951900Y-124082559D01*
X173796537Y-123850041D01*
X173596659Y-123650163D01*
X173361627Y-123493120D01*
X173100474Y-123384947D01*
X172823235Y-123329800D01*
X172540565Y-123329800D01*
X172263326Y-123384947D01*
X172002173Y-123493120D01*
X171767141Y-123650163D01*
X171567263Y-123850041D01*
X171411900Y-124082559D01*
X171256537Y-123850041D01*
X171056659Y-123650163D01*
X170821627Y-123493120D01*
X170560474Y-123384947D01*
X170283235Y-123329800D01*
X170000565Y-123329800D01*
X169723326Y-123384947D01*
X169462173Y-123493120D01*
X169227141Y-123650163D01*
X169027263Y-123850041D01*
X168871900Y-124082559D01*
X168716537Y-123850041D01*
X168516659Y-123650163D01*
X168281627Y-123493120D01*
X168020474Y-123384947D01*
X167743235Y-123329800D01*
X167460565Y-123329800D01*
X167183326Y-123384947D01*
X166922173Y-123493120D01*
X166687141Y-123650163D01*
X166487263Y-123850041D01*
X166331900Y-124082559D01*
X166176537Y-123850041D01*
X165976659Y-123650163D01*
X165741627Y-123493120D01*
X165480474Y-123384947D01*
X165203235Y-123329800D01*
X164920565Y-123329800D01*
X164643326Y-123384947D01*
X164382173Y-123493120D01*
X164147141Y-123650163D01*
X163947263Y-123850041D01*
X163791900Y-124082559D01*
X163636537Y-123850041D01*
X163436659Y-123650163D01*
X163201627Y-123493120D01*
X162940474Y-123384947D01*
X162663235Y-123329800D01*
X162380565Y-123329800D01*
X162103326Y-123384947D01*
X161842173Y-123493120D01*
X161607141Y-123650163D01*
X161407263Y-123850041D01*
X161251900Y-124082559D01*
X161096537Y-123850041D01*
X160896659Y-123650163D01*
X160661627Y-123493120D01*
X160400474Y-123384947D01*
X160123235Y-123329800D01*
X159840565Y-123329800D01*
X159563326Y-123384947D01*
X159302173Y-123493120D01*
X159067141Y-123650163D01*
X158867263Y-123850041D01*
X158711900Y-124082559D01*
X158556537Y-123850041D01*
X158356659Y-123650163D01*
X158121627Y-123493120D01*
X157860474Y-123384947D01*
X157583235Y-123329800D01*
X157300565Y-123329800D01*
X157023326Y-123384947D01*
X156762173Y-123493120D01*
X156527141Y-123650163D01*
X156327263Y-123850041D01*
X156171900Y-124082559D01*
X156016537Y-123850041D01*
X155816659Y-123650163D01*
X155581627Y-123493120D01*
X155320474Y-123384947D01*
X155207355Y-123362446D01*
X157384230Y-121185572D01*
X158647500Y-121185572D01*
X158771982Y-121173312D01*
X158891680Y-121137002D01*
X159001994Y-121078037D01*
X159098685Y-120998685D01*
X159178037Y-120901994D01*
X159237002Y-120791680D01*
X159273312Y-120671982D01*
X159285572Y-120547500D01*
X159285572Y-118847500D01*
X159273312Y-118723018D01*
X159272549Y-118720500D01*
X160563928Y-118720500D01*
X160563928Y-120420500D01*
X160576188Y-120544982D01*
X160612498Y-120664680D01*
X160671463Y-120774994D01*
X160750815Y-120871685D01*
X160847506Y-120951037D01*
X160957820Y-121010002D01*
X161077518Y-121046312D01*
X161202000Y-121058572D01*
X162902000Y-121058572D01*
X163026482Y-121046312D01*
X163146180Y-121010002D01*
X163256494Y-120951037D01*
X163353185Y-120871685D01*
X163432537Y-120774994D01*
X163491502Y-120664680D01*
X163513513Y-120592120D01*
X163645368Y-120723975D01*
X163888589Y-120886490D01*
X164158842Y-120998432D01*
X164445740Y-121055500D01*
X164738260Y-121055500D01*
X165025158Y-120998432D01*
X165295411Y-120886490D01*
X165538632Y-120723975D01*
X165745475Y-120517132D01*
X165907990Y-120273911D01*
X166019932Y-120003658D01*
X166077000Y-119716760D01*
X166077000Y-119424240D01*
X166019932Y-119137342D01*
X165907990Y-118867089D01*
X165894902Y-118847500D01*
X167358428Y-118847500D01*
X167358428Y-120547500D01*
X167370688Y-120671982D01*
X167406998Y-120791680D01*
X167465963Y-120901994D01*
X167545315Y-120998685D01*
X167642006Y-121078037D01*
X167752320Y-121137002D01*
X167872018Y-121173312D01*
X167996500Y-121185572D01*
X169696500Y-121185572D01*
X169820982Y-121173312D01*
X169940680Y-121137002D01*
X170050994Y-121078037D01*
X170147685Y-120998685D01*
X170227037Y-120901994D01*
X170286002Y-120791680D01*
X170322312Y-120671982D01*
X170334572Y-120547500D01*
X170334572Y-118847500D01*
X170332226Y-118823674D01*
X172347822Y-118823674D01*
X172405519Y-119379132D01*
X172570472Y-119912661D01*
X172819482Y-120378524D01*
X173206725Y-120618670D01*
X175016895Y-118808500D01*
X173206725Y-116998330D01*
X172819482Y-117238476D01*
X172558859Y-117732377D01*
X172399599Y-118267633D01*
X172347822Y-118823674D01*
X170332226Y-118823674D01*
X170322312Y-118723018D01*
X170286002Y-118603320D01*
X170227037Y-118493006D01*
X170147685Y-118396315D01*
X170050994Y-118316963D01*
X169940680Y-118257998D01*
X169820982Y-118221688D01*
X169696500Y-118209428D01*
X167996500Y-118209428D01*
X167872018Y-118221688D01*
X167752320Y-118257998D01*
X167642006Y-118316963D01*
X167545315Y-118396315D01*
X167465963Y-118493006D01*
X167406998Y-118603320D01*
X167370688Y-118723018D01*
X167358428Y-118847500D01*
X165894902Y-118847500D01*
X165745475Y-118623868D01*
X165538632Y-118417025D01*
X165295411Y-118254510D01*
X165025158Y-118142568D01*
X164738260Y-118085500D01*
X164445740Y-118085500D01*
X164158842Y-118142568D01*
X163888589Y-118254510D01*
X163645368Y-118417025D01*
X163513513Y-118548880D01*
X163491502Y-118476320D01*
X163432537Y-118366006D01*
X163353185Y-118269315D01*
X163256494Y-118189963D01*
X163146180Y-118130998D01*
X163026482Y-118094688D01*
X162902000Y-118082428D01*
X161202000Y-118082428D01*
X161077518Y-118094688D01*
X160957820Y-118130998D01*
X160847506Y-118189963D01*
X160750815Y-118269315D01*
X160671463Y-118366006D01*
X160612498Y-118476320D01*
X160576188Y-118596018D01*
X160563928Y-118720500D01*
X159272549Y-118720500D01*
X159237002Y-118603320D01*
X159178037Y-118493006D01*
X159098685Y-118396315D01*
X159001994Y-118316963D01*
X158891680Y-118257998D01*
X158771982Y-118221688D01*
X158647500Y-118209428D01*
X156947500Y-118209428D01*
X156823018Y-118221688D01*
X156703320Y-118257998D01*
X156593006Y-118316963D01*
X156496315Y-118396315D01*
X156416963Y-118493006D01*
X156357998Y-118603320D01*
X156321688Y-118723018D01*
X156309428Y-118847500D01*
X156309428Y-120110770D01*
X153540400Y-122879799D01*
X141699221Y-122879799D01*
X141661898Y-122876123D01*
X141624575Y-122879799D01*
X141624566Y-122879799D01*
X141512913Y-122890796D01*
X141369652Y-122934253D01*
X141237622Y-123004825D01*
X141204427Y-123032068D01*
X141121898Y-123099798D01*
X141098100Y-123128796D01*
X140576696Y-123650200D01*
X140576659Y-123650163D01*
X140341627Y-123493120D01*
X140080474Y-123384947D01*
X139803235Y-123329800D01*
X139520565Y-123329800D01*
X139243326Y-123384947D01*
X138982173Y-123493120D01*
X138747141Y-123650163D01*
X138547263Y-123850041D01*
X138390220Y-124085073D01*
X138282047Y-124346226D01*
X138226900Y-124623465D01*
X138226900Y-124906135D01*
X138282047Y-125183374D01*
X138390220Y-125444527D01*
X138547263Y-125679559D01*
X138747141Y-125879437D01*
X138784085Y-125904122D01*
X138725002Y-125915874D01*
X138536644Y-125993895D01*
X138367126Y-126107163D01*
X138222963Y-126251326D01*
X138109695Y-126420844D01*
X138031674Y-126609202D01*
X137991900Y-126809161D01*
X137991900Y-127013039D01*
X138031674Y-127212998D01*
X138109695Y-127401356D01*
X138222963Y-127570874D01*
X138367126Y-127715037D01*
X138536644Y-127828305D01*
X138725002Y-127906326D01*
X138924961Y-127946100D01*
X139128839Y-127946100D01*
X139328798Y-127906326D01*
X139517156Y-127828305D01*
X139686674Y-127715037D01*
X139830837Y-127570874D01*
X139944105Y-127401356D01*
X140022126Y-127212998D01*
X140039165Y-127127339D01*
X141287104Y-125879400D01*
X141287141Y-125879437D01*
X141522173Y-126036480D01*
X141783326Y-126144653D01*
X142060565Y-126199800D01*
X142343235Y-126199800D01*
X142620474Y-126144653D01*
X142881627Y-126036480D01*
X143116659Y-125879437D01*
X143316537Y-125679559D01*
X143471900Y-125447041D01*
X143627263Y-125679559D01*
X143827141Y-125879437D01*
X144062173Y-126036480D01*
X144323326Y-126144653D01*
X144600565Y-126199800D01*
X144883235Y-126199800D01*
X145160474Y-126144653D01*
X145421627Y-126036480D01*
X145656659Y-125879437D01*
X145856537Y-125679559D01*
X146011900Y-125447041D01*
X146167263Y-125679559D01*
X146367141Y-125879437D01*
X146602173Y-126036480D01*
X146863326Y-126144653D01*
X147045550Y-126180900D01*
X147002161Y-126180900D01*
X146802202Y-126220674D01*
X146613844Y-126298695D01*
X146444326Y-126411963D01*
X146300163Y-126556126D01*
X146186895Y-126725644D01*
X146108874Y-126914002D01*
X146069100Y-127113961D01*
X146069100Y-127317839D01*
X146108874Y-127517798D01*
X146186895Y-127706156D01*
X146300163Y-127875674D01*
X146444326Y-128019837D01*
X146613844Y-128133105D01*
X146802202Y-128211126D01*
X147002161Y-128250900D01*
X147206039Y-128250900D01*
X147405998Y-128211126D01*
X147594356Y-128133105D01*
X147763874Y-128019837D01*
X147807811Y-127975900D01*
X150667589Y-127975900D01*
X150711526Y-128019837D01*
X150881044Y-128133105D01*
X151069402Y-128211126D01*
X151269361Y-128250900D01*
X151473239Y-128250900D01*
X151673198Y-128211126D01*
X151861556Y-128133105D01*
X152031074Y-128019837D01*
X152175237Y-127875674D01*
X152288505Y-127706156D01*
X152366526Y-127517798D01*
X152406300Y-127317839D01*
X152406300Y-127113961D01*
X152366526Y-126914002D01*
X152288505Y-126725644D01*
X152175237Y-126556126D01*
X152031074Y-126411963D01*
X151861556Y-126298695D01*
X151673198Y-126220674D01*
X151473239Y-126180900D01*
X151269361Y-126180900D01*
X151069402Y-126220674D01*
X150881044Y-126298695D01*
X150711526Y-126411963D01*
X150667589Y-126455900D01*
X147807811Y-126455900D01*
X147763874Y-126411963D01*
X147594356Y-126298695D01*
X147405998Y-126220674D01*
X147301056Y-126199800D01*
X147423235Y-126199800D01*
X147700474Y-126144653D01*
X147961627Y-126036480D01*
X148196659Y-125879437D01*
X148396537Y-125679559D01*
X148551900Y-125447041D01*
X148707263Y-125679559D01*
X148907141Y-125879437D01*
X149142173Y-126036480D01*
X149403326Y-126144653D01*
X149680565Y-126199800D01*
X149963235Y-126199800D01*
X150240474Y-126144653D01*
X150501627Y-126036480D01*
X150736659Y-125879437D01*
X150936537Y-125679559D01*
X151091900Y-125447041D01*
X151247263Y-125679559D01*
X151447141Y-125879437D01*
X151682173Y-126036480D01*
X151943326Y-126144653D01*
X152220565Y-126199800D01*
X152503235Y-126199800D01*
X152780474Y-126144653D01*
X152883500Y-126101978D01*
X152883499Y-129606534D01*
X152722240Y-129638610D01*
X152533882Y-129716631D01*
X152364364Y-129829899D01*
X152283963Y-129910300D01*
X150703411Y-129910300D01*
X150659474Y-129866363D01*
X150489956Y-129753095D01*
X150301598Y-129675074D01*
X150101639Y-129635300D01*
X150035474Y-129635300D01*
X150029726Y-129606402D01*
X149951705Y-129418044D01*
X149838437Y-129248526D01*
X149694274Y-129104363D01*
X149524756Y-128991095D01*
X149336398Y-128913074D01*
X149136439Y-128873300D01*
X148932561Y-128873300D01*
X148732602Y-128913074D01*
X148544244Y-128991095D01*
X148461025Y-129046700D01*
X137901811Y-129046700D01*
X137857874Y-129002763D01*
X137688356Y-128889495D01*
X137499998Y-128811474D01*
X137300039Y-128771700D01*
X137096161Y-128771700D01*
X136896202Y-128811474D01*
X136707844Y-128889495D01*
X136538326Y-129002763D01*
X136394163Y-129146926D01*
X136280895Y-129316444D01*
X136202874Y-129504802D01*
X136163100Y-129704761D01*
X136163100Y-129908639D01*
X136202874Y-130108598D01*
X136280895Y-130296956D01*
X136394163Y-130466474D01*
X136538326Y-130610637D01*
X136707844Y-130723905D01*
X136896202Y-130801926D01*
X137096161Y-130841700D01*
X137300039Y-130841700D01*
X137499998Y-130801926D01*
X137688356Y-130723905D01*
X137857874Y-130610637D01*
X137901811Y-130566700D01*
X148229645Y-130566700D01*
X148230563Y-130568074D01*
X148374726Y-130712237D01*
X148544244Y-130825505D01*
X148664942Y-130875500D01*
X128206412Y-130875500D01*
X128217194Y-130869737D01*
X128313885Y-130790385D01*
X128393237Y-130693694D01*
X128452202Y-130583380D01*
X128488512Y-130463682D01*
X128500772Y-130339200D01*
X128500772Y-128639200D01*
X128488512Y-128514718D01*
X128452202Y-128395020D01*
X128393237Y-128284706D01*
X128313885Y-128188015D01*
X128217194Y-128108663D01*
X128106880Y-128049698D01*
X127987182Y-128013388D01*
X127862700Y-128001128D01*
X127772700Y-128001128D01*
X127772700Y-126886033D01*
X127776377Y-126848700D01*
X127761703Y-126699714D01*
X127718246Y-126556453D01*
X127647674Y-126424424D01*
X127603911Y-126371099D01*
X127552701Y-126308699D01*
X127523703Y-126284901D01*
X123423501Y-122184700D01*
X134671578Y-122184700D01*
X134708900Y-122188376D01*
X134746222Y-122184700D01*
X134746233Y-122184700D01*
X134857886Y-122173703D01*
X135001147Y-122130246D01*
X135050062Y-122104100D01*
X135166439Y-122104100D01*
X135366398Y-122064326D01*
X135554756Y-121986305D01*
X135724274Y-121873037D01*
X135868437Y-121728874D01*
X135981705Y-121559356D01*
X136059726Y-121370998D01*
X136099500Y-121171039D01*
X136099500Y-120967161D01*
X136059726Y-120767202D01*
X135981705Y-120578844D01*
X135868437Y-120409326D01*
X135724274Y-120265163D01*
X135554756Y-120151895D01*
X135366398Y-120073874D01*
X135166439Y-120034100D01*
X134962561Y-120034100D01*
X134762602Y-120073874D01*
X134574244Y-120151895D01*
X134404726Y-120265163D01*
X134260563Y-120409326D01*
X134147295Y-120578844D01*
X134111732Y-120664700D01*
X129670808Y-120664700D01*
X129624777Y-120618669D01*
X130012018Y-120378524D01*
X130272641Y-119884623D01*
X130431901Y-119349367D01*
X130483678Y-118793326D01*
X130482710Y-118784000D01*
X151991428Y-118784000D01*
X151991428Y-120484000D01*
X152003688Y-120608482D01*
X152039998Y-120728180D01*
X152098963Y-120838494D01*
X152178315Y-120935185D01*
X152275006Y-121014537D01*
X152385320Y-121073502D01*
X152505018Y-121109812D01*
X152629500Y-121122072D01*
X154329500Y-121122072D01*
X154453982Y-121109812D01*
X154573680Y-121073502D01*
X154683994Y-121014537D01*
X154780685Y-120935185D01*
X154860037Y-120838494D01*
X154919002Y-120728180D01*
X154955312Y-120608482D01*
X154967572Y-120484000D01*
X154967572Y-118784000D01*
X154955312Y-118659518D01*
X154919002Y-118539820D01*
X154860037Y-118429506D01*
X154780685Y-118332815D01*
X154683994Y-118253463D01*
X154573680Y-118194498D01*
X154453982Y-118158188D01*
X154329500Y-118145928D01*
X152629500Y-118145928D01*
X152505018Y-118158188D01*
X152385320Y-118194498D01*
X152275006Y-118253463D01*
X152178315Y-118332815D01*
X152098963Y-118429506D01*
X152039998Y-118539820D01*
X152003688Y-118659518D01*
X151991428Y-118784000D01*
X130482710Y-118784000D01*
X130425981Y-118237868D01*
X130261028Y-117704339D01*
X130012018Y-117238476D01*
X129624775Y-116998330D01*
X127814605Y-118808500D01*
X127828748Y-118822643D01*
X127649143Y-119002248D01*
X127635000Y-118988105D01*
X127620858Y-119002248D01*
X127441253Y-118822643D01*
X127455395Y-118808500D01*
X125645225Y-116998330D01*
X125257982Y-117238476D01*
X124997359Y-117732377D01*
X124838099Y-118267633D01*
X124786322Y-118823674D01*
X124844019Y-119379132D01*
X125008972Y-119912661D01*
X125257982Y-120378524D01*
X125645223Y-120618669D01*
X125599192Y-120664700D01*
X118750211Y-120664700D01*
X118706274Y-120620763D01*
X118536756Y-120507495D01*
X118348398Y-120429474D01*
X118148439Y-120389700D01*
X117944561Y-120389700D01*
X117744602Y-120429474D01*
X117556244Y-120507495D01*
X117386726Y-120620763D01*
X117242563Y-120764926D01*
X117129295Y-120934444D01*
X117051274Y-121122802D01*
X117011500Y-121322761D01*
X117011500Y-121526639D01*
X117051274Y-121726598D01*
X117129295Y-121914956D01*
X117242563Y-122084474D01*
X117386726Y-122228637D01*
X117556244Y-122341905D01*
X117744602Y-122419926D01*
X117944561Y-122459700D01*
X118148439Y-122459700D01*
X118348398Y-122419926D01*
X118536756Y-122341905D01*
X118706274Y-122228637D01*
X118750211Y-122184700D01*
X119805500Y-122184700D01*
X119805500Y-122251639D01*
X119845274Y-122451598D01*
X119923295Y-122639956D01*
X120036563Y-122809474D01*
X120180726Y-122953637D01*
X120350244Y-123066905D01*
X120538602Y-123144926D01*
X120579700Y-123153101D01*
X124275900Y-126849302D01*
X124275900Y-126911439D01*
X124315674Y-127111398D01*
X124393695Y-127299756D01*
X124506963Y-127469274D01*
X124651126Y-127613437D01*
X124820644Y-127726705D01*
X125009002Y-127804726D01*
X125208961Y-127844500D01*
X125412839Y-127844500D01*
X125612798Y-127804726D01*
X125801156Y-127726705D01*
X125970674Y-127613437D01*
X126114837Y-127469274D01*
X126228105Y-127299756D01*
X126252701Y-127240377D01*
X126252701Y-128001128D01*
X126162700Y-128001128D01*
X126038218Y-128013388D01*
X125918520Y-128049698D01*
X125808206Y-128108663D01*
X125711515Y-128188015D01*
X125632163Y-128284706D01*
X125573198Y-128395020D01*
X125536888Y-128514718D01*
X125524628Y-128639200D01*
X125524628Y-130339200D01*
X125536888Y-130463682D01*
X125573198Y-130583380D01*
X125632163Y-130693694D01*
X125711515Y-130790385D01*
X125808206Y-130869737D01*
X125818988Y-130875500D01*
X125252611Y-130875500D01*
X125208674Y-130831563D01*
X125039156Y-130718295D01*
X124850798Y-130640274D01*
X124650839Y-130600500D01*
X124446961Y-130600500D01*
X124315109Y-130626727D01*
X124324702Y-130608780D01*
X124361012Y-130489082D01*
X124373272Y-130364600D01*
X124373272Y-128664600D01*
X124361012Y-128540118D01*
X124324702Y-128420420D01*
X124265737Y-128310106D01*
X124186385Y-128213415D01*
X124089694Y-128134063D01*
X123979380Y-128075098D01*
X123859682Y-128038788D01*
X123735200Y-128026528D01*
X122035200Y-128026528D01*
X121910718Y-128038788D01*
X121791020Y-128075098D01*
X121680706Y-128134063D01*
X121584015Y-128213415D01*
X121504663Y-128310106D01*
X121445698Y-128420420D01*
X121409388Y-128540118D01*
X121397128Y-128664600D01*
X121397128Y-128852130D01*
X121237593Y-128745532D01*
X121049235Y-128667511D01*
X120849276Y-128627737D01*
X120645398Y-128627737D01*
X120445439Y-128667511D01*
X120257081Y-128745532D01*
X120129468Y-128830800D01*
X120067972Y-128830800D01*
X120067972Y-128740800D01*
X120055712Y-128616318D01*
X120019402Y-128496620D01*
X119960437Y-128386306D01*
X119881085Y-128289615D01*
X119784394Y-128210263D01*
X119674080Y-128151298D01*
X119554382Y-128114988D01*
X119429900Y-128102728D01*
X117729900Y-128102728D01*
X117605418Y-128114988D01*
X117485720Y-128151298D01*
X117375406Y-128210263D01*
X117278715Y-128289615D01*
X117199363Y-128386306D01*
X117140398Y-128496620D01*
X117104088Y-128616318D01*
X117091828Y-128740800D01*
X117091828Y-130440800D01*
X117104088Y-130565282D01*
X117140398Y-130684980D01*
X117199363Y-130795294D01*
X117278715Y-130891985D01*
X117375406Y-130971337D01*
X117485720Y-131030302D01*
X117605418Y-131066612D01*
X117729900Y-131078872D01*
X119429900Y-131078872D01*
X119554382Y-131066612D01*
X119674080Y-131030302D01*
X119784394Y-130971337D01*
X119881085Y-130891985D01*
X119960437Y-130795294D01*
X120019402Y-130684980D01*
X120055712Y-130565282D01*
X120067409Y-130446520D01*
X120087563Y-130466674D01*
X120257081Y-130579942D01*
X120445439Y-130657963D01*
X120645398Y-130697737D01*
X120849276Y-130697737D01*
X121049235Y-130657963D01*
X121237593Y-130579942D01*
X121407111Y-130466674D01*
X121407175Y-130466610D01*
X121409388Y-130489082D01*
X121445698Y-130608780D01*
X121504663Y-130719094D01*
X121584015Y-130815785D01*
X121680706Y-130895137D01*
X121791020Y-130954102D01*
X121910718Y-130990412D01*
X122035200Y-131002672D01*
X123726958Y-131002672D01*
X123631695Y-131145244D01*
X123553674Y-131333602D01*
X123513900Y-131533561D01*
X123513900Y-131737439D01*
X123553674Y-131937398D01*
X123631695Y-132125756D01*
X123744963Y-132295274D01*
X123889126Y-132439437D01*
X124058644Y-132552705D01*
X124247002Y-132630726D01*
X124446961Y-132670500D01*
X124650839Y-132670500D01*
X124850798Y-132630726D01*
X125039156Y-132552705D01*
X125208674Y-132439437D01*
X125252611Y-132395500D01*
X127435811Y-132395500D01*
X127343526Y-132457163D01*
X127199363Y-132601326D01*
X127086095Y-132770844D01*
X127008074Y-132959202D01*
X126968300Y-133159161D01*
X126968300Y-133363039D01*
X127008074Y-133562998D01*
X127086095Y-133751356D01*
X127133231Y-133821900D01*
X124676498Y-133821900D01*
X124641637Y-133769726D01*
X124497474Y-133625563D01*
X124327956Y-133512295D01*
X124139598Y-133434274D01*
X123939639Y-133394500D01*
X123735761Y-133394500D01*
X123535802Y-133434274D01*
X123347444Y-133512295D01*
X123177926Y-133625563D01*
X123033763Y-133769726D01*
X122920495Y-133939244D01*
X122842474Y-134127602D01*
X122802700Y-134327561D01*
X122802700Y-134531439D01*
X122842474Y-134731398D01*
X122844504Y-134736300D01*
X119867811Y-134736300D01*
X119823874Y-134692363D01*
X119654356Y-134579095D01*
X119465998Y-134501074D01*
X119266039Y-134461300D01*
X119062161Y-134461300D01*
X118862202Y-134501074D01*
X118673844Y-134579095D01*
X118504326Y-134692363D01*
X118360163Y-134836526D01*
X118246895Y-135006044D01*
X118168874Y-135194402D01*
X118129100Y-135394361D01*
X118129100Y-135598239D01*
X118168874Y-135798198D01*
X118246895Y-135986556D01*
X118360163Y-136156074D01*
X118504326Y-136300237D01*
X118673844Y-136413505D01*
X118862202Y-136491526D01*
X119062161Y-136531300D01*
X119266039Y-136531300D01*
X119465998Y-136491526D01*
X119654356Y-136413505D01*
X119823874Y-136300237D01*
X119867811Y-136256300D01*
X151970899Y-136256300D01*
X152432099Y-136717500D01*
X147858611Y-136717500D01*
X147814674Y-136673563D01*
X147645156Y-136560295D01*
X147456798Y-136482274D01*
X147256839Y-136442500D01*
X147052961Y-136442500D01*
X146853002Y-136482274D01*
X146664644Y-136560295D01*
X146583486Y-136614523D01*
X146578356Y-136611095D01*
X146389998Y-136533074D01*
X146190039Y-136493300D01*
X145986161Y-136493300D01*
X145786202Y-136533074D01*
X145597844Y-136611095D01*
X145428326Y-136724363D01*
X145384389Y-136768300D01*
X139324211Y-136768300D01*
X139280274Y-136724363D01*
X139110756Y-136611095D01*
X138922398Y-136533074D01*
X138722439Y-136493300D01*
X138518561Y-136493300D01*
X138318602Y-136533074D01*
X138130244Y-136611095D01*
X137960726Y-136724363D01*
X137816563Y-136868526D01*
X137703295Y-137038044D01*
X137625274Y-137226402D01*
X137585500Y-137426361D01*
X137585500Y-137630239D01*
X137619404Y-137800687D01*
X137607402Y-137803074D01*
X137419044Y-137881095D01*
X137249526Y-137994363D01*
X137105363Y-138138526D01*
X136992095Y-138308044D01*
X136914074Y-138496402D01*
X136874300Y-138696361D01*
X136874300Y-138900239D01*
X136914074Y-139100198D01*
X136992095Y-139288556D01*
X137105363Y-139458074D01*
X137249526Y-139602237D01*
X137419044Y-139715505D01*
X137607402Y-139793526D01*
X137807361Y-139833300D01*
X138011239Y-139833300D01*
X138211198Y-139793526D01*
X138223828Y-139788294D01*
X138223828Y-140804800D01*
X138236088Y-140929282D01*
X138272398Y-141048980D01*
X138331363Y-141159294D01*
X138410715Y-141255985D01*
X138507406Y-141335337D01*
X138617720Y-141394302D01*
X138737418Y-141430612D01*
X138815312Y-141438284D01*
X138319222Y-141934374D01*
X138290224Y-141958172D01*
X138266426Y-141987170D01*
X138266425Y-141987171D01*
X138195250Y-142073897D01*
X138124678Y-142205927D01*
X138105699Y-142268496D01*
X138081222Y-142349187D01*
X138072459Y-142438156D01*
X138066548Y-142498173D01*
X138070225Y-142535505D01*
X138070224Y-144090142D01*
X138028776Y-144056126D01*
X137896747Y-143985554D01*
X137753486Y-143942097D01*
X137641833Y-143931100D01*
X137641822Y-143931100D01*
X137604500Y-143927424D01*
X137567178Y-143931100D01*
X132415411Y-143931100D01*
X132371474Y-143887163D01*
X132201956Y-143773895D01*
X132013598Y-143695874D01*
X131813639Y-143656100D01*
X131609761Y-143656100D01*
X131409802Y-143695874D01*
X131221444Y-143773895D01*
X131051926Y-143887163D01*
X130907763Y-144031326D01*
X130794495Y-144200844D01*
X130716474Y-144389202D01*
X130676700Y-144589161D01*
X130676700Y-144793039D01*
X130716474Y-144992998D01*
X130794495Y-145181356D01*
X130907763Y-145350874D01*
X131051926Y-145495037D01*
X131221444Y-145608305D01*
X131409802Y-145686326D01*
X131609761Y-145726100D01*
X131813639Y-145726100D01*
X132013598Y-145686326D01*
X132201956Y-145608305D01*
X132371474Y-145495037D01*
X132415411Y-145451100D01*
X137289699Y-145451100D01*
X138302852Y-146464254D01*
X138302852Y-146526391D01*
X138342626Y-146726350D01*
X138420647Y-146914708D01*
X138533915Y-147084226D01*
X138678078Y-147228389D01*
X138847596Y-147341657D01*
X138953442Y-147385500D01*
X136838390Y-147385500D01*
X136801067Y-147381824D01*
X136763744Y-147385500D01*
X136763735Y-147385500D01*
X136652082Y-147396497D01*
X136508821Y-147439954D01*
X136376792Y-147510526D01*
X136376790Y-147510527D01*
X136376791Y-147510527D01*
X136290064Y-147581701D01*
X136290060Y-147581705D01*
X136261067Y-147605499D01*
X136237273Y-147634492D01*
X135337277Y-148534490D01*
X133965900Y-148534490D01*
X133965900Y-148467551D01*
X133926126Y-148267592D01*
X133848105Y-148079234D01*
X133734837Y-147909716D01*
X133590674Y-147765553D01*
X133421156Y-147652285D01*
X133232798Y-147574264D01*
X133032839Y-147534490D01*
X132970702Y-147534490D01*
X129016762Y-143580551D01*
X128992959Y-143551547D01*
X128877234Y-143456574D01*
X128745205Y-143386002D01*
X128601944Y-143342545D01*
X128490291Y-143331548D01*
X128490280Y-143331548D01*
X128452958Y-143327872D01*
X128415636Y-143331548D01*
X123868946Y-143331548D01*
X123868946Y-143055868D01*
X123872622Y-143018545D01*
X123868946Y-142981222D01*
X123868946Y-142981213D01*
X123857949Y-142869560D01*
X123814492Y-142726299D01*
X123743920Y-142594270D01*
X123648947Y-142478545D01*
X123619949Y-142454747D01*
X121853403Y-140688202D01*
X121829600Y-140659198D01*
X121713875Y-140564225D01*
X121581846Y-140493653D01*
X121438585Y-140450196D01*
X121326932Y-140439199D01*
X121326921Y-140439199D01*
X121289599Y-140435523D01*
X121252277Y-140439199D01*
X113549323Y-140439199D01*
X113512000Y-140435523D01*
X113474677Y-140439199D01*
X113474668Y-140439199D01*
X113363015Y-140450196D01*
X113219754Y-140493653D01*
X113087724Y-140564225D01*
X113004084Y-140632867D01*
X112972000Y-140659198D01*
X112948202Y-140688197D01*
X112723498Y-140912900D01*
X112661361Y-140912900D01*
X112461402Y-140952674D01*
X112273044Y-141030695D01*
X112103526Y-141143963D01*
X111959363Y-141288126D01*
X111846095Y-141457644D01*
X111768074Y-141646002D01*
X111728300Y-141845961D01*
X111728300Y-142049839D01*
X111768074Y-142249798D01*
X111846095Y-142438156D01*
X111953500Y-142598900D01*
X111700567Y-142598900D01*
X111384688Y-142661732D01*
X111370224Y-142667723D01*
X110507704Y-141805203D01*
X110483901Y-141776199D01*
X110368176Y-141681226D01*
X110236147Y-141610654D01*
X110092886Y-141567197D01*
X109981233Y-141556200D01*
X109981222Y-141556200D01*
X109943900Y-141552524D01*
X109906578Y-141556200D01*
X105537927Y-141556200D01*
X105473075Y-141399634D01*
X105261313Y-141082709D01*
X104991791Y-140813187D01*
X104674866Y-140601425D01*
X104322719Y-140455561D01*
X103948881Y-140381200D01*
X103567719Y-140381200D01*
X103193881Y-140455561D01*
X102841734Y-140601425D01*
X102524809Y-140813187D01*
X102255287Y-141082709D01*
X102043525Y-141399634D01*
X101897661Y-141751781D01*
X101823300Y-142125619D01*
X101823300Y-142506781D01*
X101897661Y-142880619D01*
X102043525Y-143232766D01*
X102255287Y-143549691D01*
X102524809Y-143819213D01*
X102841734Y-144030975D01*
X103193881Y-144176839D01*
X103567719Y-144251200D01*
X103948881Y-144251200D01*
X104322719Y-144176839D01*
X104674866Y-144030975D01*
X104991791Y-143819213D01*
X105261313Y-143549691D01*
X105473075Y-143232766D01*
X105537927Y-143076200D01*
X105616742Y-143076200D01*
X105530517Y-143162425D01*
X105646185Y-143278093D01*
X105381786Y-143373856D01*
X105240896Y-143663471D01*
X105159216Y-143975008D01*
X105139882Y-144296495D01*
X105183639Y-144615575D01*
X105288805Y-144919988D01*
X105381786Y-145093944D01*
X105646187Y-145189708D01*
X106601995Y-144233900D01*
X106587853Y-144219758D01*
X106767458Y-144040153D01*
X106781600Y-144054295D01*
X106795743Y-144040153D01*
X106975348Y-144219758D01*
X106961205Y-144233900D01*
X107917013Y-145189708D01*
X108181414Y-145093944D01*
X108322304Y-144804329D01*
X108403984Y-144492792D01*
X108423318Y-144171305D01*
X108379561Y-143852225D01*
X108274395Y-143547812D01*
X108181414Y-143373856D01*
X107917015Y-143278093D01*
X108032683Y-143162425D01*
X107946458Y-143076200D01*
X109629099Y-143076200D01*
X110295423Y-143742524D01*
X110289432Y-143756988D01*
X110226600Y-144072867D01*
X110226600Y-144394933D01*
X110289432Y-144710812D01*
X110412682Y-145008363D01*
X110591613Y-145276152D01*
X110819348Y-145503887D01*
X111087137Y-145682818D01*
X111384688Y-145806068D01*
X111700567Y-145868900D01*
X112022633Y-145868900D01*
X112338512Y-145806068D01*
X112636063Y-145682818D01*
X112903852Y-145503887D01*
X113131587Y-145276152D01*
X113310518Y-145008363D01*
X113433768Y-144710812D01*
X113496600Y-144394933D01*
X113496600Y-144135004D01*
X113688809Y-144327213D01*
X114005734Y-144538975D01*
X114357881Y-144684839D01*
X114731719Y-144759200D01*
X115112881Y-144759200D01*
X115486719Y-144684839D01*
X115838866Y-144538975D01*
X116155791Y-144327213D01*
X116425313Y-144057691D01*
X116637075Y-143740766D01*
X116782939Y-143388619D01*
X116857300Y-143014781D01*
X116857300Y-142633619D01*
X116782939Y-142259781D01*
X116658434Y-141959199D01*
X118786166Y-141959199D01*
X118661661Y-142259781D01*
X118587300Y-142633619D01*
X118587300Y-143014781D01*
X118661661Y-143388619D01*
X118807525Y-143740766D01*
X119019287Y-144057691D01*
X119288809Y-144327213D01*
X119605734Y-144538975D01*
X119957881Y-144684839D01*
X120331719Y-144759200D01*
X120712881Y-144759200D01*
X121086719Y-144684839D01*
X121438866Y-144538975D01*
X121755791Y-144327213D01*
X122025313Y-144057691D01*
X122237075Y-143740766D01*
X122348946Y-143470685D01*
X122348946Y-143677226D01*
X122345270Y-143714548D01*
X122348946Y-143751870D01*
X122348946Y-143751880D01*
X122359943Y-143863533D01*
X122393758Y-143975008D01*
X122403400Y-144006794D01*
X122473972Y-144138824D01*
X122513817Y-144187374D01*
X122568945Y-144254549D01*
X122597949Y-144278352D01*
X122922142Y-144602545D01*
X122945945Y-144631549D01*
X123061670Y-144726522D01*
X123128519Y-144762254D01*
X123193699Y-144797094D01*
X123336960Y-144840551D01*
X123485946Y-144855225D01*
X123523279Y-144851548D01*
X128138157Y-144851548D01*
X131821098Y-148534490D01*
X131310278Y-148534490D01*
X131308105Y-148529244D01*
X131194837Y-148359726D01*
X131050674Y-148215563D01*
X130881156Y-148102295D01*
X130692798Y-148024274D01*
X130492839Y-147984500D01*
X130288961Y-147984500D01*
X130089002Y-148024274D01*
X129900644Y-148102295D01*
X129731126Y-148215563D01*
X129586963Y-148359726D01*
X129473695Y-148529244D01*
X129395674Y-148717602D01*
X129355900Y-148917561D01*
X129355900Y-148984500D01*
X101158108Y-148984500D01*
X101049777Y-148876169D01*
X101437018Y-148636024D01*
X101697641Y-148142123D01*
X101856901Y-147606867D01*
X101908678Y-147050826D01*
X101850981Y-146495368D01*
X101686028Y-145961839D01*
X101437018Y-145495976D01*
X101232770Y-145369313D01*
X105825792Y-145369313D01*
X105921556Y-145633714D01*
X106211171Y-145774604D01*
X106522708Y-145856284D01*
X106844195Y-145875618D01*
X107163275Y-145831861D01*
X107467688Y-145726695D01*
X107641644Y-145633714D01*
X107737408Y-145369313D01*
X106781600Y-144413505D01*
X105825792Y-145369313D01*
X101232770Y-145369313D01*
X101049775Y-145255830D01*
X99239605Y-147066000D01*
X99253748Y-147080143D01*
X99074143Y-147259748D01*
X99060000Y-147245605D01*
X99045858Y-147259748D01*
X98866253Y-147080143D01*
X98880395Y-147066000D01*
X98866253Y-147051858D01*
X99045858Y-146872253D01*
X99060000Y-146886395D01*
X100870170Y-145076225D01*
X100630024Y-144688982D01*
X100136123Y-144428359D01*
X99600867Y-144269099D01*
X99044826Y-144217322D01*
X98489368Y-144275019D01*
X97955839Y-144439972D01*
X97489976Y-144688982D01*
X97249831Y-145076223D01*
X97141500Y-144967892D01*
X97141500Y-143964001D01*
X97241734Y-144030975D01*
X97593881Y-144176839D01*
X97967719Y-144251200D01*
X98348881Y-144251200D01*
X98722719Y-144176839D01*
X99074866Y-144030975D01*
X99391791Y-143819213D01*
X99661313Y-143549691D01*
X99873075Y-143232766D01*
X100018939Y-142880619D01*
X100093300Y-142506781D01*
X100093300Y-142125619D01*
X100018939Y-141751781D01*
X99873075Y-141399634D01*
X99661313Y-141082709D01*
X99391791Y-140813187D01*
X99074866Y-140601425D01*
X98722719Y-140455561D01*
X98348881Y-140381200D01*
X97967719Y-140381200D01*
X97593881Y-140455561D01*
X97241734Y-140601425D01*
X97141500Y-140668399D01*
X97141500Y-136183000D01*
X109382928Y-136183000D01*
X109382928Y-137883000D01*
X109395188Y-138007482D01*
X109431498Y-138127180D01*
X109490463Y-138237494D01*
X109569815Y-138334185D01*
X109666506Y-138413537D01*
X109776820Y-138472502D01*
X109896518Y-138508812D01*
X110021000Y-138521072D01*
X111721000Y-138521072D01*
X111845482Y-138508812D01*
X111965180Y-138472502D01*
X112075494Y-138413537D01*
X112172185Y-138334185D01*
X112251537Y-138237494D01*
X112310502Y-138127180D01*
X112346812Y-138007482D01*
X112359072Y-137883000D01*
X112359072Y-136183000D01*
X112346812Y-136058518D01*
X112310502Y-135938820D01*
X112251537Y-135828506D01*
X112172185Y-135731815D01*
X112075494Y-135652463D01*
X111965180Y-135593498D01*
X111845482Y-135557188D01*
X111721000Y-135544928D01*
X110021000Y-135544928D01*
X109896518Y-135557188D01*
X109776820Y-135593498D01*
X109666506Y-135652463D01*
X109569815Y-135731815D01*
X109490463Y-135828506D01*
X109431498Y-135938820D01*
X109395188Y-136058518D01*
X109382928Y-136183000D01*
X97141500Y-136183000D01*
X97141500Y-133071500D01*
X98397428Y-133071500D01*
X98397428Y-134771500D01*
X98409688Y-134895982D01*
X98445998Y-135015680D01*
X98504963Y-135125994D01*
X98584315Y-135222685D01*
X98681006Y-135302037D01*
X98791320Y-135361002D01*
X98911018Y-135397312D01*
X99035500Y-135409572D01*
X100735500Y-135409572D01*
X100859982Y-135397312D01*
X100979680Y-135361002D01*
X101089994Y-135302037D01*
X101186685Y-135222685D01*
X101266037Y-135125994D01*
X101325002Y-135015680D01*
X101361312Y-134895982D01*
X101373572Y-134771500D01*
X101373572Y-133071500D01*
X101361312Y-132947018D01*
X101325002Y-132827320D01*
X101266037Y-132717006D01*
X101186685Y-132620315D01*
X101089994Y-132540963D01*
X100979680Y-132481998D01*
X100859982Y-132445688D01*
X100735500Y-132433428D01*
X99035500Y-132433428D01*
X98911018Y-132445688D01*
X98791320Y-132481998D01*
X98681006Y-132540963D01*
X98584315Y-132620315D01*
X98504963Y-132717006D01*
X98445998Y-132827320D01*
X98409688Y-132947018D01*
X98397428Y-133071500D01*
X97141500Y-133071500D01*
X97141500Y-119545100D01*
X100222061Y-119545100D01*
X100268110Y-120012642D01*
X100404487Y-120462216D01*
X100625951Y-120876546D01*
X100923991Y-121239709D01*
X101287154Y-121537749D01*
X101701484Y-121759213D01*
X102151058Y-121895590D01*
X102501443Y-121930100D01*
X103608601Y-121930100D01*
X103608601Y-122047768D01*
X103604924Y-122085100D01*
X103619598Y-122234085D01*
X103663054Y-122377346D01*
X103733626Y-122509376D01*
X103804801Y-122596102D01*
X103828600Y-122625101D01*
X103857598Y-122648899D01*
X107720608Y-126511910D01*
X107666418Y-126613292D01*
X107584364Y-126883791D01*
X107556657Y-127165100D01*
X107584364Y-127446409D01*
X107666418Y-127716908D01*
X107720608Y-127818290D01*
X107656783Y-127882115D01*
X107450046Y-127712451D01*
X107035716Y-127490987D01*
X106586142Y-127354610D01*
X106235757Y-127320100D01*
X102501443Y-127320100D01*
X102151058Y-127354610D01*
X101701484Y-127490987D01*
X101287154Y-127712451D01*
X100923991Y-128010491D01*
X100625951Y-128373654D01*
X100404487Y-128787984D01*
X100268110Y-129237558D01*
X100222061Y-129705100D01*
X100268110Y-130172642D01*
X100404487Y-130622216D01*
X100625951Y-131036546D01*
X100923991Y-131399709D01*
X101287154Y-131697749D01*
X101701484Y-131919213D01*
X102151058Y-132055590D01*
X102501443Y-132090100D01*
X106235757Y-132090100D01*
X106586142Y-132055590D01*
X107035716Y-131919213D01*
X107450046Y-131697749D01*
X107813209Y-131399709D01*
X108111249Y-131036546D01*
X108332713Y-130622216D01*
X108469090Y-130172642D01*
X108515139Y-129705100D01*
X108469090Y-129237558D01*
X108464867Y-129223635D01*
X108947702Y-128740800D01*
X112900828Y-128740800D01*
X112900828Y-130440800D01*
X112913088Y-130565282D01*
X112949398Y-130684980D01*
X113008363Y-130795294D01*
X113087715Y-130891985D01*
X113184406Y-130971337D01*
X113294720Y-131030302D01*
X113414418Y-131066612D01*
X113538900Y-131078872D01*
X115238900Y-131078872D01*
X115363382Y-131066612D01*
X115483080Y-131030302D01*
X115593394Y-130971337D01*
X115690085Y-130891985D01*
X115769437Y-130795294D01*
X115828402Y-130684980D01*
X115864712Y-130565282D01*
X115876972Y-130440800D01*
X115876972Y-128740800D01*
X115864712Y-128616318D01*
X115828402Y-128496620D01*
X115769437Y-128386306D01*
X115690085Y-128289615D01*
X115593394Y-128210263D01*
X115483080Y-128151298D01*
X115363382Y-128114988D01*
X115238900Y-128102728D01*
X113538900Y-128102728D01*
X113414418Y-128114988D01*
X113294720Y-128151298D01*
X113184406Y-128210263D01*
X113087715Y-128289615D01*
X113008363Y-128386306D01*
X112949398Y-128496620D01*
X112913088Y-128616318D01*
X112900828Y-128740800D01*
X108947702Y-128740800D01*
X109088402Y-128600100D01*
X109969092Y-128600100D01*
X110179909Y-128579336D01*
X110450408Y-128497282D01*
X110699701Y-128364032D01*
X110918208Y-128184708D01*
X111097532Y-127966201D01*
X111119501Y-127925100D01*
X111151178Y-127925100D01*
X111188500Y-127928776D01*
X111225822Y-127925100D01*
X111225833Y-127925100D01*
X111337486Y-127914103D01*
X111480747Y-127870646D01*
X111612776Y-127800074D01*
X111728501Y-127705101D01*
X111752304Y-127676097D01*
X113527192Y-125901210D01*
X113747340Y-125945000D01*
X114039860Y-125945000D01*
X114326758Y-125887932D01*
X114597011Y-125775990D01*
X114840232Y-125613475D01*
X115047075Y-125406632D01*
X115209590Y-125163411D01*
X115321532Y-124893158D01*
X115378600Y-124606260D01*
X115378600Y-124313740D01*
X115321532Y-124026842D01*
X115209590Y-123756589D01*
X115047075Y-123513368D01*
X114915220Y-123381513D01*
X114987780Y-123359502D01*
X115098094Y-123300537D01*
X115194785Y-123221185D01*
X115274137Y-123124494D01*
X115333102Y-123014180D01*
X115369412Y-122894482D01*
X115381672Y-122770000D01*
X115378600Y-122205750D01*
X115219850Y-122047000D01*
X114020600Y-122047000D01*
X114020600Y-122067000D01*
X113766600Y-122067000D01*
X113766600Y-122047000D01*
X112567350Y-122047000D01*
X112408600Y-122205750D01*
X112405528Y-122770000D01*
X112417788Y-122894482D01*
X112454098Y-123014180D01*
X112513063Y-123124494D01*
X112592415Y-123221185D01*
X112689106Y-123300537D01*
X112799420Y-123359502D01*
X112871980Y-123381513D01*
X112740125Y-123513368D01*
X112577610Y-123756589D01*
X112465668Y-124026842D01*
X112408600Y-124313740D01*
X112408600Y-124606260D01*
X112452390Y-124826408D01*
X111015165Y-126263634D01*
X110918208Y-126145492D01*
X110699701Y-125966168D01*
X110566742Y-125895100D01*
X110699701Y-125824032D01*
X110918208Y-125644708D01*
X111097532Y-125426201D01*
X111230782Y-125176908D01*
X111312836Y-124906409D01*
X111340543Y-124625100D01*
X111312836Y-124343791D01*
X111230782Y-124073292D01*
X111097532Y-123823999D01*
X110918208Y-123605492D01*
X110699701Y-123426168D01*
X110450408Y-123292918D01*
X110179909Y-123210864D01*
X109969092Y-123190100D01*
X108928108Y-123190100D01*
X108717291Y-123210864D01*
X108446792Y-123292918D01*
X108197499Y-123426168D01*
X107978992Y-123605492D01*
X107799668Y-123823999D01*
X107666418Y-124073292D01*
X107611764Y-124253463D01*
X105288401Y-121930100D01*
X106235757Y-121930100D01*
X106586142Y-121895590D01*
X107035716Y-121759213D01*
X107450046Y-121537749D01*
X107813209Y-121239709D01*
X107952485Y-121070000D01*
X112405528Y-121070000D01*
X112408600Y-121634250D01*
X112567350Y-121793000D01*
X113766600Y-121793000D01*
X113766600Y-120593750D01*
X114020600Y-120593750D01*
X114020600Y-121793000D01*
X115219850Y-121793000D01*
X115378600Y-121634250D01*
X115381672Y-121070000D01*
X115369412Y-120945518D01*
X115333102Y-120825820D01*
X115274137Y-120715506D01*
X115194785Y-120618815D01*
X115098094Y-120539463D01*
X114987780Y-120480498D01*
X114868082Y-120444188D01*
X114743600Y-120431928D01*
X114179350Y-120435000D01*
X114020600Y-120593750D01*
X113766600Y-120593750D01*
X113607850Y-120435000D01*
X113043600Y-120431928D01*
X112919118Y-120444188D01*
X112799420Y-120480498D01*
X112689106Y-120539463D01*
X112592415Y-120618815D01*
X112513063Y-120715506D01*
X112454098Y-120825820D01*
X112417788Y-120945518D01*
X112405528Y-121070000D01*
X107952485Y-121070000D01*
X108111249Y-120876546D01*
X108332713Y-120462216D01*
X108469090Y-120012642D01*
X108515139Y-119545100D01*
X108469090Y-119077558D01*
X108332713Y-118627984D01*
X108111249Y-118213654D01*
X107813209Y-117850491D01*
X107450046Y-117552451D01*
X107035716Y-117330987D01*
X106586142Y-117194610D01*
X106235757Y-117160100D01*
X102501443Y-117160100D01*
X102151058Y-117194610D01*
X101701484Y-117330987D01*
X101287154Y-117552451D01*
X100923991Y-117850491D01*
X100625951Y-118213654D01*
X100404487Y-118627984D01*
X100268110Y-119077558D01*
X100222061Y-119545100D01*
X97141500Y-119545100D01*
X97141500Y-116699500D01*
X125898767Y-116699500D01*
X125824830Y-116818725D01*
G04 #@! TA.AperFunction,Conductor*
D24*
G36*
X125824830Y-116818725D02*
G01*
X127635000Y-118628895D01*
X129445170Y-116818725D01*
X129371233Y-116699500D01*
X173460267Y-116699500D01*
X173386330Y-116818725D01*
X175196500Y-118628895D01*
X175210643Y-118614753D01*
X175390248Y-118794358D01*
X175376105Y-118808500D01*
X175390248Y-118822643D01*
X175210643Y-119002248D01*
X175196500Y-118988105D01*
X173386330Y-120798275D01*
X173626476Y-121185518D01*
X174120377Y-121446141D01*
X174655633Y-121605401D01*
X175211674Y-121657178D01*
X175767132Y-121599481D01*
X176300661Y-121434528D01*
X176766524Y-121185518D01*
X177006669Y-120798277D01*
X177051501Y-120843109D01*
X177051500Y-145031392D01*
X177006669Y-145076223D01*
X176766524Y-144688982D01*
X176272623Y-144428359D01*
X175737367Y-144269099D01*
X175181326Y-144217322D01*
X174625868Y-144275019D01*
X174092339Y-144439972D01*
X173699231Y-144650093D01*
X173697000Y-144240250D01*
X173538250Y-144081500D01*
X172339000Y-144081500D01*
X172339000Y-145280750D01*
X172497750Y-145439500D01*
X172906959Y-145441728D01*
X172819482Y-145495976D01*
X172558859Y-145989877D01*
X172399599Y-146525133D01*
X172347822Y-147081174D01*
X172405519Y-147636632D01*
X172570472Y-148170161D01*
X172819482Y-148636024D01*
X173206723Y-148876169D01*
X173098392Y-148984500D01*
X150831500Y-148984500D01*
X150831500Y-148917561D01*
X150829101Y-148905500D01*
X154331178Y-148905500D01*
X154368500Y-148909176D01*
X154405822Y-148905500D01*
X154405833Y-148905500D01*
X154517486Y-148894503D01*
X154660747Y-148851046D01*
X154792776Y-148780474D01*
X154908501Y-148685501D01*
X154932304Y-148656497D01*
X158146230Y-145442572D01*
X159409500Y-145442572D01*
X159533982Y-145430312D01*
X159653680Y-145394002D01*
X159763994Y-145335037D01*
X159860685Y-145255685D01*
X159940037Y-145158994D01*
X159999002Y-145048680D01*
X160035312Y-144928982D01*
X160047572Y-144804500D01*
X160047572Y-143539499D01*
X161387698Y-143539499D01*
X161436291Y-143588092D01*
X161392500Y-143808240D01*
X161392500Y-144100760D01*
X161449568Y-144387658D01*
X161561510Y-144657911D01*
X161724025Y-144901132D01*
X161930868Y-145107975D01*
X162174089Y-145270490D01*
X162444342Y-145382432D01*
X162731240Y-145439500D01*
X163023760Y-145439500D01*
X163310658Y-145382432D01*
X163580911Y-145270490D01*
X163824132Y-145107975D01*
X163955987Y-144976120D01*
X163977998Y-145048680D01*
X164036963Y-145158994D01*
X164116315Y-145255685D01*
X164213006Y-145335037D01*
X164323320Y-145394002D01*
X164443018Y-145430312D01*
X164567500Y-145442572D01*
X165131750Y-145439500D01*
X165290500Y-145280750D01*
X165290500Y-144081500D01*
X165544500Y-144081500D01*
X165544500Y-145280750D01*
X165703250Y-145439500D01*
X166267500Y-145442572D01*
X166391982Y-145430312D01*
X166511680Y-145394002D01*
X166621994Y-145335037D01*
X166718685Y-145255685D01*
X166798037Y-145158994D01*
X166857002Y-145048680D01*
X166893312Y-144928982D01*
X166905572Y-144804500D01*
X166902500Y-144240250D01*
X166743750Y-144081500D01*
X165544500Y-144081500D01*
X165290500Y-144081500D01*
X165270500Y-144081500D01*
X165270500Y-143827500D01*
X165290500Y-143827500D01*
X165290500Y-142628250D01*
X165544500Y-142628250D01*
X165544500Y-143827500D01*
X166743750Y-143827500D01*
X166902500Y-143668750D01*
X166905572Y-143104500D01*
X166893312Y-142980018D01*
X166857002Y-142860320D01*
X166798037Y-142750006D01*
X166718685Y-142653315D01*
X166621994Y-142573963D01*
X166511680Y-142514998D01*
X166391982Y-142478688D01*
X166267500Y-142466428D01*
X165703250Y-142469500D01*
X165544500Y-142628250D01*
X165290500Y-142628250D01*
X165131750Y-142469500D01*
X164567500Y-142466428D01*
X164443018Y-142478688D01*
X164323320Y-142514998D01*
X164213006Y-142573963D01*
X164116315Y-142653315D01*
X164036963Y-142750006D01*
X163977998Y-142860320D01*
X163955987Y-142932880D01*
X163824132Y-142801025D01*
X163580911Y-142638510D01*
X163310658Y-142526568D01*
X163023760Y-142469500D01*
X162731240Y-142469500D01*
X162511092Y-142513291D01*
X162266303Y-142268502D01*
X162242500Y-142239498D01*
X162126775Y-142144525D01*
X161994746Y-142073953D01*
X161851485Y-142030496D01*
X161739832Y-142019499D01*
X161739821Y-142019499D01*
X161702499Y-142015823D01*
X161665177Y-142019499D01*
X150371401Y-142019499D01*
X149791702Y-141439800D01*
X149963235Y-141439800D01*
X150240474Y-141384653D01*
X150501627Y-141276480D01*
X150736659Y-141119437D01*
X150936537Y-140919559D01*
X151091900Y-140687041D01*
X151247263Y-140919559D01*
X151447141Y-141119437D01*
X151682173Y-141276480D01*
X151943326Y-141384653D01*
X152220565Y-141439800D01*
X152503235Y-141439800D01*
X152780474Y-141384653D01*
X153041627Y-141276480D01*
X153276659Y-141119437D01*
X153476537Y-140919559D01*
X153631900Y-140687041D01*
X153787263Y-140919559D01*
X153987141Y-141119437D01*
X154222173Y-141276480D01*
X154483326Y-141384653D01*
X154760565Y-141439800D01*
X155043235Y-141439800D01*
X155320474Y-141384653D01*
X155581627Y-141276480D01*
X155816659Y-141119437D01*
X156016537Y-140919559D01*
X156171900Y-140687041D01*
X156327263Y-140919559D01*
X156527141Y-141119437D01*
X156762173Y-141276480D01*
X157023326Y-141384653D01*
X157300565Y-141439800D01*
X157583235Y-141439800D01*
X157860474Y-141384653D01*
X158121627Y-141276480D01*
X158356659Y-141119437D01*
X158556537Y-140919559D01*
X158711900Y-140687041D01*
X158867263Y-140919559D01*
X159067141Y-141119437D01*
X159302173Y-141276480D01*
X159563326Y-141384653D01*
X159840565Y-141439800D01*
X160123235Y-141439800D01*
X160400474Y-141384653D01*
X160661627Y-141276480D01*
X160896659Y-141119437D01*
X161096537Y-140919559D01*
X161251900Y-140687041D01*
X161407263Y-140919559D01*
X161607141Y-141119437D01*
X161842173Y-141276480D01*
X162103326Y-141384653D01*
X162380565Y-141439800D01*
X162663235Y-141439800D01*
X162940474Y-141384653D01*
X163201627Y-141276480D01*
X163436659Y-141119437D01*
X163636537Y-140919559D01*
X163791900Y-140687041D01*
X163947263Y-140919559D01*
X164147141Y-141119437D01*
X164382173Y-141276480D01*
X164643326Y-141384653D01*
X164920565Y-141439800D01*
X165203235Y-141439800D01*
X165480474Y-141384653D01*
X165741627Y-141276480D01*
X165976659Y-141119437D01*
X166176537Y-140919559D01*
X166331900Y-140687041D01*
X166487263Y-140919559D01*
X166687141Y-141119437D01*
X166922173Y-141276480D01*
X167183326Y-141384653D01*
X167460565Y-141439800D01*
X167743235Y-141439800D01*
X168020474Y-141384653D01*
X168281627Y-141276480D01*
X168516659Y-141119437D01*
X168716537Y-140919559D01*
X168871900Y-140687041D01*
X169027263Y-140919559D01*
X169227141Y-141119437D01*
X169462173Y-141276480D01*
X169723326Y-141384653D01*
X170000565Y-141439800D01*
X170283235Y-141439800D01*
X170506901Y-141395309D01*
X170506901Y-142044797D01*
X170038408Y-142513290D01*
X169818260Y-142469500D01*
X169525740Y-142469500D01*
X169238842Y-142526568D01*
X168968589Y-142638510D01*
X168725368Y-142801025D01*
X168518525Y-143007868D01*
X168356010Y-143251089D01*
X168244068Y-143521342D01*
X168187000Y-143808240D01*
X168187000Y-144100760D01*
X168244068Y-144387658D01*
X168356010Y-144657911D01*
X168518525Y-144901132D01*
X168725368Y-145107975D01*
X168968589Y-145270490D01*
X169238842Y-145382432D01*
X169525740Y-145439500D01*
X169818260Y-145439500D01*
X170105158Y-145382432D01*
X170375411Y-145270490D01*
X170618632Y-145107975D01*
X170750487Y-144976120D01*
X170772498Y-145048680D01*
X170831463Y-145158994D01*
X170910815Y-145255685D01*
X171007506Y-145335037D01*
X171117820Y-145394002D01*
X171237518Y-145430312D01*
X171362000Y-145442572D01*
X171926250Y-145439500D01*
X172085000Y-145280750D01*
X172085000Y-144081500D01*
X172065000Y-144081500D01*
X172065000Y-143827500D01*
X172085000Y-143827500D01*
X172085000Y-142628250D01*
X172339000Y-142628250D01*
X172339000Y-143827500D01*
X173538250Y-143827500D01*
X173697000Y-143668750D01*
X173700072Y-143104500D01*
X173687812Y-142980018D01*
X173651502Y-142860320D01*
X173592537Y-142750006D01*
X173513185Y-142653315D01*
X173416494Y-142573963D01*
X173306180Y-142514998D01*
X173186482Y-142478688D01*
X173062000Y-142466428D01*
X172497750Y-142469500D01*
X172339000Y-142628250D01*
X172085000Y-142628250D01*
X172004135Y-142547385D01*
X172015904Y-142508585D01*
X172026901Y-142396932D01*
X172026901Y-142396931D01*
X172030578Y-142359599D01*
X172026901Y-142322266D01*
X172026901Y-141286723D01*
X172263326Y-141384653D01*
X172540565Y-141439800D01*
X172823235Y-141439800D01*
X173100474Y-141384653D01*
X173361627Y-141276480D01*
X173596659Y-141119437D01*
X173796537Y-140919559D01*
X173951900Y-140687041D01*
X174107263Y-140919559D01*
X174307141Y-141119437D01*
X174542173Y-141276480D01*
X174803326Y-141384653D01*
X175080565Y-141439800D01*
X175363235Y-141439800D01*
X175640474Y-141384653D01*
X175901627Y-141276480D01*
X176136659Y-141119437D01*
X176336537Y-140919559D01*
X176493580Y-140684527D01*
X176601753Y-140423374D01*
X176656900Y-140146135D01*
X176656900Y-139863465D01*
X176601753Y-139586226D01*
X176493580Y-139325073D01*
X176336537Y-139090041D01*
X176136659Y-138890163D01*
X175901627Y-138733120D01*
X175686956Y-138644201D01*
X175792836Y-138623140D01*
X176017592Y-138530043D01*
X176219867Y-138394887D01*
X176391887Y-138222867D01*
X176527043Y-138020592D01*
X176620140Y-137795836D01*
X176667600Y-137557237D01*
X176667600Y-137313963D01*
X176620140Y-137075364D01*
X176527043Y-136850608D01*
X176391887Y-136648333D01*
X176219867Y-136476313D01*
X176017592Y-136341157D01*
X175792836Y-136248060D01*
X175554237Y-136200600D01*
X175310963Y-136200600D01*
X175072364Y-136248060D01*
X174847608Y-136341157D01*
X174645333Y-136476313D01*
X174473313Y-136648333D01*
X174338157Y-136850608D01*
X174245060Y-137075364D01*
X174197600Y-137313963D01*
X174197600Y-137557237D01*
X174245060Y-137795836D01*
X174338157Y-138020592D01*
X174473313Y-138222867D01*
X174645333Y-138394887D01*
X174847608Y-138530043D01*
X174988028Y-138588207D01*
X174803326Y-138624947D01*
X174542173Y-138733120D01*
X174307141Y-138890163D01*
X174107263Y-139090041D01*
X173951900Y-139322559D01*
X173796537Y-139090041D01*
X173596659Y-138890163D01*
X173361627Y-138733120D01*
X173159933Y-138649576D01*
X173292836Y-138623140D01*
X173517592Y-138530043D01*
X173719867Y-138394887D01*
X173891887Y-138222867D01*
X174027043Y-138020592D01*
X174120140Y-137795836D01*
X174167600Y-137557237D01*
X174167600Y-137313963D01*
X174120140Y-137075364D01*
X174027043Y-136850608D01*
X173891887Y-136648333D01*
X173719867Y-136476313D01*
X173517592Y-136341157D01*
X173292836Y-136248060D01*
X173054237Y-136200600D01*
X172810963Y-136200600D01*
X172572364Y-136248060D01*
X172347608Y-136341157D01*
X172145333Y-136476313D01*
X172026901Y-136594745D01*
X172026901Y-134416100D01*
X172259914Y-134183087D01*
X172438474Y-134278529D01*
X172680697Y-134352007D01*
X172932600Y-134376817D01*
X173184504Y-134352007D01*
X173426727Y-134278529D01*
X173649962Y-134159208D01*
X173845628Y-133998628D01*
X174006208Y-133802962D01*
X174125529Y-133579727D01*
X174199007Y-133337504D01*
X174217600Y-133148723D01*
X174217600Y-131722477D01*
X174199007Y-131533696D01*
X174125529Y-131291473D01*
X174006208Y-131068238D01*
X173845628Y-130872572D01*
X173649961Y-130711992D01*
X173426726Y-130592671D01*
X173184503Y-130519193D01*
X172932600Y-130494383D01*
X172680696Y-130519193D01*
X172438473Y-130592671D01*
X172215238Y-130711992D01*
X172019572Y-130872572D01*
X171858992Y-131068239D01*
X171739671Y-131291474D01*
X171666193Y-131533697D01*
X171647600Y-131722478D01*
X171647600Y-132645798D01*
X170755899Y-133537500D01*
X170726901Y-133561298D01*
X170703103Y-133590296D01*
X170703102Y-133590297D01*
X170631927Y-133677023D01*
X170561355Y-133809053D01*
X170536953Y-133889499D01*
X170521824Y-133939376D01*
X170517899Y-133952314D01*
X170503225Y-134101299D01*
X170506902Y-134138631D01*
X170506901Y-138614291D01*
X170283235Y-138569800D01*
X170000565Y-138569800D01*
X169723326Y-138624947D01*
X169462173Y-138733120D01*
X169227141Y-138890163D01*
X169027263Y-139090041D01*
X168871900Y-139322559D01*
X168716537Y-139090041D01*
X168516659Y-138890163D01*
X168281627Y-138733120D01*
X168251401Y-138720600D01*
X168645723Y-138720600D01*
X168834504Y-138702007D01*
X169076727Y-138628529D01*
X169299962Y-138509208D01*
X169495628Y-138348628D01*
X169656208Y-138152962D01*
X169775529Y-137929727D01*
X169849007Y-137687504D01*
X169873817Y-137435600D01*
X169849007Y-137183696D01*
X169775529Y-136941473D01*
X169656208Y-136718238D01*
X169495628Y-136522572D01*
X169299962Y-136361992D01*
X169076727Y-136242671D01*
X168888590Y-136185600D01*
X169076727Y-136128529D01*
X169299962Y-136009208D01*
X169495628Y-135848628D01*
X169656208Y-135652962D01*
X169775529Y-135429727D01*
X169849007Y-135187504D01*
X169873817Y-134935600D01*
X169849007Y-134683696D01*
X169775529Y-134441473D01*
X169656208Y-134218238D01*
X169495628Y-134022572D01*
X169299962Y-133861992D01*
X169076727Y-133742671D01*
X168834504Y-133669193D01*
X168645723Y-133650600D01*
X168154784Y-133650600D01*
X168292836Y-133623140D01*
X168517592Y-133530043D01*
X168719867Y-133394887D01*
X168891887Y-133222867D01*
X169027043Y-133020592D01*
X169120140Y-132795836D01*
X169167600Y-132557237D01*
X169167600Y-132313963D01*
X169120140Y-132075364D01*
X169027043Y-131850608D01*
X168891887Y-131648333D01*
X168719867Y-131476313D01*
X168517592Y-131341157D01*
X168292836Y-131248060D01*
X168154784Y-131220600D01*
X168645723Y-131220600D01*
X168834504Y-131202007D01*
X169076727Y-131128529D01*
X169299962Y-131009208D01*
X169495628Y-130848628D01*
X169656208Y-130652962D01*
X169775529Y-130429727D01*
X169849007Y-130187504D01*
X169873817Y-129935600D01*
X169849007Y-129683696D01*
X169775529Y-129441473D01*
X169656208Y-129218238D01*
X169495628Y-129022572D01*
X169299962Y-128861992D01*
X169076727Y-128742671D01*
X168888590Y-128685600D01*
X169076727Y-128628529D01*
X169299962Y-128509208D01*
X169495628Y-128348628D01*
X169656208Y-128152962D01*
X169775529Y-127929727D01*
X169849007Y-127687504D01*
X169873817Y-127435600D01*
X169861837Y-127313963D01*
X171697600Y-127313963D01*
X171697600Y-127557237D01*
X171745060Y-127795836D01*
X171838157Y-128020592D01*
X171973313Y-128222867D01*
X172145333Y-128394887D01*
X172347608Y-128530043D01*
X172572364Y-128623140D01*
X172810963Y-128670600D01*
X173054237Y-128670600D01*
X173292836Y-128623140D01*
X173517592Y-128530043D01*
X173719867Y-128394887D01*
X173891887Y-128222867D01*
X174027043Y-128020592D01*
X174120140Y-127795836D01*
X174167600Y-127557237D01*
X174167600Y-127313963D01*
X174197600Y-127313963D01*
X174197600Y-127557237D01*
X174245060Y-127795836D01*
X174338157Y-128020592D01*
X174473313Y-128222867D01*
X174645333Y-128394887D01*
X174847608Y-128530043D01*
X175072364Y-128623140D01*
X175310963Y-128670600D01*
X175554237Y-128670600D01*
X175792836Y-128623140D01*
X176017592Y-128530043D01*
X176219867Y-128394887D01*
X176391887Y-128222867D01*
X176527043Y-128020592D01*
X176620140Y-127795836D01*
X176667600Y-127557237D01*
X176667600Y-127313963D01*
X176620140Y-127075364D01*
X176527043Y-126850608D01*
X176391887Y-126648333D01*
X176219867Y-126476313D01*
X176017592Y-126341157D01*
X175792836Y-126248060D01*
X175554237Y-126200600D01*
X175310963Y-126200600D01*
X175072364Y-126248060D01*
X174847608Y-126341157D01*
X174645333Y-126476313D01*
X174473313Y-126648333D01*
X174338157Y-126850608D01*
X174245060Y-127075364D01*
X174197600Y-127313963D01*
X174167600Y-127313963D01*
X174120140Y-127075364D01*
X174027043Y-126850608D01*
X173891887Y-126648333D01*
X173719867Y-126476313D01*
X173517592Y-126341157D01*
X173292836Y-126248060D01*
X173054237Y-126200600D01*
X172810963Y-126200600D01*
X172572364Y-126248060D01*
X172347608Y-126341157D01*
X172145333Y-126476313D01*
X171973313Y-126648333D01*
X171838157Y-126850608D01*
X171745060Y-127075364D01*
X171697600Y-127313963D01*
X169861837Y-127313963D01*
X169849007Y-127183696D01*
X169781119Y-126959900D01*
X171209478Y-126959900D01*
X171246800Y-126963576D01*
X171284122Y-126959900D01*
X171284133Y-126959900D01*
X171395786Y-126948903D01*
X171539047Y-126905446D01*
X171671076Y-126834874D01*
X171786801Y-126739901D01*
X171810604Y-126710897D01*
X172358014Y-126163488D01*
X172540565Y-126199800D01*
X172823235Y-126199800D01*
X173100474Y-126144653D01*
X173361627Y-126036480D01*
X173596659Y-125879437D01*
X173796537Y-125679559D01*
X173951900Y-125447041D01*
X174107263Y-125679559D01*
X174307141Y-125879437D01*
X174542173Y-126036480D01*
X174803326Y-126144653D01*
X175080565Y-126199800D01*
X175363235Y-126199800D01*
X175640474Y-126144653D01*
X175901627Y-126036480D01*
X176136659Y-125879437D01*
X176336537Y-125679559D01*
X176493580Y-125444527D01*
X176601753Y-125183374D01*
X176656900Y-124906135D01*
X176656900Y-124623465D01*
X176601753Y-124346226D01*
X176493580Y-124085073D01*
X176336537Y-123850041D01*
X176136659Y-123650163D01*
X175901627Y-123493120D01*
X175640474Y-123384947D01*
X175363235Y-123329800D01*
X175080565Y-123329800D01*
X174803326Y-123384947D01*
X174542173Y-123493120D01*
X174307141Y-123650163D01*
X174107263Y-123850041D01*
X173951900Y-124082559D01*
X173796537Y-123850041D01*
X173596659Y-123650163D01*
X173361627Y-123493120D01*
X173100474Y-123384947D01*
X172823235Y-123329800D01*
X172540565Y-123329800D01*
X172263326Y-123384947D01*
X172002173Y-123493120D01*
X171767141Y-123650163D01*
X171567263Y-123850041D01*
X171411900Y-124082559D01*
X171256537Y-123850041D01*
X171056659Y-123650163D01*
X170821627Y-123493120D01*
X170560474Y-123384947D01*
X170283235Y-123329800D01*
X170000565Y-123329800D01*
X169723326Y-123384947D01*
X169462173Y-123493120D01*
X169227141Y-123650163D01*
X169027263Y-123850041D01*
X168871900Y-124082559D01*
X168716537Y-123850041D01*
X168516659Y-123650163D01*
X168281627Y-123493120D01*
X168020474Y-123384947D01*
X167743235Y-123329800D01*
X167460565Y-123329800D01*
X167183326Y-123384947D01*
X166922173Y-123493120D01*
X166687141Y-123650163D01*
X166487263Y-123850041D01*
X166331900Y-124082559D01*
X166176537Y-123850041D01*
X165976659Y-123650163D01*
X165741627Y-123493120D01*
X165480474Y-123384947D01*
X165203235Y-123329800D01*
X164920565Y-123329800D01*
X164643326Y-123384947D01*
X164382173Y-123493120D01*
X164147141Y-123650163D01*
X163947263Y-123850041D01*
X163791900Y-124082559D01*
X163636537Y-123850041D01*
X163436659Y-123650163D01*
X163201627Y-123493120D01*
X162940474Y-123384947D01*
X162663235Y-123329800D01*
X162380565Y-123329800D01*
X162103326Y-123384947D01*
X161842173Y-123493120D01*
X161607141Y-123650163D01*
X161407263Y-123850041D01*
X161251900Y-124082559D01*
X161096537Y-123850041D01*
X160896659Y-123650163D01*
X160661627Y-123493120D01*
X160400474Y-123384947D01*
X160123235Y-123329800D01*
X159840565Y-123329800D01*
X159563326Y-123384947D01*
X159302173Y-123493120D01*
X159067141Y-123650163D01*
X158867263Y-123850041D01*
X158711900Y-124082559D01*
X158556537Y-123850041D01*
X158356659Y-123650163D01*
X158121627Y-123493120D01*
X157860474Y-123384947D01*
X157583235Y-123329800D01*
X157300565Y-123329800D01*
X157023326Y-123384947D01*
X156762173Y-123493120D01*
X156527141Y-123650163D01*
X156327263Y-123850041D01*
X156171900Y-124082559D01*
X156016537Y-123850041D01*
X155816659Y-123650163D01*
X155581627Y-123493120D01*
X155320474Y-123384947D01*
X155207355Y-123362446D01*
X157384230Y-121185572D01*
X158647500Y-121185572D01*
X158771982Y-121173312D01*
X158891680Y-121137002D01*
X159001994Y-121078037D01*
X159098685Y-120998685D01*
X159178037Y-120901994D01*
X159237002Y-120791680D01*
X159273312Y-120671982D01*
X159285572Y-120547500D01*
X159285572Y-118847500D01*
X159273312Y-118723018D01*
X159272549Y-118720500D01*
X160563928Y-118720500D01*
X160563928Y-120420500D01*
X160576188Y-120544982D01*
X160612498Y-120664680D01*
X160671463Y-120774994D01*
X160750815Y-120871685D01*
X160847506Y-120951037D01*
X160957820Y-121010002D01*
X161077518Y-121046312D01*
X161202000Y-121058572D01*
X162902000Y-121058572D01*
X163026482Y-121046312D01*
X163146180Y-121010002D01*
X163256494Y-120951037D01*
X163353185Y-120871685D01*
X163432537Y-120774994D01*
X163491502Y-120664680D01*
X163513513Y-120592120D01*
X163645368Y-120723975D01*
X163888589Y-120886490D01*
X164158842Y-120998432D01*
X164445740Y-121055500D01*
X164738260Y-121055500D01*
X165025158Y-120998432D01*
X165295411Y-120886490D01*
X165538632Y-120723975D01*
X165745475Y-120517132D01*
X165907990Y-120273911D01*
X166019932Y-120003658D01*
X166077000Y-119716760D01*
X166077000Y-119424240D01*
X166019932Y-119137342D01*
X165907990Y-118867089D01*
X165894902Y-118847500D01*
X167358428Y-118847500D01*
X167358428Y-120547500D01*
X167370688Y-120671982D01*
X167406998Y-120791680D01*
X167465963Y-120901994D01*
X167545315Y-120998685D01*
X167642006Y-121078037D01*
X167752320Y-121137002D01*
X167872018Y-121173312D01*
X167996500Y-121185572D01*
X169696500Y-121185572D01*
X169820982Y-121173312D01*
X169940680Y-121137002D01*
X170050994Y-121078037D01*
X170147685Y-120998685D01*
X170227037Y-120901994D01*
X170286002Y-120791680D01*
X170322312Y-120671982D01*
X170334572Y-120547500D01*
X170334572Y-118847500D01*
X170332226Y-118823674D01*
X172347822Y-118823674D01*
X172405519Y-119379132D01*
X172570472Y-119912661D01*
X172819482Y-120378524D01*
X173206725Y-120618670D01*
X175016895Y-118808500D01*
X173206725Y-116998330D01*
X172819482Y-117238476D01*
X172558859Y-117732377D01*
X172399599Y-118267633D01*
X172347822Y-118823674D01*
X170332226Y-118823674D01*
X170322312Y-118723018D01*
X170286002Y-118603320D01*
X170227037Y-118493006D01*
X170147685Y-118396315D01*
X170050994Y-118316963D01*
X169940680Y-118257998D01*
X169820982Y-118221688D01*
X169696500Y-118209428D01*
X167996500Y-118209428D01*
X167872018Y-118221688D01*
X167752320Y-118257998D01*
X167642006Y-118316963D01*
X167545315Y-118396315D01*
X167465963Y-118493006D01*
X167406998Y-118603320D01*
X167370688Y-118723018D01*
X167358428Y-118847500D01*
X165894902Y-118847500D01*
X165745475Y-118623868D01*
X165538632Y-118417025D01*
X165295411Y-118254510D01*
X165025158Y-118142568D01*
X164738260Y-118085500D01*
X164445740Y-118085500D01*
X164158842Y-118142568D01*
X163888589Y-118254510D01*
X163645368Y-118417025D01*
X163513513Y-118548880D01*
X163491502Y-118476320D01*
X163432537Y-118366006D01*
X163353185Y-118269315D01*
X163256494Y-118189963D01*
X163146180Y-118130998D01*
X163026482Y-118094688D01*
X162902000Y-118082428D01*
X161202000Y-118082428D01*
X161077518Y-118094688D01*
X160957820Y-118130998D01*
X160847506Y-118189963D01*
X160750815Y-118269315D01*
X160671463Y-118366006D01*
X160612498Y-118476320D01*
X160576188Y-118596018D01*
X160563928Y-118720500D01*
X159272549Y-118720500D01*
X159237002Y-118603320D01*
X159178037Y-118493006D01*
X159098685Y-118396315D01*
X159001994Y-118316963D01*
X158891680Y-118257998D01*
X158771982Y-118221688D01*
X158647500Y-118209428D01*
X156947500Y-118209428D01*
X156823018Y-118221688D01*
X156703320Y-118257998D01*
X156593006Y-118316963D01*
X156496315Y-118396315D01*
X156416963Y-118493006D01*
X156357998Y-118603320D01*
X156321688Y-118723018D01*
X156309428Y-118847500D01*
X156309428Y-120110770D01*
X153540400Y-122879799D01*
X141699221Y-122879799D01*
X141661898Y-122876123D01*
X141624575Y-122879799D01*
X141624566Y-122879799D01*
X141512913Y-122890796D01*
X141369652Y-122934253D01*
X141237622Y-123004825D01*
X141204427Y-123032068D01*
X141121898Y-123099798D01*
X141098100Y-123128796D01*
X140576696Y-123650200D01*
X140576659Y-123650163D01*
X140341627Y-123493120D01*
X140080474Y-123384947D01*
X139803235Y-123329800D01*
X139520565Y-123329800D01*
X139243326Y-123384947D01*
X138982173Y-123493120D01*
X138747141Y-123650163D01*
X138547263Y-123850041D01*
X138390220Y-124085073D01*
X138282047Y-124346226D01*
X138226900Y-124623465D01*
X138226900Y-124906135D01*
X138282047Y-125183374D01*
X138390220Y-125444527D01*
X138547263Y-125679559D01*
X138747141Y-125879437D01*
X138784085Y-125904122D01*
X138725002Y-125915874D01*
X138536644Y-125993895D01*
X138367126Y-126107163D01*
X138222963Y-126251326D01*
X138109695Y-126420844D01*
X138031674Y-126609202D01*
X137991900Y-126809161D01*
X137991900Y-127013039D01*
X138031674Y-127212998D01*
X138109695Y-127401356D01*
X138222963Y-127570874D01*
X138367126Y-127715037D01*
X138536644Y-127828305D01*
X138725002Y-127906326D01*
X138924961Y-127946100D01*
X139128839Y-127946100D01*
X139328798Y-127906326D01*
X139517156Y-127828305D01*
X139686674Y-127715037D01*
X139830837Y-127570874D01*
X139944105Y-127401356D01*
X140022126Y-127212998D01*
X140039165Y-127127339D01*
X141287104Y-125879400D01*
X141287141Y-125879437D01*
X141522173Y-126036480D01*
X141783326Y-126144653D01*
X142060565Y-126199800D01*
X142343235Y-126199800D01*
X142620474Y-126144653D01*
X142881627Y-126036480D01*
X143116659Y-125879437D01*
X143316537Y-125679559D01*
X143471900Y-125447041D01*
X143627263Y-125679559D01*
X143827141Y-125879437D01*
X144062173Y-126036480D01*
X144323326Y-126144653D01*
X144600565Y-126199800D01*
X144883235Y-126199800D01*
X145160474Y-126144653D01*
X145421627Y-126036480D01*
X145656659Y-125879437D01*
X145856537Y-125679559D01*
X146011900Y-125447041D01*
X146167263Y-125679559D01*
X146367141Y-125879437D01*
X146602173Y-126036480D01*
X146863326Y-126144653D01*
X147045550Y-126180900D01*
X147002161Y-126180900D01*
X146802202Y-126220674D01*
X146613844Y-126298695D01*
X146444326Y-126411963D01*
X146300163Y-126556126D01*
X146186895Y-126725644D01*
X146108874Y-126914002D01*
X146069100Y-127113961D01*
X146069100Y-127317839D01*
X146108874Y-127517798D01*
X146186895Y-127706156D01*
X146300163Y-127875674D01*
X146444326Y-128019837D01*
X146613844Y-128133105D01*
X146802202Y-128211126D01*
X147002161Y-128250900D01*
X147206039Y-128250900D01*
X147405998Y-128211126D01*
X147594356Y-128133105D01*
X147763874Y-128019837D01*
X147807811Y-127975900D01*
X150667589Y-127975900D01*
X150711526Y-128019837D01*
X150881044Y-128133105D01*
X151069402Y-128211126D01*
X151269361Y-128250900D01*
X151473239Y-128250900D01*
X151673198Y-128211126D01*
X151861556Y-128133105D01*
X152031074Y-128019837D01*
X152175237Y-127875674D01*
X152288505Y-127706156D01*
X152366526Y-127517798D01*
X152406300Y-127317839D01*
X152406300Y-127113961D01*
X152366526Y-126914002D01*
X152288505Y-126725644D01*
X152175237Y-126556126D01*
X152031074Y-126411963D01*
X151861556Y-126298695D01*
X151673198Y-126220674D01*
X151473239Y-126180900D01*
X151269361Y-126180900D01*
X151069402Y-126220674D01*
X150881044Y-126298695D01*
X150711526Y-126411963D01*
X150667589Y-126455900D01*
X147807811Y-126455900D01*
X147763874Y-126411963D01*
X147594356Y-126298695D01*
X147405998Y-126220674D01*
X147301056Y-126199800D01*
X147423235Y-126199800D01*
X147700474Y-126144653D01*
X147961627Y-126036480D01*
X148196659Y-125879437D01*
X148396537Y-125679559D01*
X148551900Y-125447041D01*
X148707263Y-125679559D01*
X148907141Y-125879437D01*
X149142173Y-126036480D01*
X149403326Y-126144653D01*
X149680565Y-126199800D01*
X149963235Y-126199800D01*
X150240474Y-126144653D01*
X150501627Y-126036480D01*
X150736659Y-125879437D01*
X150936537Y-125679559D01*
X151091900Y-125447041D01*
X151247263Y-125679559D01*
X151447141Y-125879437D01*
X151682173Y-126036480D01*
X151943326Y-126144653D01*
X152220565Y-126199800D01*
X152503235Y-126199800D01*
X152780474Y-126144653D01*
X152883500Y-126101978D01*
X152883499Y-129606534D01*
X152722240Y-129638610D01*
X152533882Y-129716631D01*
X152364364Y-129829899D01*
X152283963Y-129910300D01*
X150703411Y-129910300D01*
X150659474Y-129866363D01*
X150489956Y-129753095D01*
X150301598Y-129675074D01*
X150101639Y-129635300D01*
X150035474Y-129635300D01*
X150029726Y-129606402D01*
X149951705Y-129418044D01*
X149838437Y-129248526D01*
X149694274Y-129104363D01*
X149524756Y-128991095D01*
X149336398Y-128913074D01*
X149136439Y-128873300D01*
X148932561Y-128873300D01*
X148732602Y-128913074D01*
X148544244Y-128991095D01*
X148461025Y-129046700D01*
X137901811Y-129046700D01*
X137857874Y-129002763D01*
X137688356Y-128889495D01*
X137499998Y-128811474D01*
X137300039Y-128771700D01*
X137096161Y-128771700D01*
X136896202Y-128811474D01*
X136707844Y-128889495D01*
X136538326Y-129002763D01*
X136394163Y-129146926D01*
X136280895Y-129316444D01*
X136202874Y-129504802D01*
X136163100Y-129704761D01*
X136163100Y-129908639D01*
X136202874Y-130108598D01*
X136280895Y-130296956D01*
X136394163Y-130466474D01*
X136538326Y-130610637D01*
X136707844Y-130723905D01*
X136896202Y-130801926D01*
X137096161Y-130841700D01*
X137300039Y-130841700D01*
X137499998Y-130801926D01*
X137688356Y-130723905D01*
X137857874Y-130610637D01*
X137901811Y-130566700D01*
X148229645Y-130566700D01*
X148230563Y-130568074D01*
X148374726Y-130712237D01*
X148544244Y-130825505D01*
X148664942Y-130875500D01*
X128206412Y-130875500D01*
X128217194Y-130869737D01*
X128313885Y-130790385D01*
X128393237Y-130693694D01*
X128452202Y-130583380D01*
X128488512Y-130463682D01*
X128500772Y-130339200D01*
X128500772Y-128639200D01*
X128488512Y-128514718D01*
X128452202Y-128395020D01*
X128393237Y-128284706D01*
X128313885Y-128188015D01*
X128217194Y-128108663D01*
X128106880Y-128049698D01*
X127987182Y-128013388D01*
X127862700Y-128001128D01*
X127772700Y-128001128D01*
X127772700Y-126886033D01*
X127776377Y-126848700D01*
X127761703Y-126699714D01*
X127718246Y-126556453D01*
X127647674Y-126424424D01*
X127603911Y-126371099D01*
X127552701Y-126308699D01*
X127523703Y-126284901D01*
X123423501Y-122184700D01*
X134671578Y-122184700D01*
X134708900Y-122188376D01*
X134746222Y-122184700D01*
X134746233Y-122184700D01*
X134857886Y-122173703D01*
X135001147Y-122130246D01*
X135050062Y-122104100D01*
X135166439Y-122104100D01*
X135366398Y-122064326D01*
X135554756Y-121986305D01*
X135724274Y-121873037D01*
X135868437Y-121728874D01*
X135981705Y-121559356D01*
X136059726Y-121370998D01*
X136099500Y-121171039D01*
X136099500Y-120967161D01*
X136059726Y-120767202D01*
X135981705Y-120578844D01*
X135868437Y-120409326D01*
X135724274Y-120265163D01*
X135554756Y-120151895D01*
X135366398Y-120073874D01*
X135166439Y-120034100D01*
X134962561Y-120034100D01*
X134762602Y-120073874D01*
X134574244Y-120151895D01*
X134404726Y-120265163D01*
X134260563Y-120409326D01*
X134147295Y-120578844D01*
X134111732Y-120664700D01*
X129670808Y-120664700D01*
X129624777Y-120618669D01*
X130012018Y-120378524D01*
X130272641Y-119884623D01*
X130431901Y-119349367D01*
X130483678Y-118793326D01*
X130482710Y-118784000D01*
X151991428Y-118784000D01*
X151991428Y-120484000D01*
X152003688Y-120608482D01*
X152039998Y-120728180D01*
X152098963Y-120838494D01*
X152178315Y-120935185D01*
X152275006Y-121014537D01*
X152385320Y-121073502D01*
X152505018Y-121109812D01*
X152629500Y-121122072D01*
X154329500Y-121122072D01*
X154453982Y-121109812D01*
X154573680Y-121073502D01*
X154683994Y-121014537D01*
X154780685Y-120935185D01*
X154860037Y-120838494D01*
X154919002Y-120728180D01*
X154955312Y-120608482D01*
X154967572Y-120484000D01*
X154967572Y-118784000D01*
X154955312Y-118659518D01*
X154919002Y-118539820D01*
X154860037Y-118429506D01*
X154780685Y-118332815D01*
X154683994Y-118253463D01*
X154573680Y-118194498D01*
X154453982Y-118158188D01*
X154329500Y-118145928D01*
X152629500Y-118145928D01*
X152505018Y-118158188D01*
X152385320Y-118194498D01*
X152275006Y-118253463D01*
X152178315Y-118332815D01*
X152098963Y-118429506D01*
X152039998Y-118539820D01*
X152003688Y-118659518D01*
X151991428Y-118784000D01*
X130482710Y-118784000D01*
X130425981Y-118237868D01*
X130261028Y-117704339D01*
X130012018Y-117238476D01*
X129624775Y-116998330D01*
X127814605Y-118808500D01*
X127828748Y-118822643D01*
X127649143Y-119002248D01*
X127635000Y-118988105D01*
X127620858Y-119002248D01*
X127441253Y-118822643D01*
X127455395Y-118808500D01*
X125645225Y-116998330D01*
X125257982Y-117238476D01*
X124997359Y-117732377D01*
X124838099Y-118267633D01*
X124786322Y-118823674D01*
X124844019Y-119379132D01*
X125008972Y-119912661D01*
X125257982Y-120378524D01*
X125645223Y-120618669D01*
X125599192Y-120664700D01*
X118750211Y-120664700D01*
X118706274Y-120620763D01*
X118536756Y-120507495D01*
X118348398Y-120429474D01*
X118148439Y-120389700D01*
X117944561Y-120389700D01*
X117744602Y-120429474D01*
X117556244Y-120507495D01*
X117386726Y-120620763D01*
X117242563Y-120764926D01*
X117129295Y-120934444D01*
X117051274Y-121122802D01*
X117011500Y-121322761D01*
X117011500Y-121526639D01*
X117051274Y-121726598D01*
X117129295Y-121914956D01*
X117242563Y-122084474D01*
X117386726Y-122228637D01*
X117556244Y-122341905D01*
X117744602Y-122419926D01*
X117944561Y-122459700D01*
X118148439Y-122459700D01*
X118348398Y-122419926D01*
X118536756Y-122341905D01*
X118706274Y-122228637D01*
X118750211Y-122184700D01*
X119805500Y-122184700D01*
X119805500Y-122251639D01*
X119845274Y-122451598D01*
X119923295Y-122639956D01*
X120036563Y-122809474D01*
X120180726Y-122953637D01*
X120350244Y-123066905D01*
X120538602Y-123144926D01*
X120579700Y-123153101D01*
X124275900Y-126849302D01*
X124275900Y-126911439D01*
X124315674Y-127111398D01*
X124393695Y-127299756D01*
X124506963Y-127469274D01*
X124651126Y-127613437D01*
X124820644Y-127726705D01*
X125009002Y-127804726D01*
X125208961Y-127844500D01*
X125412839Y-127844500D01*
X125612798Y-127804726D01*
X125801156Y-127726705D01*
X125970674Y-127613437D01*
X126114837Y-127469274D01*
X126228105Y-127299756D01*
X126252701Y-127240377D01*
X126252701Y-128001128D01*
X126162700Y-128001128D01*
X126038218Y-128013388D01*
X125918520Y-128049698D01*
X125808206Y-128108663D01*
X125711515Y-128188015D01*
X125632163Y-128284706D01*
X125573198Y-128395020D01*
X125536888Y-128514718D01*
X125524628Y-128639200D01*
X125524628Y-130339200D01*
X125536888Y-130463682D01*
X125573198Y-130583380D01*
X125632163Y-130693694D01*
X125711515Y-130790385D01*
X125808206Y-130869737D01*
X125818988Y-130875500D01*
X125252611Y-130875500D01*
X125208674Y-130831563D01*
X125039156Y-130718295D01*
X124850798Y-130640274D01*
X124650839Y-130600500D01*
X124446961Y-130600500D01*
X124315109Y-130626727D01*
X124324702Y-130608780D01*
X124361012Y-130489082D01*
X124373272Y-130364600D01*
X124373272Y-128664600D01*
X124361012Y-128540118D01*
X124324702Y-128420420D01*
X124265737Y-128310106D01*
X124186385Y-128213415D01*
X124089694Y-128134063D01*
X123979380Y-128075098D01*
X123859682Y-128038788D01*
X123735200Y-128026528D01*
X122035200Y-128026528D01*
X121910718Y-128038788D01*
X121791020Y-128075098D01*
X121680706Y-128134063D01*
X121584015Y-128213415D01*
X121504663Y-128310106D01*
X121445698Y-128420420D01*
X121409388Y-128540118D01*
X121397128Y-128664600D01*
X121397128Y-128852130D01*
X121237593Y-128745532D01*
X121049235Y-128667511D01*
X120849276Y-128627737D01*
X120645398Y-128627737D01*
X120445439Y-128667511D01*
X120257081Y-128745532D01*
X120129468Y-128830800D01*
X120067972Y-128830800D01*
X120067972Y-128740800D01*
X120055712Y-128616318D01*
X120019402Y-128496620D01*
X119960437Y-128386306D01*
X119881085Y-128289615D01*
X119784394Y-128210263D01*
X119674080Y-128151298D01*
X119554382Y-128114988D01*
X119429900Y-128102728D01*
X117729900Y-128102728D01*
X117605418Y-128114988D01*
X117485720Y-128151298D01*
X117375406Y-128210263D01*
X117278715Y-128289615D01*
X117199363Y-128386306D01*
X117140398Y-128496620D01*
X117104088Y-128616318D01*
X117091828Y-128740800D01*
X117091828Y-130440800D01*
X117104088Y-130565282D01*
X117140398Y-130684980D01*
X117199363Y-130795294D01*
X117278715Y-130891985D01*
X117375406Y-130971337D01*
X117485720Y-131030302D01*
X117605418Y-131066612D01*
X117729900Y-131078872D01*
X119429900Y-131078872D01*
X119554382Y-131066612D01*
X119674080Y-131030302D01*
X119784394Y-130971337D01*
X119881085Y-130891985D01*
X119960437Y-130795294D01*
X120019402Y-130684980D01*
X120055712Y-130565282D01*
X120067409Y-130446520D01*
X120087563Y-130466674D01*
X120257081Y-130579942D01*
X120445439Y-130657963D01*
X120645398Y-130697737D01*
X120849276Y-130697737D01*
X121049235Y-130657963D01*
X121237593Y-130579942D01*
X121407111Y-130466674D01*
X121407175Y-130466610D01*
X121409388Y-130489082D01*
X121445698Y-130608780D01*
X121504663Y-130719094D01*
X121584015Y-130815785D01*
X121680706Y-130895137D01*
X121791020Y-130954102D01*
X121910718Y-130990412D01*
X122035200Y-131002672D01*
X123726958Y-131002672D01*
X123631695Y-131145244D01*
X123553674Y-131333602D01*
X123513900Y-131533561D01*
X123513900Y-131737439D01*
X123553674Y-131937398D01*
X123631695Y-132125756D01*
X123744963Y-132295274D01*
X123889126Y-132439437D01*
X124058644Y-132552705D01*
X124247002Y-132630726D01*
X124446961Y-132670500D01*
X124650839Y-132670500D01*
X124850798Y-132630726D01*
X125039156Y-132552705D01*
X125208674Y-132439437D01*
X125252611Y-132395500D01*
X127435811Y-132395500D01*
X127343526Y-132457163D01*
X127199363Y-132601326D01*
X127086095Y-132770844D01*
X127008074Y-132959202D01*
X126968300Y-133159161D01*
X126968300Y-133363039D01*
X127008074Y-133562998D01*
X127086095Y-133751356D01*
X127133231Y-133821900D01*
X124676498Y-133821900D01*
X124641637Y-133769726D01*
X124497474Y-133625563D01*
X124327956Y-133512295D01*
X124139598Y-133434274D01*
X123939639Y-133394500D01*
X123735761Y-133394500D01*
X123535802Y-133434274D01*
X123347444Y-133512295D01*
X123177926Y-133625563D01*
X123033763Y-133769726D01*
X122920495Y-133939244D01*
X122842474Y-134127602D01*
X122802700Y-134327561D01*
X122802700Y-134531439D01*
X122842474Y-134731398D01*
X122844504Y-134736300D01*
X119867811Y-134736300D01*
X119823874Y-134692363D01*
X119654356Y-134579095D01*
X119465998Y-134501074D01*
X119266039Y-134461300D01*
X119062161Y-134461300D01*
X118862202Y-134501074D01*
X118673844Y-134579095D01*
X118504326Y-134692363D01*
X118360163Y-134836526D01*
X118246895Y-135006044D01*
X118168874Y-135194402D01*
X118129100Y-135394361D01*
X118129100Y-135598239D01*
X118168874Y-135798198D01*
X118246895Y-135986556D01*
X118360163Y-136156074D01*
X118504326Y-136300237D01*
X118673844Y-136413505D01*
X118862202Y-136491526D01*
X119062161Y-136531300D01*
X119266039Y-136531300D01*
X119465998Y-136491526D01*
X119654356Y-136413505D01*
X119823874Y-136300237D01*
X119867811Y-136256300D01*
X151970899Y-136256300D01*
X152432099Y-136717500D01*
X147858611Y-136717500D01*
X147814674Y-136673563D01*
X147645156Y-136560295D01*
X147456798Y-136482274D01*
X147256839Y-136442500D01*
X147052961Y-136442500D01*
X146853002Y-136482274D01*
X146664644Y-136560295D01*
X146583486Y-136614523D01*
X146578356Y-136611095D01*
X146389998Y-136533074D01*
X146190039Y-136493300D01*
X145986161Y-136493300D01*
X145786202Y-136533074D01*
X145597844Y-136611095D01*
X145428326Y-136724363D01*
X145384389Y-136768300D01*
X139324211Y-136768300D01*
X139280274Y-136724363D01*
X139110756Y-136611095D01*
X138922398Y-136533074D01*
X138722439Y-136493300D01*
X138518561Y-136493300D01*
X138318602Y-136533074D01*
X138130244Y-136611095D01*
X137960726Y-136724363D01*
X137816563Y-136868526D01*
X137703295Y-137038044D01*
X137625274Y-137226402D01*
X137585500Y-137426361D01*
X137585500Y-137630239D01*
X137619404Y-137800687D01*
X137607402Y-137803074D01*
X137419044Y-137881095D01*
X137249526Y-137994363D01*
X137105363Y-138138526D01*
X136992095Y-138308044D01*
X136914074Y-138496402D01*
X136874300Y-138696361D01*
X136874300Y-138900239D01*
X136914074Y-139100198D01*
X136992095Y-139288556D01*
X137105363Y-139458074D01*
X137249526Y-139602237D01*
X137419044Y-139715505D01*
X137607402Y-139793526D01*
X137807361Y-139833300D01*
X138011239Y-139833300D01*
X138211198Y-139793526D01*
X138223828Y-139788294D01*
X138223828Y-140804800D01*
X138236088Y-140929282D01*
X138272398Y-141048980D01*
X138331363Y-141159294D01*
X138410715Y-141255985D01*
X138507406Y-141335337D01*
X138617720Y-141394302D01*
X138737418Y-141430612D01*
X138815312Y-141438284D01*
X138319222Y-141934374D01*
X138290224Y-141958172D01*
X138266426Y-141987170D01*
X138266425Y-141987171D01*
X138195250Y-142073897D01*
X138124678Y-142205927D01*
X138105699Y-142268496D01*
X138081222Y-142349187D01*
X138072459Y-142438156D01*
X138066548Y-142498173D01*
X138070225Y-142535505D01*
X138070224Y-144090142D01*
X138028776Y-144056126D01*
X137896747Y-143985554D01*
X137753486Y-143942097D01*
X137641833Y-143931100D01*
X137641822Y-143931100D01*
X137604500Y-143927424D01*
X137567178Y-143931100D01*
X132415411Y-143931100D01*
X132371474Y-143887163D01*
X132201956Y-143773895D01*
X132013598Y-143695874D01*
X131813639Y-143656100D01*
X131609761Y-143656100D01*
X131409802Y-143695874D01*
X131221444Y-143773895D01*
X131051926Y-143887163D01*
X130907763Y-144031326D01*
X130794495Y-144200844D01*
X130716474Y-144389202D01*
X130676700Y-144589161D01*
X130676700Y-144793039D01*
X130716474Y-144992998D01*
X130794495Y-145181356D01*
X130907763Y-145350874D01*
X131051926Y-145495037D01*
X131221444Y-145608305D01*
X131409802Y-145686326D01*
X131609761Y-145726100D01*
X131813639Y-145726100D01*
X132013598Y-145686326D01*
X132201956Y-145608305D01*
X132371474Y-145495037D01*
X132415411Y-145451100D01*
X137289699Y-145451100D01*
X138302852Y-146464254D01*
X138302852Y-146526391D01*
X138342626Y-146726350D01*
X138420647Y-146914708D01*
X138533915Y-147084226D01*
X138678078Y-147228389D01*
X138847596Y-147341657D01*
X138953442Y-147385500D01*
X136838390Y-147385500D01*
X136801067Y-147381824D01*
X136763744Y-147385500D01*
X136763735Y-147385500D01*
X136652082Y-147396497D01*
X136508821Y-147439954D01*
X136376792Y-147510526D01*
X136376790Y-147510527D01*
X136376791Y-147510527D01*
X136290064Y-147581701D01*
X136290060Y-147581705D01*
X136261067Y-147605499D01*
X136237273Y-147634492D01*
X135337277Y-148534490D01*
X133965900Y-148534490D01*
X133965900Y-148467551D01*
X133926126Y-148267592D01*
X133848105Y-148079234D01*
X133734837Y-147909716D01*
X133590674Y-147765553D01*
X133421156Y-147652285D01*
X133232798Y-147574264D01*
X133032839Y-147534490D01*
X132970702Y-147534490D01*
X129016762Y-143580551D01*
X128992959Y-143551547D01*
X128877234Y-143456574D01*
X128745205Y-143386002D01*
X128601944Y-143342545D01*
X128490291Y-143331548D01*
X128490280Y-143331548D01*
X128452958Y-143327872D01*
X128415636Y-143331548D01*
X123868946Y-143331548D01*
X123868946Y-143055868D01*
X123872622Y-143018545D01*
X123868946Y-142981222D01*
X123868946Y-142981213D01*
X123857949Y-142869560D01*
X123814492Y-142726299D01*
X123743920Y-142594270D01*
X123648947Y-142478545D01*
X123619949Y-142454747D01*
X121853403Y-140688202D01*
X121829600Y-140659198D01*
X121713875Y-140564225D01*
X121581846Y-140493653D01*
X121438585Y-140450196D01*
X121326932Y-140439199D01*
X121326921Y-140439199D01*
X121289599Y-140435523D01*
X121252277Y-140439199D01*
X113549323Y-140439199D01*
X113512000Y-140435523D01*
X113474677Y-140439199D01*
X113474668Y-140439199D01*
X113363015Y-140450196D01*
X113219754Y-140493653D01*
X113087724Y-140564225D01*
X113004084Y-140632867D01*
X112972000Y-140659198D01*
X112948202Y-140688197D01*
X112723498Y-140912900D01*
X112661361Y-140912900D01*
X112461402Y-140952674D01*
X112273044Y-141030695D01*
X112103526Y-141143963D01*
X111959363Y-141288126D01*
X111846095Y-141457644D01*
X111768074Y-141646002D01*
X111728300Y-141845961D01*
X111728300Y-142049839D01*
X111768074Y-142249798D01*
X111846095Y-142438156D01*
X111953500Y-142598900D01*
X111700567Y-142598900D01*
X111384688Y-142661732D01*
X111370224Y-142667723D01*
X110507704Y-141805203D01*
X110483901Y-141776199D01*
X110368176Y-141681226D01*
X110236147Y-141610654D01*
X110092886Y-141567197D01*
X109981233Y-141556200D01*
X109981222Y-141556200D01*
X109943900Y-141552524D01*
X109906578Y-141556200D01*
X105537927Y-141556200D01*
X105473075Y-141399634D01*
X105261313Y-141082709D01*
X104991791Y-140813187D01*
X104674866Y-140601425D01*
X104322719Y-140455561D01*
X103948881Y-140381200D01*
X103567719Y-140381200D01*
X103193881Y-140455561D01*
X102841734Y-140601425D01*
X102524809Y-140813187D01*
X102255287Y-141082709D01*
X102043525Y-141399634D01*
X101897661Y-141751781D01*
X101823300Y-142125619D01*
X101823300Y-142506781D01*
X101897661Y-142880619D01*
X102043525Y-143232766D01*
X102255287Y-143549691D01*
X102524809Y-143819213D01*
X102841734Y-144030975D01*
X103193881Y-144176839D01*
X103567719Y-144251200D01*
X103948881Y-144251200D01*
X104322719Y-144176839D01*
X104674866Y-144030975D01*
X104991791Y-143819213D01*
X105261313Y-143549691D01*
X105473075Y-143232766D01*
X105537927Y-143076200D01*
X105616742Y-143076200D01*
X105530517Y-143162425D01*
X105646185Y-143278093D01*
X105381786Y-143373856D01*
X105240896Y-143663471D01*
X105159216Y-143975008D01*
X105139882Y-144296495D01*
X105183639Y-144615575D01*
X105288805Y-144919988D01*
X105381786Y-145093944D01*
X105646187Y-145189708D01*
X106601995Y-144233900D01*
X106587853Y-144219758D01*
X106767458Y-144040153D01*
X106781600Y-144054295D01*
X106795743Y-144040153D01*
X106975348Y-144219758D01*
X106961205Y-144233900D01*
X107917013Y-145189708D01*
X108181414Y-145093944D01*
X108322304Y-144804329D01*
X108403984Y-144492792D01*
X108423318Y-144171305D01*
X108379561Y-143852225D01*
X108274395Y-143547812D01*
X108181414Y-143373856D01*
X107917015Y-143278093D01*
X108032683Y-143162425D01*
X107946458Y-143076200D01*
X109629099Y-143076200D01*
X110295423Y-143742524D01*
X110289432Y-143756988D01*
X110226600Y-144072867D01*
X110226600Y-144394933D01*
X110289432Y-144710812D01*
X110412682Y-145008363D01*
X110591613Y-145276152D01*
X110819348Y-145503887D01*
X111087137Y-145682818D01*
X111384688Y-145806068D01*
X111700567Y-145868900D01*
X112022633Y-145868900D01*
X112338512Y-145806068D01*
X112636063Y-145682818D01*
X112903852Y-145503887D01*
X113131587Y-145276152D01*
X113310518Y-145008363D01*
X113433768Y-144710812D01*
X113496600Y-144394933D01*
X113496600Y-144135004D01*
X113688809Y-144327213D01*
X114005734Y-144538975D01*
X114357881Y-144684839D01*
X114731719Y-144759200D01*
X115112881Y-144759200D01*
X115486719Y-144684839D01*
X115838866Y-144538975D01*
X116155791Y-144327213D01*
X116425313Y-144057691D01*
X116637075Y-143740766D01*
X116782939Y-143388619D01*
X116857300Y-143014781D01*
X116857300Y-142633619D01*
X116782939Y-142259781D01*
X116658434Y-141959199D01*
X118786166Y-141959199D01*
X118661661Y-142259781D01*
X118587300Y-142633619D01*
X118587300Y-143014781D01*
X118661661Y-143388619D01*
X118807525Y-143740766D01*
X119019287Y-144057691D01*
X119288809Y-144327213D01*
X119605734Y-144538975D01*
X119957881Y-144684839D01*
X120331719Y-144759200D01*
X120712881Y-144759200D01*
X121086719Y-144684839D01*
X121438866Y-144538975D01*
X121755791Y-144327213D01*
X122025313Y-144057691D01*
X122237075Y-143740766D01*
X122348946Y-143470685D01*
X122348946Y-143677226D01*
X122345270Y-143714548D01*
X122348946Y-143751870D01*
X122348946Y-143751880D01*
X122359943Y-143863533D01*
X122393758Y-143975008D01*
X122403400Y-144006794D01*
X122473972Y-144138824D01*
X122513817Y-144187374D01*
X122568945Y-144254549D01*
X122597949Y-144278352D01*
X122922142Y-144602545D01*
X122945945Y-144631549D01*
X123061670Y-144726522D01*
X123128519Y-144762254D01*
X123193699Y-144797094D01*
X123336960Y-144840551D01*
X123485946Y-144855225D01*
X123523279Y-144851548D01*
X128138157Y-144851548D01*
X131821098Y-148534490D01*
X131310278Y-148534490D01*
X131308105Y-148529244D01*
X131194837Y-148359726D01*
X131050674Y-148215563D01*
X130881156Y-148102295D01*
X130692798Y-148024274D01*
X130492839Y-147984500D01*
X130288961Y-147984500D01*
X130089002Y-148024274D01*
X129900644Y-148102295D01*
X129731126Y-148215563D01*
X129586963Y-148359726D01*
X129473695Y-148529244D01*
X129395674Y-148717602D01*
X129355900Y-148917561D01*
X129355900Y-148984500D01*
X101158108Y-148984500D01*
X101049777Y-148876169D01*
X101437018Y-148636024D01*
X101697641Y-148142123D01*
X101856901Y-147606867D01*
X101908678Y-147050826D01*
X101850981Y-146495368D01*
X101686028Y-145961839D01*
X101437018Y-145495976D01*
X101232770Y-145369313D01*
X105825792Y-145369313D01*
X105921556Y-145633714D01*
X106211171Y-145774604D01*
X106522708Y-145856284D01*
X106844195Y-145875618D01*
X107163275Y-145831861D01*
X107467688Y-145726695D01*
X107641644Y-145633714D01*
X107737408Y-145369313D01*
X106781600Y-144413505D01*
X105825792Y-145369313D01*
X101232770Y-145369313D01*
X101049775Y-145255830D01*
X99239605Y-147066000D01*
X99253748Y-147080143D01*
X99074143Y-147259748D01*
X99060000Y-147245605D01*
X99045858Y-147259748D01*
X98866253Y-147080143D01*
X98880395Y-147066000D01*
X98866253Y-147051858D01*
X99045858Y-146872253D01*
X99060000Y-146886395D01*
X100870170Y-145076225D01*
X100630024Y-144688982D01*
X100136123Y-144428359D01*
X99600867Y-144269099D01*
X99044826Y-144217322D01*
X98489368Y-144275019D01*
X97955839Y-144439972D01*
X97489976Y-144688982D01*
X97249831Y-145076223D01*
X97141500Y-144967892D01*
X97141500Y-143964001D01*
X97241734Y-144030975D01*
X97593881Y-144176839D01*
X97967719Y-144251200D01*
X98348881Y-144251200D01*
X98722719Y-144176839D01*
X99074866Y-144030975D01*
X99391791Y-143819213D01*
X99661313Y-143549691D01*
X99873075Y-143232766D01*
X100018939Y-142880619D01*
X100093300Y-142506781D01*
X100093300Y-142125619D01*
X100018939Y-141751781D01*
X99873075Y-141399634D01*
X99661313Y-141082709D01*
X99391791Y-140813187D01*
X99074866Y-140601425D01*
X98722719Y-140455561D01*
X98348881Y-140381200D01*
X97967719Y-140381200D01*
X97593881Y-140455561D01*
X97241734Y-140601425D01*
X97141500Y-140668399D01*
X97141500Y-136183000D01*
X109382928Y-136183000D01*
X109382928Y-137883000D01*
X109395188Y-138007482D01*
X109431498Y-138127180D01*
X109490463Y-138237494D01*
X109569815Y-138334185D01*
X109666506Y-138413537D01*
X109776820Y-138472502D01*
X109896518Y-138508812D01*
X110021000Y-138521072D01*
X111721000Y-138521072D01*
X111845482Y-138508812D01*
X111965180Y-138472502D01*
X112075494Y-138413537D01*
X112172185Y-138334185D01*
X112251537Y-138237494D01*
X112310502Y-138127180D01*
X112346812Y-138007482D01*
X112359072Y-137883000D01*
X112359072Y-136183000D01*
X112346812Y-136058518D01*
X112310502Y-135938820D01*
X112251537Y-135828506D01*
X112172185Y-135731815D01*
X112075494Y-135652463D01*
X111965180Y-135593498D01*
X111845482Y-135557188D01*
X111721000Y-135544928D01*
X110021000Y-135544928D01*
X109896518Y-135557188D01*
X109776820Y-135593498D01*
X109666506Y-135652463D01*
X109569815Y-135731815D01*
X109490463Y-135828506D01*
X109431498Y-135938820D01*
X109395188Y-136058518D01*
X109382928Y-136183000D01*
X97141500Y-136183000D01*
X97141500Y-133071500D01*
X98397428Y-133071500D01*
X98397428Y-134771500D01*
X98409688Y-134895982D01*
X98445998Y-135015680D01*
X98504963Y-135125994D01*
X98584315Y-135222685D01*
X98681006Y-135302037D01*
X98791320Y-135361002D01*
X98911018Y-135397312D01*
X99035500Y-135409572D01*
X100735500Y-135409572D01*
X100859982Y-135397312D01*
X100979680Y-135361002D01*
X101089994Y-135302037D01*
X101186685Y-135222685D01*
X101266037Y-135125994D01*
X101325002Y-135015680D01*
X101361312Y-134895982D01*
X101373572Y-134771500D01*
X101373572Y-133071500D01*
X101361312Y-132947018D01*
X101325002Y-132827320D01*
X101266037Y-132717006D01*
X101186685Y-132620315D01*
X101089994Y-132540963D01*
X100979680Y-132481998D01*
X100859982Y-132445688D01*
X100735500Y-132433428D01*
X99035500Y-132433428D01*
X98911018Y-132445688D01*
X98791320Y-132481998D01*
X98681006Y-132540963D01*
X98584315Y-132620315D01*
X98504963Y-132717006D01*
X98445998Y-132827320D01*
X98409688Y-132947018D01*
X98397428Y-133071500D01*
X97141500Y-133071500D01*
X97141500Y-119545100D01*
X100222061Y-119545100D01*
X100268110Y-120012642D01*
X100404487Y-120462216D01*
X100625951Y-120876546D01*
X100923991Y-121239709D01*
X101287154Y-121537749D01*
X101701484Y-121759213D01*
X102151058Y-121895590D01*
X102501443Y-121930100D01*
X103608601Y-121930100D01*
X103608601Y-122047768D01*
X103604924Y-122085100D01*
X103619598Y-122234085D01*
X103663054Y-122377346D01*
X103733626Y-122509376D01*
X103804801Y-122596102D01*
X103828600Y-122625101D01*
X103857598Y-122648899D01*
X107720608Y-126511910D01*
X107666418Y-126613292D01*
X107584364Y-126883791D01*
X107556657Y-127165100D01*
X107584364Y-127446409D01*
X107666418Y-127716908D01*
X107720608Y-127818290D01*
X107656783Y-127882115D01*
X107450046Y-127712451D01*
X107035716Y-127490987D01*
X106586142Y-127354610D01*
X106235757Y-127320100D01*
X102501443Y-127320100D01*
X102151058Y-127354610D01*
X101701484Y-127490987D01*
X101287154Y-127712451D01*
X100923991Y-128010491D01*
X100625951Y-128373654D01*
X100404487Y-128787984D01*
X100268110Y-129237558D01*
X100222061Y-129705100D01*
X100268110Y-130172642D01*
X100404487Y-130622216D01*
X100625951Y-131036546D01*
X100923991Y-131399709D01*
X101287154Y-131697749D01*
X101701484Y-131919213D01*
X102151058Y-132055590D01*
X102501443Y-132090100D01*
X106235757Y-132090100D01*
X106586142Y-132055590D01*
X107035716Y-131919213D01*
X107450046Y-131697749D01*
X107813209Y-131399709D01*
X108111249Y-131036546D01*
X108332713Y-130622216D01*
X108469090Y-130172642D01*
X108515139Y-129705100D01*
X108469090Y-129237558D01*
X108464867Y-129223635D01*
X108947702Y-128740800D01*
X112900828Y-128740800D01*
X112900828Y-130440800D01*
X112913088Y-130565282D01*
X112949398Y-130684980D01*
X113008363Y-130795294D01*
X113087715Y-130891985D01*
X113184406Y-130971337D01*
X113294720Y-131030302D01*
X113414418Y-131066612D01*
X113538900Y-131078872D01*
X115238900Y-131078872D01*
X115363382Y-131066612D01*
X115483080Y-131030302D01*
X115593394Y-130971337D01*
X115690085Y-130891985D01*
X115769437Y-130795294D01*
X115828402Y-130684980D01*
X115864712Y-130565282D01*
X115876972Y-130440800D01*
X115876972Y-128740800D01*
X115864712Y-128616318D01*
X115828402Y-128496620D01*
X115769437Y-128386306D01*
X115690085Y-128289615D01*
X115593394Y-128210263D01*
X115483080Y-128151298D01*
X115363382Y-128114988D01*
X115238900Y-128102728D01*
X113538900Y-128102728D01*
X113414418Y-128114988D01*
X113294720Y-128151298D01*
X113184406Y-128210263D01*
X113087715Y-128289615D01*
X113008363Y-128386306D01*
X112949398Y-128496620D01*
X112913088Y-128616318D01*
X112900828Y-128740800D01*
X108947702Y-128740800D01*
X109088402Y-128600100D01*
X109969092Y-128600100D01*
X110179909Y-128579336D01*
X110450408Y-128497282D01*
X110699701Y-128364032D01*
X110918208Y-128184708D01*
X111097532Y-127966201D01*
X111119501Y-127925100D01*
X111151178Y-127925100D01*
X111188500Y-127928776D01*
X111225822Y-127925100D01*
X111225833Y-127925100D01*
X111337486Y-127914103D01*
X111480747Y-127870646D01*
X111612776Y-127800074D01*
X111728501Y-127705101D01*
X111752304Y-127676097D01*
X113527192Y-125901210D01*
X113747340Y-125945000D01*
X114039860Y-125945000D01*
X114326758Y-125887932D01*
X114597011Y-125775990D01*
X114840232Y-125613475D01*
X115047075Y-125406632D01*
X115209590Y-125163411D01*
X115321532Y-124893158D01*
X115378600Y-124606260D01*
X115378600Y-124313740D01*
X115321532Y-124026842D01*
X115209590Y-123756589D01*
X115047075Y-123513368D01*
X114915220Y-123381513D01*
X114987780Y-123359502D01*
X115098094Y-123300537D01*
X115194785Y-123221185D01*
X115274137Y-123124494D01*
X115333102Y-123014180D01*
X115369412Y-122894482D01*
X115381672Y-122770000D01*
X115378600Y-122205750D01*
X115219850Y-122047000D01*
X114020600Y-122047000D01*
X114020600Y-122067000D01*
X113766600Y-122067000D01*
X113766600Y-122047000D01*
X112567350Y-122047000D01*
X112408600Y-122205750D01*
X112405528Y-122770000D01*
X112417788Y-122894482D01*
X112454098Y-123014180D01*
X112513063Y-123124494D01*
X112592415Y-123221185D01*
X112689106Y-123300537D01*
X112799420Y-123359502D01*
X112871980Y-123381513D01*
X112740125Y-123513368D01*
X112577610Y-123756589D01*
X112465668Y-124026842D01*
X112408600Y-124313740D01*
X112408600Y-124606260D01*
X112452390Y-124826408D01*
X111015165Y-126263634D01*
X110918208Y-126145492D01*
X110699701Y-125966168D01*
X110566742Y-125895100D01*
X110699701Y-125824032D01*
X110918208Y-125644708D01*
X111097532Y-125426201D01*
X111230782Y-125176908D01*
X111312836Y-124906409D01*
X111340543Y-124625100D01*
X111312836Y-124343791D01*
X111230782Y-124073292D01*
X111097532Y-123823999D01*
X110918208Y-123605492D01*
X110699701Y-123426168D01*
X110450408Y-123292918D01*
X110179909Y-123210864D01*
X109969092Y-123190100D01*
X108928108Y-123190100D01*
X108717291Y-123210864D01*
X108446792Y-123292918D01*
X108197499Y-123426168D01*
X107978992Y-123605492D01*
X107799668Y-123823999D01*
X107666418Y-124073292D01*
X107611764Y-124253463D01*
X105288401Y-121930100D01*
X106235757Y-121930100D01*
X106586142Y-121895590D01*
X107035716Y-121759213D01*
X107450046Y-121537749D01*
X107813209Y-121239709D01*
X107952485Y-121070000D01*
X112405528Y-121070000D01*
X112408600Y-121634250D01*
X112567350Y-121793000D01*
X113766600Y-121793000D01*
X113766600Y-120593750D01*
X114020600Y-120593750D01*
X114020600Y-121793000D01*
X115219850Y-121793000D01*
X115378600Y-121634250D01*
X115381672Y-121070000D01*
X115369412Y-120945518D01*
X115333102Y-120825820D01*
X115274137Y-120715506D01*
X115194785Y-120618815D01*
X115098094Y-120539463D01*
X114987780Y-120480498D01*
X114868082Y-120444188D01*
X114743600Y-120431928D01*
X114179350Y-120435000D01*
X114020600Y-120593750D01*
X113766600Y-120593750D01*
X113607850Y-120435000D01*
X113043600Y-120431928D01*
X112919118Y-120444188D01*
X112799420Y-120480498D01*
X112689106Y-120539463D01*
X112592415Y-120618815D01*
X112513063Y-120715506D01*
X112454098Y-120825820D01*
X112417788Y-120945518D01*
X112405528Y-121070000D01*
X107952485Y-121070000D01*
X108111249Y-120876546D01*
X108332713Y-120462216D01*
X108469090Y-120012642D01*
X108515139Y-119545100D01*
X108469090Y-119077558D01*
X108332713Y-118627984D01*
X108111249Y-118213654D01*
X107813209Y-117850491D01*
X107450046Y-117552451D01*
X107035716Y-117330987D01*
X106586142Y-117194610D01*
X106235757Y-117160100D01*
X102501443Y-117160100D01*
X102151058Y-117194610D01*
X101701484Y-117330987D01*
X101287154Y-117552451D01*
X100923991Y-117850491D01*
X100625951Y-118213654D01*
X100404487Y-118627984D01*
X100268110Y-119077558D01*
X100222061Y-119545100D01*
X97141500Y-119545100D01*
X97141500Y-116699500D01*
X125898767Y-116699500D01*
X125824830Y-116818725D01*
G37*
G04 #@! TD.AperFunction*
D23*
X157071428Y-144367770D02*
X154053699Y-147385500D01*
X141000611Y-147385500D01*
X140956674Y-147341563D01*
X140787156Y-147228295D01*
X140681310Y-147184452D01*
X152770726Y-147184452D01*
X152808048Y-147188128D01*
X152845370Y-147184452D01*
X152845381Y-147184452D01*
X152957034Y-147173455D01*
X153100295Y-147129998D01*
X153232324Y-147059426D01*
X153348049Y-146964453D01*
X153371852Y-146935449D01*
X154689003Y-145618299D01*
X154718001Y-145594501D01*
X154812974Y-145478776D01*
X154832326Y-145442572D01*
X155028000Y-145442572D01*
X155152482Y-145430312D01*
X155272180Y-145394002D01*
X155382494Y-145335037D01*
X155479185Y-145255685D01*
X155558537Y-145158994D01*
X155617502Y-145048680D01*
X155653812Y-144928982D01*
X155666072Y-144804500D01*
X155666072Y-143539499D01*
X157071428Y-143539499D01*
X157071428Y-144367770D01*
G04 #@! TA.AperFunction,Conductor*
D24*
G36*
X157071428Y-144367770D02*
G01*
X154053699Y-147385500D01*
X141000611Y-147385500D01*
X140956674Y-147341563D01*
X140787156Y-147228295D01*
X140681310Y-147184452D01*
X152770726Y-147184452D01*
X152808048Y-147188128D01*
X152845370Y-147184452D01*
X152845381Y-147184452D01*
X152957034Y-147173455D01*
X153100295Y-147129998D01*
X153232324Y-147059426D01*
X153348049Y-146964453D01*
X153371852Y-146935449D01*
X154689003Y-145618299D01*
X154718001Y-145594501D01*
X154812974Y-145478776D01*
X154832326Y-145442572D01*
X155028000Y-145442572D01*
X155152482Y-145430312D01*
X155272180Y-145394002D01*
X155382494Y-145335037D01*
X155479185Y-145255685D01*
X155558537Y-145158994D01*
X155617502Y-145048680D01*
X155653812Y-144928982D01*
X155666072Y-144804500D01*
X155666072Y-143539499D01*
X157071428Y-143539499D01*
X157071428Y-144367770D01*
G37*
G04 #@! TD.AperFunction*
D23*
X175390248Y-147051858D02*
X175376105Y-147066000D01*
X175390248Y-147080143D01*
X175210643Y-147259748D01*
X175196500Y-147245605D01*
X175182358Y-147259748D01*
X175002753Y-147080143D01*
X175016895Y-147066000D01*
X175002753Y-147051858D01*
X175182358Y-146872253D01*
X175196500Y-146886395D01*
X175210643Y-146872253D01*
X175390248Y-147051858D01*
G04 #@! TA.AperFunction,Conductor*
D24*
G36*
X175390248Y-147051858D02*
G01*
X175376105Y-147066000D01*
X175390248Y-147080143D01*
X175210643Y-147259748D01*
X175196500Y-147245605D01*
X175182358Y-147259748D01*
X175002753Y-147080143D01*
X175016895Y-147066000D01*
X175002753Y-147051858D01*
X175182358Y-146872253D01*
X175196500Y-146886395D01*
X175210643Y-146872253D01*
X175390248Y-147051858D01*
G37*
G04 #@! TD.AperFunction*
D23*
X146167263Y-140919559D02*
X146367141Y-141119437D01*
X146602173Y-141276480D01*
X146863326Y-141384653D01*
X147140565Y-141439800D01*
X147423235Y-141439800D01*
X147605786Y-141403488D01*
X148734199Y-142531900D01*
X148655506Y-142573963D01*
X148558815Y-142653315D01*
X148479463Y-142750006D01*
X148420498Y-142860320D01*
X148384188Y-142980018D01*
X148371928Y-143104500D01*
X148371928Y-144804500D01*
X148384188Y-144928982D01*
X148420498Y-145048680D01*
X148479463Y-145158994D01*
X148558815Y-145255685D01*
X148655506Y-145335037D01*
X148765820Y-145394002D01*
X148885518Y-145430312D01*
X149010000Y-145442572D01*
X150710000Y-145442572D01*
X150834482Y-145430312D01*
X150954180Y-145394002D01*
X151064494Y-145335037D01*
X151161185Y-145255685D01*
X151240537Y-145158994D01*
X151299502Y-145048680D01*
X151335812Y-144928982D01*
X151348072Y-144804500D01*
X151348072Y-143539499D01*
X152689928Y-143539499D01*
X152689928Y-144804500D01*
X152702188Y-144928982D01*
X152738498Y-145048680D01*
X152797463Y-145158994D01*
X152876815Y-145255685D01*
X152890655Y-145267043D01*
X152493247Y-145664452D01*
X141317512Y-145664452D01*
X141338052Y-145561191D01*
X141338052Y-145416266D01*
X141363361Y-145421300D01*
X141567239Y-145421300D01*
X141767198Y-145381526D01*
X141955556Y-145303505D01*
X142125074Y-145190237D01*
X142269237Y-145046074D01*
X142382505Y-144876556D01*
X142460526Y-144688198D01*
X142500300Y-144488239D01*
X142500300Y-144284361D01*
X142460526Y-144084402D01*
X142382505Y-143896044D01*
X142269237Y-143726526D01*
X142225300Y-143682589D01*
X142225300Y-142127221D01*
X142228976Y-142089898D01*
X142225300Y-142052575D01*
X142225300Y-142052566D01*
X142214303Y-141940913D01*
X142170846Y-141797652D01*
X142149253Y-141757254D01*
X142100274Y-141665622D01*
X142029099Y-141578896D01*
X142005301Y-141549898D01*
X141976304Y-141526101D01*
X141847651Y-141397448D01*
X142060565Y-141439800D01*
X142343235Y-141439800D01*
X142620474Y-141384653D01*
X142881627Y-141276480D01*
X143116659Y-141119437D01*
X143316537Y-140919559D01*
X143471900Y-140687041D01*
X143627263Y-140919559D01*
X143827141Y-141119437D01*
X144062173Y-141276480D01*
X144323326Y-141384653D01*
X144600565Y-141439800D01*
X144883235Y-141439800D01*
X145160474Y-141384653D01*
X145421627Y-141276480D01*
X145656659Y-141119437D01*
X145856537Y-140919559D01*
X146011900Y-140687041D01*
X146167263Y-140919559D01*
G04 #@! TA.AperFunction,Conductor*
D24*
G36*
X146167263Y-140919559D02*
G01*
X146367141Y-141119437D01*
X146602173Y-141276480D01*
X146863326Y-141384653D01*
X147140565Y-141439800D01*
X147423235Y-141439800D01*
X147605786Y-141403488D01*
X148734199Y-142531900D01*
X148655506Y-142573963D01*
X148558815Y-142653315D01*
X148479463Y-142750006D01*
X148420498Y-142860320D01*
X148384188Y-142980018D01*
X148371928Y-143104500D01*
X148371928Y-144804500D01*
X148384188Y-144928982D01*
X148420498Y-145048680D01*
X148479463Y-145158994D01*
X148558815Y-145255685D01*
X148655506Y-145335037D01*
X148765820Y-145394002D01*
X148885518Y-145430312D01*
X149010000Y-145442572D01*
X150710000Y-145442572D01*
X150834482Y-145430312D01*
X150954180Y-145394002D01*
X151064494Y-145335037D01*
X151161185Y-145255685D01*
X151240537Y-145158994D01*
X151299502Y-145048680D01*
X151335812Y-144928982D01*
X151348072Y-144804500D01*
X151348072Y-143539499D01*
X152689928Y-143539499D01*
X152689928Y-144804500D01*
X152702188Y-144928982D01*
X152738498Y-145048680D01*
X152797463Y-145158994D01*
X152876815Y-145255685D01*
X152890655Y-145267043D01*
X152493247Y-145664452D01*
X141317512Y-145664452D01*
X141338052Y-145561191D01*
X141338052Y-145416266D01*
X141363361Y-145421300D01*
X141567239Y-145421300D01*
X141767198Y-145381526D01*
X141955556Y-145303505D01*
X142125074Y-145190237D01*
X142269237Y-145046074D01*
X142382505Y-144876556D01*
X142460526Y-144688198D01*
X142500300Y-144488239D01*
X142500300Y-144284361D01*
X142460526Y-144084402D01*
X142382505Y-143896044D01*
X142269237Y-143726526D01*
X142225300Y-143682589D01*
X142225300Y-142127221D01*
X142228976Y-142089898D01*
X142225300Y-142052575D01*
X142225300Y-142052566D01*
X142214303Y-141940913D01*
X142170846Y-141797652D01*
X142149253Y-141757254D01*
X142100274Y-141665622D01*
X142029099Y-141578896D01*
X142005301Y-141549898D01*
X141976304Y-141526101D01*
X141847651Y-141397448D01*
X142060565Y-141439800D01*
X142343235Y-141439800D01*
X142620474Y-141384653D01*
X142881627Y-141276480D01*
X143116659Y-141119437D01*
X143316537Y-140919559D01*
X143471900Y-140687041D01*
X143627263Y-140919559D01*
X143827141Y-141119437D01*
X144062173Y-141276480D01*
X144323326Y-141384653D01*
X144600565Y-141439800D01*
X144883235Y-141439800D01*
X145160474Y-141384653D01*
X145421627Y-141276480D01*
X145656659Y-141119437D01*
X145856537Y-140919559D01*
X146011900Y-140687041D01*
X146167263Y-140919559D01*
G37*
G04 #@! TD.AperFunction*
D23*
X150422802Y-132405892D02*
X150234444Y-132483913D01*
X150064926Y-132597181D01*
X150020989Y-132641118D01*
X149640244Y-132641118D01*
X149575556Y-132597895D01*
X149387198Y-132519874D01*
X149187239Y-132480100D01*
X148983361Y-132480100D01*
X148783402Y-132519874D01*
X148595044Y-132597895D01*
X148425526Y-132711163D01*
X148281363Y-132855326D01*
X148168095Y-133024844D01*
X148090074Y-133213202D01*
X148050300Y-133413161D01*
X148050300Y-133617039D01*
X148090074Y-133816998D01*
X148168095Y-134005356D01*
X148281363Y-134174874D01*
X148425526Y-134319037D01*
X148595044Y-134432305D01*
X148783402Y-134510326D01*
X148983361Y-134550100D01*
X149187239Y-134550100D01*
X149387198Y-134510326D01*
X149575556Y-134432305D01*
X149745074Y-134319037D01*
X149889237Y-134174874D01*
X149898428Y-134161118D01*
X150020989Y-134161118D01*
X150064926Y-134205055D01*
X150234444Y-134318323D01*
X150422802Y-134396344D01*
X150622761Y-134436118D01*
X150826639Y-134436118D01*
X151026598Y-134396344D01*
X151214956Y-134318323D01*
X151384474Y-134205055D01*
X151528637Y-134060892D01*
X151641905Y-133891374D01*
X151719926Y-133703016D01*
X151759700Y-133503057D01*
X151759700Y-133299179D01*
X151719926Y-133099220D01*
X151641905Y-132910862D01*
X151528637Y-132741344D01*
X151384474Y-132597181D01*
X151214956Y-132483913D01*
X151026598Y-132405892D01*
X150974353Y-132395500D01*
X153596499Y-132395500D01*
X155052699Y-133851700D01*
X154876161Y-133851700D01*
X154676202Y-133891474D01*
X154487844Y-133969495D01*
X154318326Y-134082763D01*
X154174163Y-134226926D01*
X154060895Y-134396444D01*
X153982874Y-134584802D01*
X153943100Y-134784761D01*
X153943100Y-134988639D01*
X153982874Y-135188598D01*
X154060895Y-135376956D01*
X154174163Y-135546474D01*
X154318326Y-135690637D01*
X154487844Y-135803905D01*
X154676202Y-135881926D01*
X154876161Y-135921700D01*
X154989099Y-135921700D01*
X156991100Y-137923702D01*
X156991100Y-137985839D01*
X157030874Y-138185798D01*
X157108895Y-138374156D01*
X157222163Y-138543674D01*
X157256962Y-138578473D01*
X157023326Y-138624947D01*
X156762173Y-138733120D01*
X156527141Y-138890163D01*
X156327263Y-139090041D01*
X156171900Y-139322559D01*
X156016537Y-139090041D01*
X155816659Y-138890163D01*
X155581627Y-138733120D01*
X155373854Y-138647057D01*
X155477237Y-138543674D01*
X155590505Y-138374156D01*
X155668526Y-138185798D01*
X155708300Y-137985839D01*
X155708300Y-137781961D01*
X155668526Y-137582002D01*
X155590505Y-137393644D01*
X155477237Y-137224126D01*
X155333074Y-137079963D01*
X155163556Y-136966695D01*
X154975198Y-136888674D01*
X154775239Y-136848900D01*
X154713102Y-136848900D01*
X152849504Y-134985303D01*
X152825701Y-134956299D01*
X152709976Y-134861326D01*
X152577947Y-134790754D01*
X152434686Y-134747297D01*
X152323033Y-134736300D01*
X152323022Y-134736300D01*
X152285700Y-134732624D01*
X152248378Y-134736300D01*
X145131465Y-134736300D01*
X145141900Y-134683839D01*
X145141900Y-134479961D01*
X145102126Y-134280002D01*
X145024105Y-134091644D01*
X144910837Y-133922126D01*
X144766674Y-133777963D01*
X144597156Y-133664695D01*
X144408798Y-133586674D01*
X144208839Y-133546900D01*
X144004961Y-133546900D01*
X143805002Y-133586674D01*
X143616644Y-133664695D01*
X143447126Y-133777963D01*
X143403189Y-133821900D01*
X141559411Y-133821900D01*
X141464674Y-133727163D01*
X141295156Y-133613895D01*
X141117966Y-133540500D01*
X141295156Y-133467105D01*
X141464674Y-133353837D01*
X141608837Y-133209674D01*
X141722105Y-133040156D01*
X141800126Y-132851798D01*
X141839900Y-132651839D01*
X141839900Y-132447961D01*
X141829465Y-132395500D01*
X150475047Y-132395500D01*
X150422802Y-132405892D01*
G04 #@! TA.AperFunction,Conductor*
D24*
G36*
X150422802Y-132405892D02*
G01*
X150234444Y-132483913D01*
X150064926Y-132597181D01*
X150020989Y-132641118D01*
X149640244Y-132641118D01*
X149575556Y-132597895D01*
X149387198Y-132519874D01*
X149187239Y-132480100D01*
X148983361Y-132480100D01*
X148783402Y-132519874D01*
X148595044Y-132597895D01*
X148425526Y-132711163D01*
X148281363Y-132855326D01*
X148168095Y-133024844D01*
X148090074Y-133213202D01*
X148050300Y-133413161D01*
X148050300Y-133617039D01*
X148090074Y-133816998D01*
X148168095Y-134005356D01*
X148281363Y-134174874D01*
X148425526Y-134319037D01*
X148595044Y-134432305D01*
X148783402Y-134510326D01*
X148983361Y-134550100D01*
X149187239Y-134550100D01*
X149387198Y-134510326D01*
X149575556Y-134432305D01*
X149745074Y-134319037D01*
X149889237Y-134174874D01*
X149898428Y-134161118D01*
X150020989Y-134161118D01*
X150064926Y-134205055D01*
X150234444Y-134318323D01*
X150422802Y-134396344D01*
X150622761Y-134436118D01*
X150826639Y-134436118D01*
X151026598Y-134396344D01*
X151214956Y-134318323D01*
X151384474Y-134205055D01*
X151528637Y-134060892D01*
X151641905Y-133891374D01*
X151719926Y-133703016D01*
X151759700Y-133503057D01*
X151759700Y-133299179D01*
X151719926Y-133099220D01*
X151641905Y-132910862D01*
X151528637Y-132741344D01*
X151384474Y-132597181D01*
X151214956Y-132483913D01*
X151026598Y-132405892D01*
X150974353Y-132395500D01*
X153596499Y-132395500D01*
X155052699Y-133851700D01*
X154876161Y-133851700D01*
X154676202Y-133891474D01*
X154487844Y-133969495D01*
X154318326Y-134082763D01*
X154174163Y-134226926D01*
X154060895Y-134396444D01*
X153982874Y-134584802D01*
X153943100Y-134784761D01*
X153943100Y-134988639D01*
X153982874Y-135188598D01*
X154060895Y-135376956D01*
X154174163Y-135546474D01*
X154318326Y-135690637D01*
X154487844Y-135803905D01*
X154676202Y-135881926D01*
X154876161Y-135921700D01*
X154989099Y-135921700D01*
X156991100Y-137923702D01*
X156991100Y-137985839D01*
X157030874Y-138185798D01*
X157108895Y-138374156D01*
X157222163Y-138543674D01*
X157256962Y-138578473D01*
X157023326Y-138624947D01*
X156762173Y-138733120D01*
X156527141Y-138890163D01*
X156327263Y-139090041D01*
X156171900Y-139322559D01*
X156016537Y-139090041D01*
X155816659Y-138890163D01*
X155581627Y-138733120D01*
X155373854Y-138647057D01*
X155477237Y-138543674D01*
X155590505Y-138374156D01*
X155668526Y-138185798D01*
X155708300Y-137985839D01*
X155708300Y-137781961D01*
X155668526Y-137582002D01*
X155590505Y-137393644D01*
X155477237Y-137224126D01*
X155333074Y-137079963D01*
X155163556Y-136966695D01*
X154975198Y-136888674D01*
X154775239Y-136848900D01*
X154713102Y-136848900D01*
X152849504Y-134985303D01*
X152825701Y-134956299D01*
X152709976Y-134861326D01*
X152577947Y-134790754D01*
X152434686Y-134747297D01*
X152323033Y-134736300D01*
X152323022Y-134736300D01*
X152285700Y-134732624D01*
X152248378Y-134736300D01*
X145131465Y-134736300D01*
X145141900Y-134683839D01*
X145141900Y-134479961D01*
X145102126Y-134280002D01*
X145024105Y-134091644D01*
X144910837Y-133922126D01*
X144766674Y-133777963D01*
X144597156Y-133664695D01*
X144408798Y-133586674D01*
X144208839Y-133546900D01*
X144004961Y-133546900D01*
X143805002Y-133586674D01*
X143616644Y-133664695D01*
X143447126Y-133777963D01*
X143403189Y-133821900D01*
X141559411Y-133821900D01*
X141464674Y-133727163D01*
X141295156Y-133613895D01*
X141117966Y-133540500D01*
X141295156Y-133467105D01*
X141464674Y-133353837D01*
X141608837Y-133209674D01*
X141722105Y-133040156D01*
X141800126Y-132851798D01*
X141839900Y-132651839D01*
X141839900Y-132447961D01*
X141829465Y-132395500D01*
X150475047Y-132395500D01*
X150422802Y-132405892D01*
G37*
G04 #@! TD.AperFunction*
D23*
X166016193Y-127183696D02*
X165991383Y-127435600D01*
X166016193Y-127687504D01*
X166089671Y-127929727D01*
X166208992Y-128152962D01*
X166369572Y-128348628D01*
X166565238Y-128509208D01*
X166788473Y-128628529D01*
X166976610Y-128685600D01*
X166788473Y-128742671D01*
X166565238Y-128861992D01*
X166369572Y-129022572D01*
X166208992Y-129218238D01*
X166089671Y-129441473D01*
X166016193Y-129683696D01*
X165991383Y-129935600D01*
X166016193Y-130187504D01*
X166089671Y-130429727D01*
X166208992Y-130652962D01*
X166369572Y-130848628D01*
X166565238Y-131009208D01*
X166788473Y-131128529D01*
X167030696Y-131202007D01*
X167219477Y-131220600D01*
X167710416Y-131220600D01*
X167572364Y-131248060D01*
X167347608Y-131341157D01*
X167145333Y-131476313D01*
X166973313Y-131648333D01*
X166838157Y-131850608D01*
X166745060Y-132075364D01*
X166697600Y-132313963D01*
X166697600Y-132557237D01*
X166745060Y-132795836D01*
X166838157Y-133020592D01*
X166973313Y-133222867D01*
X167145333Y-133394887D01*
X167347608Y-133530043D01*
X167572364Y-133623140D01*
X167710416Y-133650600D01*
X167219477Y-133650600D01*
X167030696Y-133669193D01*
X166788473Y-133742671D01*
X166565238Y-133861992D01*
X166369572Y-134022572D01*
X166208992Y-134218238D01*
X166089671Y-134441473D01*
X166016193Y-134683696D01*
X165991383Y-134935600D01*
X166016193Y-135187504D01*
X166089671Y-135429727D01*
X166208992Y-135652962D01*
X166369572Y-135848628D01*
X166565238Y-136009208D01*
X166788473Y-136128529D01*
X166976610Y-136185600D01*
X166788473Y-136242671D01*
X166565238Y-136361992D01*
X166369572Y-136522572D01*
X166208992Y-136718238D01*
X166089671Y-136941473D01*
X166016193Y-137183696D01*
X165991383Y-137435600D01*
X166016193Y-137687504D01*
X166089671Y-137929727D01*
X166208992Y-138152962D01*
X166369572Y-138348628D01*
X166565238Y-138509208D01*
X166788473Y-138628529D01*
X167011410Y-138696157D01*
X166922173Y-138733120D01*
X166687141Y-138890163D01*
X166487263Y-139090041D01*
X166331900Y-139322559D01*
X166176537Y-139090041D01*
X165976659Y-138890163D01*
X165741627Y-138733120D01*
X165480474Y-138624947D01*
X165203235Y-138569800D01*
X164920565Y-138569800D01*
X164643326Y-138624947D01*
X164382173Y-138733120D01*
X164147141Y-138890163D01*
X163947263Y-139090041D01*
X163791900Y-139322559D01*
X163636537Y-139090041D01*
X163436659Y-138890163D01*
X163201627Y-138733120D01*
X162940474Y-138624947D01*
X162663235Y-138569800D01*
X162380565Y-138569800D01*
X162103326Y-138624947D01*
X161842173Y-138733120D01*
X161607141Y-138890163D01*
X161407263Y-139090041D01*
X161251900Y-139322559D01*
X161096537Y-139090041D01*
X161049257Y-139042761D01*
X161124274Y-138992637D01*
X161268437Y-138848474D01*
X161381705Y-138678956D01*
X161459726Y-138490598D01*
X161499500Y-138290639D01*
X161499500Y-138086761D01*
X161459726Y-137886802D01*
X161381705Y-137698444D01*
X161268437Y-137528926D01*
X161124274Y-137384763D01*
X160954756Y-137271495D01*
X160766398Y-137193474D01*
X160566439Y-137153700D01*
X160504302Y-137153700D01*
X155192460Y-131841859D01*
X155315956Y-131790705D01*
X155485474Y-131677437D01*
X155629637Y-131533274D01*
X155742905Y-131363756D01*
X155820926Y-131175398D01*
X155860700Y-130975439D01*
X155860700Y-130771561D01*
X155820926Y-130571602D01*
X155742905Y-130383244D01*
X155629637Y-130213726D01*
X155485474Y-130069563D01*
X155393782Y-130008296D01*
X155403500Y-129959439D01*
X155403500Y-129897301D01*
X157952904Y-127347898D01*
X157981901Y-127324101D01*
X158023858Y-127272976D01*
X158076874Y-127208377D01*
X158078676Y-127205007D01*
X158228961Y-127234900D01*
X158432839Y-127234900D01*
X158632798Y-127195126D01*
X158821156Y-127117105D01*
X158990674Y-127003837D01*
X159034611Y-126959900D01*
X166084081Y-126959900D01*
X166016193Y-127183696D01*
G04 #@! TA.AperFunction,Conductor*
D24*
G36*
X166016193Y-127183696D02*
G01*
X165991383Y-127435600D01*
X166016193Y-127687504D01*
X166089671Y-127929727D01*
X166208992Y-128152962D01*
X166369572Y-128348628D01*
X166565238Y-128509208D01*
X166788473Y-128628529D01*
X166976610Y-128685600D01*
X166788473Y-128742671D01*
X166565238Y-128861992D01*
X166369572Y-129022572D01*
X166208992Y-129218238D01*
X166089671Y-129441473D01*
X166016193Y-129683696D01*
X165991383Y-129935600D01*
X166016193Y-130187504D01*
X166089671Y-130429727D01*
X166208992Y-130652962D01*
X166369572Y-130848628D01*
X166565238Y-131009208D01*
X166788473Y-131128529D01*
X167030696Y-131202007D01*
X167219477Y-131220600D01*
X167710416Y-131220600D01*
X167572364Y-131248060D01*
X167347608Y-131341157D01*
X167145333Y-131476313D01*
X166973313Y-131648333D01*
X166838157Y-131850608D01*
X166745060Y-132075364D01*
X166697600Y-132313963D01*
X166697600Y-132557237D01*
X166745060Y-132795836D01*
X166838157Y-133020592D01*
X166973313Y-133222867D01*
X167145333Y-133394887D01*
X167347608Y-133530043D01*
X167572364Y-133623140D01*
X167710416Y-133650600D01*
X167219477Y-133650600D01*
X167030696Y-133669193D01*
X166788473Y-133742671D01*
X166565238Y-133861992D01*
X166369572Y-134022572D01*
X166208992Y-134218238D01*
X166089671Y-134441473D01*
X166016193Y-134683696D01*
X165991383Y-134935600D01*
X166016193Y-135187504D01*
X166089671Y-135429727D01*
X166208992Y-135652962D01*
X166369572Y-135848628D01*
X166565238Y-136009208D01*
X166788473Y-136128529D01*
X166976610Y-136185600D01*
X166788473Y-136242671D01*
X166565238Y-136361992D01*
X166369572Y-136522572D01*
X166208992Y-136718238D01*
X166089671Y-136941473D01*
X166016193Y-137183696D01*
X165991383Y-137435600D01*
X166016193Y-137687504D01*
X166089671Y-137929727D01*
X166208992Y-138152962D01*
X166369572Y-138348628D01*
X166565238Y-138509208D01*
X166788473Y-138628529D01*
X167011410Y-138696157D01*
X166922173Y-138733120D01*
X166687141Y-138890163D01*
X166487263Y-139090041D01*
X166331900Y-139322559D01*
X166176537Y-139090041D01*
X165976659Y-138890163D01*
X165741627Y-138733120D01*
X165480474Y-138624947D01*
X165203235Y-138569800D01*
X164920565Y-138569800D01*
X164643326Y-138624947D01*
X164382173Y-138733120D01*
X164147141Y-138890163D01*
X163947263Y-139090041D01*
X163791900Y-139322559D01*
X163636537Y-139090041D01*
X163436659Y-138890163D01*
X163201627Y-138733120D01*
X162940474Y-138624947D01*
X162663235Y-138569800D01*
X162380565Y-138569800D01*
X162103326Y-138624947D01*
X161842173Y-138733120D01*
X161607141Y-138890163D01*
X161407263Y-139090041D01*
X161251900Y-139322559D01*
X161096537Y-139090041D01*
X161049257Y-139042761D01*
X161124274Y-138992637D01*
X161268437Y-138848474D01*
X161381705Y-138678956D01*
X161459726Y-138490598D01*
X161499500Y-138290639D01*
X161499500Y-138086761D01*
X161459726Y-137886802D01*
X161381705Y-137698444D01*
X161268437Y-137528926D01*
X161124274Y-137384763D01*
X160954756Y-137271495D01*
X160766398Y-137193474D01*
X160566439Y-137153700D01*
X160504302Y-137153700D01*
X155192460Y-131841859D01*
X155315956Y-131790705D01*
X155485474Y-131677437D01*
X155629637Y-131533274D01*
X155742905Y-131363756D01*
X155820926Y-131175398D01*
X155860700Y-130975439D01*
X155860700Y-130771561D01*
X155820926Y-130571602D01*
X155742905Y-130383244D01*
X155629637Y-130213726D01*
X155485474Y-130069563D01*
X155393782Y-130008296D01*
X155403500Y-129959439D01*
X155403500Y-129897301D01*
X157952904Y-127347898D01*
X157981901Y-127324101D01*
X158023858Y-127272976D01*
X158076874Y-127208377D01*
X158078676Y-127205007D01*
X158228961Y-127234900D01*
X158432839Y-127234900D01*
X158632798Y-127195126D01*
X158821156Y-127117105D01*
X158990674Y-127003837D01*
X159034611Y-126959900D01*
X166084081Y-126959900D01*
X166016193Y-127183696D01*
G37*
G04 #@! TD.AperFunction*
D23*
X137839500Y-132447961D02*
X137839500Y-132651839D01*
X137879274Y-132851798D01*
X137957295Y-133040156D01*
X138070563Y-133209674D01*
X138214726Y-133353837D01*
X138384244Y-133467105D01*
X138572602Y-133545126D01*
X138772561Y-133584900D01*
X138976439Y-133584900D01*
X139176398Y-133545126D01*
X139364756Y-133467105D01*
X139534274Y-133353837D01*
X139578211Y-133309900D01*
X140101189Y-133309900D01*
X140145126Y-133353837D01*
X140314644Y-133467105D01*
X140491834Y-133540500D01*
X140314644Y-133613895D01*
X140145126Y-133727163D01*
X140000963Y-133871326D01*
X139887695Y-134040844D01*
X139809674Y-134229202D01*
X139769900Y-134429161D01*
X139769900Y-134633039D01*
X139790440Y-134736300D01*
X135022265Y-134736300D01*
X135032700Y-134683839D01*
X135032700Y-134479961D01*
X134992926Y-134280002D01*
X134914905Y-134091644D01*
X134801637Y-133922126D01*
X134657474Y-133777963D01*
X134487956Y-133664695D01*
X134299598Y-133586674D01*
X134099639Y-133546900D01*
X133895761Y-133546900D01*
X133695802Y-133586674D01*
X133507444Y-133664695D01*
X133337926Y-133777963D01*
X133293989Y-133821900D01*
X128873369Y-133821900D01*
X128920505Y-133751356D01*
X128998526Y-133562998D01*
X129038300Y-133363039D01*
X129038300Y-133300902D01*
X129218702Y-133120500D01*
X131312789Y-133120500D01*
X131356726Y-133164437D01*
X131526244Y-133277705D01*
X131714602Y-133355726D01*
X131914561Y-133395500D01*
X132118439Y-133395500D01*
X132318398Y-133355726D01*
X132506756Y-133277705D01*
X132676274Y-133164437D01*
X132820437Y-133020274D01*
X132933705Y-132850756D01*
X133011726Y-132662398D01*
X133051500Y-132462439D01*
X133051500Y-132395500D01*
X137849935Y-132395500D01*
X137839500Y-132447961D01*
G04 #@! TA.AperFunction,Conductor*
D24*
G36*
X137839500Y-132447961D02*
G01*
X137839500Y-132651839D01*
X137879274Y-132851798D01*
X137957295Y-133040156D01*
X138070563Y-133209674D01*
X138214726Y-133353837D01*
X138384244Y-133467105D01*
X138572602Y-133545126D01*
X138772561Y-133584900D01*
X138976439Y-133584900D01*
X139176398Y-133545126D01*
X139364756Y-133467105D01*
X139534274Y-133353837D01*
X139578211Y-133309900D01*
X140101189Y-133309900D01*
X140145126Y-133353837D01*
X140314644Y-133467105D01*
X140491834Y-133540500D01*
X140314644Y-133613895D01*
X140145126Y-133727163D01*
X140000963Y-133871326D01*
X139887695Y-134040844D01*
X139809674Y-134229202D01*
X139769900Y-134429161D01*
X139769900Y-134633039D01*
X139790440Y-134736300D01*
X135022265Y-134736300D01*
X135032700Y-134683839D01*
X135032700Y-134479961D01*
X134992926Y-134280002D01*
X134914905Y-134091644D01*
X134801637Y-133922126D01*
X134657474Y-133777963D01*
X134487956Y-133664695D01*
X134299598Y-133586674D01*
X134099639Y-133546900D01*
X133895761Y-133546900D01*
X133695802Y-133586674D01*
X133507444Y-133664695D01*
X133337926Y-133777963D01*
X133293989Y-133821900D01*
X128873369Y-133821900D01*
X128920505Y-133751356D01*
X128998526Y-133562998D01*
X129038300Y-133363039D01*
X129038300Y-133300902D01*
X129218702Y-133120500D01*
X131312789Y-133120500D01*
X131356726Y-133164437D01*
X131526244Y-133277705D01*
X131714602Y-133355726D01*
X131914561Y-133395500D01*
X132118439Y-133395500D01*
X132318398Y-133355726D01*
X132506756Y-133277705D01*
X132676274Y-133164437D01*
X132820437Y-133020274D01*
X132933705Y-132850756D01*
X133011726Y-132662398D01*
X133051500Y-132462439D01*
X133051500Y-132395500D01*
X137849935Y-132395500D01*
X137839500Y-132447961D01*
G37*
G04 #@! TD.AperFunction*
D23*
X156327263Y-125679559D02*
X156527141Y-125879437D01*
X156681900Y-125982844D01*
X156681900Y-126469298D01*
X154403499Y-128747700D01*
X154403499Y-126338002D01*
X154578014Y-126163488D01*
X154760565Y-126199800D01*
X155043235Y-126199800D01*
X155320474Y-126144653D01*
X155581627Y-126036480D01*
X155816659Y-125879437D01*
X156016537Y-125679559D01*
X156171900Y-125447041D01*
X156327263Y-125679559D01*
G04 #@! TA.AperFunction,Conductor*
D24*
G36*
X156327263Y-125679559D02*
G01*
X156527141Y-125879437D01*
X156681900Y-125982844D01*
X156681900Y-126469298D01*
X154403499Y-128747700D01*
X154403499Y-126338002D01*
X154578014Y-126163488D01*
X154760565Y-126199800D01*
X155043235Y-126199800D01*
X155320474Y-126144653D01*
X155581627Y-126036480D01*
X155816659Y-125879437D01*
X156016537Y-125679559D01*
X156171900Y-125447041D01*
X156327263Y-125679559D01*
G37*
G04 #@! TD.AperFunction*
M02*
