G04 #@! TF.GenerationSoftware,KiCad,Pcbnew,(5.1.9)-1*
G04 #@! TF.CreationDate,2021-05-04T19:46:14-07:00*
G04 #@! TF.ProjectId,SDRReciever,53445252-6563-4696-9576-65722e6b6963,1*
G04 #@! TF.SameCoordinates,Original*
G04 #@! TF.FileFunction,Paste,Top*
G04 #@! TF.FilePolarity,Positive*
%FSLAX46Y46*%
G04 Gerber Fmt 4.6, Leading zero omitted, Abs format (unit mm)*
G04 Created by KiCad (PCBNEW (5.1.9)-1) date 2021-05-04 19:46:14*
%MOMM*%
%LPD*%
G01*
G04 APERTURE LIST*
%ADD10R,0.780000X0.360000*%
%ADD11R,0.540000X0.480000*%
%ADD12R,0.180000X0.840000*%
%ADD13R,0.360000X0.900000*%
%ADD14R,0.360000X0.930000*%
%ADD15R,0.720000X0.840000*%
G04 APERTURE END LIST*
G36*
G01*
X142889600Y-132607750D02*
X142889600Y-132060250D01*
G75*
G02*
X143035850Y-131914000I146250J0D01*
G01*
X143328350Y-131914000D01*
G75*
G02*
X143474600Y-132060250I0J-146250D01*
G01*
X143474600Y-132607750D01*
G75*
G02*
X143328350Y-132754000I-146250J0D01*
G01*
X143035850Y-132754000D01*
G75*
G02*
X142889600Y-132607750I0J146250D01*
G01*
G37*
G36*
G01*
X144764600Y-132607750D02*
X144764600Y-132060250D01*
G75*
G02*
X144910850Y-131914000I146250J0D01*
G01*
X145203350Y-131914000D01*
G75*
G02*
X145349600Y-132060250I0J-146250D01*
G01*
X145349600Y-132607750D01*
G75*
G02*
X145203350Y-132754000I-146250J0D01*
G01*
X144910850Y-132754000D01*
G75*
G02*
X144764600Y-132607750I0J146250D01*
G01*
G37*
G36*
G01*
X102499800Y-137089450D02*
X102499800Y-137636950D01*
G75*
G02*
X102353550Y-137783200I-146250J0D01*
G01*
X102061050Y-137783200D01*
G75*
G02*
X101914800Y-137636950I0J146250D01*
G01*
X101914800Y-137089450D01*
G75*
G02*
X102061050Y-136943200I146250J0D01*
G01*
X102353550Y-136943200D01*
G75*
G02*
X102499800Y-137089450I0J-146250D01*
G01*
G37*
G36*
G01*
X100624800Y-137089450D02*
X100624800Y-137636950D01*
G75*
G02*
X100478550Y-137783200I-146250J0D01*
G01*
X100186050Y-137783200D01*
G75*
G02*
X100039800Y-137636950I0J146250D01*
G01*
X100039800Y-137089450D01*
G75*
G02*
X100186050Y-136943200I146250J0D01*
G01*
X100478550Y-136943200D01*
G75*
G02*
X100624800Y-137089450I0J-146250D01*
G01*
G37*
G36*
G01*
X108244000Y-146958750D02*
X108244000Y-146411250D01*
G75*
G02*
X108390250Y-146265000I146250J0D01*
G01*
X108682750Y-146265000D01*
G75*
G02*
X108829000Y-146411250I0J-146250D01*
G01*
X108829000Y-146958750D01*
G75*
G02*
X108682750Y-147105000I-146250J0D01*
G01*
X108390250Y-147105000D01*
G75*
G02*
X108244000Y-146958750I0J146250D01*
G01*
G37*
G36*
G01*
X110119000Y-146958750D02*
X110119000Y-146411250D01*
G75*
G02*
X110265250Y-146265000I146250J0D01*
G01*
X110557750Y-146265000D01*
G75*
G02*
X110704000Y-146411250I0J-146250D01*
G01*
X110704000Y-146958750D01*
G75*
G02*
X110557750Y-147105000I-146250J0D01*
G01*
X110265250Y-147105000D01*
G75*
G02*
X110119000Y-146958750I0J146250D01*
G01*
G37*
G36*
G01*
X118539100Y-147885850D02*
X118539100Y-147338350D01*
G75*
G02*
X118685350Y-147192100I146250J0D01*
G01*
X118977850Y-147192100D01*
G75*
G02*
X119124100Y-147338350I0J-146250D01*
G01*
X119124100Y-147885850D01*
G75*
G02*
X118977850Y-148032100I-146250J0D01*
G01*
X118685350Y-148032100D01*
G75*
G02*
X118539100Y-147885850I0J146250D01*
G01*
G37*
G36*
G01*
X116664100Y-147885850D02*
X116664100Y-147338350D01*
G75*
G02*
X116810350Y-147192100I146250J0D01*
G01*
X117102850Y-147192100D01*
G75*
G02*
X117249100Y-147338350I0J-146250D01*
G01*
X117249100Y-147885850D01*
G75*
G02*
X117102850Y-148032100I-146250J0D01*
G01*
X116810350Y-148032100D01*
G75*
G02*
X116664100Y-147885850I0J146250D01*
G01*
G37*
G36*
G01*
X107969750Y-140198000D02*
X107422250Y-140198000D01*
G75*
G02*
X107276000Y-140051750I0J146250D01*
G01*
X107276000Y-139759250D01*
G75*
G02*
X107422250Y-139613000I146250J0D01*
G01*
X107969750Y-139613000D01*
G75*
G02*
X108116000Y-139759250I0J-146250D01*
G01*
X108116000Y-140051750D01*
G75*
G02*
X107969750Y-140198000I-146250J0D01*
G01*
G37*
G36*
G01*
X107969750Y-142073000D02*
X107422250Y-142073000D01*
G75*
G02*
X107276000Y-141926750I0J146250D01*
G01*
X107276000Y-141634250D01*
G75*
G02*
X107422250Y-141488000I146250J0D01*
G01*
X107969750Y-141488000D01*
G75*
G02*
X108116000Y-141634250I0J-146250D01*
G01*
X108116000Y-141926750D01*
G75*
G02*
X107969750Y-142073000I-146250J0D01*
G01*
G37*
G36*
G01*
X144673400Y-136214550D02*
X144673400Y-135667050D01*
G75*
G02*
X144819650Y-135520800I146250J0D01*
G01*
X145112150Y-135520800D01*
G75*
G02*
X145258400Y-135667050I0J-146250D01*
G01*
X145258400Y-136214550D01*
G75*
G02*
X145112150Y-136360800I-146250J0D01*
G01*
X144819650Y-136360800D01*
G75*
G02*
X144673400Y-136214550I0J146250D01*
G01*
G37*
G36*
G01*
X142798400Y-136214550D02*
X142798400Y-135667050D01*
G75*
G02*
X142944650Y-135520800I146250J0D01*
G01*
X143237150Y-135520800D01*
G75*
G02*
X143383400Y-135667050I0J-146250D01*
G01*
X143383400Y-136214550D01*
G75*
G02*
X143237150Y-136360800I-146250J0D01*
G01*
X142944650Y-136360800D01*
G75*
G02*
X142798400Y-136214550I0J146250D01*
G01*
G37*
G36*
G01*
X140408500Y-128861250D02*
X140408500Y-128313750D01*
G75*
G02*
X140554750Y-128167500I146250J0D01*
G01*
X140847250Y-128167500D01*
G75*
G02*
X140993500Y-128313750I0J-146250D01*
G01*
X140993500Y-128861250D01*
G75*
G02*
X140847250Y-129007500I-146250J0D01*
G01*
X140554750Y-129007500D01*
G75*
G02*
X140408500Y-128861250I0J146250D01*
G01*
G37*
G36*
G01*
X138533500Y-128861250D02*
X138533500Y-128313750D01*
G75*
G02*
X138679750Y-128167500I146250J0D01*
G01*
X138972250Y-128167500D01*
G75*
G02*
X139118500Y-128313750I0J-146250D01*
G01*
X139118500Y-128861250D01*
G75*
G02*
X138972250Y-129007500I-146250J0D01*
G01*
X138679750Y-129007500D01*
G75*
G02*
X138533500Y-128861250I0J146250D01*
G01*
G37*
G36*
G01*
X155678500Y-129000950D02*
X155678500Y-128453450D01*
G75*
G02*
X155824750Y-128307200I146250J0D01*
G01*
X156117250Y-128307200D01*
G75*
G02*
X156263500Y-128453450I0J-146250D01*
G01*
X156263500Y-129000950D01*
G75*
G02*
X156117250Y-129147200I-146250J0D01*
G01*
X155824750Y-129147200D01*
G75*
G02*
X155678500Y-129000950I0J146250D01*
G01*
G37*
G36*
G01*
X157553500Y-129000950D02*
X157553500Y-128453450D01*
G75*
G02*
X157699750Y-128307200I146250J0D01*
G01*
X157992250Y-128307200D01*
G75*
G02*
X158138500Y-128453450I0J-146250D01*
G01*
X158138500Y-129000950D01*
G75*
G02*
X157992250Y-129147200I-146250J0D01*
G01*
X157699750Y-129147200D01*
G75*
G02*
X157553500Y-129000950I0J146250D01*
G01*
G37*
G36*
G01*
X157578900Y-132468050D02*
X157578900Y-131920550D01*
G75*
G02*
X157725150Y-131774300I146250J0D01*
G01*
X158017650Y-131774300D01*
G75*
G02*
X158163900Y-131920550I0J-146250D01*
G01*
X158163900Y-132468050D01*
G75*
G02*
X158017650Y-132614300I-146250J0D01*
G01*
X157725150Y-132614300D01*
G75*
G02*
X157578900Y-132468050I0J146250D01*
G01*
G37*
G36*
G01*
X155703900Y-132468050D02*
X155703900Y-131920550D01*
G75*
G02*
X155850150Y-131774300I146250J0D01*
G01*
X156142650Y-131774300D01*
G75*
G02*
X156288900Y-131920550I0J-146250D01*
G01*
X156288900Y-132468050D01*
G75*
G02*
X156142650Y-132614300I-146250J0D01*
G01*
X155850150Y-132614300D01*
G75*
G02*
X155703900Y-132468050I0J146250D01*
G01*
G37*
G36*
G01*
X115742150Y-132755800D02*
X115194650Y-132755800D01*
G75*
G02*
X115048400Y-132609550I0J146250D01*
G01*
X115048400Y-132317050D01*
G75*
G02*
X115194650Y-132170800I146250J0D01*
G01*
X115742150Y-132170800D01*
G75*
G02*
X115888400Y-132317050I0J-146250D01*
G01*
X115888400Y-132609550D01*
G75*
G02*
X115742150Y-132755800I-146250J0D01*
G01*
G37*
G36*
G01*
X115742150Y-134630800D02*
X115194650Y-134630800D01*
G75*
G02*
X115048400Y-134484550I0J146250D01*
G01*
X115048400Y-134192050D01*
G75*
G02*
X115194650Y-134045800I146250J0D01*
G01*
X115742150Y-134045800D01*
G75*
G02*
X115888400Y-134192050I0J-146250D01*
G01*
X115888400Y-134484550D01*
G75*
G02*
X115742150Y-134630800I-146250J0D01*
G01*
G37*
G36*
G01*
X119450550Y-134732400D02*
X118903050Y-134732400D01*
G75*
G02*
X118756800Y-134586150I0J146250D01*
G01*
X118756800Y-134293650D01*
G75*
G02*
X118903050Y-134147400I146250J0D01*
G01*
X119450550Y-134147400D01*
G75*
G02*
X119596800Y-134293650I0J-146250D01*
G01*
X119596800Y-134586150D01*
G75*
G02*
X119450550Y-134732400I-146250J0D01*
G01*
G37*
G36*
G01*
X119450550Y-132857400D02*
X118903050Y-132857400D01*
G75*
G02*
X118756800Y-132711150I0J146250D01*
G01*
X118756800Y-132418650D01*
G75*
G02*
X118903050Y-132272400I146250J0D01*
G01*
X119450550Y-132272400D01*
G75*
G02*
X119596800Y-132418650I0J-146250D01*
G01*
X119596800Y-132711150D01*
G75*
G02*
X119450550Y-132857400I-146250J0D01*
G01*
G37*
G36*
G01*
X123006550Y-134630800D02*
X122459050Y-134630800D01*
G75*
G02*
X122312800Y-134484550I0J146250D01*
G01*
X122312800Y-134192050D01*
G75*
G02*
X122459050Y-134045800I146250J0D01*
G01*
X123006550Y-134045800D01*
G75*
G02*
X123152800Y-134192050I0J-146250D01*
G01*
X123152800Y-134484550D01*
G75*
G02*
X123006550Y-134630800I-146250J0D01*
G01*
G37*
G36*
G01*
X123006550Y-132755800D02*
X122459050Y-132755800D01*
G75*
G02*
X122312800Y-132609550I0J146250D01*
G01*
X122312800Y-132317050D01*
G75*
G02*
X122459050Y-132170800I146250J0D01*
G01*
X123006550Y-132170800D01*
G75*
G02*
X123152800Y-132317050I0J-146250D01*
G01*
X123152800Y-132609550D01*
G75*
G02*
X123006550Y-132755800I-146250J0D01*
G01*
G37*
G36*
G01*
X132290250Y-128641000D02*
X131742750Y-128641000D01*
G75*
G02*
X131596500Y-128494750I0J146250D01*
G01*
X131596500Y-128202250D01*
G75*
G02*
X131742750Y-128056000I146250J0D01*
G01*
X132290250Y-128056000D01*
G75*
G02*
X132436500Y-128202250I0J-146250D01*
G01*
X132436500Y-128494750D01*
G75*
G02*
X132290250Y-128641000I-146250J0D01*
G01*
G37*
G36*
G01*
X132290250Y-130516000D02*
X131742750Y-130516000D01*
G75*
G02*
X131596500Y-130369750I0J146250D01*
G01*
X131596500Y-130077250D01*
G75*
G02*
X131742750Y-129931000I146250J0D01*
G01*
X132290250Y-129931000D01*
G75*
G02*
X132436500Y-130077250I0J-146250D01*
G01*
X132436500Y-130369750D01*
G75*
G02*
X132290250Y-130516000I-146250J0D01*
G01*
G37*
G36*
G01*
X127818450Y-124840600D02*
X128365950Y-124840600D01*
G75*
G02*
X128512200Y-124986850I0J-146250D01*
G01*
X128512200Y-125279350D01*
G75*
G02*
X128365950Y-125425600I-146250J0D01*
G01*
X127818450Y-125425600D01*
G75*
G02*
X127672200Y-125279350I0J146250D01*
G01*
X127672200Y-124986850D01*
G75*
G02*
X127818450Y-124840600I146250J0D01*
G01*
G37*
G36*
G01*
X127818450Y-122965600D02*
X128365950Y-122965600D01*
G75*
G02*
X128512200Y-123111850I0J-146250D01*
G01*
X128512200Y-123404350D01*
G75*
G02*
X128365950Y-123550600I-146250J0D01*
G01*
X127818450Y-123550600D01*
G75*
G02*
X127672200Y-123404350I0J146250D01*
G01*
X127672200Y-123111850D01*
G75*
G02*
X127818450Y-122965600I146250J0D01*
G01*
G37*
G36*
G01*
X132353750Y-123512500D02*
X131806250Y-123512500D01*
G75*
G02*
X131660000Y-123366250I0J146250D01*
G01*
X131660000Y-123073750D01*
G75*
G02*
X131806250Y-122927500I146250J0D01*
G01*
X132353750Y-122927500D01*
G75*
G02*
X132500000Y-123073750I0J-146250D01*
G01*
X132500000Y-123366250D01*
G75*
G02*
X132353750Y-123512500I-146250J0D01*
G01*
G37*
G36*
G01*
X132353750Y-125387500D02*
X131806250Y-125387500D01*
G75*
G02*
X131660000Y-125241250I0J146250D01*
G01*
X131660000Y-124948750D01*
G75*
G02*
X131806250Y-124802500I146250J0D01*
G01*
X132353750Y-124802500D01*
G75*
G02*
X132500000Y-124948750I0J-146250D01*
G01*
X132500000Y-125241250D01*
G75*
G02*
X132353750Y-125387500I-146250J0D01*
G01*
G37*
G36*
G01*
X115911000Y-117150450D02*
X115911000Y-117697950D01*
G75*
G02*
X115764750Y-117844200I-146250J0D01*
G01*
X115472250Y-117844200D01*
G75*
G02*
X115326000Y-117697950I0J146250D01*
G01*
X115326000Y-117150450D01*
G75*
G02*
X115472250Y-117004200I146250J0D01*
G01*
X115764750Y-117004200D01*
G75*
G02*
X115911000Y-117150450I0J-146250D01*
G01*
G37*
G36*
G01*
X114036000Y-117150450D02*
X114036000Y-117697950D01*
G75*
G02*
X113889750Y-117844200I-146250J0D01*
G01*
X113597250Y-117844200D01*
G75*
G02*
X113451000Y-117697950I0J146250D01*
G01*
X113451000Y-117150450D01*
G75*
G02*
X113597250Y-117004200I146250J0D01*
G01*
X113889750Y-117004200D01*
G75*
G02*
X114036000Y-117150450I0J-146250D01*
G01*
G37*
G36*
G01*
X160581500Y-130447350D02*
X160581500Y-130994850D01*
G75*
G02*
X160435250Y-131141100I-146250J0D01*
G01*
X160142750Y-131141100D01*
G75*
G02*
X159996500Y-130994850I0J146250D01*
G01*
X159996500Y-130447350D01*
G75*
G02*
X160142750Y-130301100I146250J0D01*
G01*
X160435250Y-130301100D01*
G75*
G02*
X160581500Y-130447350I0J-146250D01*
G01*
G37*
G36*
G01*
X162456500Y-130447350D02*
X162456500Y-130994850D01*
G75*
G02*
X162310250Y-131141100I-146250J0D01*
G01*
X162017750Y-131141100D01*
G75*
G02*
X161871500Y-130994850I0J146250D01*
G01*
X161871500Y-130447350D01*
G75*
G02*
X162017750Y-130301100I146250J0D01*
G01*
X162310250Y-130301100D01*
G75*
G02*
X162456500Y-130447350I0J-146250D01*
G01*
G37*
G36*
G01*
X162583500Y-133444550D02*
X162583500Y-133992050D01*
G75*
G02*
X162437250Y-134138300I-146250J0D01*
G01*
X162144750Y-134138300D01*
G75*
G02*
X161998500Y-133992050I0J146250D01*
G01*
X161998500Y-133444550D01*
G75*
G02*
X162144750Y-133298300I146250J0D01*
G01*
X162437250Y-133298300D01*
G75*
G02*
X162583500Y-133444550I0J-146250D01*
G01*
G37*
G36*
G01*
X160708500Y-133444550D02*
X160708500Y-133992050D01*
G75*
G02*
X160562250Y-134138300I-146250J0D01*
G01*
X160269750Y-134138300D01*
G75*
G02*
X160123500Y-133992050I0J146250D01*
G01*
X160123500Y-133444550D01*
G75*
G02*
X160269750Y-133298300I146250J0D01*
G01*
X160562250Y-133298300D01*
G75*
G02*
X160708500Y-133444550I0J-146250D01*
G01*
G37*
D10*
X138743000Y-134300000D03*
X140843000Y-133350000D03*
X140843000Y-135250000D03*
D11*
X153218900Y-129613700D03*
X151218900Y-130563700D03*
X151218900Y-128663700D03*
X151539700Y-134520900D03*
X151539700Y-136420900D03*
X153539700Y-135470900D03*
G36*
G01*
X148777800Y-128937450D02*
X148777800Y-128389950D01*
G75*
G02*
X148924050Y-128243700I146250J0D01*
G01*
X149216550Y-128243700D01*
G75*
G02*
X149362800Y-128389950I0J-146250D01*
G01*
X149362800Y-128937450D01*
G75*
G02*
X149216550Y-129083700I-146250J0D01*
G01*
X148924050Y-129083700D01*
G75*
G02*
X148777800Y-128937450I0J146250D01*
G01*
G37*
G36*
G01*
X146902800Y-128937450D02*
X146902800Y-128389950D01*
G75*
G02*
X147049050Y-128243700I146250J0D01*
G01*
X147341550Y-128243700D01*
G75*
G02*
X147487800Y-128389950I0J-146250D01*
G01*
X147487800Y-128937450D01*
G75*
G02*
X147341550Y-129083700I-146250J0D01*
G01*
X147049050Y-129083700D01*
G75*
G02*
X146902800Y-128937450I0J146250D01*
G01*
G37*
G36*
G01*
X142749900Y-128912050D02*
X142749900Y-128364550D01*
G75*
G02*
X142896150Y-128218300I146250J0D01*
G01*
X143188650Y-128218300D01*
G75*
G02*
X143334900Y-128364550I0J-146250D01*
G01*
X143334900Y-128912050D01*
G75*
G02*
X143188650Y-129058300I-146250J0D01*
G01*
X142896150Y-129058300D01*
G75*
G02*
X142749900Y-128912050I0J146250D01*
G01*
G37*
G36*
G01*
X144624900Y-128912050D02*
X144624900Y-128364550D01*
G75*
G02*
X144771150Y-128218300I146250J0D01*
G01*
X145063650Y-128218300D01*
G75*
G02*
X145209900Y-128364550I0J-146250D01*
G01*
X145209900Y-128912050D01*
G75*
G02*
X145063650Y-129058300I-146250J0D01*
G01*
X144771150Y-129058300D01*
G75*
G02*
X144624900Y-128912050I0J146250D01*
G01*
G37*
G36*
G01*
X146902800Y-132569650D02*
X146902800Y-132022150D01*
G75*
G02*
X147049050Y-131875900I146250J0D01*
G01*
X147341550Y-131875900D01*
G75*
G02*
X147487800Y-132022150I0J-146250D01*
G01*
X147487800Y-132569650D01*
G75*
G02*
X147341550Y-132715900I-146250J0D01*
G01*
X147049050Y-132715900D01*
G75*
G02*
X146902800Y-132569650I0J146250D01*
G01*
G37*
G36*
G01*
X148777800Y-132569650D02*
X148777800Y-132022150D01*
G75*
G02*
X148924050Y-131875900I146250J0D01*
G01*
X149216550Y-131875900D01*
G75*
G02*
X149362800Y-132022150I0J-146250D01*
G01*
X149362800Y-132569650D01*
G75*
G02*
X149216550Y-132715900I-146250J0D01*
G01*
X148924050Y-132715900D01*
G75*
G02*
X148777800Y-132569650I0J146250D01*
G01*
G37*
G36*
G01*
X148712000Y-136151050D02*
X148712000Y-135603550D01*
G75*
G02*
X148858250Y-135457300I146250J0D01*
G01*
X149150750Y-135457300D01*
G75*
G02*
X149297000Y-135603550I0J-146250D01*
G01*
X149297000Y-136151050D01*
G75*
G02*
X149150750Y-136297300I-146250J0D01*
G01*
X148858250Y-136297300D01*
G75*
G02*
X148712000Y-136151050I0J146250D01*
G01*
G37*
G36*
G01*
X146837000Y-136151050D02*
X146837000Y-135603550D01*
G75*
G02*
X146983250Y-135457300I146250J0D01*
G01*
X147275750Y-135457300D01*
G75*
G02*
X147422000Y-135603550I0J-146250D01*
G01*
X147422000Y-136151050D01*
G75*
G02*
X147275750Y-136297300I-146250J0D01*
G01*
X146983250Y-136297300D01*
G75*
G02*
X146837000Y-136151050I0J146250D01*
G01*
G37*
G36*
G01*
X155942900Y-136354250D02*
X155942900Y-135806750D01*
G75*
G02*
X156089150Y-135660500I146250J0D01*
G01*
X156381650Y-135660500D01*
G75*
G02*
X156527900Y-135806750I0J-146250D01*
G01*
X156527900Y-136354250D01*
G75*
G02*
X156381650Y-136500500I-146250J0D01*
G01*
X156089150Y-136500500D01*
G75*
G02*
X155942900Y-136354250I0J146250D01*
G01*
G37*
G36*
G01*
X157817900Y-136354250D02*
X157817900Y-135806750D01*
G75*
G02*
X157964150Y-135660500I146250J0D01*
G01*
X158256650Y-135660500D01*
G75*
G02*
X158402900Y-135806750I0J-146250D01*
G01*
X158402900Y-136354250D01*
G75*
G02*
X158256650Y-136500500I-146250J0D01*
G01*
X157964150Y-136500500D01*
G75*
G02*
X157817900Y-136354250I0J146250D01*
G01*
G37*
G36*
G01*
X110749650Y-139689200D02*
X111297150Y-139689200D01*
G75*
G02*
X111443400Y-139835450I0J-146250D01*
G01*
X111443400Y-140127950D01*
G75*
G02*
X111297150Y-140274200I-146250J0D01*
G01*
X110749650Y-140274200D01*
G75*
G02*
X110603400Y-140127950I0J146250D01*
G01*
X110603400Y-139835450D01*
G75*
G02*
X110749650Y-139689200I146250J0D01*
G01*
G37*
G36*
G01*
X110749650Y-141564200D02*
X111297150Y-141564200D01*
G75*
G02*
X111443400Y-141710450I0J-146250D01*
G01*
X111443400Y-142002950D01*
G75*
G02*
X111297150Y-142149200I-146250J0D01*
G01*
X110749650Y-142149200D01*
G75*
G02*
X110603400Y-142002950I0J146250D01*
G01*
X110603400Y-141710450D01*
G75*
G02*
X110749650Y-141564200I146250J0D01*
G01*
G37*
G36*
G01*
X107842750Y-136324500D02*
X107295250Y-136324500D01*
G75*
G02*
X107149000Y-136178250I0J146250D01*
G01*
X107149000Y-135885750D01*
G75*
G02*
X107295250Y-135739500I146250J0D01*
G01*
X107842750Y-135739500D01*
G75*
G02*
X107989000Y-135885750I0J-146250D01*
G01*
X107989000Y-136178250D01*
G75*
G02*
X107842750Y-136324500I-146250J0D01*
G01*
G37*
G36*
G01*
X107842750Y-138199500D02*
X107295250Y-138199500D01*
G75*
G02*
X107149000Y-138053250I0J146250D01*
G01*
X107149000Y-137760750D01*
G75*
G02*
X107295250Y-137614500I146250J0D01*
G01*
X107842750Y-137614500D01*
G75*
G02*
X107989000Y-137760750I0J-146250D01*
G01*
X107989000Y-138053250D01*
G75*
G02*
X107842750Y-138199500I-146250J0D01*
G01*
G37*
G36*
G01*
X123487750Y-138996500D02*
X124035250Y-138996500D01*
G75*
G02*
X124181500Y-139142750I0J-146250D01*
G01*
X124181500Y-139435250D01*
G75*
G02*
X124035250Y-139581500I-146250J0D01*
G01*
X123487750Y-139581500D01*
G75*
G02*
X123341500Y-139435250I0J146250D01*
G01*
X123341500Y-139142750D01*
G75*
G02*
X123487750Y-138996500I146250J0D01*
G01*
G37*
G36*
G01*
X123487750Y-137121500D02*
X124035250Y-137121500D01*
G75*
G02*
X124181500Y-137267750I0J-146250D01*
G01*
X124181500Y-137560250D01*
G75*
G02*
X124035250Y-137706500I-146250J0D01*
G01*
X123487750Y-137706500D01*
G75*
G02*
X123341500Y-137560250I0J146250D01*
G01*
X123341500Y-137267750D01*
G75*
G02*
X123487750Y-137121500I146250J0D01*
G01*
G37*
G36*
G01*
X133774750Y-137136500D02*
X134322250Y-137136500D01*
G75*
G02*
X134468500Y-137282750I0J-146250D01*
G01*
X134468500Y-137575250D01*
G75*
G02*
X134322250Y-137721500I-146250J0D01*
G01*
X133774750Y-137721500D01*
G75*
G02*
X133628500Y-137575250I0J146250D01*
G01*
X133628500Y-137282750D01*
G75*
G02*
X133774750Y-137136500I146250J0D01*
G01*
G37*
G36*
G01*
X133774750Y-139011500D02*
X134322250Y-139011500D01*
G75*
G02*
X134468500Y-139157750I0J-146250D01*
G01*
X134468500Y-139450250D01*
G75*
G02*
X134322250Y-139596500I-146250J0D01*
G01*
X133774750Y-139596500D01*
G75*
G02*
X133628500Y-139450250I0J146250D01*
G01*
X133628500Y-139157750D01*
G75*
G02*
X133774750Y-139011500I146250J0D01*
G01*
G37*
G36*
G01*
X126916750Y-138884500D02*
X127464250Y-138884500D01*
G75*
G02*
X127610500Y-139030750I0J-146250D01*
G01*
X127610500Y-139323250D01*
G75*
G02*
X127464250Y-139469500I-146250J0D01*
G01*
X126916750Y-139469500D01*
G75*
G02*
X126770500Y-139323250I0J146250D01*
G01*
X126770500Y-139030750D01*
G75*
G02*
X126916750Y-138884500I146250J0D01*
G01*
G37*
G36*
G01*
X126916750Y-137009500D02*
X127464250Y-137009500D01*
G75*
G02*
X127610500Y-137155750I0J-146250D01*
G01*
X127610500Y-137448250D01*
G75*
G02*
X127464250Y-137594500I-146250J0D01*
G01*
X126916750Y-137594500D01*
G75*
G02*
X126770500Y-137448250I0J146250D01*
G01*
X126770500Y-137155750D01*
G75*
G02*
X126916750Y-137009500I146250J0D01*
G01*
G37*
G36*
G01*
X130345750Y-137073000D02*
X130893250Y-137073000D01*
G75*
G02*
X131039500Y-137219250I0J-146250D01*
G01*
X131039500Y-137511750D01*
G75*
G02*
X130893250Y-137658000I-146250J0D01*
G01*
X130345750Y-137658000D01*
G75*
G02*
X130199500Y-137511750I0J146250D01*
G01*
X130199500Y-137219250D01*
G75*
G02*
X130345750Y-137073000I146250J0D01*
G01*
G37*
G36*
G01*
X130345750Y-138948000D02*
X130893250Y-138948000D01*
G75*
G02*
X131039500Y-139094250I0J-146250D01*
G01*
X131039500Y-139386750D01*
G75*
G02*
X130893250Y-139533000I-146250J0D01*
G01*
X130345750Y-139533000D01*
G75*
G02*
X130199500Y-139386750I0J146250D01*
G01*
X130199500Y-139094250D01*
G75*
G02*
X130345750Y-138948000I146250J0D01*
G01*
G37*
G36*
G01*
X115626450Y-136996800D02*
X116173950Y-136996800D01*
G75*
G02*
X116320200Y-137143050I0J-146250D01*
G01*
X116320200Y-137435550D01*
G75*
G02*
X116173950Y-137581800I-146250J0D01*
G01*
X115626450Y-137581800D01*
G75*
G02*
X115480200Y-137435550I0J146250D01*
G01*
X115480200Y-137143050D01*
G75*
G02*
X115626450Y-136996800I146250J0D01*
G01*
G37*
G36*
G01*
X115626450Y-138871800D02*
X116173950Y-138871800D01*
G75*
G02*
X116320200Y-139018050I0J-146250D01*
G01*
X116320200Y-139310550D01*
G75*
G02*
X116173950Y-139456800I-146250J0D01*
G01*
X115626450Y-139456800D01*
G75*
G02*
X115480200Y-139310550I0J146250D01*
G01*
X115480200Y-139018050D01*
G75*
G02*
X115626450Y-138871800I146250J0D01*
G01*
G37*
G36*
G01*
X119538050Y-138920300D02*
X120085550Y-138920300D01*
G75*
G02*
X120231800Y-139066550I0J-146250D01*
G01*
X120231800Y-139359050D01*
G75*
G02*
X120085550Y-139505300I-146250J0D01*
G01*
X119538050Y-139505300D01*
G75*
G02*
X119391800Y-139359050I0J146250D01*
G01*
X119391800Y-139066550D01*
G75*
G02*
X119538050Y-138920300I146250J0D01*
G01*
G37*
G36*
G01*
X119538050Y-137045300D02*
X120085550Y-137045300D01*
G75*
G02*
X120231800Y-137191550I0J-146250D01*
G01*
X120231800Y-137484050D01*
G75*
G02*
X120085550Y-137630300I-146250J0D01*
G01*
X119538050Y-137630300D01*
G75*
G02*
X119391800Y-137484050I0J146250D01*
G01*
X119391800Y-137191550D01*
G75*
G02*
X119538050Y-137045300I146250J0D01*
G01*
G37*
G36*
G01*
X124759150Y-123520600D02*
X124211650Y-123520600D01*
G75*
G02*
X124065400Y-123374350I0J146250D01*
G01*
X124065400Y-123081850D01*
G75*
G02*
X124211650Y-122935600I146250J0D01*
G01*
X124759150Y-122935600D01*
G75*
G02*
X124905400Y-123081850I0J-146250D01*
G01*
X124905400Y-123374350D01*
G75*
G02*
X124759150Y-123520600I-146250J0D01*
G01*
G37*
G36*
G01*
X124759150Y-125395600D02*
X124211650Y-125395600D01*
G75*
G02*
X124065400Y-125249350I0J146250D01*
G01*
X124065400Y-124956850D01*
G75*
G02*
X124211650Y-124810600I146250J0D01*
G01*
X124759150Y-124810600D01*
G75*
G02*
X124905400Y-124956850I0J-146250D01*
G01*
X124905400Y-125249350D01*
G75*
G02*
X124759150Y-125395600I-146250J0D01*
G01*
G37*
G36*
G01*
X126167450Y-132272400D02*
X126714950Y-132272400D01*
G75*
G02*
X126861200Y-132418650I0J-146250D01*
G01*
X126861200Y-132711150D01*
G75*
G02*
X126714950Y-132857400I-146250J0D01*
G01*
X126167450Y-132857400D01*
G75*
G02*
X126021200Y-132711150I0J146250D01*
G01*
X126021200Y-132418650D01*
G75*
G02*
X126167450Y-132272400I146250J0D01*
G01*
G37*
G36*
G01*
X126167450Y-134147400D02*
X126714950Y-134147400D01*
G75*
G02*
X126861200Y-134293650I0J-146250D01*
G01*
X126861200Y-134586150D01*
G75*
G02*
X126714950Y-134732400I-146250J0D01*
G01*
X126167450Y-134732400D01*
G75*
G02*
X126021200Y-134586150I0J146250D01*
G01*
X126021200Y-134293650D01*
G75*
G02*
X126167450Y-134147400I146250J0D01*
G01*
G37*
D12*
X139163300Y-143608700D03*
X138663300Y-143608700D03*
X138163300Y-143608700D03*
X137663300Y-143608700D03*
X137163300Y-143608700D03*
X137163300Y-148008700D03*
X137663300Y-148008700D03*
X138163300Y-148008700D03*
X138663300Y-148008700D03*
X139163300Y-148008700D03*
D13*
X132969000Y-147276800D03*
X131699000Y-147276800D03*
X130429000Y-147276800D03*
X129159000Y-147276800D03*
X127889000Y-147276800D03*
X126619000Y-147276800D03*
X125349000Y-147276800D03*
X124079000Y-147276800D03*
X124079000Y-141876800D03*
X125349000Y-141876800D03*
X126619000Y-141876800D03*
X127889000Y-141876800D03*
X129159000Y-141876800D03*
X130429000Y-141876800D03*
X131699000Y-141876800D03*
X132969000Y-141876800D03*
D14*
X118173500Y-119664500D03*
X119443500Y-119664500D03*
X120713500Y-119664500D03*
X121983500Y-119664500D03*
X121983500Y-125064500D03*
X120713500Y-125064500D03*
X119443500Y-125064500D03*
X118173500Y-125064500D03*
D15*
X144677500Y-144632500D03*
X144677500Y-146832500D03*
X142977500Y-146832500D03*
X142977500Y-144632500D03*
M02*
