G04 #@! TF.GenerationSoftware,KiCad,Pcbnew,(5.1.9)-1*
G04 #@! TF.CreationDate,2021-05-04T19:46:14-07:00*
G04 #@! TF.ProjectId,SDRReciever,53445252-6563-4696-9576-65722e6b6963,1*
G04 #@! TF.SameCoordinates,Original*
G04 #@! TF.FileFunction,Legend,Bot*
G04 #@! TF.FilePolarity,Positive*
%FSLAX46Y46*%
G04 Gerber Fmt 4.6, Leading zero omitted, Abs format (unit mm)*
G04 Created by KiCad (PCBNEW (5.1.9)-1) date 2021-05-04 19:46:14*
%MOMM*%
%LPD*%
G01*
G04 APERTURE LIST*
%ADD10C,0.150000*%
%ADD11C,0.010000*%
G04 APERTURE END LIST*
D10*
X127283523Y-146816404D02*
X127283523Y-146016404D01*
X127093047Y-146016404D01*
X126978761Y-146054500D01*
X126902571Y-146130690D01*
X126864476Y-146206880D01*
X126826380Y-146359261D01*
X126826380Y-146473547D01*
X126864476Y-146625928D01*
X126902571Y-146702119D01*
X126978761Y-146778309D01*
X127093047Y-146816404D01*
X127283523Y-146816404D01*
X126178761Y-146778309D02*
X126254952Y-146816404D01*
X126407333Y-146816404D01*
X126483523Y-146778309D01*
X126521619Y-146702119D01*
X126521619Y-146397357D01*
X126483523Y-146321166D01*
X126407333Y-146283071D01*
X126254952Y-146283071D01*
X126178761Y-146321166D01*
X126140666Y-146397357D01*
X126140666Y-146473547D01*
X126521619Y-146549738D01*
X125835904Y-146778309D02*
X125759714Y-146816404D01*
X125607333Y-146816404D01*
X125531142Y-146778309D01*
X125493047Y-146702119D01*
X125493047Y-146664023D01*
X125531142Y-146587833D01*
X125607333Y-146549738D01*
X125721619Y-146549738D01*
X125797809Y-146511642D01*
X125835904Y-146435452D01*
X125835904Y-146397357D01*
X125797809Y-146321166D01*
X125721619Y-146283071D01*
X125607333Y-146283071D01*
X125531142Y-146321166D01*
X125150190Y-146816404D02*
X125150190Y-146283071D01*
X125150190Y-146016404D02*
X125188285Y-146054500D01*
X125150190Y-146092595D01*
X125112095Y-146054500D01*
X125150190Y-146016404D01*
X125150190Y-146092595D01*
X124426380Y-146283071D02*
X124426380Y-146930690D01*
X124464476Y-147006880D01*
X124502571Y-147044976D01*
X124578761Y-147083071D01*
X124693047Y-147083071D01*
X124769238Y-147044976D01*
X124426380Y-146778309D02*
X124502571Y-146816404D01*
X124654952Y-146816404D01*
X124731142Y-146778309D01*
X124769238Y-146740214D01*
X124807333Y-146664023D01*
X124807333Y-146435452D01*
X124769238Y-146359261D01*
X124731142Y-146321166D01*
X124654952Y-146283071D01*
X124502571Y-146283071D01*
X124426380Y-146321166D01*
X124045428Y-146283071D02*
X124045428Y-146816404D01*
X124045428Y-146359261D02*
X124007333Y-146321166D01*
X123931142Y-146283071D01*
X123816857Y-146283071D01*
X123740666Y-146321166D01*
X123702571Y-146397357D01*
X123702571Y-146816404D01*
X123016857Y-146778309D02*
X123093047Y-146816404D01*
X123245428Y-146816404D01*
X123321619Y-146778309D01*
X123359714Y-146702119D01*
X123359714Y-146397357D01*
X123321619Y-146321166D01*
X123245428Y-146283071D01*
X123093047Y-146283071D01*
X123016857Y-146321166D01*
X122978761Y-146397357D01*
X122978761Y-146473547D01*
X123359714Y-146549738D01*
X122293047Y-146816404D02*
X122293047Y-146016404D01*
X122293047Y-146778309D02*
X122369238Y-146816404D01*
X122521619Y-146816404D01*
X122597809Y-146778309D01*
X122635904Y-146740214D01*
X122674000Y-146664023D01*
X122674000Y-146435452D01*
X122635904Y-146359261D01*
X122597809Y-146321166D01*
X122521619Y-146283071D01*
X122369238Y-146283071D01*
X122293047Y-146321166D01*
X121035904Y-146397357D02*
X120921619Y-146435452D01*
X120883523Y-146473547D01*
X120845428Y-146549738D01*
X120845428Y-146664023D01*
X120883523Y-146740214D01*
X120921619Y-146778309D01*
X120997809Y-146816404D01*
X121302571Y-146816404D01*
X121302571Y-146016404D01*
X121035904Y-146016404D01*
X120959714Y-146054500D01*
X120921619Y-146092595D01*
X120883523Y-146168785D01*
X120883523Y-146244976D01*
X120921619Y-146321166D01*
X120959714Y-146359261D01*
X121035904Y-146397357D01*
X121302571Y-146397357D01*
X120578761Y-146283071D02*
X120388285Y-146816404D01*
X120197809Y-146283071D02*
X120388285Y-146816404D01*
X120464476Y-147006880D01*
X120502571Y-147044976D01*
X120578761Y-147083071D01*
X119893047Y-146740214D02*
X119854952Y-146778309D01*
X119893047Y-146816404D01*
X119931142Y-146778309D01*
X119893047Y-146740214D01*
X119893047Y-146816404D01*
X119893047Y-146321166D02*
X119854952Y-146359261D01*
X119893047Y-146397357D01*
X119931142Y-146359261D01*
X119893047Y-146321166D01*
X119893047Y-146397357D01*
X126826380Y-148090214D02*
X126864476Y-148128309D01*
X126978761Y-148166404D01*
X127054952Y-148166404D01*
X127169238Y-148128309D01*
X127245428Y-148052119D01*
X127283523Y-147975928D01*
X127321619Y-147823547D01*
X127321619Y-147709261D01*
X127283523Y-147556880D01*
X127245428Y-147480690D01*
X127169238Y-147404500D01*
X127054952Y-147366404D01*
X126978761Y-147366404D01*
X126864476Y-147404500D01*
X126826380Y-147442595D01*
X126140666Y-148166404D02*
X126140666Y-147747357D01*
X126178761Y-147671166D01*
X126254952Y-147633071D01*
X126407333Y-147633071D01*
X126483523Y-147671166D01*
X126140666Y-148128309D02*
X126216857Y-148166404D01*
X126407333Y-148166404D01*
X126483523Y-148128309D01*
X126521619Y-148052119D01*
X126521619Y-147975928D01*
X126483523Y-147899738D01*
X126407333Y-147861642D01*
X126216857Y-147861642D01*
X126140666Y-147823547D01*
X125645428Y-148166404D02*
X125721619Y-148128309D01*
X125759714Y-148052119D01*
X125759714Y-147366404D01*
X125035904Y-148128309D02*
X125112095Y-148166404D01*
X125264476Y-148166404D01*
X125340666Y-148128309D01*
X125378761Y-148052119D01*
X125378761Y-147747357D01*
X125340666Y-147671166D01*
X125264476Y-147633071D01*
X125112095Y-147633071D01*
X125035904Y-147671166D01*
X124997809Y-147747357D01*
X124997809Y-147823547D01*
X125378761Y-147899738D01*
X124654952Y-148166404D02*
X124654952Y-147366404D01*
X124654952Y-147671166D02*
X124578761Y-147633071D01*
X124426380Y-147633071D01*
X124350190Y-147671166D01*
X124312095Y-147709261D01*
X124274000Y-147785452D01*
X124274000Y-148014023D01*
X124312095Y-148090214D01*
X124350190Y-148128309D01*
X124426380Y-148166404D01*
X124578761Y-148166404D01*
X124654952Y-148128309D01*
X123321619Y-148166404D02*
X123321619Y-147366404D01*
X122864476Y-148166404D01*
X122864476Y-147366404D01*
X122178761Y-148128309D02*
X122254952Y-148166404D01*
X122407333Y-148166404D01*
X122483523Y-148128309D01*
X122521619Y-148052119D01*
X122521619Y-147747357D01*
X122483523Y-147671166D01*
X122407333Y-147633071D01*
X122254952Y-147633071D01*
X122178761Y-147671166D01*
X122140666Y-147747357D01*
X122140666Y-147823547D01*
X122521619Y-147899738D01*
X121683523Y-148166404D02*
X121759714Y-148128309D01*
X121797809Y-148052119D01*
X121797809Y-147366404D01*
X121416857Y-148128309D02*
X121340666Y-148166404D01*
X121188285Y-148166404D01*
X121112095Y-148128309D01*
X121074000Y-148052119D01*
X121074000Y-148014023D01*
X121112095Y-147937833D01*
X121188285Y-147899738D01*
X121302571Y-147899738D01*
X121378761Y-147861642D01*
X121416857Y-147785452D01*
X121416857Y-147747357D01*
X121378761Y-147671166D01*
X121302571Y-147633071D01*
X121188285Y-147633071D01*
X121112095Y-147671166D01*
X120616857Y-148166404D02*
X120693047Y-148128309D01*
X120731142Y-148090214D01*
X120769238Y-148014023D01*
X120769238Y-147785452D01*
X120731142Y-147709261D01*
X120693047Y-147671166D01*
X120616857Y-147633071D01*
X120502571Y-147633071D01*
X120426380Y-147671166D01*
X120388285Y-147709261D01*
X120350190Y-147785452D01*
X120350190Y-148014023D01*
X120388285Y-148090214D01*
X120426380Y-148128309D01*
X120502571Y-148166404D01*
X120616857Y-148166404D01*
X120007333Y-147633071D02*
X120007333Y-148166404D01*
X120007333Y-147709261D02*
X119969238Y-147671166D01*
X119893047Y-147633071D01*
X119778761Y-147633071D01*
X119702571Y-147671166D01*
X119664476Y-147747357D01*
X119664476Y-148166404D01*
X119245428Y-148128309D02*
X119245428Y-148166404D01*
X119283523Y-148242595D01*
X119321619Y-148280690D01*
X118293047Y-148166404D02*
X118293047Y-147366404D01*
X118102571Y-147366404D01*
X117988285Y-147404500D01*
X117912095Y-147480690D01*
X117874000Y-147556880D01*
X117835904Y-147709261D01*
X117835904Y-147823547D01*
X117874000Y-147975928D01*
X117912095Y-148052119D01*
X117988285Y-148128309D01*
X118102571Y-148166404D01*
X118293047Y-148166404D01*
X117150190Y-148166404D02*
X117150190Y-147747357D01*
X117188285Y-147671166D01*
X117264476Y-147633071D01*
X117416857Y-147633071D01*
X117493047Y-147671166D01*
X117150190Y-148128309D02*
X117226380Y-148166404D01*
X117416857Y-148166404D01*
X117493047Y-148128309D01*
X117531142Y-148052119D01*
X117531142Y-147975928D01*
X117493047Y-147899738D01*
X117416857Y-147861642D01*
X117226380Y-147861642D01*
X117150190Y-147823547D01*
X116769238Y-148166404D02*
X116769238Y-147633071D01*
X116769238Y-147785452D02*
X116731142Y-147709261D01*
X116693047Y-147671166D01*
X116616857Y-147633071D01*
X116540666Y-147633071D01*
X116274000Y-148166404D02*
X116274000Y-147633071D01*
X116274000Y-147366404D02*
X116312095Y-147404500D01*
X116274000Y-147442595D01*
X116235904Y-147404500D01*
X116274000Y-147366404D01*
X116274000Y-147442595D01*
X115550190Y-147633071D02*
X115550190Y-148166404D01*
X115893047Y-147633071D02*
X115893047Y-148052119D01*
X115854952Y-148128309D01*
X115778761Y-148166404D01*
X115664476Y-148166404D01*
X115588285Y-148128309D01*
X115550190Y-148090214D01*
X115207333Y-148128309D02*
X115131142Y-148166404D01*
X114978761Y-148166404D01*
X114902571Y-148128309D01*
X114864476Y-148052119D01*
X114864476Y-148014023D01*
X114902571Y-147937833D01*
X114978761Y-147899738D01*
X115093047Y-147899738D01*
X115169238Y-147861642D01*
X115207333Y-147785452D01*
X115207333Y-147747357D01*
X115169238Y-147671166D01*
X115093047Y-147633071D01*
X114978761Y-147633071D01*
X114902571Y-147671166D01*
X113645428Y-147747357D02*
X113912095Y-147747357D01*
X113912095Y-148166404D02*
X113912095Y-147366404D01*
X113531142Y-147366404D01*
X112921619Y-148128309D02*
X112997809Y-148166404D01*
X113150190Y-148166404D01*
X113226380Y-148128309D01*
X113264476Y-148052119D01*
X113264476Y-147747357D01*
X113226380Y-147671166D01*
X113150190Y-147633071D01*
X112997809Y-147633071D01*
X112921619Y-147671166D01*
X112883523Y-147747357D01*
X112883523Y-147823547D01*
X113264476Y-147899738D01*
X112426380Y-148166404D02*
X112502571Y-148128309D01*
X112540666Y-148052119D01*
X112540666Y-147366404D01*
X111778761Y-148166404D02*
X111778761Y-147366404D01*
X111778761Y-148128309D02*
X111854952Y-148166404D01*
X112007333Y-148166404D01*
X112083523Y-148128309D01*
X112121619Y-148090214D01*
X112159714Y-148014023D01*
X112159714Y-147785452D01*
X112121619Y-147709261D01*
X112083523Y-147671166D01*
X112007333Y-147633071D01*
X111854952Y-147633071D01*
X111778761Y-147671166D01*
X111093047Y-148128309D02*
X111169238Y-148166404D01*
X111321619Y-148166404D01*
X111397809Y-148128309D01*
X111435904Y-148052119D01*
X111435904Y-147747357D01*
X111397809Y-147671166D01*
X111321619Y-147633071D01*
X111169238Y-147633071D01*
X111093047Y-147671166D01*
X111054952Y-147747357D01*
X111054952Y-147823547D01*
X111435904Y-147899738D01*
X110712095Y-148166404D02*
X110712095Y-147633071D01*
X110712095Y-147785452D02*
X110674000Y-147709261D01*
X110635904Y-147671166D01*
X110559714Y-147633071D01*
X110483523Y-147633071D01*
X110178761Y-148128309D02*
X110178761Y-148166404D01*
X110216857Y-148242595D01*
X110254952Y-148280690D01*
X109226380Y-147747357D02*
X108959714Y-147747357D01*
X108845428Y-148166404D02*
X109226380Y-148166404D01*
X109226380Y-147366404D01*
X108845428Y-147366404D01*
X108502571Y-148166404D02*
X108502571Y-147633071D01*
X108502571Y-147785452D02*
X108464476Y-147709261D01*
X108426380Y-147671166D01*
X108350190Y-147633071D01*
X108274000Y-147633071D01*
X108007333Y-148166404D02*
X108007333Y-147633071D01*
X108007333Y-147366404D02*
X108045428Y-147404500D01*
X108007333Y-147442595D01*
X107969238Y-147404500D01*
X108007333Y-147366404D01*
X108007333Y-147442595D01*
X107283523Y-148128309D02*
X107359714Y-148166404D01*
X107512095Y-148166404D01*
X107588285Y-148128309D01*
X107626380Y-148090214D01*
X107664476Y-148014023D01*
X107664476Y-147785452D01*
X107626380Y-147709261D01*
X107588285Y-147671166D01*
X107512095Y-147633071D01*
X107359714Y-147633071D01*
X107283523Y-147671166D01*
X106407333Y-147366404D02*
X106216857Y-148166404D01*
X106064476Y-147594976D01*
X105912095Y-148166404D01*
X105721619Y-147366404D01*
X105074000Y-148166404D02*
X105074000Y-147747357D01*
X105112095Y-147671166D01*
X105188285Y-147633071D01*
X105340666Y-147633071D01*
X105416857Y-147671166D01*
X105074000Y-148128309D02*
X105150190Y-148166404D01*
X105340666Y-148166404D01*
X105416857Y-148128309D01*
X105454952Y-148052119D01*
X105454952Y-147975928D01*
X105416857Y-147899738D01*
X105340666Y-147861642D01*
X105150190Y-147861642D01*
X105074000Y-147823547D01*
X104578761Y-148166404D02*
X104654952Y-148128309D01*
X104693047Y-148052119D01*
X104693047Y-147366404D01*
X104312095Y-148128309D02*
X104235904Y-148166404D01*
X104083523Y-148166404D01*
X104007333Y-148128309D01*
X103969238Y-148052119D01*
X103969238Y-148014023D01*
X104007333Y-147937833D01*
X104083523Y-147899738D01*
X104197809Y-147899738D01*
X104274000Y-147861642D01*
X104312095Y-147785452D01*
X104312095Y-147747357D01*
X104274000Y-147671166D01*
X104197809Y-147633071D01*
X104083523Y-147633071D01*
X104007333Y-147671166D01*
X103626380Y-148166404D02*
X103626380Y-147366404D01*
X103283523Y-148166404D02*
X103283523Y-147747357D01*
X103321619Y-147671166D01*
X103397809Y-147633071D01*
X103512095Y-147633071D01*
X103588285Y-147671166D01*
X103626380Y-147709261D01*
X151442095Y-118108547D02*
X151320666Y-118149023D01*
X151118285Y-118149023D01*
X151037333Y-118108547D01*
X150996857Y-118068071D01*
X150956380Y-117987119D01*
X150956380Y-117906166D01*
X150996857Y-117825214D01*
X151037333Y-117784738D01*
X151118285Y-117744261D01*
X151280190Y-117703785D01*
X151361142Y-117663309D01*
X151401619Y-117622833D01*
X151442095Y-117541880D01*
X151442095Y-117460928D01*
X151401619Y-117379976D01*
X151361142Y-117339500D01*
X151280190Y-117299023D01*
X151077809Y-117299023D01*
X150956380Y-117339500D01*
X150470666Y-118149023D02*
X150551619Y-118108547D01*
X150592095Y-118068071D01*
X150632571Y-117987119D01*
X150632571Y-117744261D01*
X150592095Y-117663309D01*
X150551619Y-117622833D01*
X150470666Y-117582357D01*
X150349238Y-117582357D01*
X150268285Y-117622833D01*
X150227809Y-117663309D01*
X150187333Y-117744261D01*
X150187333Y-117987119D01*
X150227809Y-118068071D01*
X150268285Y-118108547D01*
X150349238Y-118149023D01*
X150470666Y-118149023D01*
X149944476Y-117582357D02*
X149620666Y-117582357D01*
X149823047Y-118149023D02*
X149823047Y-117420452D01*
X149782571Y-117339500D01*
X149701619Y-117299023D01*
X149620666Y-117299023D01*
X149458761Y-117582357D02*
X149134952Y-117582357D01*
X149337333Y-117299023D02*
X149337333Y-118027595D01*
X149296857Y-118108547D01*
X149215904Y-118149023D01*
X149134952Y-118149023D01*
X148932571Y-117582357D02*
X148770666Y-118149023D01*
X148608761Y-117744261D01*
X148446857Y-118149023D01*
X148284952Y-117582357D01*
X147596857Y-118149023D02*
X147596857Y-117703785D01*
X147637333Y-117622833D01*
X147718285Y-117582357D01*
X147880190Y-117582357D01*
X147961142Y-117622833D01*
X147596857Y-118108547D02*
X147677809Y-118149023D01*
X147880190Y-118149023D01*
X147961142Y-118108547D01*
X148001619Y-118027595D01*
X148001619Y-117946642D01*
X147961142Y-117865690D01*
X147880190Y-117825214D01*
X147677809Y-117825214D01*
X147596857Y-117784738D01*
X147192095Y-118149023D02*
X147192095Y-117582357D01*
X147192095Y-117744261D02*
X147151619Y-117663309D01*
X147111142Y-117622833D01*
X147030190Y-117582357D01*
X146949238Y-117582357D01*
X146342095Y-118108547D02*
X146423047Y-118149023D01*
X146584952Y-118149023D01*
X146665904Y-118108547D01*
X146706380Y-118027595D01*
X146706380Y-117703785D01*
X146665904Y-117622833D01*
X146584952Y-117582357D01*
X146423047Y-117582357D01*
X146342095Y-117622833D01*
X146301619Y-117703785D01*
X146301619Y-117784738D01*
X146706380Y-117865690D01*
X145289714Y-118149023D02*
X145289714Y-117299023D01*
X145087333Y-117299023D01*
X144965904Y-117339500D01*
X144884952Y-117420452D01*
X144844476Y-117501404D01*
X144804000Y-117663309D01*
X144804000Y-117784738D01*
X144844476Y-117946642D01*
X144884952Y-118027595D01*
X144965904Y-118108547D01*
X145087333Y-118149023D01*
X145289714Y-118149023D01*
X144115904Y-118108547D02*
X144196857Y-118149023D01*
X144358761Y-118149023D01*
X144439714Y-118108547D01*
X144480190Y-118027595D01*
X144480190Y-117703785D01*
X144439714Y-117622833D01*
X144358761Y-117582357D01*
X144196857Y-117582357D01*
X144115904Y-117622833D01*
X144075428Y-117703785D01*
X144075428Y-117784738D01*
X144480190Y-117865690D01*
X143832571Y-117582357D02*
X143508761Y-117582357D01*
X143711142Y-118149023D02*
X143711142Y-117420452D01*
X143670666Y-117339500D01*
X143589714Y-117299023D01*
X143508761Y-117299023D01*
X143225428Y-118149023D02*
X143225428Y-117582357D01*
X143225428Y-117299023D02*
X143265904Y-117339500D01*
X143225428Y-117379976D01*
X143184952Y-117339500D01*
X143225428Y-117299023D01*
X143225428Y-117379976D01*
X142820666Y-117582357D02*
X142820666Y-118149023D01*
X142820666Y-117663309D02*
X142780190Y-117622833D01*
X142699238Y-117582357D01*
X142577809Y-117582357D01*
X142496857Y-117622833D01*
X142456380Y-117703785D01*
X142456380Y-118149023D01*
X141727809Y-118108547D02*
X141808761Y-118149023D01*
X141970666Y-118149023D01*
X142051619Y-118108547D01*
X142092095Y-118027595D01*
X142092095Y-117703785D01*
X142051619Y-117622833D01*
X141970666Y-117582357D01*
X141808761Y-117582357D01*
X141727809Y-117622833D01*
X141687333Y-117703785D01*
X141687333Y-117784738D01*
X142092095Y-117865690D01*
X140958761Y-118149023D02*
X140958761Y-117299023D01*
X140958761Y-118108547D02*
X141039714Y-118149023D01*
X141201619Y-118149023D01*
X141282571Y-118108547D01*
X141323047Y-118068071D01*
X141363523Y-117987119D01*
X141363523Y-117744261D01*
X141323047Y-117663309D01*
X141282571Y-117622833D01*
X141201619Y-117582357D01*
X141039714Y-117582357D01*
X140958761Y-117622833D01*
X139420666Y-118149023D02*
X139704000Y-117744261D01*
X139906380Y-118149023D02*
X139906380Y-117299023D01*
X139582571Y-117299023D01*
X139501619Y-117339500D01*
X139461142Y-117379976D01*
X139420666Y-117460928D01*
X139420666Y-117582357D01*
X139461142Y-117663309D01*
X139501619Y-117703785D01*
X139582571Y-117744261D01*
X139906380Y-117744261D01*
X138692095Y-118149023D02*
X138692095Y-117703785D01*
X138732571Y-117622833D01*
X138813523Y-117582357D01*
X138975428Y-117582357D01*
X139056380Y-117622833D01*
X138692095Y-118108547D02*
X138773047Y-118149023D01*
X138975428Y-118149023D01*
X139056380Y-118108547D01*
X139096857Y-118027595D01*
X139096857Y-117946642D01*
X139056380Y-117865690D01*
X138975428Y-117825214D01*
X138773047Y-117825214D01*
X138692095Y-117784738D01*
X137923047Y-118149023D02*
X137923047Y-117299023D01*
X137923047Y-118108547D02*
X138004000Y-118149023D01*
X138165904Y-118149023D01*
X138246857Y-118108547D01*
X138287333Y-118068071D01*
X138327809Y-117987119D01*
X138327809Y-117744261D01*
X138287333Y-117663309D01*
X138246857Y-117622833D01*
X138165904Y-117582357D01*
X138004000Y-117582357D01*
X137923047Y-117622833D01*
X137518285Y-118149023D02*
X137518285Y-117582357D01*
X137518285Y-117299023D02*
X137558761Y-117339500D01*
X137518285Y-117379976D01*
X137477809Y-117339500D01*
X137518285Y-117299023D01*
X137518285Y-117379976D01*
X136992095Y-118149023D02*
X137073047Y-118108547D01*
X137113523Y-118068071D01*
X137154000Y-117987119D01*
X137154000Y-117744261D01*
X137113523Y-117663309D01*
X137073047Y-117622833D01*
X136992095Y-117582357D01*
X136870666Y-117582357D01*
X136789714Y-117622833D01*
X136749238Y-117663309D01*
X136708761Y-117744261D01*
X136708761Y-117987119D01*
X136749238Y-118068071D01*
X136789714Y-118108547D01*
X136870666Y-118149023D01*
X136992095Y-118149023D01*
X135211142Y-118149023D02*
X135494476Y-117744261D01*
X135696857Y-118149023D02*
X135696857Y-117299023D01*
X135373047Y-117299023D01*
X135292095Y-117339500D01*
X135251619Y-117379976D01*
X135211142Y-117460928D01*
X135211142Y-117582357D01*
X135251619Y-117663309D01*
X135292095Y-117703785D01*
X135373047Y-117744261D01*
X135696857Y-117744261D01*
X134523047Y-118108547D02*
X134604000Y-118149023D01*
X134765904Y-118149023D01*
X134846857Y-118108547D01*
X134887333Y-118027595D01*
X134887333Y-117703785D01*
X134846857Y-117622833D01*
X134765904Y-117582357D01*
X134604000Y-117582357D01*
X134523047Y-117622833D01*
X134482571Y-117703785D01*
X134482571Y-117784738D01*
X134887333Y-117865690D01*
X133754000Y-118108547D02*
X133834952Y-118149023D01*
X133996857Y-118149023D01*
X134077809Y-118108547D01*
X134118285Y-118068071D01*
X134158761Y-117987119D01*
X134158761Y-117744261D01*
X134118285Y-117663309D01*
X134077809Y-117622833D01*
X133996857Y-117582357D01*
X133834952Y-117582357D01*
X133754000Y-117622833D01*
X133389714Y-118149023D02*
X133389714Y-117582357D01*
X133389714Y-117299023D02*
X133430190Y-117339500D01*
X133389714Y-117379976D01*
X133349238Y-117339500D01*
X133389714Y-117299023D01*
X133389714Y-117379976D01*
X132661142Y-118108547D02*
X132742095Y-118149023D01*
X132904000Y-118149023D01*
X132984952Y-118108547D01*
X133025428Y-118027595D01*
X133025428Y-117703785D01*
X132984952Y-117622833D01*
X132904000Y-117582357D01*
X132742095Y-117582357D01*
X132661142Y-117622833D01*
X132620666Y-117703785D01*
X132620666Y-117784738D01*
X133025428Y-117865690D01*
X132337333Y-117582357D02*
X132134952Y-118149023D01*
X131932571Y-117582357D01*
X131284952Y-118108547D02*
X131365904Y-118149023D01*
X131527809Y-118149023D01*
X131608761Y-118108547D01*
X131649238Y-118027595D01*
X131649238Y-117703785D01*
X131608761Y-117622833D01*
X131527809Y-117582357D01*
X131365904Y-117582357D01*
X131284952Y-117622833D01*
X131244476Y-117703785D01*
X131244476Y-117784738D01*
X131649238Y-117865690D01*
X130880190Y-118149023D02*
X130880190Y-117582357D01*
X130880190Y-117744261D02*
X130839714Y-117663309D01*
X130799238Y-117622833D01*
X130718285Y-117582357D01*
X130637333Y-117582357D01*
X151482571Y-118724023D02*
X151280190Y-119574023D01*
X151118285Y-118966880D01*
X150956380Y-119574023D01*
X150754000Y-118724023D01*
X150065904Y-119574023D02*
X150065904Y-119128785D01*
X150106380Y-119047833D01*
X150187333Y-119007357D01*
X150349238Y-119007357D01*
X150430190Y-119047833D01*
X150065904Y-119533547D02*
X150146857Y-119574023D01*
X150349238Y-119574023D01*
X150430190Y-119533547D01*
X150470666Y-119452595D01*
X150470666Y-119371642D01*
X150430190Y-119290690D01*
X150349238Y-119250214D01*
X150146857Y-119250214D01*
X150065904Y-119209738D01*
X149539714Y-119574023D02*
X149620666Y-119533547D01*
X149661142Y-119452595D01*
X149661142Y-118724023D01*
X149094476Y-119574023D02*
X149175428Y-119533547D01*
X149215904Y-119452595D01*
X149215904Y-118724023D01*
X148406380Y-119574023D02*
X148406380Y-119128785D01*
X148446857Y-119047833D01*
X148527809Y-119007357D01*
X148689714Y-119007357D01*
X148770666Y-119047833D01*
X148406380Y-119533547D02*
X148487333Y-119574023D01*
X148689714Y-119574023D01*
X148770666Y-119533547D01*
X148811142Y-119452595D01*
X148811142Y-119371642D01*
X148770666Y-119290690D01*
X148689714Y-119250214D01*
X148487333Y-119250214D01*
X148406380Y-119209738D01*
X147434952Y-118724023D02*
X147232571Y-119574023D01*
X147070666Y-118966880D01*
X146908761Y-119574023D01*
X146706380Y-118724023D01*
X146018285Y-119574023D02*
X146018285Y-119128785D01*
X146058761Y-119047833D01*
X146139714Y-119007357D01*
X146301619Y-119007357D01*
X146382571Y-119047833D01*
X146018285Y-119533547D02*
X146099238Y-119574023D01*
X146301619Y-119574023D01*
X146382571Y-119533547D01*
X146423047Y-119452595D01*
X146423047Y-119371642D01*
X146382571Y-119290690D01*
X146301619Y-119250214D01*
X146099238Y-119250214D01*
X146018285Y-119209738D01*
X145492095Y-119574023D02*
X145573047Y-119533547D01*
X145613523Y-119452595D01*
X145613523Y-118724023D01*
X145046857Y-119574023D02*
X145127809Y-119533547D01*
X145168285Y-119452595D01*
X145168285Y-118724023D01*
X144358761Y-119574023D02*
X144358761Y-119128785D01*
X144399238Y-119047833D01*
X144480190Y-119007357D01*
X144642095Y-119007357D01*
X144723047Y-119047833D01*
X144358761Y-119533547D02*
X144439714Y-119574023D01*
X144642095Y-119574023D01*
X144723047Y-119533547D01*
X144763523Y-119452595D01*
X144763523Y-119371642D01*
X144723047Y-119290690D01*
X144642095Y-119250214D01*
X144439714Y-119250214D01*
X144358761Y-119209738D01*
X143306380Y-118724023D02*
X143306380Y-119412119D01*
X143265904Y-119493071D01*
X143225428Y-119533547D01*
X143144476Y-119574023D01*
X142982571Y-119574023D01*
X142901619Y-119533547D01*
X142861142Y-119493071D01*
X142820666Y-119412119D01*
X142820666Y-118724023D01*
X142415904Y-119007357D02*
X142415904Y-119574023D01*
X142415904Y-119088309D02*
X142375428Y-119047833D01*
X142294476Y-119007357D01*
X142173047Y-119007357D01*
X142092095Y-119047833D01*
X142051619Y-119128785D01*
X142051619Y-119574023D01*
X141646857Y-119574023D02*
X141646857Y-119007357D01*
X141646857Y-118724023D02*
X141687333Y-118764500D01*
X141646857Y-118804976D01*
X141606380Y-118764500D01*
X141646857Y-118724023D01*
X141646857Y-118804976D01*
X141323047Y-119007357D02*
X141120666Y-119574023D01*
X140918285Y-119007357D01*
X140270666Y-119533547D02*
X140351619Y-119574023D01*
X140513523Y-119574023D01*
X140594476Y-119533547D01*
X140634952Y-119452595D01*
X140634952Y-119128785D01*
X140594476Y-119047833D01*
X140513523Y-119007357D01*
X140351619Y-119007357D01*
X140270666Y-119047833D01*
X140230190Y-119128785D01*
X140230190Y-119209738D01*
X140634952Y-119290690D01*
X139865904Y-119574023D02*
X139865904Y-119007357D01*
X139865904Y-119169261D02*
X139825428Y-119088309D01*
X139784952Y-119047833D01*
X139704000Y-119007357D01*
X139623047Y-119007357D01*
X139380190Y-119533547D02*
X139299238Y-119574023D01*
X139137333Y-119574023D01*
X139056380Y-119533547D01*
X139015904Y-119452595D01*
X139015904Y-119412119D01*
X139056380Y-119331166D01*
X139137333Y-119290690D01*
X139258761Y-119290690D01*
X139339714Y-119250214D01*
X139380190Y-119169261D01*
X139380190Y-119128785D01*
X139339714Y-119047833D01*
X139258761Y-119007357D01*
X139137333Y-119007357D01*
X139056380Y-119047833D01*
X138651619Y-119574023D02*
X138651619Y-119007357D01*
X138651619Y-118724023D02*
X138692095Y-118764500D01*
X138651619Y-118804976D01*
X138611142Y-118764500D01*
X138651619Y-118724023D01*
X138651619Y-118804976D01*
X138368285Y-119007357D02*
X138044476Y-119007357D01*
X138246857Y-118724023D02*
X138246857Y-119452595D01*
X138206380Y-119533547D01*
X138125428Y-119574023D01*
X138044476Y-119574023D01*
X137842095Y-119007357D02*
X137639714Y-119574023D01*
X137437333Y-119007357D02*
X137639714Y-119574023D01*
X137720666Y-119776404D01*
X137761142Y-119816880D01*
X137842095Y-119857357D01*
X150915904Y-120999023D02*
X151199238Y-120594261D01*
X151401619Y-120999023D02*
X151401619Y-120149023D01*
X151077809Y-120149023D01*
X150996857Y-120189500D01*
X150956380Y-120229976D01*
X150915904Y-120310928D01*
X150915904Y-120432357D01*
X150956380Y-120513309D01*
X150996857Y-120553785D01*
X151077809Y-120594261D01*
X151401619Y-120594261D01*
X150227809Y-120958547D02*
X150308761Y-120999023D01*
X150470666Y-120999023D01*
X150551619Y-120958547D01*
X150592095Y-120877595D01*
X150592095Y-120553785D01*
X150551619Y-120472833D01*
X150470666Y-120432357D01*
X150308761Y-120432357D01*
X150227809Y-120472833D01*
X150187333Y-120553785D01*
X150187333Y-120634738D01*
X150592095Y-120715690D01*
X149904000Y-120432357D02*
X149701619Y-120999023D01*
X149499238Y-120432357D01*
X149175428Y-120999023D02*
X149175428Y-120432357D01*
X149175428Y-120149023D02*
X149215904Y-120189500D01*
X149175428Y-120229976D01*
X149134952Y-120189500D01*
X149175428Y-120149023D01*
X149175428Y-120229976D01*
X148811142Y-120958547D02*
X148730190Y-120999023D01*
X148568285Y-120999023D01*
X148487333Y-120958547D01*
X148446857Y-120877595D01*
X148446857Y-120837119D01*
X148487333Y-120756166D01*
X148568285Y-120715690D01*
X148689714Y-120715690D01*
X148770666Y-120675214D01*
X148811142Y-120594261D01*
X148811142Y-120553785D01*
X148770666Y-120472833D01*
X148689714Y-120432357D01*
X148568285Y-120432357D01*
X148487333Y-120472833D01*
X148082571Y-120999023D02*
X148082571Y-120432357D01*
X148082571Y-120149023D02*
X148123047Y-120189500D01*
X148082571Y-120229976D01*
X148042095Y-120189500D01*
X148082571Y-120149023D01*
X148082571Y-120229976D01*
X147556380Y-120999023D02*
X147637333Y-120958547D01*
X147677809Y-120918071D01*
X147718285Y-120837119D01*
X147718285Y-120594261D01*
X147677809Y-120513309D01*
X147637333Y-120472833D01*
X147556380Y-120432357D01*
X147434952Y-120432357D01*
X147354000Y-120472833D01*
X147313523Y-120513309D01*
X147273047Y-120594261D01*
X147273047Y-120837119D01*
X147313523Y-120918071D01*
X147354000Y-120958547D01*
X147434952Y-120999023D01*
X147556380Y-120999023D01*
X146908761Y-120432357D02*
X146908761Y-120999023D01*
X146908761Y-120513309D02*
X146868285Y-120472833D01*
X146787333Y-120432357D01*
X146665904Y-120432357D01*
X146584952Y-120472833D01*
X146544476Y-120553785D01*
X146544476Y-120999023D01*
X145046857Y-120999023D02*
X145532571Y-120999023D01*
X145289714Y-120999023D02*
X145289714Y-120149023D01*
X145370666Y-120270452D01*
X145451619Y-120351404D01*
X145532571Y-120391880D01*
X176841023Y-131411404D02*
X176841023Y-132059023D01*
X176802928Y-132135214D01*
X176764833Y-132173309D01*
X176688642Y-132211404D01*
X176536261Y-132211404D01*
X176460071Y-132173309D01*
X176421976Y-132135214D01*
X176383880Y-132059023D01*
X176383880Y-131411404D01*
X176041023Y-132173309D02*
X175926738Y-132211404D01*
X175736261Y-132211404D01*
X175660071Y-132173309D01*
X175621976Y-132135214D01*
X175583880Y-132059023D01*
X175583880Y-131982833D01*
X175621976Y-131906642D01*
X175660071Y-131868547D01*
X175736261Y-131830452D01*
X175888642Y-131792357D01*
X175964833Y-131754261D01*
X176002928Y-131716166D01*
X176041023Y-131639976D01*
X176041023Y-131563785D01*
X176002928Y-131487595D01*
X175964833Y-131449500D01*
X175888642Y-131411404D01*
X175698166Y-131411404D01*
X175583880Y-131449500D01*
X174974357Y-131792357D02*
X174860071Y-131830452D01*
X174821976Y-131868547D01*
X174783880Y-131944738D01*
X174783880Y-132059023D01*
X174821976Y-132135214D01*
X174860071Y-132173309D01*
X174936261Y-132211404D01*
X175241023Y-132211404D01*
X175241023Y-131411404D01*
X174974357Y-131411404D01*
X174898166Y-131449500D01*
X174860071Y-131487595D01*
X174821976Y-131563785D01*
X174821976Y-131639976D01*
X174860071Y-131716166D01*
X174898166Y-131754261D01*
X174974357Y-131792357D01*
X175241023Y-131792357D01*
X176517214Y-133028071D02*
X177126738Y-133256642D01*
X176517214Y-133485214D01*
X176136261Y-133256642D02*
X175526738Y-133256642D01*
X175145785Y-133256642D02*
X174536261Y-133256642D01*
D11*
G36*
X100602468Y-124156595D02*
G01*
X100670293Y-124159430D01*
X100704650Y-124161778D01*
X100780449Y-124169977D01*
X100856813Y-124182845D01*
X100934066Y-124200493D01*
X101012531Y-124223030D01*
X101092532Y-124250567D01*
X101174394Y-124283214D01*
X101258440Y-124321082D01*
X101344994Y-124364280D01*
X101421766Y-124405824D01*
X101480070Y-124438448D01*
X101520191Y-124427058D01*
X101576476Y-124411642D01*
X101637395Y-124395990D01*
X101702101Y-124380269D01*
X101769748Y-124364645D01*
X101839492Y-124349287D01*
X101910485Y-124334360D01*
X101981882Y-124320033D01*
X102052838Y-124306472D01*
X102122506Y-124293845D01*
X102190040Y-124282318D01*
X102254594Y-124272059D01*
X102315324Y-124263235D01*
X102371382Y-124256013D01*
X102404862Y-124252263D01*
X102547017Y-124240304D01*
X102688817Y-124234076D01*
X102829908Y-124233554D01*
X102969937Y-124238710D01*
X103108551Y-124249519D01*
X103245397Y-124265953D01*
X103380120Y-124287986D01*
X103512367Y-124315591D01*
X103624062Y-124343826D01*
X103739640Y-124377827D01*
X103849810Y-124415045D01*
X103954668Y-124455534D01*
X104054313Y-124499346D01*
X104148840Y-124546534D01*
X104238346Y-124597151D01*
X104322929Y-124651250D01*
X104402686Y-124708883D01*
X104477713Y-124770104D01*
X104548107Y-124834964D01*
X104574975Y-124861924D01*
X104629587Y-124921677D01*
X104678099Y-124982465D01*
X104720727Y-125044683D01*
X104757689Y-125108727D01*
X104789202Y-125174992D01*
X104815482Y-125243875D01*
X104836747Y-125315771D01*
X104846263Y-125356176D01*
X104850739Y-125377409D01*
X104855865Y-125402469D01*
X104861154Y-125428935D01*
X104866120Y-125454385D01*
X104868724Y-125468062D01*
X104872922Y-125489437D01*
X104877167Y-125508286D01*
X104881844Y-125525314D01*
X104887337Y-125541224D01*
X104894033Y-125556722D01*
X104902316Y-125572511D01*
X104912571Y-125589296D01*
X104925182Y-125607781D01*
X104940536Y-125628671D01*
X104959017Y-125652669D01*
X104981011Y-125680481D01*
X104993137Y-125695653D01*
X105018146Y-125727077D01*
X105039444Y-125754324D01*
X105057470Y-125778025D01*
X105072663Y-125798810D01*
X105085461Y-125817307D01*
X105096303Y-125834148D01*
X105105629Y-125849962D01*
X105113876Y-125865380D01*
X105119879Y-125877613D01*
X105126428Y-125891949D01*
X105131665Y-125904981D01*
X105135723Y-125917662D01*
X105138735Y-125930940D01*
X105140832Y-125945766D01*
X105142148Y-125963091D01*
X105142816Y-125983865D01*
X105142968Y-126009039D01*
X105142737Y-126039562D01*
X105142719Y-126041150D01*
X105142398Y-126067095D01*
X105142059Y-126087530D01*
X105141633Y-126103296D01*
X105141051Y-126115231D01*
X105140244Y-126124177D01*
X105139143Y-126130972D01*
X105137679Y-126136458D01*
X105135785Y-126141473D01*
X105134209Y-126145058D01*
X105124646Y-126160910D01*
X105111663Y-126175205D01*
X105097052Y-126186190D01*
X105087470Y-126190748D01*
X105076950Y-126193044D01*
X105061331Y-126194514D01*
X105041826Y-126195049D01*
X105040112Y-126195048D01*
X105023245Y-126194497D01*
X105005772Y-126192825D01*
X104987192Y-126189875D01*
X104967002Y-126185487D01*
X104944702Y-126179505D01*
X104919790Y-126171771D01*
X104891764Y-126162128D01*
X104860124Y-126150416D01*
X104824367Y-126136479D01*
X104783992Y-126120159D01*
X104738498Y-126101298D01*
X104727713Y-126096776D01*
X104699822Y-126085006D01*
X104670108Y-126072373D01*
X104640035Y-126059506D01*
X104611067Y-126047035D01*
X104584669Y-126035587D01*
X104562304Y-126025791D01*
X104557512Y-126023673D01*
X104536016Y-126014222D01*
X104514679Y-126004974D01*
X104494767Y-125996468D01*
X104477546Y-125989242D01*
X104464284Y-125983836D01*
X104459957Y-125982146D01*
X104425348Y-125969731D01*
X104387526Y-125957732D01*
X104346114Y-125946065D01*
X104300735Y-125934646D01*
X104251013Y-125923392D01*
X104196571Y-125912218D01*
X104137032Y-125901041D01*
X104072019Y-125889776D01*
X104001155Y-125878339D01*
X103978075Y-125874766D01*
X103921053Y-125866291D01*
X103866277Y-125858739D01*
X103812900Y-125852042D01*
X103760078Y-125846127D01*
X103706966Y-125840927D01*
X103652719Y-125836370D01*
X103596491Y-125832387D01*
X103537439Y-125828907D01*
X103474716Y-125825861D01*
X103407478Y-125823178D01*
X103334880Y-125820789D01*
X103322152Y-125820413D01*
X103255191Y-125818465D01*
X103234010Y-125860186D01*
X103217235Y-125892518D01*
X103200934Y-125922317D01*
X103184109Y-125951279D01*
X103165761Y-125981100D01*
X103144893Y-126013479D01*
X103135003Y-126028450D01*
X103082912Y-126102044D01*
X103028201Y-126170041D01*
X102970924Y-126232389D01*
X102911141Y-126289037D01*
X102848906Y-126339933D01*
X102784279Y-126385027D01*
X102717314Y-126424267D01*
X102666611Y-126449359D01*
X102576772Y-126487328D01*
X102482102Y-126521200D01*
X102382627Y-126550971D01*
X102278373Y-126576634D01*
X102169365Y-126598185D01*
X102055631Y-126615616D01*
X101937194Y-126628924D01*
X101814083Y-126638102D01*
X101781768Y-126639790D01*
X101739700Y-126641800D01*
X101739804Y-126569281D01*
X101739909Y-126496762D01*
X101827911Y-126453405D01*
X101904639Y-126413832D01*
X101976256Y-126373266D01*
X102042526Y-126331863D01*
X102103215Y-126289779D01*
X102158088Y-126247171D01*
X102206911Y-126204196D01*
X102218902Y-126192670D01*
X102248496Y-126161754D01*
X102273654Y-126130998D01*
X102295502Y-126098753D01*
X102315165Y-126063367D01*
X102332747Y-126025563D01*
X102338995Y-126010260D01*
X102345533Y-125992854D01*
X102352006Y-125974461D01*
X102358056Y-125956196D01*
X102363330Y-125939175D01*
X102367471Y-125924512D01*
X102370124Y-125913323D01*
X102370933Y-125906724D01*
X102370841Y-125906048D01*
X102370355Y-125905194D01*
X102369055Y-125904649D01*
X102366451Y-125904499D01*
X102362053Y-125904827D01*
X102355371Y-125905717D01*
X102345915Y-125907254D01*
X102333194Y-125909521D01*
X102316719Y-125912604D01*
X102295998Y-125916586D01*
X102270543Y-125921552D01*
X102239863Y-125927585D01*
X102203468Y-125934771D01*
X102201662Y-125935128D01*
X102111444Y-125953692D01*
X102024537Y-125973134D01*
X101939557Y-125993823D01*
X101855121Y-126016131D01*
X101769845Y-126040427D01*
X101682344Y-126067083D01*
X101591237Y-126096468D01*
X101558725Y-126107304D01*
X101474084Y-126136128D01*
X101392404Y-126164741D01*
X101314171Y-126192959D01*
X101239875Y-126220599D01*
X101170004Y-126247476D01*
X101105047Y-126273408D01*
X101045492Y-126298211D01*
X101012090Y-126312679D01*
X100989498Y-126322868D01*
X100962519Y-126335432D01*
X100932299Y-126349805D01*
X100899983Y-126365423D01*
X100866715Y-126381723D01*
X100833641Y-126398140D01*
X100801906Y-126414110D01*
X100772655Y-126429068D01*
X100747033Y-126442451D01*
X100728462Y-126452440D01*
X100662825Y-126489271D01*
X100596992Y-126527800D01*
X100531965Y-126567391D01*
X100468747Y-126607407D01*
X100408337Y-126647214D01*
X100351739Y-126686175D01*
X100299953Y-126723655D01*
X100293148Y-126728745D01*
X100241100Y-126767844D01*
X100241099Y-126695661D01*
X100241099Y-126623478D01*
X100269960Y-126590283D01*
X100311685Y-126543822D01*
X100358003Y-126495024D01*
X100408020Y-126444742D01*
X100460837Y-126393829D01*
X100515561Y-126343138D01*
X100571294Y-126293524D01*
X100627140Y-126245839D01*
X100660200Y-126218614D01*
X100759408Y-126140681D01*
X100858376Y-126068241D01*
X100958211Y-126000581D01*
X101060022Y-125936992D01*
X101164917Y-125876759D01*
X101274003Y-125819172D01*
X101309487Y-125801428D01*
X101431819Y-125742753D01*
X101551080Y-125689109D01*
X101667840Y-125640325D01*
X101782669Y-125596231D01*
X101896137Y-125556656D01*
X102008815Y-125521429D01*
X102121273Y-125490379D01*
X102234081Y-125463335D01*
X102347809Y-125440126D01*
X102463027Y-125420581D01*
X102580306Y-125404530D01*
X102665212Y-125395154D01*
X102694636Y-125392281D01*
X102722518Y-125389719D01*
X102750101Y-125387369D01*
X102778626Y-125385138D01*
X102809338Y-125382928D01*
X102843479Y-125380645D01*
X102882291Y-125378193D01*
X102896987Y-125377290D01*
X102916719Y-125376312D01*
X102942021Y-125375419D01*
X102972111Y-125374616D01*
X103006212Y-125373908D01*
X103043541Y-125373298D01*
X103083320Y-125372792D01*
X103124768Y-125372394D01*
X103167105Y-125372110D01*
X103209551Y-125371943D01*
X103251326Y-125371898D01*
X103291650Y-125371980D01*
X103329742Y-125372194D01*
X103364824Y-125372544D01*
X103396115Y-125373035D01*
X103422834Y-125373672D01*
X103435150Y-125374080D01*
X103526483Y-125378086D01*
X103616612Y-125383182D01*
X103704573Y-125389294D01*
X103789406Y-125396347D01*
X103870148Y-125404265D01*
X103945839Y-125412972D01*
X103968183Y-125415827D01*
X103985047Y-125417937D01*
X103999579Y-125419567D01*
X104010670Y-125420607D01*
X104017208Y-125420947D01*
X104018469Y-125420788D01*
X104017852Y-125417206D01*
X104013957Y-125409535D01*
X104007408Y-125398695D01*
X103998832Y-125385604D01*
X103988853Y-125371181D01*
X103978098Y-125356345D01*
X103967192Y-125342017D01*
X103956760Y-125329114D01*
X103953408Y-125325187D01*
X103940307Y-125310730D01*
X103923946Y-125293633D01*
X103905641Y-125275189D01*
X103886709Y-125256691D01*
X103868468Y-125239432D01*
X103852236Y-125224706D01*
X103842831Y-125216644D01*
X103797353Y-125181282D01*
X103746850Y-125146075D01*
X103692619Y-125111794D01*
X103635957Y-125079206D01*
X103578159Y-125049083D01*
X103520523Y-125022194D01*
X103501825Y-125014189D01*
X103413607Y-124980388D01*
X103320874Y-124950817D01*
X103223850Y-124925480D01*
X103122756Y-124904377D01*
X103017815Y-124887512D01*
X102909252Y-124874888D01*
X102797288Y-124866505D01*
X102682146Y-124862368D01*
X102564049Y-124862478D01*
X102443221Y-124866838D01*
X102319883Y-124875450D01*
X102194259Y-124888317D01*
X102066572Y-124905440D01*
X101937045Y-124926824D01*
X101805900Y-124952469D01*
X101673360Y-124982378D01*
X101627039Y-124993765D01*
X101482088Y-125032436D01*
X101342505Y-125074347D01*
X101208167Y-125119553D01*
X101078949Y-125168107D01*
X100954727Y-125220066D01*
X100835376Y-125275482D01*
X100720773Y-125334411D01*
X100610791Y-125396908D01*
X100505309Y-125463026D01*
X100413334Y-125526236D01*
X100372279Y-125556170D01*
X100331973Y-125586550D01*
X100292072Y-125617693D01*
X100252235Y-125649915D01*
X100212119Y-125683532D01*
X100171381Y-125718861D01*
X100129679Y-125756218D01*
X100086670Y-125795920D01*
X100042013Y-125838282D01*
X99995363Y-125883621D01*
X99946380Y-125932253D01*
X99894719Y-125984495D01*
X99840040Y-126040663D01*
X99781999Y-126101073D01*
X99720254Y-126166042D01*
X99718260Y-126168150D01*
X99681665Y-126206876D01*
X99649052Y-126241464D01*
X99620017Y-126272367D01*
X99594154Y-126300036D01*
X99571060Y-126324924D01*
X99550328Y-126347483D01*
X99531555Y-126368166D01*
X99514335Y-126387424D01*
X99498263Y-126405711D01*
X99482935Y-126423479D01*
X99467945Y-126441179D01*
X99452889Y-126459265D01*
X99437362Y-126478188D01*
X99420958Y-126498401D01*
X99405651Y-126517400D01*
X99345369Y-126594339D01*
X99283681Y-126676847D01*
X99220927Y-126764386D01*
X99157447Y-126856421D01*
X99093581Y-126952413D01*
X99029669Y-127051827D01*
X98966051Y-127154125D01*
X98903068Y-127258771D01*
X98841058Y-127365229D01*
X98780364Y-127472960D01*
X98721323Y-127581429D01*
X98671416Y-127676275D01*
X98641012Y-127735012D01*
X98640900Y-127591462D01*
X98672673Y-127494426D01*
X98728581Y-127331634D01*
X98788129Y-127173730D01*
X98851508Y-127020269D01*
X98918911Y-126870805D01*
X98990529Y-126724893D01*
X99064577Y-126585662D01*
X99115319Y-126494662D01*
X99163981Y-126409109D01*
X99210845Y-126328553D01*
X99256192Y-126252546D01*
X99300304Y-126180639D01*
X99343461Y-126112384D01*
X99385946Y-126047332D01*
X99428040Y-125985034D01*
X99470023Y-125925042D01*
X99512178Y-125866908D01*
X99532552Y-125839537D01*
X99573931Y-125785102D01*
X99613751Y-125734231D01*
X99652839Y-125685976D01*
X99692021Y-125639389D01*
X99732123Y-125593526D01*
X99773972Y-125547438D01*
X99818395Y-125500180D01*
X99866218Y-125450803D01*
X99913798Y-125402823D01*
X100008555Y-125310108D01*
X100102152Y-125222487D01*
X100195584Y-125139078D01*
X100289842Y-125059001D01*
X100385919Y-124981375D01*
X100410962Y-124961764D01*
X100439606Y-124938967D01*
X100464017Y-124918337D01*
X100485402Y-124898761D01*
X100504965Y-124879126D01*
X100523912Y-124858320D01*
X100527456Y-124854242D01*
X100550491Y-124825835D01*
X100571373Y-124796679D01*
X100589491Y-124767792D01*
X100604235Y-124740193D01*
X100614995Y-124714900D01*
X100619373Y-124700918D01*
X100621068Y-124693502D01*
X100621375Y-124687426D01*
X100619924Y-124680864D01*
X100616346Y-124671991D01*
X100611338Y-124661230D01*
X100593799Y-124630145D01*
X100571162Y-124600328D01*
X100543206Y-124571587D01*
X100509706Y-124543728D01*
X100470439Y-124516557D01*
X100425183Y-124489883D01*
X100395087Y-124474049D01*
X100346602Y-124451152D01*
X100293453Y-124428974D01*
X100237325Y-124408107D01*
X100179903Y-124389145D01*
X100122872Y-124372682D01*
X100072031Y-124360217D01*
X100063300Y-124358279D01*
X100063300Y-124213045D01*
X100088714Y-124206188D01*
X100141337Y-124193597D01*
X100199158Y-124182696D01*
X100261233Y-124173554D01*
X100326622Y-124166238D01*
X100394382Y-124160817D01*
X100463571Y-124157357D01*
X100533247Y-124155927D01*
X100602468Y-124156595D01*
G37*
X100602468Y-124156595D02*
X100670293Y-124159430D01*
X100704650Y-124161778D01*
X100780449Y-124169977D01*
X100856813Y-124182845D01*
X100934066Y-124200493D01*
X101012531Y-124223030D01*
X101092532Y-124250567D01*
X101174394Y-124283214D01*
X101258440Y-124321082D01*
X101344994Y-124364280D01*
X101421766Y-124405824D01*
X101480070Y-124438448D01*
X101520191Y-124427058D01*
X101576476Y-124411642D01*
X101637395Y-124395990D01*
X101702101Y-124380269D01*
X101769748Y-124364645D01*
X101839492Y-124349287D01*
X101910485Y-124334360D01*
X101981882Y-124320033D01*
X102052838Y-124306472D01*
X102122506Y-124293845D01*
X102190040Y-124282318D01*
X102254594Y-124272059D01*
X102315324Y-124263235D01*
X102371382Y-124256013D01*
X102404862Y-124252263D01*
X102547017Y-124240304D01*
X102688817Y-124234076D01*
X102829908Y-124233554D01*
X102969937Y-124238710D01*
X103108551Y-124249519D01*
X103245397Y-124265953D01*
X103380120Y-124287986D01*
X103512367Y-124315591D01*
X103624062Y-124343826D01*
X103739640Y-124377827D01*
X103849810Y-124415045D01*
X103954668Y-124455534D01*
X104054313Y-124499346D01*
X104148840Y-124546534D01*
X104238346Y-124597151D01*
X104322929Y-124651250D01*
X104402686Y-124708883D01*
X104477713Y-124770104D01*
X104548107Y-124834964D01*
X104574975Y-124861924D01*
X104629587Y-124921677D01*
X104678099Y-124982465D01*
X104720727Y-125044683D01*
X104757689Y-125108727D01*
X104789202Y-125174992D01*
X104815482Y-125243875D01*
X104836747Y-125315771D01*
X104846263Y-125356176D01*
X104850739Y-125377409D01*
X104855865Y-125402469D01*
X104861154Y-125428935D01*
X104866120Y-125454385D01*
X104868724Y-125468062D01*
X104872922Y-125489437D01*
X104877167Y-125508286D01*
X104881844Y-125525314D01*
X104887337Y-125541224D01*
X104894033Y-125556722D01*
X104902316Y-125572511D01*
X104912571Y-125589296D01*
X104925182Y-125607781D01*
X104940536Y-125628671D01*
X104959017Y-125652669D01*
X104981011Y-125680481D01*
X104993137Y-125695653D01*
X105018146Y-125727077D01*
X105039444Y-125754324D01*
X105057470Y-125778025D01*
X105072663Y-125798810D01*
X105085461Y-125817307D01*
X105096303Y-125834148D01*
X105105629Y-125849962D01*
X105113876Y-125865380D01*
X105119879Y-125877613D01*
X105126428Y-125891949D01*
X105131665Y-125904981D01*
X105135723Y-125917662D01*
X105138735Y-125930940D01*
X105140832Y-125945766D01*
X105142148Y-125963091D01*
X105142816Y-125983865D01*
X105142968Y-126009039D01*
X105142737Y-126039562D01*
X105142719Y-126041150D01*
X105142398Y-126067095D01*
X105142059Y-126087530D01*
X105141633Y-126103296D01*
X105141051Y-126115231D01*
X105140244Y-126124177D01*
X105139143Y-126130972D01*
X105137679Y-126136458D01*
X105135785Y-126141473D01*
X105134209Y-126145058D01*
X105124646Y-126160910D01*
X105111663Y-126175205D01*
X105097052Y-126186190D01*
X105087470Y-126190748D01*
X105076950Y-126193044D01*
X105061331Y-126194514D01*
X105041826Y-126195049D01*
X105040112Y-126195048D01*
X105023245Y-126194497D01*
X105005772Y-126192825D01*
X104987192Y-126189875D01*
X104967002Y-126185487D01*
X104944702Y-126179505D01*
X104919790Y-126171771D01*
X104891764Y-126162128D01*
X104860124Y-126150416D01*
X104824367Y-126136479D01*
X104783992Y-126120159D01*
X104738498Y-126101298D01*
X104727713Y-126096776D01*
X104699822Y-126085006D01*
X104670108Y-126072373D01*
X104640035Y-126059506D01*
X104611067Y-126047035D01*
X104584669Y-126035587D01*
X104562304Y-126025791D01*
X104557512Y-126023673D01*
X104536016Y-126014222D01*
X104514679Y-126004974D01*
X104494767Y-125996468D01*
X104477546Y-125989242D01*
X104464284Y-125983836D01*
X104459957Y-125982146D01*
X104425348Y-125969731D01*
X104387526Y-125957732D01*
X104346114Y-125946065D01*
X104300735Y-125934646D01*
X104251013Y-125923392D01*
X104196571Y-125912218D01*
X104137032Y-125901041D01*
X104072019Y-125889776D01*
X104001155Y-125878339D01*
X103978075Y-125874766D01*
X103921053Y-125866291D01*
X103866277Y-125858739D01*
X103812900Y-125852042D01*
X103760078Y-125846127D01*
X103706966Y-125840927D01*
X103652719Y-125836370D01*
X103596491Y-125832387D01*
X103537439Y-125828907D01*
X103474716Y-125825861D01*
X103407478Y-125823178D01*
X103334880Y-125820789D01*
X103322152Y-125820413D01*
X103255191Y-125818465D01*
X103234010Y-125860186D01*
X103217235Y-125892518D01*
X103200934Y-125922317D01*
X103184109Y-125951279D01*
X103165761Y-125981100D01*
X103144893Y-126013479D01*
X103135003Y-126028450D01*
X103082912Y-126102044D01*
X103028201Y-126170041D01*
X102970924Y-126232389D01*
X102911141Y-126289037D01*
X102848906Y-126339933D01*
X102784279Y-126385027D01*
X102717314Y-126424267D01*
X102666611Y-126449359D01*
X102576772Y-126487328D01*
X102482102Y-126521200D01*
X102382627Y-126550971D01*
X102278373Y-126576634D01*
X102169365Y-126598185D01*
X102055631Y-126615616D01*
X101937194Y-126628924D01*
X101814083Y-126638102D01*
X101781768Y-126639790D01*
X101739700Y-126641800D01*
X101739804Y-126569281D01*
X101739909Y-126496762D01*
X101827911Y-126453405D01*
X101904639Y-126413832D01*
X101976256Y-126373266D01*
X102042526Y-126331863D01*
X102103215Y-126289779D01*
X102158088Y-126247171D01*
X102206911Y-126204196D01*
X102218902Y-126192670D01*
X102248496Y-126161754D01*
X102273654Y-126130998D01*
X102295502Y-126098753D01*
X102315165Y-126063367D01*
X102332747Y-126025563D01*
X102338995Y-126010260D01*
X102345533Y-125992854D01*
X102352006Y-125974461D01*
X102358056Y-125956196D01*
X102363330Y-125939175D01*
X102367471Y-125924512D01*
X102370124Y-125913323D01*
X102370933Y-125906724D01*
X102370841Y-125906048D01*
X102370355Y-125905194D01*
X102369055Y-125904649D01*
X102366451Y-125904499D01*
X102362053Y-125904827D01*
X102355371Y-125905717D01*
X102345915Y-125907254D01*
X102333194Y-125909521D01*
X102316719Y-125912604D01*
X102295998Y-125916586D01*
X102270543Y-125921552D01*
X102239863Y-125927585D01*
X102203468Y-125934771D01*
X102201662Y-125935128D01*
X102111444Y-125953692D01*
X102024537Y-125973134D01*
X101939557Y-125993823D01*
X101855121Y-126016131D01*
X101769845Y-126040427D01*
X101682344Y-126067083D01*
X101591237Y-126096468D01*
X101558725Y-126107304D01*
X101474084Y-126136128D01*
X101392404Y-126164741D01*
X101314171Y-126192959D01*
X101239875Y-126220599D01*
X101170004Y-126247476D01*
X101105047Y-126273408D01*
X101045492Y-126298211D01*
X101012090Y-126312679D01*
X100989498Y-126322868D01*
X100962519Y-126335432D01*
X100932299Y-126349805D01*
X100899983Y-126365423D01*
X100866715Y-126381723D01*
X100833641Y-126398140D01*
X100801906Y-126414110D01*
X100772655Y-126429068D01*
X100747033Y-126442451D01*
X100728462Y-126452440D01*
X100662825Y-126489271D01*
X100596992Y-126527800D01*
X100531965Y-126567391D01*
X100468747Y-126607407D01*
X100408337Y-126647214D01*
X100351739Y-126686175D01*
X100299953Y-126723655D01*
X100293148Y-126728745D01*
X100241100Y-126767844D01*
X100241099Y-126695661D01*
X100241099Y-126623478D01*
X100269960Y-126590283D01*
X100311685Y-126543822D01*
X100358003Y-126495024D01*
X100408020Y-126444742D01*
X100460837Y-126393829D01*
X100515561Y-126343138D01*
X100571294Y-126293524D01*
X100627140Y-126245839D01*
X100660200Y-126218614D01*
X100759408Y-126140681D01*
X100858376Y-126068241D01*
X100958211Y-126000581D01*
X101060022Y-125936992D01*
X101164917Y-125876759D01*
X101274003Y-125819172D01*
X101309487Y-125801428D01*
X101431819Y-125742753D01*
X101551080Y-125689109D01*
X101667840Y-125640325D01*
X101782669Y-125596231D01*
X101896137Y-125556656D01*
X102008815Y-125521429D01*
X102121273Y-125490379D01*
X102234081Y-125463335D01*
X102347809Y-125440126D01*
X102463027Y-125420581D01*
X102580306Y-125404530D01*
X102665212Y-125395154D01*
X102694636Y-125392281D01*
X102722518Y-125389719D01*
X102750101Y-125387369D01*
X102778626Y-125385138D01*
X102809338Y-125382928D01*
X102843479Y-125380645D01*
X102882291Y-125378193D01*
X102896987Y-125377290D01*
X102916719Y-125376312D01*
X102942021Y-125375419D01*
X102972111Y-125374616D01*
X103006212Y-125373908D01*
X103043541Y-125373298D01*
X103083320Y-125372792D01*
X103124768Y-125372394D01*
X103167105Y-125372110D01*
X103209551Y-125371943D01*
X103251326Y-125371898D01*
X103291650Y-125371980D01*
X103329742Y-125372194D01*
X103364824Y-125372544D01*
X103396115Y-125373035D01*
X103422834Y-125373672D01*
X103435150Y-125374080D01*
X103526483Y-125378086D01*
X103616612Y-125383182D01*
X103704573Y-125389294D01*
X103789406Y-125396347D01*
X103870148Y-125404265D01*
X103945839Y-125412972D01*
X103968183Y-125415827D01*
X103985047Y-125417937D01*
X103999579Y-125419567D01*
X104010670Y-125420607D01*
X104017208Y-125420947D01*
X104018469Y-125420788D01*
X104017852Y-125417206D01*
X104013957Y-125409535D01*
X104007408Y-125398695D01*
X103998832Y-125385604D01*
X103988853Y-125371181D01*
X103978098Y-125356345D01*
X103967192Y-125342017D01*
X103956760Y-125329114D01*
X103953408Y-125325187D01*
X103940307Y-125310730D01*
X103923946Y-125293633D01*
X103905641Y-125275189D01*
X103886709Y-125256691D01*
X103868468Y-125239432D01*
X103852236Y-125224706D01*
X103842831Y-125216644D01*
X103797353Y-125181282D01*
X103746850Y-125146075D01*
X103692619Y-125111794D01*
X103635957Y-125079206D01*
X103578159Y-125049083D01*
X103520523Y-125022194D01*
X103501825Y-125014189D01*
X103413607Y-124980388D01*
X103320874Y-124950817D01*
X103223850Y-124925480D01*
X103122756Y-124904377D01*
X103017815Y-124887512D01*
X102909252Y-124874888D01*
X102797288Y-124866505D01*
X102682146Y-124862368D01*
X102564049Y-124862478D01*
X102443221Y-124866838D01*
X102319883Y-124875450D01*
X102194259Y-124888317D01*
X102066572Y-124905440D01*
X101937045Y-124926824D01*
X101805900Y-124952469D01*
X101673360Y-124982378D01*
X101627039Y-124993765D01*
X101482088Y-125032436D01*
X101342505Y-125074347D01*
X101208167Y-125119553D01*
X101078949Y-125168107D01*
X100954727Y-125220066D01*
X100835376Y-125275482D01*
X100720773Y-125334411D01*
X100610791Y-125396908D01*
X100505309Y-125463026D01*
X100413334Y-125526236D01*
X100372279Y-125556170D01*
X100331973Y-125586550D01*
X100292072Y-125617693D01*
X100252235Y-125649915D01*
X100212119Y-125683532D01*
X100171381Y-125718861D01*
X100129679Y-125756218D01*
X100086670Y-125795920D01*
X100042013Y-125838282D01*
X99995363Y-125883621D01*
X99946380Y-125932253D01*
X99894719Y-125984495D01*
X99840040Y-126040663D01*
X99781999Y-126101073D01*
X99720254Y-126166042D01*
X99718260Y-126168150D01*
X99681665Y-126206876D01*
X99649052Y-126241464D01*
X99620017Y-126272367D01*
X99594154Y-126300036D01*
X99571060Y-126324924D01*
X99550328Y-126347483D01*
X99531555Y-126368166D01*
X99514335Y-126387424D01*
X99498263Y-126405711D01*
X99482935Y-126423479D01*
X99467945Y-126441179D01*
X99452889Y-126459265D01*
X99437362Y-126478188D01*
X99420958Y-126498401D01*
X99405651Y-126517400D01*
X99345369Y-126594339D01*
X99283681Y-126676847D01*
X99220927Y-126764386D01*
X99157447Y-126856421D01*
X99093581Y-126952413D01*
X99029669Y-127051827D01*
X98966051Y-127154125D01*
X98903068Y-127258771D01*
X98841058Y-127365229D01*
X98780364Y-127472960D01*
X98721323Y-127581429D01*
X98671416Y-127676275D01*
X98641012Y-127735012D01*
X98640900Y-127591462D01*
X98672673Y-127494426D01*
X98728581Y-127331634D01*
X98788129Y-127173730D01*
X98851508Y-127020269D01*
X98918911Y-126870805D01*
X98990529Y-126724893D01*
X99064577Y-126585662D01*
X99115319Y-126494662D01*
X99163981Y-126409109D01*
X99210845Y-126328553D01*
X99256192Y-126252546D01*
X99300304Y-126180639D01*
X99343461Y-126112384D01*
X99385946Y-126047332D01*
X99428040Y-125985034D01*
X99470023Y-125925042D01*
X99512178Y-125866908D01*
X99532552Y-125839537D01*
X99573931Y-125785102D01*
X99613751Y-125734231D01*
X99652839Y-125685976D01*
X99692021Y-125639389D01*
X99732123Y-125593526D01*
X99773972Y-125547438D01*
X99818395Y-125500180D01*
X99866218Y-125450803D01*
X99913798Y-125402823D01*
X100008555Y-125310108D01*
X100102152Y-125222487D01*
X100195584Y-125139078D01*
X100289842Y-125059001D01*
X100385919Y-124981375D01*
X100410962Y-124961764D01*
X100439606Y-124938967D01*
X100464017Y-124918337D01*
X100485402Y-124898761D01*
X100504965Y-124879126D01*
X100523912Y-124858320D01*
X100527456Y-124854242D01*
X100550491Y-124825835D01*
X100571373Y-124796679D01*
X100589491Y-124767792D01*
X100604235Y-124740193D01*
X100614995Y-124714900D01*
X100619373Y-124700918D01*
X100621068Y-124693502D01*
X100621375Y-124687426D01*
X100619924Y-124680864D01*
X100616346Y-124671991D01*
X100611338Y-124661230D01*
X100593799Y-124630145D01*
X100571162Y-124600328D01*
X100543206Y-124571587D01*
X100509706Y-124543728D01*
X100470439Y-124516557D01*
X100425183Y-124489883D01*
X100395087Y-124474049D01*
X100346602Y-124451152D01*
X100293453Y-124428974D01*
X100237325Y-124408107D01*
X100179903Y-124389145D01*
X100122872Y-124372682D01*
X100072031Y-124360217D01*
X100063300Y-124358279D01*
X100063300Y-124213045D01*
X100088714Y-124206188D01*
X100141337Y-124193597D01*
X100199158Y-124182696D01*
X100261233Y-124173554D01*
X100326622Y-124166238D01*
X100394382Y-124160817D01*
X100463571Y-124157357D01*
X100533247Y-124155927D01*
X100602468Y-124156595D01*
M02*
