G04 #@! TF.GenerationSoftware,KiCad,Pcbnew,(5.1.9)-1*
G04 #@! TF.CreationDate,2021-05-04T19:46:14-07:00*
G04 #@! TF.ProjectId,SDRReciever,53445252-6563-4696-9576-65722e6b6963,1*
G04 #@! TF.SameCoordinates,Original*
G04 #@! TF.FileFunction,Soldermask,Top*
G04 #@! TF.FilePolarity,Negative*
%FSLAX46Y46*%
G04 Gerber Fmt 4.6, Leading zero omitted, Abs format (unit mm)*
G04 Created by KiCad (PCBNEW (5.1.9)-1) date 2021-05-04 19:46:14*
%MOMM*%
%LPD*%
G01*
G04 APERTURE LIST*
%ADD10O,1.702000X1.702000*%
%ADD11O,2.702000X1.402000*%
%ADD12O,1.402000X2.702000*%
%ADD13C,1.302000*%
%ADD14O,1.802000X1.802000*%
%ADD15C,2.702000*%
%ADD16C,2.102000*%
%ADD17C,4.502000*%
%ADD18O,7.102000X3.602000*%
%ADD19O,2.602000X1.702000*%
%ADD20C,0.100000*%
G04 APERTURE END LIST*
G36*
G01*
X140461900Y-140855800D02*
X138861900Y-140855800D01*
G75*
G02*
X138810900Y-140804800I0J51000D01*
G01*
X138810900Y-139204800D01*
G75*
G02*
X138861900Y-139153800I51000J0D01*
G01*
X140461900Y-139153800D01*
G75*
G02*
X140512900Y-139204800I0J-51000D01*
G01*
X140512900Y-140804800D01*
G75*
G02*
X140461900Y-140855800I-51000J0D01*
G01*
G37*
D10*
X172681900Y-124764800D03*
X142201900Y-140004800D03*
X170141900Y-124764800D03*
X144741900Y-140004800D03*
X167601900Y-124764800D03*
X147281900Y-140004800D03*
X165061900Y-124764800D03*
X149821900Y-140004800D03*
X162521900Y-124764800D03*
X152361900Y-140004800D03*
X159981900Y-124764800D03*
X154901900Y-140004800D03*
X157441900Y-124764800D03*
X157441900Y-140004800D03*
X154901900Y-124764800D03*
X159981900Y-140004800D03*
X152361900Y-124764800D03*
X162521900Y-140004800D03*
X149821900Y-124764800D03*
X165061900Y-140004800D03*
X147281900Y-124764800D03*
X167601900Y-140004800D03*
X144741900Y-124764800D03*
X170141900Y-140004800D03*
X142201900Y-124764800D03*
X172681900Y-140004800D03*
X139661900Y-124764800D03*
X175221900Y-140004800D03*
X175221900Y-124764800D03*
G36*
G01*
X142643600Y-132815750D02*
X142643600Y-131852250D01*
G75*
G02*
X142912850Y-131583000I269250J0D01*
G01*
X143451350Y-131583000D01*
G75*
G02*
X143720600Y-131852250I0J-269250D01*
G01*
X143720600Y-132815750D01*
G75*
G02*
X143451350Y-133085000I-269250J0D01*
G01*
X142912850Y-133085000D01*
G75*
G02*
X142643600Y-132815750I0J269250D01*
G01*
G37*
G36*
G01*
X144518600Y-132815750D02*
X144518600Y-131852250D01*
G75*
G02*
X144787850Y-131583000I269250J0D01*
G01*
X145326350Y-131583000D01*
G75*
G02*
X145595600Y-131852250I0J-269250D01*
G01*
X145595600Y-132815750D01*
G75*
G02*
X145326350Y-133085000I-269250J0D01*
G01*
X144787850Y-133085000D01*
G75*
G02*
X144518600Y-132815750I0J269250D01*
G01*
G37*
G36*
G01*
X102745800Y-136881450D02*
X102745800Y-137844950D01*
G75*
G02*
X102476550Y-138114200I-269250J0D01*
G01*
X101938050Y-138114200D01*
G75*
G02*
X101668800Y-137844950I0J269250D01*
G01*
X101668800Y-136881450D01*
G75*
G02*
X101938050Y-136612200I269250J0D01*
G01*
X102476550Y-136612200D01*
G75*
G02*
X102745800Y-136881450I0J-269250D01*
G01*
G37*
G36*
G01*
X100870800Y-136881450D02*
X100870800Y-137844950D01*
G75*
G02*
X100601550Y-138114200I-269250J0D01*
G01*
X100063050Y-138114200D01*
G75*
G02*
X99793800Y-137844950I0J269250D01*
G01*
X99793800Y-136881450D01*
G75*
G02*
X100063050Y-136612200I269250J0D01*
G01*
X100601550Y-136612200D01*
G75*
G02*
X100870800Y-136881450I0J-269250D01*
G01*
G37*
G36*
G01*
X107998000Y-147166750D02*
X107998000Y-146203250D01*
G75*
G02*
X108267250Y-145934000I269250J0D01*
G01*
X108805750Y-145934000D01*
G75*
G02*
X109075000Y-146203250I0J-269250D01*
G01*
X109075000Y-147166750D01*
G75*
G02*
X108805750Y-147436000I-269250J0D01*
G01*
X108267250Y-147436000D01*
G75*
G02*
X107998000Y-147166750I0J269250D01*
G01*
G37*
G36*
G01*
X109873000Y-147166750D02*
X109873000Y-146203250D01*
G75*
G02*
X110142250Y-145934000I269250J0D01*
G01*
X110680750Y-145934000D01*
G75*
G02*
X110950000Y-146203250I0J-269250D01*
G01*
X110950000Y-147166750D01*
G75*
G02*
X110680750Y-147436000I-269250J0D01*
G01*
X110142250Y-147436000D01*
G75*
G02*
X109873000Y-147166750I0J269250D01*
G01*
G37*
G36*
G01*
X118293100Y-148093850D02*
X118293100Y-147130350D01*
G75*
G02*
X118562350Y-146861100I269250J0D01*
G01*
X119100850Y-146861100D01*
G75*
G02*
X119370100Y-147130350I0J-269250D01*
G01*
X119370100Y-148093850D01*
G75*
G02*
X119100850Y-148363100I-269250J0D01*
G01*
X118562350Y-148363100D01*
G75*
G02*
X118293100Y-148093850I0J269250D01*
G01*
G37*
G36*
G01*
X116418100Y-148093850D02*
X116418100Y-147130350D01*
G75*
G02*
X116687350Y-146861100I269250J0D01*
G01*
X117225850Y-146861100D01*
G75*
G02*
X117495100Y-147130350I0J-269250D01*
G01*
X117495100Y-148093850D01*
G75*
G02*
X117225850Y-148363100I-269250J0D01*
G01*
X116687350Y-148363100D01*
G75*
G02*
X116418100Y-148093850I0J269250D01*
G01*
G37*
G36*
G01*
X108177750Y-140444000D02*
X107214250Y-140444000D01*
G75*
G02*
X106945000Y-140174750I0J269250D01*
G01*
X106945000Y-139636250D01*
G75*
G02*
X107214250Y-139367000I269250J0D01*
G01*
X108177750Y-139367000D01*
G75*
G02*
X108447000Y-139636250I0J-269250D01*
G01*
X108447000Y-140174750D01*
G75*
G02*
X108177750Y-140444000I-269250J0D01*
G01*
G37*
G36*
G01*
X108177750Y-142319000D02*
X107214250Y-142319000D01*
G75*
G02*
X106945000Y-142049750I0J269250D01*
G01*
X106945000Y-141511250D01*
G75*
G02*
X107214250Y-141242000I269250J0D01*
G01*
X108177750Y-141242000D01*
G75*
G02*
X108447000Y-141511250I0J-269250D01*
G01*
X108447000Y-142049750D01*
G75*
G02*
X108177750Y-142319000I-269250J0D01*
G01*
G37*
G36*
G01*
X144427400Y-136422550D02*
X144427400Y-135459050D01*
G75*
G02*
X144696650Y-135189800I269250J0D01*
G01*
X145235150Y-135189800D01*
G75*
G02*
X145504400Y-135459050I0J-269250D01*
G01*
X145504400Y-136422550D01*
G75*
G02*
X145235150Y-136691800I-269250J0D01*
G01*
X144696650Y-136691800D01*
G75*
G02*
X144427400Y-136422550I0J269250D01*
G01*
G37*
G36*
G01*
X142552400Y-136422550D02*
X142552400Y-135459050D01*
G75*
G02*
X142821650Y-135189800I269250J0D01*
G01*
X143360150Y-135189800D01*
G75*
G02*
X143629400Y-135459050I0J-269250D01*
G01*
X143629400Y-136422550D01*
G75*
G02*
X143360150Y-136691800I-269250J0D01*
G01*
X142821650Y-136691800D01*
G75*
G02*
X142552400Y-136422550I0J269250D01*
G01*
G37*
G36*
G01*
X140162500Y-129069250D02*
X140162500Y-128105750D01*
G75*
G02*
X140431750Y-127836500I269250J0D01*
G01*
X140970250Y-127836500D01*
G75*
G02*
X141239500Y-128105750I0J-269250D01*
G01*
X141239500Y-129069250D01*
G75*
G02*
X140970250Y-129338500I-269250J0D01*
G01*
X140431750Y-129338500D01*
G75*
G02*
X140162500Y-129069250I0J269250D01*
G01*
G37*
G36*
G01*
X138287500Y-129069250D02*
X138287500Y-128105750D01*
G75*
G02*
X138556750Y-127836500I269250J0D01*
G01*
X139095250Y-127836500D01*
G75*
G02*
X139364500Y-128105750I0J-269250D01*
G01*
X139364500Y-129069250D01*
G75*
G02*
X139095250Y-129338500I-269250J0D01*
G01*
X138556750Y-129338500D01*
G75*
G02*
X138287500Y-129069250I0J269250D01*
G01*
G37*
G36*
G01*
X155432500Y-129208950D02*
X155432500Y-128245450D01*
G75*
G02*
X155701750Y-127976200I269250J0D01*
G01*
X156240250Y-127976200D01*
G75*
G02*
X156509500Y-128245450I0J-269250D01*
G01*
X156509500Y-129208950D01*
G75*
G02*
X156240250Y-129478200I-269250J0D01*
G01*
X155701750Y-129478200D01*
G75*
G02*
X155432500Y-129208950I0J269250D01*
G01*
G37*
G36*
G01*
X157307500Y-129208950D02*
X157307500Y-128245450D01*
G75*
G02*
X157576750Y-127976200I269250J0D01*
G01*
X158115250Y-127976200D01*
G75*
G02*
X158384500Y-128245450I0J-269250D01*
G01*
X158384500Y-129208950D01*
G75*
G02*
X158115250Y-129478200I-269250J0D01*
G01*
X157576750Y-129478200D01*
G75*
G02*
X157307500Y-129208950I0J269250D01*
G01*
G37*
G36*
G01*
X157332900Y-132676050D02*
X157332900Y-131712550D01*
G75*
G02*
X157602150Y-131443300I269250J0D01*
G01*
X158140650Y-131443300D01*
G75*
G02*
X158409900Y-131712550I0J-269250D01*
G01*
X158409900Y-132676050D01*
G75*
G02*
X158140650Y-132945300I-269250J0D01*
G01*
X157602150Y-132945300D01*
G75*
G02*
X157332900Y-132676050I0J269250D01*
G01*
G37*
G36*
G01*
X155457900Y-132676050D02*
X155457900Y-131712550D01*
G75*
G02*
X155727150Y-131443300I269250J0D01*
G01*
X156265650Y-131443300D01*
G75*
G02*
X156534900Y-131712550I0J-269250D01*
G01*
X156534900Y-132676050D01*
G75*
G02*
X156265650Y-132945300I-269250J0D01*
G01*
X155727150Y-132945300D01*
G75*
G02*
X155457900Y-132676050I0J269250D01*
G01*
G37*
G36*
G01*
X115950150Y-133001800D02*
X114986650Y-133001800D01*
G75*
G02*
X114717400Y-132732550I0J269250D01*
G01*
X114717400Y-132194050D01*
G75*
G02*
X114986650Y-131924800I269250J0D01*
G01*
X115950150Y-131924800D01*
G75*
G02*
X116219400Y-132194050I0J-269250D01*
G01*
X116219400Y-132732550D01*
G75*
G02*
X115950150Y-133001800I-269250J0D01*
G01*
G37*
G36*
G01*
X115950150Y-134876800D02*
X114986650Y-134876800D01*
G75*
G02*
X114717400Y-134607550I0J269250D01*
G01*
X114717400Y-134069050D01*
G75*
G02*
X114986650Y-133799800I269250J0D01*
G01*
X115950150Y-133799800D01*
G75*
G02*
X116219400Y-134069050I0J-269250D01*
G01*
X116219400Y-134607550D01*
G75*
G02*
X115950150Y-134876800I-269250J0D01*
G01*
G37*
G36*
G01*
X119658550Y-134978400D02*
X118695050Y-134978400D01*
G75*
G02*
X118425800Y-134709150I0J269250D01*
G01*
X118425800Y-134170650D01*
G75*
G02*
X118695050Y-133901400I269250J0D01*
G01*
X119658550Y-133901400D01*
G75*
G02*
X119927800Y-134170650I0J-269250D01*
G01*
X119927800Y-134709150D01*
G75*
G02*
X119658550Y-134978400I-269250J0D01*
G01*
G37*
G36*
G01*
X119658550Y-133103400D02*
X118695050Y-133103400D01*
G75*
G02*
X118425800Y-132834150I0J269250D01*
G01*
X118425800Y-132295650D01*
G75*
G02*
X118695050Y-132026400I269250J0D01*
G01*
X119658550Y-132026400D01*
G75*
G02*
X119927800Y-132295650I0J-269250D01*
G01*
X119927800Y-132834150D01*
G75*
G02*
X119658550Y-133103400I-269250J0D01*
G01*
G37*
G36*
G01*
X123214550Y-134876800D02*
X122251050Y-134876800D01*
G75*
G02*
X121981800Y-134607550I0J269250D01*
G01*
X121981800Y-134069050D01*
G75*
G02*
X122251050Y-133799800I269250J0D01*
G01*
X123214550Y-133799800D01*
G75*
G02*
X123483800Y-134069050I0J-269250D01*
G01*
X123483800Y-134607550D01*
G75*
G02*
X123214550Y-134876800I-269250J0D01*
G01*
G37*
G36*
G01*
X123214550Y-133001800D02*
X122251050Y-133001800D01*
G75*
G02*
X121981800Y-132732550I0J269250D01*
G01*
X121981800Y-132194050D01*
G75*
G02*
X122251050Y-131924800I269250J0D01*
G01*
X123214550Y-131924800D01*
G75*
G02*
X123483800Y-132194050I0J-269250D01*
G01*
X123483800Y-132732550D01*
G75*
G02*
X123214550Y-133001800I-269250J0D01*
G01*
G37*
G36*
G01*
X132498250Y-128887000D02*
X131534750Y-128887000D01*
G75*
G02*
X131265500Y-128617750I0J269250D01*
G01*
X131265500Y-128079250D01*
G75*
G02*
X131534750Y-127810000I269250J0D01*
G01*
X132498250Y-127810000D01*
G75*
G02*
X132767500Y-128079250I0J-269250D01*
G01*
X132767500Y-128617750D01*
G75*
G02*
X132498250Y-128887000I-269250J0D01*
G01*
G37*
G36*
G01*
X132498250Y-130762000D02*
X131534750Y-130762000D01*
G75*
G02*
X131265500Y-130492750I0J269250D01*
G01*
X131265500Y-129954250D01*
G75*
G02*
X131534750Y-129685000I269250J0D01*
G01*
X132498250Y-129685000D01*
G75*
G02*
X132767500Y-129954250I0J-269250D01*
G01*
X132767500Y-130492750D01*
G75*
G02*
X132498250Y-130762000I-269250J0D01*
G01*
G37*
G36*
G01*
X127610450Y-124594600D02*
X128573950Y-124594600D01*
G75*
G02*
X128843200Y-124863850I0J-269250D01*
G01*
X128843200Y-125402350D01*
G75*
G02*
X128573950Y-125671600I-269250J0D01*
G01*
X127610450Y-125671600D01*
G75*
G02*
X127341200Y-125402350I0J269250D01*
G01*
X127341200Y-124863850D01*
G75*
G02*
X127610450Y-124594600I269250J0D01*
G01*
G37*
G36*
G01*
X127610450Y-122719600D02*
X128573950Y-122719600D01*
G75*
G02*
X128843200Y-122988850I0J-269250D01*
G01*
X128843200Y-123527350D01*
G75*
G02*
X128573950Y-123796600I-269250J0D01*
G01*
X127610450Y-123796600D01*
G75*
G02*
X127341200Y-123527350I0J269250D01*
G01*
X127341200Y-122988850D01*
G75*
G02*
X127610450Y-122719600I269250J0D01*
G01*
G37*
G36*
G01*
X132561750Y-123758500D02*
X131598250Y-123758500D01*
G75*
G02*
X131329000Y-123489250I0J269250D01*
G01*
X131329000Y-122950750D01*
G75*
G02*
X131598250Y-122681500I269250J0D01*
G01*
X132561750Y-122681500D01*
G75*
G02*
X132831000Y-122950750I0J-269250D01*
G01*
X132831000Y-123489250D01*
G75*
G02*
X132561750Y-123758500I-269250J0D01*
G01*
G37*
G36*
G01*
X132561750Y-125633500D02*
X131598250Y-125633500D01*
G75*
G02*
X131329000Y-125364250I0J269250D01*
G01*
X131329000Y-124825750D01*
G75*
G02*
X131598250Y-124556500I269250J0D01*
G01*
X132561750Y-124556500D01*
G75*
G02*
X132831000Y-124825750I0J-269250D01*
G01*
X132831000Y-125364250D01*
G75*
G02*
X132561750Y-125633500I-269250J0D01*
G01*
G37*
G36*
G01*
X116157000Y-116942450D02*
X116157000Y-117905950D01*
G75*
G02*
X115887750Y-118175200I-269250J0D01*
G01*
X115349250Y-118175200D01*
G75*
G02*
X115080000Y-117905950I0J269250D01*
G01*
X115080000Y-116942450D01*
G75*
G02*
X115349250Y-116673200I269250J0D01*
G01*
X115887750Y-116673200D01*
G75*
G02*
X116157000Y-116942450I0J-269250D01*
G01*
G37*
G36*
G01*
X114282000Y-116942450D02*
X114282000Y-117905950D01*
G75*
G02*
X114012750Y-118175200I-269250J0D01*
G01*
X113474250Y-118175200D01*
G75*
G02*
X113205000Y-117905950I0J269250D01*
G01*
X113205000Y-116942450D01*
G75*
G02*
X113474250Y-116673200I269250J0D01*
G01*
X114012750Y-116673200D01*
G75*
G02*
X114282000Y-116942450I0J-269250D01*
G01*
G37*
G36*
G01*
X160827500Y-130239350D02*
X160827500Y-131202850D01*
G75*
G02*
X160558250Y-131472100I-269250J0D01*
G01*
X160019750Y-131472100D01*
G75*
G02*
X159750500Y-131202850I0J269250D01*
G01*
X159750500Y-130239350D01*
G75*
G02*
X160019750Y-129970100I269250J0D01*
G01*
X160558250Y-129970100D01*
G75*
G02*
X160827500Y-130239350I0J-269250D01*
G01*
G37*
G36*
G01*
X162702500Y-130239350D02*
X162702500Y-131202850D01*
G75*
G02*
X162433250Y-131472100I-269250J0D01*
G01*
X161894750Y-131472100D01*
G75*
G02*
X161625500Y-131202850I0J269250D01*
G01*
X161625500Y-130239350D01*
G75*
G02*
X161894750Y-129970100I269250J0D01*
G01*
X162433250Y-129970100D01*
G75*
G02*
X162702500Y-130239350I0J-269250D01*
G01*
G37*
G36*
G01*
X162829500Y-133236550D02*
X162829500Y-134200050D01*
G75*
G02*
X162560250Y-134469300I-269250J0D01*
G01*
X162021750Y-134469300D01*
G75*
G02*
X161752500Y-134200050I0J269250D01*
G01*
X161752500Y-133236550D01*
G75*
G02*
X162021750Y-132967300I269250J0D01*
G01*
X162560250Y-132967300D01*
G75*
G02*
X162829500Y-133236550I0J-269250D01*
G01*
G37*
G36*
G01*
X160954500Y-133236550D02*
X160954500Y-134200050D01*
G75*
G02*
X160685250Y-134469300I-269250J0D01*
G01*
X160146750Y-134469300D01*
G75*
G02*
X159877500Y-134200050I0J269250D01*
G01*
X159877500Y-133236550D01*
G75*
G02*
X160146750Y-132967300I269250J0D01*
G01*
X160685250Y-132967300D01*
G75*
G02*
X160954500Y-133236550I0J-269250D01*
G01*
G37*
G36*
G01*
X152578500Y-120484000D02*
X152578500Y-118784000D01*
G75*
G02*
X152629500Y-118733000I51000J0D01*
G01*
X154329500Y-118733000D01*
G75*
G02*
X154380500Y-118784000I0J-51000D01*
G01*
X154380500Y-120484000D01*
G75*
G02*
X154329500Y-120535000I-51000J0D01*
G01*
X152629500Y-120535000D01*
G75*
G02*
X152578500Y-120484000I0J51000D01*
G01*
G37*
G36*
G01*
X98984500Y-134771500D02*
X98984500Y-133071500D01*
G75*
G02*
X99035500Y-133020500I51000J0D01*
G01*
X100735500Y-133020500D01*
G75*
G02*
X100786500Y-133071500I0J-51000D01*
G01*
X100786500Y-134771500D01*
G75*
G02*
X100735500Y-134822500I-51000J0D01*
G01*
X99035500Y-134822500D01*
G75*
G02*
X98984500Y-134771500I0J51000D01*
G01*
G37*
G36*
G01*
X167945500Y-120547500D02*
X167945500Y-118847500D01*
G75*
G02*
X167996500Y-118796500I51000J0D01*
G01*
X169696500Y-118796500D01*
G75*
G02*
X169747500Y-118847500I0J-51000D01*
G01*
X169747500Y-120547500D01*
G75*
G02*
X169696500Y-120598500I-51000J0D01*
G01*
X167996500Y-120598500D01*
G75*
G02*
X167945500Y-120547500I0J51000D01*
G01*
G37*
G36*
G01*
X156896500Y-120547500D02*
X156896500Y-118847500D01*
G75*
G02*
X156947500Y-118796500I51000J0D01*
G01*
X158647500Y-118796500D01*
G75*
G02*
X158698500Y-118847500I0J-51000D01*
G01*
X158698500Y-120547500D01*
G75*
G02*
X158647500Y-120598500I-51000J0D01*
G01*
X156947500Y-120598500D01*
G75*
G02*
X156896500Y-120547500I0J51000D01*
G01*
G37*
G36*
G01*
X110021000Y-136132000D02*
X111721000Y-136132000D01*
G75*
G02*
X111772000Y-136183000I0J-51000D01*
G01*
X111772000Y-137883000D01*
G75*
G02*
X111721000Y-137934000I-51000J0D01*
G01*
X110021000Y-137934000D01*
G75*
G02*
X109970000Y-137883000I0J51000D01*
G01*
X109970000Y-136183000D01*
G75*
G02*
X110021000Y-136132000I51000J0D01*
G01*
G37*
G36*
G01*
X150761000Y-143104500D02*
X150761000Y-144804500D01*
G75*
G02*
X150710000Y-144855500I-51000J0D01*
G01*
X149010000Y-144855500D01*
G75*
G02*
X148959000Y-144804500I0J51000D01*
G01*
X148959000Y-143104500D01*
G75*
G02*
X149010000Y-143053500I51000J0D01*
G01*
X150710000Y-143053500D01*
G75*
G02*
X150761000Y-143104500I0J-51000D01*
G01*
G37*
G36*
G01*
X159460500Y-143104500D02*
X159460500Y-144804500D01*
G75*
G02*
X159409500Y-144855500I-51000J0D01*
G01*
X157709500Y-144855500D01*
G75*
G02*
X157658500Y-144804500I0J51000D01*
G01*
X157658500Y-143104500D01*
G75*
G02*
X157709500Y-143053500I51000J0D01*
G01*
X159409500Y-143053500D01*
G75*
G02*
X159460500Y-143104500I0J-51000D01*
G01*
G37*
G36*
G01*
X155079000Y-143104500D02*
X155079000Y-144804500D01*
G75*
G02*
X155028000Y-144855500I-51000J0D01*
G01*
X153328000Y-144855500D01*
G75*
G02*
X153277000Y-144804500I0J51000D01*
G01*
X153277000Y-143104500D01*
G75*
G02*
X153328000Y-143053500I51000J0D01*
G01*
X155028000Y-143053500D01*
G75*
G02*
X155079000Y-143104500I0J-51000D01*
G01*
G37*
G36*
G01*
X113487900Y-130440800D02*
X113487900Y-128740800D01*
G75*
G02*
X113538900Y-128689800I51000J0D01*
G01*
X115238900Y-128689800D01*
G75*
G02*
X115289900Y-128740800I0J-51000D01*
G01*
X115289900Y-130440800D01*
G75*
G02*
X115238900Y-130491800I-51000J0D01*
G01*
X113538900Y-130491800D01*
G75*
G02*
X113487900Y-130440800I0J51000D01*
G01*
G37*
G36*
G01*
X117678900Y-130440800D02*
X117678900Y-128740800D01*
G75*
G02*
X117729900Y-128689800I51000J0D01*
G01*
X119429900Y-128689800D01*
G75*
G02*
X119480900Y-128740800I0J-51000D01*
G01*
X119480900Y-130440800D01*
G75*
G02*
X119429900Y-130491800I-51000J0D01*
G01*
X117729900Y-130491800D01*
G75*
G02*
X117678900Y-130440800I0J51000D01*
G01*
G37*
G36*
G01*
X121984200Y-130364600D02*
X121984200Y-128664600D01*
G75*
G02*
X122035200Y-128613600I51000J0D01*
G01*
X123735200Y-128613600D01*
G75*
G02*
X123786200Y-128664600I0J-51000D01*
G01*
X123786200Y-130364600D01*
G75*
G02*
X123735200Y-130415600I-51000J0D01*
G01*
X122035200Y-130415600D01*
G75*
G02*
X121984200Y-130364600I0J51000D01*
G01*
G37*
G36*
G01*
X126111700Y-130339200D02*
X126111700Y-128639200D01*
G75*
G02*
X126162700Y-128588200I51000J0D01*
G01*
X127862700Y-128588200D01*
G75*
G02*
X127913700Y-128639200I0J-51000D01*
G01*
X127913700Y-130339200D01*
G75*
G02*
X127862700Y-130390200I-51000J0D01*
G01*
X126162700Y-130390200D01*
G75*
G02*
X126111700Y-130339200I0J51000D01*
G01*
G37*
D11*
X167932600Y-127435600D03*
X167932600Y-137435600D03*
X167932600Y-134935600D03*
X167932600Y-129935600D03*
D12*
X172932600Y-132435600D03*
D13*
X167932600Y-132435600D03*
X172932600Y-137435600D03*
X175432600Y-137435600D03*
X172932600Y-127435600D03*
X175432600Y-127435600D03*
D14*
X113893600Y-124460000D03*
G36*
G01*
X112992600Y-122770000D02*
X112992600Y-121070000D01*
G75*
G02*
X113043600Y-121019000I51000J0D01*
G01*
X114743600Y-121019000D01*
G75*
G02*
X114794600Y-121070000I0J-51000D01*
G01*
X114794600Y-122770000D01*
G75*
G02*
X114743600Y-122821000I-51000J0D01*
G01*
X113043600Y-122821000D01*
G75*
G02*
X112992600Y-122770000I0J51000D01*
G01*
G37*
X164592000Y-119570500D03*
G36*
G01*
X162902000Y-120471500D02*
X161202000Y-120471500D01*
G75*
G02*
X161151000Y-120420500I0J51000D01*
G01*
X161151000Y-118720500D01*
G75*
G02*
X161202000Y-118669500I51000J0D01*
G01*
X162902000Y-118669500D01*
G75*
G02*
X162953000Y-118720500I0J-51000D01*
G01*
X162953000Y-120420500D01*
G75*
G02*
X162902000Y-120471500I-51000J0D01*
G01*
G37*
G36*
G01*
X164567500Y-143053500D02*
X166267500Y-143053500D01*
G75*
G02*
X166318500Y-143104500I0J-51000D01*
G01*
X166318500Y-144804500D01*
G75*
G02*
X166267500Y-144855500I-51000J0D01*
G01*
X164567500Y-144855500D01*
G75*
G02*
X164516500Y-144804500I0J51000D01*
G01*
X164516500Y-143104500D01*
G75*
G02*
X164567500Y-143053500I51000J0D01*
G01*
G37*
X162877500Y-143954500D03*
G36*
G01*
X171362000Y-143053500D02*
X173062000Y-143053500D01*
G75*
G02*
X173113000Y-143104500I0J-51000D01*
G01*
X173113000Y-144804500D01*
G75*
G02*
X173062000Y-144855500I-51000J0D01*
G01*
X171362000Y-144855500D01*
G75*
G02*
X171311000Y-144804500I0J51000D01*
G01*
X171311000Y-143104500D01*
G75*
G02*
X171362000Y-143053500I51000J0D01*
G01*
G37*
X169672000Y-143954500D03*
D15*
X103758300Y-142316200D03*
X98158300Y-142316200D03*
D16*
X111861600Y-144233900D03*
X106781600Y-144233900D03*
D15*
X114922300Y-142824200D03*
X120522300Y-142824200D03*
G36*
G01*
X139463000Y-134000000D02*
X139463000Y-134600000D01*
G75*
G02*
X139393000Y-134670000I-70000J0D01*
G01*
X138093000Y-134670000D01*
G75*
G02*
X138023000Y-134600000I0J70000D01*
G01*
X138023000Y-134000000D01*
G75*
G02*
X138093000Y-133930000I70000J0D01*
G01*
X139393000Y-133930000D01*
G75*
G02*
X139463000Y-134000000I0J-70000D01*
G01*
G37*
G36*
G01*
X141563000Y-133050000D02*
X141563000Y-133650000D01*
G75*
G02*
X141493000Y-133720000I-70000J0D01*
G01*
X140193000Y-133720000D01*
G75*
G02*
X140123000Y-133650000I0J70000D01*
G01*
X140123000Y-133050000D01*
G75*
G02*
X140193000Y-132980000I70000J0D01*
G01*
X141493000Y-132980000D01*
G75*
G02*
X141563000Y-133050000I0J-70000D01*
G01*
G37*
G36*
G01*
X141563000Y-134950000D02*
X141563000Y-135550000D01*
G75*
G02*
X141493000Y-135620000I-70000J0D01*
G01*
X140193000Y-135620000D01*
G75*
G02*
X140123000Y-135550000I0J70000D01*
G01*
X140123000Y-134950000D01*
G75*
G02*
X140193000Y-134880000I70000J0D01*
G01*
X141493000Y-134880000D01*
G75*
G02*
X141563000Y-134950000I0J-70000D01*
G01*
G37*
G36*
G01*
X152717900Y-130013700D02*
X152717900Y-129213700D01*
G75*
G02*
X152768900Y-129162700I51000J0D01*
G01*
X153668900Y-129162700D01*
G75*
G02*
X153719900Y-129213700I0J-51000D01*
G01*
X153719900Y-130013700D01*
G75*
G02*
X153668900Y-130064700I-51000J0D01*
G01*
X152768900Y-130064700D01*
G75*
G02*
X152717900Y-130013700I0J51000D01*
G01*
G37*
G36*
G01*
X150717900Y-130963700D02*
X150717900Y-130163700D01*
G75*
G02*
X150768900Y-130112700I51000J0D01*
G01*
X151668900Y-130112700D01*
G75*
G02*
X151719900Y-130163700I0J-51000D01*
G01*
X151719900Y-130963700D01*
G75*
G02*
X151668900Y-131014700I-51000J0D01*
G01*
X150768900Y-131014700D01*
G75*
G02*
X150717900Y-130963700I0J51000D01*
G01*
G37*
G36*
G01*
X150717900Y-129063700D02*
X150717900Y-128263700D01*
G75*
G02*
X150768900Y-128212700I51000J0D01*
G01*
X151668900Y-128212700D01*
G75*
G02*
X151719900Y-128263700I0J-51000D01*
G01*
X151719900Y-129063700D01*
G75*
G02*
X151668900Y-129114700I-51000J0D01*
G01*
X150768900Y-129114700D01*
G75*
G02*
X150717900Y-129063700I0J51000D01*
G01*
G37*
G36*
G01*
X151038700Y-134920900D02*
X151038700Y-134120900D01*
G75*
G02*
X151089700Y-134069900I51000J0D01*
G01*
X151989700Y-134069900D01*
G75*
G02*
X152040700Y-134120900I0J-51000D01*
G01*
X152040700Y-134920900D01*
G75*
G02*
X151989700Y-134971900I-51000J0D01*
G01*
X151089700Y-134971900D01*
G75*
G02*
X151038700Y-134920900I0J51000D01*
G01*
G37*
G36*
G01*
X151038700Y-136820900D02*
X151038700Y-136020900D01*
G75*
G02*
X151089700Y-135969900I51000J0D01*
G01*
X151989700Y-135969900D01*
G75*
G02*
X152040700Y-136020900I0J-51000D01*
G01*
X152040700Y-136820900D01*
G75*
G02*
X151989700Y-136871900I-51000J0D01*
G01*
X151089700Y-136871900D01*
G75*
G02*
X151038700Y-136820900I0J51000D01*
G01*
G37*
G36*
G01*
X153038700Y-135870900D02*
X153038700Y-135070900D01*
G75*
G02*
X153089700Y-135019900I51000J0D01*
G01*
X153989700Y-135019900D01*
G75*
G02*
X154040700Y-135070900I0J-51000D01*
G01*
X154040700Y-135870900D01*
G75*
G02*
X153989700Y-135921900I-51000J0D01*
G01*
X153089700Y-135921900D01*
G75*
G02*
X153038700Y-135870900I0J51000D01*
G01*
G37*
G36*
G01*
X148531800Y-129145450D02*
X148531800Y-128181950D01*
G75*
G02*
X148801050Y-127912700I269250J0D01*
G01*
X149339550Y-127912700D01*
G75*
G02*
X149608800Y-128181950I0J-269250D01*
G01*
X149608800Y-129145450D01*
G75*
G02*
X149339550Y-129414700I-269250J0D01*
G01*
X148801050Y-129414700D01*
G75*
G02*
X148531800Y-129145450I0J269250D01*
G01*
G37*
G36*
G01*
X146656800Y-129145450D02*
X146656800Y-128181950D01*
G75*
G02*
X146926050Y-127912700I269250J0D01*
G01*
X147464550Y-127912700D01*
G75*
G02*
X147733800Y-128181950I0J-269250D01*
G01*
X147733800Y-129145450D01*
G75*
G02*
X147464550Y-129414700I-269250J0D01*
G01*
X146926050Y-129414700D01*
G75*
G02*
X146656800Y-129145450I0J269250D01*
G01*
G37*
G36*
G01*
X142503900Y-129120050D02*
X142503900Y-128156550D01*
G75*
G02*
X142773150Y-127887300I269250J0D01*
G01*
X143311650Y-127887300D01*
G75*
G02*
X143580900Y-128156550I0J-269250D01*
G01*
X143580900Y-129120050D01*
G75*
G02*
X143311650Y-129389300I-269250J0D01*
G01*
X142773150Y-129389300D01*
G75*
G02*
X142503900Y-129120050I0J269250D01*
G01*
G37*
G36*
G01*
X144378900Y-129120050D02*
X144378900Y-128156550D01*
G75*
G02*
X144648150Y-127887300I269250J0D01*
G01*
X145186650Y-127887300D01*
G75*
G02*
X145455900Y-128156550I0J-269250D01*
G01*
X145455900Y-129120050D01*
G75*
G02*
X145186650Y-129389300I-269250J0D01*
G01*
X144648150Y-129389300D01*
G75*
G02*
X144378900Y-129120050I0J269250D01*
G01*
G37*
G36*
G01*
X146656800Y-132777650D02*
X146656800Y-131814150D01*
G75*
G02*
X146926050Y-131544900I269250J0D01*
G01*
X147464550Y-131544900D01*
G75*
G02*
X147733800Y-131814150I0J-269250D01*
G01*
X147733800Y-132777650D01*
G75*
G02*
X147464550Y-133046900I-269250J0D01*
G01*
X146926050Y-133046900D01*
G75*
G02*
X146656800Y-132777650I0J269250D01*
G01*
G37*
G36*
G01*
X148531800Y-132777650D02*
X148531800Y-131814150D01*
G75*
G02*
X148801050Y-131544900I269250J0D01*
G01*
X149339550Y-131544900D01*
G75*
G02*
X149608800Y-131814150I0J-269250D01*
G01*
X149608800Y-132777650D01*
G75*
G02*
X149339550Y-133046900I-269250J0D01*
G01*
X148801050Y-133046900D01*
G75*
G02*
X148531800Y-132777650I0J269250D01*
G01*
G37*
G36*
G01*
X148466000Y-136359050D02*
X148466000Y-135395550D01*
G75*
G02*
X148735250Y-135126300I269250J0D01*
G01*
X149273750Y-135126300D01*
G75*
G02*
X149543000Y-135395550I0J-269250D01*
G01*
X149543000Y-136359050D01*
G75*
G02*
X149273750Y-136628300I-269250J0D01*
G01*
X148735250Y-136628300D01*
G75*
G02*
X148466000Y-136359050I0J269250D01*
G01*
G37*
G36*
G01*
X146591000Y-136359050D02*
X146591000Y-135395550D01*
G75*
G02*
X146860250Y-135126300I269250J0D01*
G01*
X147398750Y-135126300D01*
G75*
G02*
X147668000Y-135395550I0J-269250D01*
G01*
X147668000Y-136359050D01*
G75*
G02*
X147398750Y-136628300I-269250J0D01*
G01*
X146860250Y-136628300D01*
G75*
G02*
X146591000Y-136359050I0J269250D01*
G01*
G37*
G36*
G01*
X155696900Y-136562250D02*
X155696900Y-135598750D01*
G75*
G02*
X155966150Y-135329500I269250J0D01*
G01*
X156504650Y-135329500D01*
G75*
G02*
X156773900Y-135598750I0J-269250D01*
G01*
X156773900Y-136562250D01*
G75*
G02*
X156504650Y-136831500I-269250J0D01*
G01*
X155966150Y-136831500D01*
G75*
G02*
X155696900Y-136562250I0J269250D01*
G01*
G37*
G36*
G01*
X157571900Y-136562250D02*
X157571900Y-135598750D01*
G75*
G02*
X157841150Y-135329500I269250J0D01*
G01*
X158379650Y-135329500D01*
G75*
G02*
X158648900Y-135598750I0J-269250D01*
G01*
X158648900Y-136562250D01*
G75*
G02*
X158379650Y-136831500I-269250J0D01*
G01*
X157841150Y-136831500D01*
G75*
G02*
X157571900Y-136562250I0J269250D01*
G01*
G37*
G36*
G01*
X110541650Y-139443200D02*
X111505150Y-139443200D01*
G75*
G02*
X111774400Y-139712450I0J-269250D01*
G01*
X111774400Y-140250950D01*
G75*
G02*
X111505150Y-140520200I-269250J0D01*
G01*
X110541650Y-140520200D01*
G75*
G02*
X110272400Y-140250950I0J269250D01*
G01*
X110272400Y-139712450D01*
G75*
G02*
X110541650Y-139443200I269250J0D01*
G01*
G37*
G36*
G01*
X110541650Y-141318200D02*
X111505150Y-141318200D01*
G75*
G02*
X111774400Y-141587450I0J-269250D01*
G01*
X111774400Y-142125950D01*
G75*
G02*
X111505150Y-142395200I-269250J0D01*
G01*
X110541650Y-142395200D01*
G75*
G02*
X110272400Y-142125950I0J269250D01*
G01*
X110272400Y-141587450D01*
G75*
G02*
X110541650Y-141318200I269250J0D01*
G01*
G37*
G36*
G01*
X108050750Y-136570500D02*
X107087250Y-136570500D01*
G75*
G02*
X106818000Y-136301250I0J269250D01*
G01*
X106818000Y-135762750D01*
G75*
G02*
X107087250Y-135493500I269250J0D01*
G01*
X108050750Y-135493500D01*
G75*
G02*
X108320000Y-135762750I0J-269250D01*
G01*
X108320000Y-136301250D01*
G75*
G02*
X108050750Y-136570500I-269250J0D01*
G01*
G37*
G36*
G01*
X108050750Y-138445500D02*
X107087250Y-138445500D01*
G75*
G02*
X106818000Y-138176250I0J269250D01*
G01*
X106818000Y-137637750D01*
G75*
G02*
X107087250Y-137368500I269250J0D01*
G01*
X108050750Y-137368500D01*
G75*
G02*
X108320000Y-137637750I0J-269250D01*
G01*
X108320000Y-138176250D01*
G75*
G02*
X108050750Y-138445500I-269250J0D01*
G01*
G37*
G36*
G01*
X123279750Y-138750500D02*
X124243250Y-138750500D01*
G75*
G02*
X124512500Y-139019750I0J-269250D01*
G01*
X124512500Y-139558250D01*
G75*
G02*
X124243250Y-139827500I-269250J0D01*
G01*
X123279750Y-139827500D01*
G75*
G02*
X123010500Y-139558250I0J269250D01*
G01*
X123010500Y-139019750D01*
G75*
G02*
X123279750Y-138750500I269250J0D01*
G01*
G37*
G36*
G01*
X123279750Y-136875500D02*
X124243250Y-136875500D01*
G75*
G02*
X124512500Y-137144750I0J-269250D01*
G01*
X124512500Y-137683250D01*
G75*
G02*
X124243250Y-137952500I-269250J0D01*
G01*
X123279750Y-137952500D01*
G75*
G02*
X123010500Y-137683250I0J269250D01*
G01*
X123010500Y-137144750D01*
G75*
G02*
X123279750Y-136875500I269250J0D01*
G01*
G37*
G36*
G01*
X133566750Y-136890500D02*
X134530250Y-136890500D01*
G75*
G02*
X134799500Y-137159750I0J-269250D01*
G01*
X134799500Y-137698250D01*
G75*
G02*
X134530250Y-137967500I-269250J0D01*
G01*
X133566750Y-137967500D01*
G75*
G02*
X133297500Y-137698250I0J269250D01*
G01*
X133297500Y-137159750D01*
G75*
G02*
X133566750Y-136890500I269250J0D01*
G01*
G37*
G36*
G01*
X133566750Y-138765500D02*
X134530250Y-138765500D01*
G75*
G02*
X134799500Y-139034750I0J-269250D01*
G01*
X134799500Y-139573250D01*
G75*
G02*
X134530250Y-139842500I-269250J0D01*
G01*
X133566750Y-139842500D01*
G75*
G02*
X133297500Y-139573250I0J269250D01*
G01*
X133297500Y-139034750D01*
G75*
G02*
X133566750Y-138765500I269250J0D01*
G01*
G37*
G36*
G01*
X126708750Y-138638500D02*
X127672250Y-138638500D01*
G75*
G02*
X127941500Y-138907750I0J-269250D01*
G01*
X127941500Y-139446250D01*
G75*
G02*
X127672250Y-139715500I-269250J0D01*
G01*
X126708750Y-139715500D01*
G75*
G02*
X126439500Y-139446250I0J269250D01*
G01*
X126439500Y-138907750D01*
G75*
G02*
X126708750Y-138638500I269250J0D01*
G01*
G37*
G36*
G01*
X126708750Y-136763500D02*
X127672250Y-136763500D01*
G75*
G02*
X127941500Y-137032750I0J-269250D01*
G01*
X127941500Y-137571250D01*
G75*
G02*
X127672250Y-137840500I-269250J0D01*
G01*
X126708750Y-137840500D01*
G75*
G02*
X126439500Y-137571250I0J269250D01*
G01*
X126439500Y-137032750D01*
G75*
G02*
X126708750Y-136763500I269250J0D01*
G01*
G37*
G36*
G01*
X130137750Y-136827000D02*
X131101250Y-136827000D01*
G75*
G02*
X131370500Y-137096250I0J-269250D01*
G01*
X131370500Y-137634750D01*
G75*
G02*
X131101250Y-137904000I-269250J0D01*
G01*
X130137750Y-137904000D01*
G75*
G02*
X129868500Y-137634750I0J269250D01*
G01*
X129868500Y-137096250D01*
G75*
G02*
X130137750Y-136827000I269250J0D01*
G01*
G37*
G36*
G01*
X130137750Y-138702000D02*
X131101250Y-138702000D01*
G75*
G02*
X131370500Y-138971250I0J-269250D01*
G01*
X131370500Y-139509750D01*
G75*
G02*
X131101250Y-139779000I-269250J0D01*
G01*
X130137750Y-139779000D01*
G75*
G02*
X129868500Y-139509750I0J269250D01*
G01*
X129868500Y-138971250D01*
G75*
G02*
X130137750Y-138702000I269250J0D01*
G01*
G37*
G36*
G01*
X115418450Y-136750800D02*
X116381950Y-136750800D01*
G75*
G02*
X116651200Y-137020050I0J-269250D01*
G01*
X116651200Y-137558550D01*
G75*
G02*
X116381950Y-137827800I-269250J0D01*
G01*
X115418450Y-137827800D01*
G75*
G02*
X115149200Y-137558550I0J269250D01*
G01*
X115149200Y-137020050D01*
G75*
G02*
X115418450Y-136750800I269250J0D01*
G01*
G37*
G36*
G01*
X115418450Y-138625800D02*
X116381950Y-138625800D01*
G75*
G02*
X116651200Y-138895050I0J-269250D01*
G01*
X116651200Y-139433550D01*
G75*
G02*
X116381950Y-139702800I-269250J0D01*
G01*
X115418450Y-139702800D01*
G75*
G02*
X115149200Y-139433550I0J269250D01*
G01*
X115149200Y-138895050D01*
G75*
G02*
X115418450Y-138625800I269250J0D01*
G01*
G37*
G36*
G01*
X119330050Y-138674300D02*
X120293550Y-138674300D01*
G75*
G02*
X120562800Y-138943550I0J-269250D01*
G01*
X120562800Y-139482050D01*
G75*
G02*
X120293550Y-139751300I-269250J0D01*
G01*
X119330050Y-139751300D01*
G75*
G02*
X119060800Y-139482050I0J269250D01*
G01*
X119060800Y-138943550D01*
G75*
G02*
X119330050Y-138674300I269250J0D01*
G01*
G37*
G36*
G01*
X119330050Y-136799300D02*
X120293550Y-136799300D01*
G75*
G02*
X120562800Y-137068550I0J-269250D01*
G01*
X120562800Y-137607050D01*
G75*
G02*
X120293550Y-137876300I-269250J0D01*
G01*
X119330050Y-137876300D01*
G75*
G02*
X119060800Y-137607050I0J269250D01*
G01*
X119060800Y-137068550D01*
G75*
G02*
X119330050Y-136799300I269250J0D01*
G01*
G37*
G36*
G01*
X124967150Y-123766600D02*
X124003650Y-123766600D01*
G75*
G02*
X123734400Y-123497350I0J269250D01*
G01*
X123734400Y-122958850D01*
G75*
G02*
X124003650Y-122689600I269250J0D01*
G01*
X124967150Y-122689600D01*
G75*
G02*
X125236400Y-122958850I0J-269250D01*
G01*
X125236400Y-123497350D01*
G75*
G02*
X124967150Y-123766600I-269250J0D01*
G01*
G37*
G36*
G01*
X124967150Y-125641600D02*
X124003650Y-125641600D01*
G75*
G02*
X123734400Y-125372350I0J269250D01*
G01*
X123734400Y-124833850D01*
G75*
G02*
X124003650Y-124564600I269250J0D01*
G01*
X124967150Y-124564600D01*
G75*
G02*
X125236400Y-124833850I0J-269250D01*
G01*
X125236400Y-125372350D01*
G75*
G02*
X124967150Y-125641600I-269250J0D01*
G01*
G37*
G36*
G01*
X125959450Y-132026400D02*
X126922950Y-132026400D01*
G75*
G02*
X127192200Y-132295650I0J-269250D01*
G01*
X127192200Y-132834150D01*
G75*
G02*
X126922950Y-133103400I-269250J0D01*
G01*
X125959450Y-133103400D01*
G75*
G02*
X125690200Y-132834150I0J269250D01*
G01*
X125690200Y-132295650D01*
G75*
G02*
X125959450Y-132026400I269250J0D01*
G01*
G37*
G36*
G01*
X125959450Y-133901400D02*
X126922950Y-133901400D01*
G75*
G02*
X127192200Y-134170650I0J-269250D01*
G01*
X127192200Y-134709150D01*
G75*
G02*
X126922950Y-134978400I-269250J0D01*
G01*
X125959450Y-134978400D01*
G75*
G02*
X125690200Y-134709150I0J269250D01*
G01*
X125690200Y-134170650D01*
G75*
G02*
X125959450Y-133901400I269250J0D01*
G01*
G37*
G36*
G01*
X139013300Y-142857700D02*
X139313300Y-142857700D01*
G75*
G02*
X139364300Y-142908700I0J-51000D01*
G01*
X139364300Y-144308700D01*
G75*
G02*
X139313300Y-144359700I-51000J0D01*
G01*
X139013300Y-144359700D01*
G75*
G02*
X138962300Y-144308700I0J51000D01*
G01*
X138962300Y-142908700D01*
G75*
G02*
X139013300Y-142857700I51000J0D01*
G01*
G37*
G36*
G01*
X138513300Y-142857700D02*
X138813300Y-142857700D01*
G75*
G02*
X138864300Y-142908700I0J-51000D01*
G01*
X138864300Y-144308700D01*
G75*
G02*
X138813300Y-144359700I-51000J0D01*
G01*
X138513300Y-144359700D01*
G75*
G02*
X138462300Y-144308700I0J51000D01*
G01*
X138462300Y-142908700D01*
G75*
G02*
X138513300Y-142857700I51000J0D01*
G01*
G37*
G36*
G01*
X138013300Y-142857700D02*
X138313300Y-142857700D01*
G75*
G02*
X138364300Y-142908700I0J-51000D01*
G01*
X138364300Y-144308700D01*
G75*
G02*
X138313300Y-144359700I-51000J0D01*
G01*
X138013300Y-144359700D01*
G75*
G02*
X137962300Y-144308700I0J51000D01*
G01*
X137962300Y-142908700D01*
G75*
G02*
X138013300Y-142857700I51000J0D01*
G01*
G37*
G36*
G01*
X137513300Y-142857700D02*
X137813300Y-142857700D01*
G75*
G02*
X137864300Y-142908700I0J-51000D01*
G01*
X137864300Y-144308700D01*
G75*
G02*
X137813300Y-144359700I-51000J0D01*
G01*
X137513300Y-144359700D01*
G75*
G02*
X137462300Y-144308700I0J51000D01*
G01*
X137462300Y-142908700D01*
G75*
G02*
X137513300Y-142857700I51000J0D01*
G01*
G37*
G36*
G01*
X137013300Y-142857700D02*
X137313300Y-142857700D01*
G75*
G02*
X137364300Y-142908700I0J-51000D01*
G01*
X137364300Y-144308700D01*
G75*
G02*
X137313300Y-144359700I-51000J0D01*
G01*
X137013300Y-144359700D01*
G75*
G02*
X136962300Y-144308700I0J51000D01*
G01*
X136962300Y-142908700D01*
G75*
G02*
X137013300Y-142857700I51000J0D01*
G01*
G37*
G36*
G01*
X137013300Y-147257700D02*
X137313300Y-147257700D01*
G75*
G02*
X137364300Y-147308700I0J-51000D01*
G01*
X137364300Y-148708700D01*
G75*
G02*
X137313300Y-148759700I-51000J0D01*
G01*
X137013300Y-148759700D01*
G75*
G02*
X136962300Y-148708700I0J51000D01*
G01*
X136962300Y-147308700D01*
G75*
G02*
X137013300Y-147257700I51000J0D01*
G01*
G37*
G36*
G01*
X137513300Y-147257700D02*
X137813300Y-147257700D01*
G75*
G02*
X137864300Y-147308700I0J-51000D01*
G01*
X137864300Y-148708700D01*
G75*
G02*
X137813300Y-148759700I-51000J0D01*
G01*
X137513300Y-148759700D01*
G75*
G02*
X137462300Y-148708700I0J51000D01*
G01*
X137462300Y-147308700D01*
G75*
G02*
X137513300Y-147257700I51000J0D01*
G01*
G37*
G36*
G01*
X138013300Y-147257700D02*
X138313300Y-147257700D01*
G75*
G02*
X138364300Y-147308700I0J-51000D01*
G01*
X138364300Y-148708700D01*
G75*
G02*
X138313300Y-148759700I-51000J0D01*
G01*
X138013300Y-148759700D01*
G75*
G02*
X137962300Y-148708700I0J51000D01*
G01*
X137962300Y-147308700D01*
G75*
G02*
X138013300Y-147257700I51000J0D01*
G01*
G37*
G36*
G01*
X138513300Y-147257700D02*
X138813300Y-147257700D01*
G75*
G02*
X138864300Y-147308700I0J-51000D01*
G01*
X138864300Y-148708700D01*
G75*
G02*
X138813300Y-148759700I-51000J0D01*
G01*
X138513300Y-148759700D01*
G75*
G02*
X138462300Y-148708700I0J51000D01*
G01*
X138462300Y-147308700D01*
G75*
G02*
X138513300Y-147257700I51000J0D01*
G01*
G37*
G36*
G01*
X139013300Y-147257700D02*
X139313300Y-147257700D01*
G75*
G02*
X139364300Y-147308700I0J-51000D01*
G01*
X139364300Y-148708700D01*
G75*
G02*
X139313300Y-148759700I-51000J0D01*
G01*
X139013300Y-148759700D01*
G75*
G02*
X138962300Y-148708700I0J51000D01*
G01*
X138962300Y-147308700D01*
G75*
G02*
X139013300Y-147257700I51000J0D01*
G01*
G37*
G36*
G01*
X132669000Y-146475800D02*
X133269000Y-146475800D01*
G75*
G02*
X133320000Y-146526800I0J-51000D01*
G01*
X133320000Y-148026800D01*
G75*
G02*
X133269000Y-148077800I-51000J0D01*
G01*
X132669000Y-148077800D01*
G75*
G02*
X132618000Y-148026800I0J51000D01*
G01*
X132618000Y-146526800D01*
G75*
G02*
X132669000Y-146475800I51000J0D01*
G01*
G37*
G36*
G01*
X131399000Y-146475800D02*
X131999000Y-146475800D01*
G75*
G02*
X132050000Y-146526800I0J-51000D01*
G01*
X132050000Y-148026800D01*
G75*
G02*
X131999000Y-148077800I-51000J0D01*
G01*
X131399000Y-148077800D01*
G75*
G02*
X131348000Y-148026800I0J51000D01*
G01*
X131348000Y-146526800D01*
G75*
G02*
X131399000Y-146475800I51000J0D01*
G01*
G37*
G36*
G01*
X130129000Y-146475800D02*
X130729000Y-146475800D01*
G75*
G02*
X130780000Y-146526800I0J-51000D01*
G01*
X130780000Y-148026800D01*
G75*
G02*
X130729000Y-148077800I-51000J0D01*
G01*
X130129000Y-148077800D01*
G75*
G02*
X130078000Y-148026800I0J51000D01*
G01*
X130078000Y-146526800D01*
G75*
G02*
X130129000Y-146475800I51000J0D01*
G01*
G37*
G36*
G01*
X128859000Y-146475800D02*
X129459000Y-146475800D01*
G75*
G02*
X129510000Y-146526800I0J-51000D01*
G01*
X129510000Y-148026800D01*
G75*
G02*
X129459000Y-148077800I-51000J0D01*
G01*
X128859000Y-148077800D01*
G75*
G02*
X128808000Y-148026800I0J51000D01*
G01*
X128808000Y-146526800D01*
G75*
G02*
X128859000Y-146475800I51000J0D01*
G01*
G37*
G36*
G01*
X127589000Y-146475800D02*
X128189000Y-146475800D01*
G75*
G02*
X128240000Y-146526800I0J-51000D01*
G01*
X128240000Y-148026800D01*
G75*
G02*
X128189000Y-148077800I-51000J0D01*
G01*
X127589000Y-148077800D01*
G75*
G02*
X127538000Y-148026800I0J51000D01*
G01*
X127538000Y-146526800D01*
G75*
G02*
X127589000Y-146475800I51000J0D01*
G01*
G37*
G36*
G01*
X126319000Y-146475800D02*
X126919000Y-146475800D01*
G75*
G02*
X126970000Y-146526800I0J-51000D01*
G01*
X126970000Y-148026800D01*
G75*
G02*
X126919000Y-148077800I-51000J0D01*
G01*
X126319000Y-148077800D01*
G75*
G02*
X126268000Y-148026800I0J51000D01*
G01*
X126268000Y-146526800D01*
G75*
G02*
X126319000Y-146475800I51000J0D01*
G01*
G37*
G36*
G01*
X125049000Y-146475800D02*
X125649000Y-146475800D01*
G75*
G02*
X125700000Y-146526800I0J-51000D01*
G01*
X125700000Y-148026800D01*
G75*
G02*
X125649000Y-148077800I-51000J0D01*
G01*
X125049000Y-148077800D01*
G75*
G02*
X124998000Y-148026800I0J51000D01*
G01*
X124998000Y-146526800D01*
G75*
G02*
X125049000Y-146475800I51000J0D01*
G01*
G37*
G36*
G01*
X123779000Y-146475800D02*
X124379000Y-146475800D01*
G75*
G02*
X124430000Y-146526800I0J-51000D01*
G01*
X124430000Y-148026800D01*
G75*
G02*
X124379000Y-148077800I-51000J0D01*
G01*
X123779000Y-148077800D01*
G75*
G02*
X123728000Y-148026800I0J51000D01*
G01*
X123728000Y-146526800D01*
G75*
G02*
X123779000Y-146475800I51000J0D01*
G01*
G37*
G36*
G01*
X123779000Y-141075800D02*
X124379000Y-141075800D01*
G75*
G02*
X124430000Y-141126800I0J-51000D01*
G01*
X124430000Y-142626800D01*
G75*
G02*
X124379000Y-142677800I-51000J0D01*
G01*
X123779000Y-142677800D01*
G75*
G02*
X123728000Y-142626800I0J51000D01*
G01*
X123728000Y-141126800D01*
G75*
G02*
X123779000Y-141075800I51000J0D01*
G01*
G37*
G36*
G01*
X125049000Y-141075800D02*
X125649000Y-141075800D01*
G75*
G02*
X125700000Y-141126800I0J-51000D01*
G01*
X125700000Y-142626800D01*
G75*
G02*
X125649000Y-142677800I-51000J0D01*
G01*
X125049000Y-142677800D01*
G75*
G02*
X124998000Y-142626800I0J51000D01*
G01*
X124998000Y-141126800D01*
G75*
G02*
X125049000Y-141075800I51000J0D01*
G01*
G37*
G36*
G01*
X126319000Y-141075800D02*
X126919000Y-141075800D01*
G75*
G02*
X126970000Y-141126800I0J-51000D01*
G01*
X126970000Y-142626800D01*
G75*
G02*
X126919000Y-142677800I-51000J0D01*
G01*
X126319000Y-142677800D01*
G75*
G02*
X126268000Y-142626800I0J51000D01*
G01*
X126268000Y-141126800D01*
G75*
G02*
X126319000Y-141075800I51000J0D01*
G01*
G37*
G36*
G01*
X127589000Y-141075800D02*
X128189000Y-141075800D01*
G75*
G02*
X128240000Y-141126800I0J-51000D01*
G01*
X128240000Y-142626800D01*
G75*
G02*
X128189000Y-142677800I-51000J0D01*
G01*
X127589000Y-142677800D01*
G75*
G02*
X127538000Y-142626800I0J51000D01*
G01*
X127538000Y-141126800D01*
G75*
G02*
X127589000Y-141075800I51000J0D01*
G01*
G37*
G36*
G01*
X128859000Y-141075800D02*
X129459000Y-141075800D01*
G75*
G02*
X129510000Y-141126800I0J-51000D01*
G01*
X129510000Y-142626800D01*
G75*
G02*
X129459000Y-142677800I-51000J0D01*
G01*
X128859000Y-142677800D01*
G75*
G02*
X128808000Y-142626800I0J51000D01*
G01*
X128808000Y-141126800D01*
G75*
G02*
X128859000Y-141075800I51000J0D01*
G01*
G37*
G36*
G01*
X130129000Y-141075800D02*
X130729000Y-141075800D01*
G75*
G02*
X130780000Y-141126800I0J-51000D01*
G01*
X130780000Y-142626800D01*
G75*
G02*
X130729000Y-142677800I-51000J0D01*
G01*
X130129000Y-142677800D01*
G75*
G02*
X130078000Y-142626800I0J51000D01*
G01*
X130078000Y-141126800D01*
G75*
G02*
X130129000Y-141075800I51000J0D01*
G01*
G37*
G36*
G01*
X131399000Y-141075800D02*
X131999000Y-141075800D01*
G75*
G02*
X132050000Y-141126800I0J-51000D01*
G01*
X132050000Y-142626800D01*
G75*
G02*
X131999000Y-142677800I-51000J0D01*
G01*
X131399000Y-142677800D01*
G75*
G02*
X131348000Y-142626800I0J51000D01*
G01*
X131348000Y-141126800D01*
G75*
G02*
X131399000Y-141075800I51000J0D01*
G01*
G37*
G36*
G01*
X132669000Y-141075800D02*
X133269000Y-141075800D01*
G75*
G02*
X133320000Y-141126800I0J-51000D01*
G01*
X133320000Y-142626800D01*
G75*
G02*
X133269000Y-142677800I-51000J0D01*
G01*
X132669000Y-142677800D01*
G75*
G02*
X132618000Y-142626800I0J51000D01*
G01*
X132618000Y-141126800D01*
G75*
G02*
X132669000Y-141075800I51000J0D01*
G01*
G37*
G36*
G01*
X118473500Y-120490500D02*
X117873500Y-120490500D01*
G75*
G02*
X117822500Y-120439500I0J51000D01*
G01*
X117822500Y-118889500D01*
G75*
G02*
X117873500Y-118838500I51000J0D01*
G01*
X118473500Y-118838500D01*
G75*
G02*
X118524500Y-118889500I0J-51000D01*
G01*
X118524500Y-120439500D01*
G75*
G02*
X118473500Y-120490500I-51000J0D01*
G01*
G37*
G36*
G01*
X119743500Y-120490500D02*
X119143500Y-120490500D01*
G75*
G02*
X119092500Y-120439500I0J51000D01*
G01*
X119092500Y-118889500D01*
G75*
G02*
X119143500Y-118838500I51000J0D01*
G01*
X119743500Y-118838500D01*
G75*
G02*
X119794500Y-118889500I0J-51000D01*
G01*
X119794500Y-120439500D01*
G75*
G02*
X119743500Y-120490500I-51000J0D01*
G01*
G37*
G36*
G01*
X121013500Y-120490500D02*
X120413500Y-120490500D01*
G75*
G02*
X120362500Y-120439500I0J51000D01*
G01*
X120362500Y-118889500D01*
G75*
G02*
X120413500Y-118838500I51000J0D01*
G01*
X121013500Y-118838500D01*
G75*
G02*
X121064500Y-118889500I0J-51000D01*
G01*
X121064500Y-120439500D01*
G75*
G02*
X121013500Y-120490500I-51000J0D01*
G01*
G37*
G36*
G01*
X122283500Y-120490500D02*
X121683500Y-120490500D01*
G75*
G02*
X121632500Y-120439500I0J51000D01*
G01*
X121632500Y-118889500D01*
G75*
G02*
X121683500Y-118838500I51000J0D01*
G01*
X122283500Y-118838500D01*
G75*
G02*
X122334500Y-118889500I0J-51000D01*
G01*
X122334500Y-120439500D01*
G75*
G02*
X122283500Y-120490500I-51000J0D01*
G01*
G37*
G36*
G01*
X122283500Y-125890500D02*
X121683500Y-125890500D01*
G75*
G02*
X121632500Y-125839500I0J51000D01*
G01*
X121632500Y-124289500D01*
G75*
G02*
X121683500Y-124238500I51000J0D01*
G01*
X122283500Y-124238500D01*
G75*
G02*
X122334500Y-124289500I0J-51000D01*
G01*
X122334500Y-125839500D01*
G75*
G02*
X122283500Y-125890500I-51000J0D01*
G01*
G37*
G36*
G01*
X121013500Y-125890500D02*
X120413500Y-125890500D01*
G75*
G02*
X120362500Y-125839500I0J51000D01*
G01*
X120362500Y-124289500D01*
G75*
G02*
X120413500Y-124238500I51000J0D01*
G01*
X121013500Y-124238500D01*
G75*
G02*
X121064500Y-124289500I0J-51000D01*
G01*
X121064500Y-125839500D01*
G75*
G02*
X121013500Y-125890500I-51000J0D01*
G01*
G37*
G36*
G01*
X119743500Y-125890500D02*
X119143500Y-125890500D01*
G75*
G02*
X119092500Y-125839500I0J51000D01*
G01*
X119092500Y-124289500D01*
G75*
G02*
X119143500Y-124238500I51000J0D01*
G01*
X119743500Y-124238500D01*
G75*
G02*
X119794500Y-124289500I0J-51000D01*
G01*
X119794500Y-125839500D01*
G75*
G02*
X119743500Y-125890500I-51000J0D01*
G01*
G37*
G36*
G01*
X118473500Y-125890500D02*
X117873500Y-125890500D01*
G75*
G02*
X117822500Y-125839500I0J51000D01*
G01*
X117822500Y-124289500D01*
G75*
G02*
X117873500Y-124238500I51000J0D01*
G01*
X118473500Y-124238500D01*
G75*
G02*
X118524500Y-124289500I0J-51000D01*
G01*
X118524500Y-125839500D01*
G75*
G02*
X118473500Y-125890500I-51000J0D01*
G01*
G37*
G36*
G01*
X144077499Y-143881500D02*
X145277501Y-143881500D01*
G75*
G02*
X145328500Y-143932499I0J-50999D01*
G01*
X145328500Y-145332501D01*
G75*
G02*
X145277501Y-145383500I-50999J0D01*
G01*
X144077499Y-145383500D01*
G75*
G02*
X144026500Y-145332501I0J50999D01*
G01*
X144026500Y-143932499D01*
G75*
G02*
X144077499Y-143881500I50999J0D01*
G01*
G37*
G36*
G01*
X144077499Y-146081500D02*
X145277501Y-146081500D01*
G75*
G02*
X145328500Y-146132499I0J-50999D01*
G01*
X145328500Y-147532501D01*
G75*
G02*
X145277501Y-147583500I-50999J0D01*
G01*
X144077499Y-147583500D01*
G75*
G02*
X144026500Y-147532501I0J50999D01*
G01*
X144026500Y-146132499D01*
G75*
G02*
X144077499Y-146081500I50999J0D01*
G01*
G37*
G36*
G01*
X142377499Y-146081500D02*
X143577501Y-146081500D01*
G75*
G02*
X143628500Y-146132499I0J-50999D01*
G01*
X143628500Y-147532501D01*
G75*
G02*
X143577501Y-147583500I-50999J0D01*
G01*
X142377499Y-147583500D01*
G75*
G02*
X142326500Y-147532501I0J50999D01*
G01*
X142326500Y-146132499D01*
G75*
G02*
X142377499Y-146081500I50999J0D01*
G01*
G37*
G36*
G01*
X142377499Y-143881500D02*
X143577501Y-143881500D01*
G75*
G02*
X143628500Y-143932499I0J-50999D01*
G01*
X143628500Y-145332501D01*
G75*
G02*
X143577501Y-145383500I-50999J0D01*
G01*
X142377499Y-145383500D01*
G75*
G02*
X142326500Y-145332501I0J50999D01*
G01*
X142326500Y-143932499D01*
G75*
G02*
X142377499Y-143881500I50999J0D01*
G01*
G37*
D17*
X99060000Y-147066000D03*
X175196500Y-147066000D03*
X127635000Y-118808500D03*
X175196500Y-118808500D03*
D18*
X104368600Y-129705100D03*
X104368600Y-119545100D03*
D19*
X109448600Y-124625100D03*
X109448600Y-127165100D03*
D20*
G36*
X138464032Y-147256700D02*
G01*
X138464300Y-147257700D01*
X138464300Y-148759700D01*
X138463300Y-148761432D01*
X138462300Y-148761700D01*
X138364300Y-148761700D01*
X138362568Y-148760700D01*
X138362300Y-148759700D01*
X138362300Y-147257700D01*
X138363300Y-147255968D01*
X138364300Y-147255700D01*
X138462300Y-147255700D01*
X138464032Y-147256700D01*
G37*
G36*
X137964032Y-147256700D02*
G01*
X137964300Y-147257700D01*
X137964300Y-148759700D01*
X137963300Y-148761432D01*
X137962300Y-148761700D01*
X137864300Y-148761700D01*
X137862568Y-148760700D01*
X137862300Y-148759700D01*
X137862300Y-147257700D01*
X137863300Y-147255968D01*
X137864300Y-147255700D01*
X137962300Y-147255700D01*
X137964032Y-147256700D01*
G37*
G36*
X137464032Y-147256700D02*
G01*
X137464300Y-147257700D01*
X137464300Y-148759700D01*
X137463300Y-148761432D01*
X137462300Y-148761700D01*
X137364300Y-148761700D01*
X137362568Y-148760700D01*
X137362300Y-148759700D01*
X137362300Y-147257700D01*
X137363300Y-147255968D01*
X137364300Y-147255700D01*
X137462300Y-147255700D01*
X137464032Y-147256700D01*
G37*
G36*
X138964032Y-147256700D02*
G01*
X138964300Y-147257700D01*
X138964300Y-148759700D01*
X138963300Y-148761432D01*
X138962300Y-148761700D01*
X138864300Y-148761700D01*
X138862568Y-148760700D01*
X138862300Y-148759700D01*
X138862300Y-147257700D01*
X138863300Y-147255968D01*
X138864300Y-147255700D01*
X138962300Y-147255700D01*
X138964032Y-147256700D01*
G37*
G36*
X137464032Y-142856700D02*
G01*
X137464300Y-142857700D01*
X137464300Y-144359700D01*
X137463300Y-144361432D01*
X137462300Y-144361700D01*
X137364300Y-144361700D01*
X137362568Y-144360700D01*
X137362300Y-144359700D01*
X137362300Y-142857700D01*
X137363300Y-142855968D01*
X137364300Y-142855700D01*
X137462300Y-142855700D01*
X137464032Y-142856700D01*
G37*
G36*
X137964032Y-142856700D02*
G01*
X137964300Y-142857700D01*
X137964300Y-144359700D01*
X137963300Y-144361432D01*
X137962300Y-144361700D01*
X137864300Y-144361700D01*
X137862568Y-144360700D01*
X137862300Y-144359700D01*
X137862300Y-142857700D01*
X137863300Y-142855968D01*
X137864300Y-142855700D01*
X137962300Y-142855700D01*
X137964032Y-142856700D01*
G37*
G36*
X138464032Y-142856700D02*
G01*
X138464300Y-142857700D01*
X138464300Y-144359700D01*
X138463300Y-144361432D01*
X138462300Y-144361700D01*
X138364300Y-144361700D01*
X138362568Y-144360700D01*
X138362300Y-144359700D01*
X138362300Y-142857700D01*
X138363300Y-142855968D01*
X138364300Y-142855700D01*
X138462300Y-142855700D01*
X138464032Y-142856700D01*
G37*
G36*
X138964032Y-142856700D02*
G01*
X138964300Y-142857700D01*
X138964300Y-144359700D01*
X138963300Y-144361432D01*
X138962300Y-144361700D01*
X138864300Y-144361700D01*
X138862568Y-144360700D01*
X138862300Y-144359700D01*
X138862300Y-142857700D01*
X138863300Y-142855968D01*
X138864300Y-142855700D01*
X138962300Y-142855700D01*
X138964032Y-142856700D01*
G37*
M02*
