G04 #@! TF.GenerationSoftware,KiCad,Pcbnew,(5.1.9)-1*
G04 #@! TF.CreationDate,2021-05-04T19:46:14-07:00*
G04 #@! TF.ProjectId,SDRReciever,53445252-6563-4696-9576-65722e6b6963,1*
G04 #@! TF.SameCoordinates,Original*
G04 #@! TF.FileFunction,Soldermask,Bot*
G04 #@! TF.FilePolarity,Negative*
%FSLAX46Y46*%
G04 Gerber Fmt 4.6, Leading zero omitted, Abs format (unit mm)*
G04 Created by KiCad (PCBNEW (5.1.9)-1) date 2021-05-04 19:46:14*
%MOMM*%
%LPD*%
G01*
G04 APERTURE LIST*
%ADD10O,1.702000X1.702000*%
%ADD11O,2.702000X1.402000*%
%ADD12O,1.402000X2.702000*%
%ADD13C,1.302000*%
%ADD14O,1.802000X1.802000*%
%ADD15C,2.702000*%
%ADD16C,2.102000*%
%ADD17C,4.502000*%
%ADD18O,7.102000X3.602000*%
%ADD19O,2.602000X1.702000*%
G04 APERTURE END LIST*
G36*
G01*
X140461900Y-140855800D02*
X138861900Y-140855800D01*
G75*
G02*
X138810900Y-140804800I0J51000D01*
G01*
X138810900Y-139204800D01*
G75*
G02*
X138861900Y-139153800I51000J0D01*
G01*
X140461900Y-139153800D01*
G75*
G02*
X140512900Y-139204800I0J-51000D01*
G01*
X140512900Y-140804800D01*
G75*
G02*
X140461900Y-140855800I-51000J0D01*
G01*
G37*
D10*
X172681900Y-124764800D03*
X142201900Y-140004800D03*
X170141900Y-124764800D03*
X144741900Y-140004800D03*
X167601900Y-124764800D03*
X147281900Y-140004800D03*
X165061900Y-124764800D03*
X149821900Y-140004800D03*
X162521900Y-124764800D03*
X152361900Y-140004800D03*
X159981900Y-124764800D03*
X154901900Y-140004800D03*
X157441900Y-124764800D03*
X157441900Y-140004800D03*
X154901900Y-124764800D03*
X159981900Y-140004800D03*
X152361900Y-124764800D03*
X162521900Y-140004800D03*
X149821900Y-124764800D03*
X165061900Y-140004800D03*
X147281900Y-124764800D03*
X167601900Y-140004800D03*
X144741900Y-124764800D03*
X170141900Y-140004800D03*
X142201900Y-124764800D03*
X172681900Y-140004800D03*
X139661900Y-124764800D03*
X175221900Y-140004800D03*
X175221900Y-124764800D03*
G36*
G01*
X152578500Y-120484000D02*
X152578500Y-118784000D01*
G75*
G02*
X152629500Y-118733000I51000J0D01*
G01*
X154329500Y-118733000D01*
G75*
G02*
X154380500Y-118784000I0J-51000D01*
G01*
X154380500Y-120484000D01*
G75*
G02*
X154329500Y-120535000I-51000J0D01*
G01*
X152629500Y-120535000D01*
G75*
G02*
X152578500Y-120484000I0J51000D01*
G01*
G37*
G36*
G01*
X98984500Y-134771500D02*
X98984500Y-133071500D01*
G75*
G02*
X99035500Y-133020500I51000J0D01*
G01*
X100735500Y-133020500D01*
G75*
G02*
X100786500Y-133071500I0J-51000D01*
G01*
X100786500Y-134771500D01*
G75*
G02*
X100735500Y-134822500I-51000J0D01*
G01*
X99035500Y-134822500D01*
G75*
G02*
X98984500Y-134771500I0J51000D01*
G01*
G37*
G36*
G01*
X167945500Y-120547500D02*
X167945500Y-118847500D01*
G75*
G02*
X167996500Y-118796500I51000J0D01*
G01*
X169696500Y-118796500D01*
G75*
G02*
X169747500Y-118847500I0J-51000D01*
G01*
X169747500Y-120547500D01*
G75*
G02*
X169696500Y-120598500I-51000J0D01*
G01*
X167996500Y-120598500D01*
G75*
G02*
X167945500Y-120547500I0J51000D01*
G01*
G37*
G36*
G01*
X156896500Y-120547500D02*
X156896500Y-118847500D01*
G75*
G02*
X156947500Y-118796500I51000J0D01*
G01*
X158647500Y-118796500D01*
G75*
G02*
X158698500Y-118847500I0J-51000D01*
G01*
X158698500Y-120547500D01*
G75*
G02*
X158647500Y-120598500I-51000J0D01*
G01*
X156947500Y-120598500D01*
G75*
G02*
X156896500Y-120547500I0J51000D01*
G01*
G37*
G36*
G01*
X110021000Y-136132000D02*
X111721000Y-136132000D01*
G75*
G02*
X111772000Y-136183000I0J-51000D01*
G01*
X111772000Y-137883000D01*
G75*
G02*
X111721000Y-137934000I-51000J0D01*
G01*
X110021000Y-137934000D01*
G75*
G02*
X109970000Y-137883000I0J51000D01*
G01*
X109970000Y-136183000D01*
G75*
G02*
X110021000Y-136132000I51000J0D01*
G01*
G37*
G36*
G01*
X150761000Y-143104500D02*
X150761000Y-144804500D01*
G75*
G02*
X150710000Y-144855500I-51000J0D01*
G01*
X149010000Y-144855500D01*
G75*
G02*
X148959000Y-144804500I0J51000D01*
G01*
X148959000Y-143104500D01*
G75*
G02*
X149010000Y-143053500I51000J0D01*
G01*
X150710000Y-143053500D01*
G75*
G02*
X150761000Y-143104500I0J-51000D01*
G01*
G37*
G36*
G01*
X159460500Y-143104500D02*
X159460500Y-144804500D01*
G75*
G02*
X159409500Y-144855500I-51000J0D01*
G01*
X157709500Y-144855500D01*
G75*
G02*
X157658500Y-144804500I0J51000D01*
G01*
X157658500Y-143104500D01*
G75*
G02*
X157709500Y-143053500I51000J0D01*
G01*
X159409500Y-143053500D01*
G75*
G02*
X159460500Y-143104500I0J-51000D01*
G01*
G37*
G36*
G01*
X155079000Y-143104500D02*
X155079000Y-144804500D01*
G75*
G02*
X155028000Y-144855500I-51000J0D01*
G01*
X153328000Y-144855500D01*
G75*
G02*
X153277000Y-144804500I0J51000D01*
G01*
X153277000Y-143104500D01*
G75*
G02*
X153328000Y-143053500I51000J0D01*
G01*
X155028000Y-143053500D01*
G75*
G02*
X155079000Y-143104500I0J-51000D01*
G01*
G37*
G36*
G01*
X113487900Y-130440800D02*
X113487900Y-128740800D01*
G75*
G02*
X113538900Y-128689800I51000J0D01*
G01*
X115238900Y-128689800D01*
G75*
G02*
X115289900Y-128740800I0J-51000D01*
G01*
X115289900Y-130440800D01*
G75*
G02*
X115238900Y-130491800I-51000J0D01*
G01*
X113538900Y-130491800D01*
G75*
G02*
X113487900Y-130440800I0J51000D01*
G01*
G37*
G36*
G01*
X117678900Y-130440800D02*
X117678900Y-128740800D01*
G75*
G02*
X117729900Y-128689800I51000J0D01*
G01*
X119429900Y-128689800D01*
G75*
G02*
X119480900Y-128740800I0J-51000D01*
G01*
X119480900Y-130440800D01*
G75*
G02*
X119429900Y-130491800I-51000J0D01*
G01*
X117729900Y-130491800D01*
G75*
G02*
X117678900Y-130440800I0J51000D01*
G01*
G37*
G36*
G01*
X121984200Y-130364600D02*
X121984200Y-128664600D01*
G75*
G02*
X122035200Y-128613600I51000J0D01*
G01*
X123735200Y-128613600D01*
G75*
G02*
X123786200Y-128664600I0J-51000D01*
G01*
X123786200Y-130364600D01*
G75*
G02*
X123735200Y-130415600I-51000J0D01*
G01*
X122035200Y-130415600D01*
G75*
G02*
X121984200Y-130364600I0J51000D01*
G01*
G37*
G36*
G01*
X126111700Y-130339200D02*
X126111700Y-128639200D01*
G75*
G02*
X126162700Y-128588200I51000J0D01*
G01*
X127862700Y-128588200D01*
G75*
G02*
X127913700Y-128639200I0J-51000D01*
G01*
X127913700Y-130339200D01*
G75*
G02*
X127862700Y-130390200I-51000J0D01*
G01*
X126162700Y-130390200D01*
G75*
G02*
X126111700Y-130339200I0J51000D01*
G01*
G37*
D11*
X167932600Y-127435600D03*
X167932600Y-137435600D03*
X167932600Y-134935600D03*
X167932600Y-129935600D03*
D12*
X172932600Y-132435600D03*
D13*
X167932600Y-132435600D03*
X172932600Y-137435600D03*
X175432600Y-137435600D03*
X172932600Y-127435600D03*
X175432600Y-127435600D03*
D14*
X113893600Y-124460000D03*
G36*
G01*
X112992600Y-122770000D02*
X112992600Y-121070000D01*
G75*
G02*
X113043600Y-121019000I51000J0D01*
G01*
X114743600Y-121019000D01*
G75*
G02*
X114794600Y-121070000I0J-51000D01*
G01*
X114794600Y-122770000D01*
G75*
G02*
X114743600Y-122821000I-51000J0D01*
G01*
X113043600Y-122821000D01*
G75*
G02*
X112992600Y-122770000I0J51000D01*
G01*
G37*
X164592000Y-119570500D03*
G36*
G01*
X162902000Y-120471500D02*
X161202000Y-120471500D01*
G75*
G02*
X161151000Y-120420500I0J51000D01*
G01*
X161151000Y-118720500D01*
G75*
G02*
X161202000Y-118669500I51000J0D01*
G01*
X162902000Y-118669500D01*
G75*
G02*
X162953000Y-118720500I0J-51000D01*
G01*
X162953000Y-120420500D01*
G75*
G02*
X162902000Y-120471500I-51000J0D01*
G01*
G37*
G36*
G01*
X164567500Y-143053500D02*
X166267500Y-143053500D01*
G75*
G02*
X166318500Y-143104500I0J-51000D01*
G01*
X166318500Y-144804500D01*
G75*
G02*
X166267500Y-144855500I-51000J0D01*
G01*
X164567500Y-144855500D01*
G75*
G02*
X164516500Y-144804500I0J51000D01*
G01*
X164516500Y-143104500D01*
G75*
G02*
X164567500Y-143053500I51000J0D01*
G01*
G37*
X162877500Y-143954500D03*
G36*
G01*
X171362000Y-143053500D02*
X173062000Y-143053500D01*
G75*
G02*
X173113000Y-143104500I0J-51000D01*
G01*
X173113000Y-144804500D01*
G75*
G02*
X173062000Y-144855500I-51000J0D01*
G01*
X171362000Y-144855500D01*
G75*
G02*
X171311000Y-144804500I0J51000D01*
G01*
X171311000Y-143104500D01*
G75*
G02*
X171362000Y-143053500I51000J0D01*
G01*
G37*
X169672000Y-143954500D03*
D15*
X103758300Y-142316200D03*
X98158300Y-142316200D03*
D16*
X111861600Y-144233900D03*
X106781600Y-144233900D03*
D15*
X114922300Y-142824200D03*
X120522300Y-142824200D03*
D17*
X99060000Y-147066000D03*
X175196500Y-147066000D03*
X127635000Y-118808500D03*
X175196500Y-118808500D03*
D18*
X104368600Y-129705100D03*
X104368600Y-119545100D03*
D19*
X109448600Y-124625100D03*
X109448600Y-127165100D03*
M02*
