G04 #@! TF.GenerationSoftware,KiCad,Pcbnew,(5.1.9)-1*
G04 #@! TF.CreationDate,2021-05-04T19:46:14-07:00*
G04 #@! TF.ProjectId,SDRReciever,53445252-6563-4696-9576-65722e6b6963,1*
G04 #@! TF.SameCoordinates,Original*
G04 #@! TF.FileFunction,Legend,Top*
G04 #@! TF.FilePolarity,Positive*
%FSLAX46Y46*%
G04 Gerber Fmt 4.6, Leading zero omitted, Abs format (unit mm)*
G04 Created by KiCad (PCBNEW (5.1.9)-1) date 2021-05-04 19:46:14*
%MOMM*%
%LPD*%
G01*
G04 APERTURE LIST*
%ADD10C,0.150000*%
%ADD11C,0.125000*%
%ADD12C,0.120000*%
%ADD13C,0.304800*%
%ADD14C,0.127000*%
%ADD15C,0.100000*%
%ADD16C,0.130000*%
%ADD17C,0.015000*%
G04 APERTURE END LIST*
D10*
X131148780Y-117488309D02*
X131263066Y-117526404D01*
X131453542Y-117526404D01*
X131529733Y-117488309D01*
X131567828Y-117450214D01*
X131605923Y-117374023D01*
X131605923Y-117297833D01*
X131567828Y-117221642D01*
X131529733Y-117183547D01*
X131453542Y-117145452D01*
X131301161Y-117107357D01*
X131224971Y-117069261D01*
X131186876Y-117031166D01*
X131148780Y-116954976D01*
X131148780Y-116878785D01*
X131186876Y-116802595D01*
X131224971Y-116764500D01*
X131301161Y-116726404D01*
X131491638Y-116726404D01*
X131605923Y-116764500D01*
X132063066Y-117526404D02*
X131986876Y-117488309D01*
X131948780Y-117450214D01*
X131910685Y-117374023D01*
X131910685Y-117145452D01*
X131948780Y-117069261D01*
X131986876Y-117031166D01*
X132063066Y-116993071D01*
X132177352Y-116993071D01*
X132253542Y-117031166D01*
X132291638Y-117069261D01*
X132329733Y-117145452D01*
X132329733Y-117374023D01*
X132291638Y-117450214D01*
X132253542Y-117488309D01*
X132177352Y-117526404D01*
X132063066Y-117526404D01*
X132558304Y-116993071D02*
X132863066Y-116993071D01*
X132672590Y-117526404D02*
X132672590Y-116840690D01*
X132710685Y-116764500D01*
X132786876Y-116726404D01*
X132863066Y-116726404D01*
X133015447Y-116993071D02*
X133320209Y-116993071D01*
X133129733Y-116726404D02*
X133129733Y-117412119D01*
X133167828Y-117488309D01*
X133244019Y-117526404D01*
X133320209Y-117526404D01*
X133510685Y-116993071D02*
X133663066Y-117526404D01*
X133815447Y-117145452D01*
X133967828Y-117526404D01*
X134120209Y-116993071D01*
X134767828Y-117526404D02*
X134767828Y-117107357D01*
X134729733Y-117031166D01*
X134653542Y-116993071D01*
X134501161Y-116993071D01*
X134424971Y-117031166D01*
X134767828Y-117488309D02*
X134691638Y-117526404D01*
X134501161Y-117526404D01*
X134424971Y-117488309D01*
X134386876Y-117412119D01*
X134386876Y-117335928D01*
X134424971Y-117259738D01*
X134501161Y-117221642D01*
X134691638Y-117221642D01*
X134767828Y-117183547D01*
X135148780Y-117526404D02*
X135148780Y-116993071D01*
X135148780Y-117145452D02*
X135186876Y-117069261D01*
X135224971Y-117031166D01*
X135301161Y-116993071D01*
X135377352Y-116993071D01*
X135948780Y-117488309D02*
X135872590Y-117526404D01*
X135720209Y-117526404D01*
X135644019Y-117488309D01*
X135605923Y-117412119D01*
X135605923Y-117107357D01*
X135644019Y-117031166D01*
X135720209Y-116993071D01*
X135872590Y-116993071D01*
X135948780Y-117031166D01*
X135986876Y-117107357D01*
X135986876Y-117183547D01*
X135605923Y-117259738D01*
X136939257Y-117526404D02*
X136939257Y-116726404D01*
X137129733Y-116726404D01*
X137244019Y-116764500D01*
X137320209Y-116840690D01*
X137358304Y-116916880D01*
X137396400Y-117069261D01*
X137396400Y-117183547D01*
X137358304Y-117335928D01*
X137320209Y-117412119D01*
X137244019Y-117488309D01*
X137129733Y-117526404D01*
X136939257Y-117526404D01*
X138044019Y-117488309D02*
X137967828Y-117526404D01*
X137815447Y-117526404D01*
X137739257Y-117488309D01*
X137701161Y-117412119D01*
X137701161Y-117107357D01*
X137739257Y-117031166D01*
X137815447Y-116993071D01*
X137967828Y-116993071D01*
X138044019Y-117031166D01*
X138082114Y-117107357D01*
X138082114Y-117183547D01*
X137701161Y-117259738D01*
X138310685Y-116993071D02*
X138615447Y-116993071D01*
X138424971Y-117526404D02*
X138424971Y-116840690D01*
X138463066Y-116764500D01*
X138539257Y-116726404D01*
X138615447Y-116726404D01*
X138882114Y-117526404D02*
X138882114Y-116993071D01*
X138882114Y-116726404D02*
X138844019Y-116764500D01*
X138882114Y-116802595D01*
X138920209Y-116764500D01*
X138882114Y-116726404D01*
X138882114Y-116802595D01*
X139263066Y-116993071D02*
X139263066Y-117526404D01*
X139263066Y-117069261D02*
X139301161Y-117031166D01*
X139377352Y-116993071D01*
X139491638Y-116993071D01*
X139567828Y-117031166D01*
X139605923Y-117107357D01*
X139605923Y-117526404D01*
X140291638Y-117488309D02*
X140215447Y-117526404D01*
X140063066Y-117526404D01*
X139986876Y-117488309D01*
X139948780Y-117412119D01*
X139948780Y-117107357D01*
X139986876Y-117031166D01*
X140063066Y-116993071D01*
X140215447Y-116993071D01*
X140291638Y-117031166D01*
X140329733Y-117107357D01*
X140329733Y-117183547D01*
X139948780Y-117259738D01*
X141015447Y-117526404D02*
X141015447Y-116726404D01*
X141015447Y-117488309D02*
X140939257Y-117526404D01*
X140786876Y-117526404D01*
X140710685Y-117488309D01*
X140672590Y-117450214D01*
X140634495Y-117374023D01*
X140634495Y-117145452D01*
X140672590Y-117069261D01*
X140710685Y-117031166D01*
X140786876Y-116993071D01*
X140939257Y-116993071D01*
X141015447Y-117031166D01*
X142463066Y-117526404D02*
X142196400Y-117145452D01*
X142005923Y-117526404D02*
X142005923Y-116726404D01*
X142310685Y-116726404D01*
X142386876Y-116764500D01*
X142424971Y-116802595D01*
X142463066Y-116878785D01*
X142463066Y-116993071D01*
X142424971Y-117069261D01*
X142386876Y-117107357D01*
X142310685Y-117145452D01*
X142005923Y-117145452D01*
X143148780Y-117526404D02*
X143148780Y-117107357D01*
X143110685Y-117031166D01*
X143034495Y-116993071D01*
X142882114Y-116993071D01*
X142805923Y-117031166D01*
X143148780Y-117488309D02*
X143072590Y-117526404D01*
X142882114Y-117526404D01*
X142805923Y-117488309D01*
X142767828Y-117412119D01*
X142767828Y-117335928D01*
X142805923Y-117259738D01*
X142882114Y-117221642D01*
X143072590Y-117221642D01*
X143148780Y-117183547D01*
X143872590Y-117526404D02*
X143872590Y-116726404D01*
X143872590Y-117488309D02*
X143796400Y-117526404D01*
X143644019Y-117526404D01*
X143567828Y-117488309D01*
X143529733Y-117450214D01*
X143491638Y-117374023D01*
X143491638Y-117145452D01*
X143529733Y-117069261D01*
X143567828Y-117031166D01*
X143644019Y-116993071D01*
X143796400Y-116993071D01*
X143872590Y-117031166D01*
X144253542Y-117526404D02*
X144253542Y-116993071D01*
X144253542Y-116726404D02*
X144215447Y-116764500D01*
X144253542Y-116802595D01*
X144291638Y-116764500D01*
X144253542Y-116726404D01*
X144253542Y-116802595D01*
X144748780Y-117526404D02*
X144672590Y-117488309D01*
X144634495Y-117450214D01*
X144596400Y-117374023D01*
X144596400Y-117145452D01*
X144634495Y-117069261D01*
X144672590Y-117031166D01*
X144748780Y-116993071D01*
X144863066Y-116993071D01*
X144939257Y-117031166D01*
X144977352Y-117069261D01*
X145015447Y-117145452D01*
X145015447Y-117374023D01*
X144977352Y-117450214D01*
X144939257Y-117488309D01*
X144863066Y-117526404D01*
X144748780Y-117526404D01*
X146424971Y-117526404D02*
X146158304Y-117145452D01*
X145967828Y-117526404D02*
X145967828Y-116726404D01*
X146272590Y-116726404D01*
X146348780Y-116764500D01*
X146386876Y-116802595D01*
X146424971Y-116878785D01*
X146424971Y-116993071D01*
X146386876Y-117069261D01*
X146348780Y-117107357D01*
X146272590Y-117145452D01*
X145967828Y-117145452D01*
X147072590Y-117488309D02*
X146996400Y-117526404D01*
X146844019Y-117526404D01*
X146767828Y-117488309D01*
X146729733Y-117412119D01*
X146729733Y-117107357D01*
X146767828Y-117031166D01*
X146844019Y-116993071D01*
X146996400Y-116993071D01*
X147072590Y-117031166D01*
X147110685Y-117107357D01*
X147110685Y-117183547D01*
X146729733Y-117259738D01*
X147796400Y-117488309D02*
X147720209Y-117526404D01*
X147567828Y-117526404D01*
X147491638Y-117488309D01*
X147453542Y-117450214D01*
X147415447Y-117374023D01*
X147415447Y-117145452D01*
X147453542Y-117069261D01*
X147491638Y-117031166D01*
X147567828Y-116993071D01*
X147720209Y-116993071D01*
X147796400Y-117031166D01*
X148139257Y-117526404D02*
X148139257Y-116993071D01*
X148139257Y-116726404D02*
X148101161Y-116764500D01*
X148139257Y-116802595D01*
X148177352Y-116764500D01*
X148139257Y-116726404D01*
X148139257Y-116802595D01*
X148824971Y-117488309D02*
X148748780Y-117526404D01*
X148596400Y-117526404D01*
X148520209Y-117488309D01*
X148482114Y-117412119D01*
X148482114Y-117107357D01*
X148520209Y-117031166D01*
X148596400Y-116993071D01*
X148748780Y-116993071D01*
X148824971Y-117031166D01*
X148863066Y-117107357D01*
X148863066Y-117183547D01*
X148482114Y-117259738D01*
X149129733Y-116993071D02*
X149320209Y-117526404D01*
X149510685Y-116993071D01*
X150120209Y-117488309D02*
X150044019Y-117526404D01*
X149891638Y-117526404D01*
X149815447Y-117488309D01*
X149777352Y-117412119D01*
X149777352Y-117107357D01*
X149815447Y-117031166D01*
X149891638Y-116993071D01*
X150044019Y-116993071D01*
X150120209Y-117031166D01*
X150158304Y-117107357D01*
X150158304Y-117183547D01*
X149777352Y-117259738D01*
X150501161Y-117526404D02*
X150501161Y-116993071D01*
X150501161Y-117145452D02*
X150539257Y-117069261D01*
X150577352Y-117031166D01*
X150653542Y-116993071D01*
X150729733Y-116993071D01*
X131110685Y-118076404D02*
X131301161Y-118876404D01*
X131453542Y-118304976D01*
X131605923Y-118876404D01*
X131796400Y-118076404D01*
X132444019Y-118876404D02*
X132444019Y-118457357D01*
X132405923Y-118381166D01*
X132329733Y-118343071D01*
X132177352Y-118343071D01*
X132101161Y-118381166D01*
X132444019Y-118838309D02*
X132367828Y-118876404D01*
X132177352Y-118876404D01*
X132101161Y-118838309D01*
X132063066Y-118762119D01*
X132063066Y-118685928D01*
X132101161Y-118609738D01*
X132177352Y-118571642D01*
X132367828Y-118571642D01*
X132444019Y-118533547D01*
X132939257Y-118876404D02*
X132863066Y-118838309D01*
X132824971Y-118762119D01*
X132824971Y-118076404D01*
X133358304Y-118876404D02*
X133282114Y-118838309D01*
X133244019Y-118762119D01*
X133244019Y-118076404D01*
X134005923Y-118876404D02*
X134005923Y-118457357D01*
X133967828Y-118381166D01*
X133891638Y-118343071D01*
X133739257Y-118343071D01*
X133663066Y-118381166D01*
X134005923Y-118838309D02*
X133929733Y-118876404D01*
X133739257Y-118876404D01*
X133663066Y-118838309D01*
X133624971Y-118762119D01*
X133624971Y-118685928D01*
X133663066Y-118609738D01*
X133739257Y-118571642D01*
X133929733Y-118571642D01*
X134005923Y-118533547D01*
X134920209Y-118076404D02*
X135110685Y-118876404D01*
X135263066Y-118304976D01*
X135415447Y-118876404D01*
X135605923Y-118076404D01*
X136253542Y-118876404D02*
X136253542Y-118457357D01*
X136215447Y-118381166D01*
X136139257Y-118343071D01*
X135986876Y-118343071D01*
X135910685Y-118381166D01*
X136253542Y-118838309D02*
X136177352Y-118876404D01*
X135986876Y-118876404D01*
X135910685Y-118838309D01*
X135872590Y-118762119D01*
X135872590Y-118685928D01*
X135910685Y-118609738D01*
X135986876Y-118571642D01*
X136177352Y-118571642D01*
X136253542Y-118533547D01*
X136748780Y-118876404D02*
X136672590Y-118838309D01*
X136634495Y-118762119D01*
X136634495Y-118076404D01*
X137167828Y-118876404D02*
X137091638Y-118838309D01*
X137053542Y-118762119D01*
X137053542Y-118076404D01*
X137815447Y-118876404D02*
X137815447Y-118457357D01*
X137777352Y-118381166D01*
X137701161Y-118343071D01*
X137548780Y-118343071D01*
X137472590Y-118381166D01*
X137815447Y-118838309D02*
X137739257Y-118876404D01*
X137548780Y-118876404D01*
X137472590Y-118838309D01*
X137434495Y-118762119D01*
X137434495Y-118685928D01*
X137472590Y-118609738D01*
X137548780Y-118571642D01*
X137739257Y-118571642D01*
X137815447Y-118533547D01*
X138805923Y-118076404D02*
X138805923Y-118724023D01*
X138844019Y-118800214D01*
X138882114Y-118838309D01*
X138958304Y-118876404D01*
X139110685Y-118876404D01*
X139186876Y-118838309D01*
X139224971Y-118800214D01*
X139263066Y-118724023D01*
X139263066Y-118076404D01*
X139644019Y-118343071D02*
X139644019Y-118876404D01*
X139644019Y-118419261D02*
X139682114Y-118381166D01*
X139758304Y-118343071D01*
X139872590Y-118343071D01*
X139948780Y-118381166D01*
X139986876Y-118457357D01*
X139986876Y-118876404D01*
X140367828Y-118876404D02*
X140367828Y-118343071D01*
X140367828Y-118076404D02*
X140329733Y-118114500D01*
X140367828Y-118152595D01*
X140405923Y-118114500D01*
X140367828Y-118076404D01*
X140367828Y-118152595D01*
X140672590Y-118343071D02*
X140863066Y-118876404D01*
X141053542Y-118343071D01*
X141663066Y-118838309D02*
X141586876Y-118876404D01*
X141434495Y-118876404D01*
X141358304Y-118838309D01*
X141320209Y-118762119D01*
X141320209Y-118457357D01*
X141358304Y-118381166D01*
X141434495Y-118343071D01*
X141586876Y-118343071D01*
X141663066Y-118381166D01*
X141701161Y-118457357D01*
X141701161Y-118533547D01*
X141320209Y-118609738D01*
X142044019Y-118876404D02*
X142044019Y-118343071D01*
X142044019Y-118495452D02*
X142082114Y-118419261D01*
X142120209Y-118381166D01*
X142196400Y-118343071D01*
X142272590Y-118343071D01*
X142501161Y-118838309D02*
X142577352Y-118876404D01*
X142729733Y-118876404D01*
X142805923Y-118838309D01*
X142844019Y-118762119D01*
X142844019Y-118724023D01*
X142805923Y-118647833D01*
X142729733Y-118609738D01*
X142615447Y-118609738D01*
X142539257Y-118571642D01*
X142501161Y-118495452D01*
X142501161Y-118457357D01*
X142539257Y-118381166D01*
X142615447Y-118343071D01*
X142729733Y-118343071D01*
X142805923Y-118381166D01*
X143186876Y-118876404D02*
X143186876Y-118343071D01*
X143186876Y-118076404D02*
X143148780Y-118114500D01*
X143186876Y-118152595D01*
X143224971Y-118114500D01*
X143186876Y-118076404D01*
X143186876Y-118152595D01*
X143453542Y-118343071D02*
X143758304Y-118343071D01*
X143567828Y-118076404D02*
X143567828Y-118762119D01*
X143605923Y-118838309D01*
X143682114Y-118876404D01*
X143758304Y-118876404D01*
X143948780Y-118343071D02*
X144139257Y-118876404D01*
X144329733Y-118343071D02*
X144139257Y-118876404D01*
X144063066Y-119066880D01*
X144024971Y-119104976D01*
X143948780Y-119143071D01*
X145244019Y-118571642D02*
X145853542Y-118571642D01*
X146844019Y-118876404D02*
X146844019Y-118076404D01*
X147110685Y-118647833D01*
X147377352Y-118076404D01*
X147377352Y-118876404D01*
X148101161Y-118876404D02*
X148101161Y-118457357D01*
X148063066Y-118381166D01*
X147986876Y-118343071D01*
X147834495Y-118343071D01*
X147758304Y-118381166D01*
X148101161Y-118838309D02*
X148024971Y-118876404D01*
X147834495Y-118876404D01*
X147758304Y-118838309D01*
X147720209Y-118762119D01*
X147720209Y-118685928D01*
X147758304Y-118609738D01*
X147834495Y-118571642D01*
X148024971Y-118571642D01*
X148101161Y-118533547D01*
X148405923Y-118343071D02*
X148596400Y-118876404D01*
X148786876Y-118343071D02*
X148596400Y-118876404D01*
X148520209Y-119066880D01*
X148482114Y-119104976D01*
X148405923Y-119143071D01*
X149739257Y-118076404D02*
X149663066Y-118228785D01*
X150044019Y-118152595D02*
X150082114Y-118114500D01*
X150158304Y-118076404D01*
X150348780Y-118076404D01*
X150424971Y-118114500D01*
X150463066Y-118152595D01*
X150501161Y-118228785D01*
X150501161Y-118304976D01*
X150463066Y-118419261D01*
X150005923Y-118876404D01*
X150501161Y-118876404D01*
X151263066Y-118876404D02*
X150805923Y-118876404D01*
X151034495Y-118876404D02*
X151034495Y-118076404D01*
X150958304Y-118190690D01*
X150882114Y-118266880D01*
X150805923Y-118304976D01*
X131644019Y-120150214D02*
X131605923Y-120188309D01*
X131491638Y-120226404D01*
X131415447Y-120226404D01*
X131301161Y-120188309D01*
X131224971Y-120112119D01*
X131186876Y-120035928D01*
X131148780Y-119883547D01*
X131148780Y-119769261D01*
X131186876Y-119616880D01*
X131224971Y-119540690D01*
X131301161Y-119464500D01*
X131415447Y-119426404D01*
X131491638Y-119426404D01*
X131605923Y-119464500D01*
X131644019Y-119502595D01*
X132329733Y-120226404D02*
X132329733Y-119807357D01*
X132291638Y-119731166D01*
X132215447Y-119693071D01*
X132063066Y-119693071D01*
X131986876Y-119731166D01*
X132329733Y-120188309D02*
X132253542Y-120226404D01*
X132063066Y-120226404D01*
X131986876Y-120188309D01*
X131948780Y-120112119D01*
X131948780Y-120035928D01*
X131986876Y-119959738D01*
X132063066Y-119921642D01*
X132253542Y-119921642D01*
X132329733Y-119883547D01*
X132824971Y-120226404D02*
X132748780Y-120188309D01*
X132710685Y-120112119D01*
X132710685Y-119426404D01*
X133434495Y-120188309D02*
X133358304Y-120226404D01*
X133205923Y-120226404D01*
X133129733Y-120188309D01*
X133091638Y-120112119D01*
X133091638Y-119807357D01*
X133129733Y-119731166D01*
X133205923Y-119693071D01*
X133358304Y-119693071D01*
X133434495Y-119731166D01*
X133472590Y-119807357D01*
X133472590Y-119883547D01*
X133091638Y-119959738D01*
X133815447Y-120226404D02*
X133815447Y-119426404D01*
X133815447Y-119731166D02*
X133891638Y-119693071D01*
X134044019Y-119693071D01*
X134120209Y-119731166D01*
X134158304Y-119769261D01*
X134196400Y-119845452D01*
X134196400Y-120074023D01*
X134158304Y-120150214D01*
X134120209Y-120188309D01*
X134044019Y-120226404D01*
X133891638Y-120226404D01*
X133815447Y-120188309D01*
X135148780Y-120226404D02*
X135148780Y-119426404D01*
X135605923Y-120226404D01*
X135605923Y-119426404D01*
X136291638Y-120188309D02*
X136215447Y-120226404D01*
X136063066Y-120226404D01*
X135986876Y-120188309D01*
X135948780Y-120112119D01*
X135948780Y-119807357D01*
X135986876Y-119731166D01*
X136063066Y-119693071D01*
X136215447Y-119693071D01*
X136291638Y-119731166D01*
X136329733Y-119807357D01*
X136329733Y-119883547D01*
X135948780Y-119959738D01*
X136786876Y-120226404D02*
X136710685Y-120188309D01*
X136672590Y-120112119D01*
X136672590Y-119426404D01*
X137053542Y-120188309D02*
X137129733Y-120226404D01*
X137282114Y-120226404D01*
X137358304Y-120188309D01*
X137396400Y-120112119D01*
X137396400Y-120074023D01*
X137358304Y-119997833D01*
X137282114Y-119959738D01*
X137167828Y-119959738D01*
X137091638Y-119921642D01*
X137053542Y-119845452D01*
X137053542Y-119807357D01*
X137091638Y-119731166D01*
X137167828Y-119693071D01*
X137282114Y-119693071D01*
X137358304Y-119731166D01*
X137853542Y-120226404D02*
X137777352Y-120188309D01*
X137739257Y-120150214D01*
X137701161Y-120074023D01*
X137701161Y-119845452D01*
X137739257Y-119769261D01*
X137777352Y-119731166D01*
X137853542Y-119693071D01*
X137967828Y-119693071D01*
X138044019Y-119731166D01*
X138082114Y-119769261D01*
X138120209Y-119845452D01*
X138120209Y-120074023D01*
X138082114Y-120150214D01*
X138044019Y-120188309D01*
X137967828Y-120226404D01*
X137853542Y-120226404D01*
X138463066Y-119693071D02*
X138463066Y-120226404D01*
X138463066Y-119769261D02*
X138501161Y-119731166D01*
X138577352Y-119693071D01*
X138691638Y-119693071D01*
X138767828Y-119731166D01*
X138805923Y-119807357D01*
X138805923Y-120226404D01*
X139224971Y-120188309D02*
X139224971Y-120226404D01*
X139186876Y-120302595D01*
X139148780Y-120340690D01*
X140177352Y-119807357D02*
X140444019Y-119807357D01*
X140558304Y-120226404D02*
X140177352Y-120226404D01*
X140177352Y-119426404D01*
X140558304Y-119426404D01*
X140901161Y-120226404D02*
X140901161Y-119693071D01*
X140901161Y-119845452D02*
X140939257Y-119769261D01*
X140977352Y-119731166D01*
X141053542Y-119693071D01*
X141129733Y-119693071D01*
X141396400Y-120226404D02*
X141396400Y-119693071D01*
X141396400Y-119426404D02*
X141358304Y-119464500D01*
X141396400Y-119502595D01*
X141434495Y-119464500D01*
X141396400Y-119426404D01*
X141396400Y-119502595D01*
X142120209Y-120188309D02*
X142044019Y-120226404D01*
X141891638Y-120226404D01*
X141815447Y-120188309D01*
X141777352Y-120150214D01*
X141739257Y-120074023D01*
X141739257Y-119845452D01*
X141777352Y-119769261D01*
X141815447Y-119731166D01*
X141891638Y-119693071D01*
X142044019Y-119693071D01*
X142120209Y-119731166D01*
X142996400Y-119426404D02*
X143186876Y-120226404D01*
X143339257Y-119654976D01*
X143491638Y-120226404D01*
X143682114Y-119426404D01*
X144291638Y-120188309D02*
X144215447Y-120226404D01*
X144063066Y-120226404D01*
X143986876Y-120188309D01*
X143948780Y-120112119D01*
X143948780Y-119807357D01*
X143986876Y-119731166D01*
X144063066Y-119693071D01*
X144215447Y-119693071D01*
X144291638Y-119731166D01*
X144329733Y-119807357D01*
X144329733Y-119883547D01*
X143948780Y-119959738D01*
X144786876Y-120226404D02*
X144710685Y-120188309D01*
X144672590Y-120112119D01*
X144672590Y-119426404D01*
X145434495Y-120188309D02*
X145358304Y-120226404D01*
X145205923Y-120226404D01*
X145129733Y-120188309D01*
X145091638Y-120150214D01*
X145053542Y-120074023D01*
X145053542Y-119845452D01*
X145091638Y-119769261D01*
X145129733Y-119731166D01*
X145205923Y-119693071D01*
X145358304Y-119693071D01*
X145434495Y-119731166D01*
X145777352Y-120226404D02*
X145777352Y-119426404D01*
X146120209Y-120226404D02*
X146120209Y-119807357D01*
X146082114Y-119731166D01*
X146005923Y-119693071D01*
X145891638Y-119693071D01*
X145815447Y-119731166D01*
X145777352Y-119769261D01*
X146539257Y-120188309D02*
X146539257Y-120226404D01*
X146501161Y-120302595D01*
X146463066Y-120340690D01*
X131186876Y-121576404D02*
X131186876Y-120776404D01*
X131377352Y-120776404D01*
X131491638Y-120814500D01*
X131567828Y-120890690D01*
X131605923Y-120966880D01*
X131644019Y-121119261D01*
X131644019Y-121233547D01*
X131605923Y-121385928D01*
X131567828Y-121462119D01*
X131491638Y-121538309D01*
X131377352Y-121576404D01*
X131186876Y-121576404D01*
X132329733Y-121576404D02*
X132329733Y-121157357D01*
X132291638Y-121081166D01*
X132215447Y-121043071D01*
X132063066Y-121043071D01*
X131986876Y-121081166D01*
X132329733Y-121538309D02*
X132253542Y-121576404D01*
X132063066Y-121576404D01*
X131986876Y-121538309D01*
X131948780Y-121462119D01*
X131948780Y-121385928D01*
X131986876Y-121309738D01*
X132063066Y-121271642D01*
X132253542Y-121271642D01*
X132329733Y-121233547D01*
X132710685Y-121576404D02*
X132710685Y-121043071D01*
X132710685Y-121195452D02*
X132748780Y-121119261D01*
X132786876Y-121081166D01*
X132863066Y-121043071D01*
X132939257Y-121043071D01*
X133205923Y-121576404D02*
X133205923Y-121043071D01*
X133205923Y-120776404D02*
X133167828Y-120814500D01*
X133205923Y-120852595D01*
X133244019Y-120814500D01*
X133205923Y-120776404D01*
X133205923Y-120852595D01*
X133929733Y-121043071D02*
X133929733Y-121576404D01*
X133586876Y-121043071D02*
X133586876Y-121462119D01*
X133624971Y-121538309D01*
X133701161Y-121576404D01*
X133815447Y-121576404D01*
X133891638Y-121538309D01*
X133929733Y-121500214D01*
X134272590Y-121538309D02*
X134348780Y-121576404D01*
X134501161Y-121576404D01*
X134577352Y-121538309D01*
X134615447Y-121462119D01*
X134615447Y-121424023D01*
X134577352Y-121347833D01*
X134501161Y-121309738D01*
X134386876Y-121309738D01*
X134310685Y-121271642D01*
X134272590Y-121195452D01*
X134272590Y-121157357D01*
X134310685Y-121081166D01*
X134386876Y-121043071D01*
X134501161Y-121043071D01*
X134577352Y-121081166D01*
X135834495Y-121157357D02*
X135567828Y-121157357D01*
X135567828Y-121576404D02*
X135567828Y-120776404D01*
X135948780Y-120776404D01*
X136558304Y-121538309D02*
X136482114Y-121576404D01*
X136329733Y-121576404D01*
X136253542Y-121538309D01*
X136215447Y-121462119D01*
X136215447Y-121157357D01*
X136253542Y-121081166D01*
X136329733Y-121043071D01*
X136482114Y-121043071D01*
X136558304Y-121081166D01*
X136596400Y-121157357D01*
X136596400Y-121233547D01*
X136215447Y-121309738D01*
X137053542Y-121576404D02*
X136977352Y-121538309D01*
X136939257Y-121462119D01*
X136939257Y-120776404D01*
X137701161Y-121576404D02*
X137701161Y-120776404D01*
X137701161Y-121538309D02*
X137624971Y-121576404D01*
X137472590Y-121576404D01*
X137396400Y-121538309D01*
X137358304Y-121500214D01*
X137320209Y-121424023D01*
X137320209Y-121195452D01*
X137358304Y-121119261D01*
X137396400Y-121081166D01*
X137472590Y-121043071D01*
X137624971Y-121043071D01*
X137701161Y-121081166D01*
X138386876Y-121538309D02*
X138310685Y-121576404D01*
X138158304Y-121576404D01*
X138082114Y-121538309D01*
X138044019Y-121462119D01*
X138044019Y-121157357D01*
X138082114Y-121081166D01*
X138158304Y-121043071D01*
X138310685Y-121043071D01*
X138386876Y-121081166D01*
X138424971Y-121157357D01*
X138424971Y-121233547D01*
X138044019Y-121309738D01*
X138767828Y-121576404D02*
X138767828Y-121043071D01*
X138767828Y-121195452D02*
X138805923Y-121119261D01*
X138844019Y-121081166D01*
X138920209Y-121043071D01*
X138996400Y-121043071D01*
X148761571Y-148304214D02*
X148723476Y-148342309D01*
X148609190Y-148380404D01*
X148533000Y-148380404D01*
X148418714Y-148342309D01*
X148342523Y-148266119D01*
X148304428Y-148189928D01*
X148266333Y-148037547D01*
X148266333Y-147923261D01*
X148304428Y-147770880D01*
X148342523Y-147694690D01*
X148418714Y-147618500D01*
X148533000Y-147580404D01*
X148609190Y-147580404D01*
X148723476Y-147618500D01*
X148761571Y-147656595D01*
X149218714Y-148380404D02*
X149142523Y-148342309D01*
X149104428Y-148266119D01*
X149104428Y-147580404D01*
X149523476Y-148380404D02*
X149523476Y-147580404D01*
X149599666Y-148075642D02*
X149828238Y-148380404D01*
X149828238Y-147847071D02*
X149523476Y-148151833D01*
X150742523Y-147656595D02*
X150780619Y-147618500D01*
X150856809Y-147580404D01*
X151047285Y-147580404D01*
X151123476Y-147618500D01*
X151161571Y-147656595D01*
X151199666Y-147732785D01*
X151199666Y-147808976D01*
X151161571Y-147923261D01*
X150704428Y-148380404D01*
X151199666Y-148380404D01*
X153270071Y-148304214D02*
X153231976Y-148342309D01*
X153117690Y-148380404D01*
X153041500Y-148380404D01*
X152927214Y-148342309D01*
X152851023Y-148266119D01*
X152812928Y-148189928D01*
X152774833Y-148037547D01*
X152774833Y-147923261D01*
X152812928Y-147770880D01*
X152851023Y-147694690D01*
X152927214Y-147618500D01*
X153041500Y-147580404D01*
X153117690Y-147580404D01*
X153231976Y-147618500D01*
X153270071Y-147656595D01*
X153727214Y-148380404D02*
X153651023Y-148342309D01*
X153612928Y-148266119D01*
X153612928Y-147580404D01*
X154031976Y-148380404D02*
X154031976Y-147580404D01*
X154108166Y-148075642D02*
X154336738Y-148380404D01*
X154336738Y-147847071D02*
X154031976Y-148151833D01*
X155708166Y-148380404D02*
X155251023Y-148380404D01*
X155479595Y-148380404D02*
X155479595Y-147580404D01*
X155403404Y-147694690D01*
X155327214Y-147770880D01*
X155251023Y-147808976D01*
X157842071Y-148367714D02*
X157803976Y-148405809D01*
X157689690Y-148443904D01*
X157613500Y-148443904D01*
X157499214Y-148405809D01*
X157423023Y-148329619D01*
X157384928Y-148253428D01*
X157346833Y-148101047D01*
X157346833Y-147986761D01*
X157384928Y-147834380D01*
X157423023Y-147758190D01*
X157499214Y-147682000D01*
X157613500Y-147643904D01*
X157689690Y-147643904D01*
X157803976Y-147682000D01*
X157842071Y-147720095D01*
X158299214Y-148443904D02*
X158223023Y-148405809D01*
X158184928Y-148329619D01*
X158184928Y-147643904D01*
X158603976Y-148443904D02*
X158603976Y-147643904D01*
X158680166Y-148139142D02*
X158908738Y-148443904D01*
X158908738Y-147910571D02*
X158603976Y-148215333D01*
X160013500Y-147643904D02*
X160089690Y-147643904D01*
X160165880Y-147682000D01*
X160203976Y-147720095D01*
X160242071Y-147796285D01*
X160280166Y-147948666D01*
X160280166Y-148139142D01*
X160242071Y-148291523D01*
X160203976Y-148367714D01*
X160165880Y-148405809D01*
X160089690Y-148443904D01*
X160013500Y-148443904D01*
X159937309Y-148405809D01*
X159899214Y-148367714D01*
X159861119Y-148291523D01*
X159823023Y-148139142D01*
X159823023Y-147948666D01*
X159861119Y-147796285D01*
X159899214Y-147720095D01*
X159937309Y-147682000D01*
X160013500Y-147643904D01*
X162388809Y-148088333D02*
X162769761Y-148088333D01*
X162312619Y-148316904D02*
X162579285Y-147516904D01*
X162845952Y-148316904D01*
X163112619Y-148316904D02*
X163112619Y-147783571D01*
X163112619Y-147935952D02*
X163150714Y-147859761D01*
X163188809Y-147821666D01*
X163265000Y-147783571D01*
X163341190Y-147783571D01*
X163950714Y-148316904D02*
X163950714Y-147516904D01*
X163950714Y-148278809D02*
X163874523Y-148316904D01*
X163722142Y-148316904D01*
X163645952Y-148278809D01*
X163607857Y-148240714D01*
X163569761Y-148164523D01*
X163569761Y-147935952D01*
X163607857Y-147859761D01*
X163645952Y-147821666D01*
X163722142Y-147783571D01*
X163874523Y-147783571D01*
X163950714Y-147821666D01*
X164674523Y-147783571D02*
X164674523Y-148316904D01*
X164331666Y-147783571D02*
X164331666Y-148202619D01*
X164369761Y-148278809D01*
X164445952Y-148316904D01*
X164560238Y-148316904D01*
X164636428Y-148278809D01*
X164674523Y-148240714D01*
X165055476Y-148316904D02*
X165055476Y-147783571D01*
X165055476Y-147516904D02*
X165017380Y-147555000D01*
X165055476Y-147593095D01*
X165093571Y-147555000D01*
X165055476Y-147516904D01*
X165055476Y-147593095D01*
X165436428Y-147783571D02*
X165436428Y-148316904D01*
X165436428Y-147859761D02*
X165474523Y-147821666D01*
X165550714Y-147783571D01*
X165665000Y-147783571D01*
X165741190Y-147821666D01*
X165779285Y-147897857D01*
X165779285Y-148316904D01*
X166274523Y-148316904D02*
X166198333Y-148278809D01*
X166160238Y-148240714D01*
X166122142Y-148164523D01*
X166122142Y-147935952D01*
X166160238Y-147859761D01*
X166198333Y-147821666D01*
X166274523Y-147783571D01*
X166388809Y-147783571D01*
X166465000Y-147821666D01*
X166503095Y-147859761D01*
X166541190Y-147935952D01*
X166541190Y-148164523D01*
X166503095Y-148240714D01*
X166465000Y-148278809D01*
X166388809Y-148316904D01*
X166274523Y-148316904D01*
D11*
X116351833Y-125852666D02*
X116351833Y-125614571D01*
X116494690Y-125900285D02*
X115994690Y-125733619D01*
X116494690Y-125566952D01*
X116161357Y-125400285D02*
X116494690Y-125400285D01*
X116208976Y-125400285D02*
X116185166Y-125376476D01*
X116161357Y-125328857D01*
X116161357Y-125257428D01*
X116185166Y-125209809D01*
X116232785Y-125186000D01*
X116494690Y-125186000D01*
X116161357Y-125019333D02*
X116161357Y-124828857D01*
X115994690Y-124947904D02*
X116423261Y-124947904D01*
X116470880Y-124924095D01*
X116494690Y-124876476D01*
X116494690Y-124828857D01*
X116470880Y-124471714D02*
X116494690Y-124519333D01*
X116494690Y-124614571D01*
X116470880Y-124662190D01*
X116423261Y-124686000D01*
X116232785Y-124686000D01*
X116185166Y-124662190D01*
X116161357Y-124614571D01*
X116161357Y-124519333D01*
X116185166Y-124471714D01*
X116232785Y-124447904D01*
X116280404Y-124447904D01*
X116328023Y-124686000D01*
X116161357Y-124233619D02*
X116494690Y-124233619D01*
X116208976Y-124233619D02*
X116185166Y-124209809D01*
X116161357Y-124162190D01*
X116161357Y-124090761D01*
X116185166Y-124043142D01*
X116232785Y-124019333D01*
X116494690Y-124019333D01*
X116161357Y-123781238D02*
X116494690Y-123781238D01*
X116208976Y-123781238D02*
X116185166Y-123757428D01*
X116161357Y-123709809D01*
X116161357Y-123638380D01*
X116185166Y-123590761D01*
X116232785Y-123566952D01*
X116494690Y-123566952D01*
X116494690Y-123114571D02*
X116232785Y-123114571D01*
X116185166Y-123138380D01*
X116161357Y-123186000D01*
X116161357Y-123281238D01*
X116185166Y-123328857D01*
X116470880Y-123114571D02*
X116494690Y-123162190D01*
X116494690Y-123281238D01*
X116470880Y-123328857D01*
X116423261Y-123352666D01*
X116375642Y-123352666D01*
X116328023Y-123328857D01*
X116304214Y-123281238D01*
X116304214Y-123162190D01*
X116280404Y-123114571D01*
X115994690Y-122352666D02*
X116351833Y-122352666D01*
X116423261Y-122376476D01*
X116470880Y-122424095D01*
X116494690Y-122495523D01*
X116494690Y-122543142D01*
X116161357Y-121900285D02*
X116494690Y-121900285D01*
X116161357Y-122114571D02*
X116423261Y-122114571D01*
X116470880Y-122090761D01*
X116494690Y-122043142D01*
X116494690Y-121971714D01*
X116470880Y-121924095D01*
X116447071Y-121900285D01*
X116494690Y-121662190D02*
X116161357Y-121662190D01*
X116208976Y-121662190D02*
X116185166Y-121638380D01*
X116161357Y-121590761D01*
X116161357Y-121519333D01*
X116185166Y-121471714D01*
X116232785Y-121447904D01*
X116494690Y-121447904D01*
X116232785Y-121447904D02*
X116185166Y-121424095D01*
X116161357Y-121376476D01*
X116161357Y-121305047D01*
X116185166Y-121257428D01*
X116232785Y-121233619D01*
X116494690Y-121233619D01*
X116161357Y-120995523D02*
X116661357Y-120995523D01*
X116185166Y-120995523D02*
X116161357Y-120947904D01*
X116161357Y-120852666D01*
X116185166Y-120805047D01*
X116208976Y-120781238D01*
X116256595Y-120757428D01*
X116399452Y-120757428D01*
X116447071Y-120781238D01*
X116470880Y-120805047D01*
X116494690Y-120852666D01*
X116494690Y-120947904D01*
X116470880Y-120995523D01*
X116470880Y-120352666D02*
X116494690Y-120400285D01*
X116494690Y-120495523D01*
X116470880Y-120543142D01*
X116423261Y-120566952D01*
X116232785Y-120566952D01*
X116185166Y-120543142D01*
X116161357Y-120495523D01*
X116161357Y-120400285D01*
X116185166Y-120352666D01*
X116232785Y-120328857D01*
X116280404Y-120328857D01*
X116328023Y-120566952D01*
X116494690Y-120114571D02*
X116161357Y-120114571D01*
X116256595Y-120114571D02*
X116208976Y-120090761D01*
X116185166Y-120066952D01*
X116161357Y-120019333D01*
X116161357Y-119971714D01*
D10*
X109847571Y-134088142D02*
X109847571Y-134421476D01*
X110371380Y-134421476D02*
X109371380Y-134421476D01*
X109371380Y-133945285D01*
X110371380Y-133564333D02*
X109704714Y-133564333D01*
X109371380Y-133564333D02*
X109419000Y-133611952D01*
X109466619Y-133564333D01*
X109419000Y-133516714D01*
X109371380Y-133564333D01*
X109466619Y-133564333D01*
X110371380Y-132945285D02*
X110323761Y-133040523D01*
X110228523Y-133088142D01*
X109371380Y-133088142D01*
X111021380Y-134564333D02*
X111021380Y-134373857D01*
X111069000Y-134278619D01*
X111164238Y-134183380D01*
X111354714Y-134135761D01*
X111688047Y-134135761D01*
X111878523Y-134183380D01*
X111973761Y-134278619D01*
X112021380Y-134373857D01*
X112021380Y-134564333D01*
X111973761Y-134659571D01*
X111878523Y-134754809D01*
X111688047Y-134802428D01*
X111354714Y-134802428D01*
X111164238Y-134754809D01*
X111069000Y-134659571D01*
X111021380Y-134564333D01*
X111354714Y-133278619D02*
X112021380Y-133278619D01*
X111354714Y-133707190D02*
X111878523Y-133707190D01*
X111973761Y-133659571D01*
X112021380Y-133564333D01*
X112021380Y-133421476D01*
X111973761Y-133326238D01*
X111926142Y-133278619D01*
X111354714Y-132945285D02*
X111354714Y-132564333D01*
X111021380Y-132802428D02*
X111878523Y-132802428D01*
X111973761Y-132754809D01*
X112021380Y-132659571D01*
X112021380Y-132564333D01*
X102100571Y-134278642D02*
X102100571Y-134611976D01*
X102624380Y-134611976D02*
X101624380Y-134611976D01*
X101624380Y-134135785D01*
X102624380Y-133754833D02*
X101957714Y-133754833D01*
X101624380Y-133754833D02*
X101672000Y-133802452D01*
X101719619Y-133754833D01*
X101672000Y-133707214D01*
X101624380Y-133754833D01*
X101719619Y-133754833D01*
X102624380Y-133135785D02*
X102576761Y-133231023D01*
X102481523Y-133278642D01*
X101624380Y-133278642D01*
X104274380Y-134373880D02*
X103274380Y-134373880D01*
X103607714Y-133897690D02*
X104274380Y-133897690D01*
X103702952Y-133897690D02*
X103655333Y-133850071D01*
X103607714Y-133754833D01*
X103607714Y-133611976D01*
X103655333Y-133516738D01*
X103750571Y-133469119D01*
X104274380Y-133469119D01*
X168967333Y-148215333D02*
X169348285Y-148215333D01*
X168891142Y-148443904D02*
X169157809Y-147643904D01*
X169424476Y-148443904D01*
X170034000Y-147910571D02*
X170034000Y-148443904D01*
X169691142Y-147910571D02*
X169691142Y-148329619D01*
X169729238Y-148405809D01*
X169805428Y-148443904D01*
X169919714Y-148443904D01*
X169995904Y-148405809D01*
X170034000Y-148367714D01*
X170757809Y-148443904D02*
X170757809Y-147643904D01*
X170757809Y-148405809D02*
X170681619Y-148443904D01*
X170529238Y-148443904D01*
X170453047Y-148405809D01*
X170414952Y-148367714D01*
X170376857Y-148291523D01*
X170376857Y-148062952D01*
X170414952Y-147986761D01*
X170453047Y-147948666D01*
X170529238Y-147910571D01*
X170681619Y-147910571D01*
X170757809Y-147948666D01*
X171138761Y-148443904D02*
X171138761Y-147910571D01*
X171138761Y-147643904D02*
X171100666Y-147682000D01*
X171138761Y-147720095D01*
X171176857Y-147682000D01*
X171138761Y-147643904D01*
X171138761Y-147720095D01*
X171634000Y-148443904D02*
X171557809Y-148405809D01*
X171519714Y-148367714D01*
X171481619Y-148291523D01*
X171481619Y-148062952D01*
X171519714Y-147986761D01*
X171557809Y-147948666D01*
X171634000Y-147910571D01*
X171748285Y-147910571D01*
X171824476Y-147948666D01*
X171862571Y-147986761D01*
X171900666Y-148062952D01*
X171900666Y-148291523D01*
X171862571Y-148367714D01*
X171824476Y-148405809D01*
X171748285Y-148443904D01*
X171634000Y-148443904D01*
D11*
X161266452Y-121526190D02*
X161433119Y-122026190D01*
X161599785Y-121526190D01*
X162123595Y-122002380D02*
X162195023Y-122026190D01*
X162314071Y-122026190D01*
X162361690Y-122002380D01*
X162385500Y-121978571D01*
X162409309Y-121930952D01*
X162409309Y-121883333D01*
X162385500Y-121835714D01*
X162361690Y-121811904D01*
X162314071Y-121788095D01*
X162218833Y-121764285D01*
X162171214Y-121740476D01*
X162147404Y-121716666D01*
X162123595Y-121669047D01*
X162123595Y-121621428D01*
X162147404Y-121573809D01*
X162171214Y-121550000D01*
X162218833Y-121526190D01*
X162337880Y-121526190D01*
X162409309Y-121550000D01*
X162623595Y-122026190D02*
X162623595Y-121692857D01*
X162623595Y-121740476D02*
X162647404Y-121716666D01*
X162695023Y-121692857D01*
X162766452Y-121692857D01*
X162814071Y-121716666D01*
X162837880Y-121764285D01*
X162837880Y-122026190D01*
X162837880Y-121764285D02*
X162861690Y-121716666D01*
X162909309Y-121692857D01*
X162980738Y-121692857D01*
X163028357Y-121716666D01*
X163052166Y-121764285D01*
X163052166Y-122026190D01*
X163361690Y-122026190D02*
X163314071Y-122002380D01*
X163290261Y-121978571D01*
X163266452Y-121930952D01*
X163266452Y-121788095D01*
X163290261Y-121740476D01*
X163314071Y-121716666D01*
X163361690Y-121692857D01*
X163433119Y-121692857D01*
X163480738Y-121716666D01*
X163504547Y-121740476D01*
X163528357Y-121788095D01*
X163528357Y-121930952D01*
X163504547Y-121978571D01*
X163480738Y-122002380D01*
X163433119Y-122026190D01*
X163361690Y-122026190D01*
X163814071Y-122026190D02*
X163766452Y-122002380D01*
X163742642Y-121978571D01*
X163718833Y-121930952D01*
X163718833Y-121788095D01*
X163742642Y-121740476D01*
X163766452Y-121716666D01*
X163814071Y-121692857D01*
X163885500Y-121692857D01*
X163933119Y-121716666D01*
X163956928Y-121740476D01*
X163980738Y-121788095D01*
X163980738Y-121930952D01*
X163956928Y-121978571D01*
X163933119Y-122002380D01*
X163885500Y-122026190D01*
X163814071Y-122026190D01*
X164123595Y-121692857D02*
X164314071Y-121692857D01*
X164195023Y-121526190D02*
X164195023Y-121954761D01*
X164218833Y-122002380D01*
X164266452Y-122026190D01*
X164314071Y-122026190D01*
X164480738Y-122026190D02*
X164480738Y-121526190D01*
X164695023Y-122026190D02*
X164695023Y-121764285D01*
X164671214Y-121716666D01*
X164623595Y-121692857D01*
X164552166Y-121692857D01*
X164504547Y-121716666D01*
X164480738Y-121740476D01*
X165123595Y-122002380D02*
X165075976Y-122026190D01*
X164980738Y-122026190D01*
X164933119Y-122002380D01*
X164909309Y-121954761D01*
X164909309Y-121764285D01*
X164933119Y-121716666D01*
X164980738Y-121692857D01*
X165075976Y-121692857D01*
X165123595Y-121716666D01*
X165147404Y-121764285D01*
X165147404Y-121811904D01*
X164909309Y-121859523D01*
X165361690Y-122026190D02*
X165361690Y-121692857D01*
X165361690Y-121788095D02*
X165385500Y-121740476D01*
X165409309Y-121716666D01*
X165456928Y-121692857D01*
X165504547Y-121692857D01*
X162373595Y-122639285D02*
X162445023Y-122663095D01*
X162468833Y-122686904D01*
X162492642Y-122734523D01*
X162492642Y-122805952D01*
X162468833Y-122853571D01*
X162445023Y-122877380D01*
X162397404Y-122901190D01*
X162206928Y-122901190D01*
X162206928Y-122401190D01*
X162373595Y-122401190D01*
X162421214Y-122425000D01*
X162445023Y-122448809D01*
X162468833Y-122496428D01*
X162468833Y-122544047D01*
X162445023Y-122591666D01*
X162421214Y-122615476D01*
X162373595Y-122639285D01*
X162206928Y-122639285D01*
X162659309Y-122567857D02*
X162778357Y-122901190D01*
X162897404Y-122567857D02*
X162778357Y-122901190D01*
X162730738Y-123020238D01*
X162706928Y-123044047D01*
X162659309Y-123067857D01*
X163087880Y-122567857D02*
X163087880Y-123067857D01*
X163087880Y-122591666D02*
X163135500Y-122567857D01*
X163230738Y-122567857D01*
X163278357Y-122591666D01*
X163302166Y-122615476D01*
X163325976Y-122663095D01*
X163325976Y-122805952D01*
X163302166Y-122853571D01*
X163278357Y-122877380D01*
X163230738Y-122901190D01*
X163135500Y-122901190D01*
X163087880Y-122877380D01*
X163754547Y-122901190D02*
X163754547Y-122639285D01*
X163730738Y-122591666D01*
X163683119Y-122567857D01*
X163587880Y-122567857D01*
X163540261Y-122591666D01*
X163754547Y-122877380D02*
X163706928Y-122901190D01*
X163587880Y-122901190D01*
X163540261Y-122877380D01*
X163516452Y-122829761D01*
X163516452Y-122782142D01*
X163540261Y-122734523D01*
X163587880Y-122710714D01*
X163706928Y-122710714D01*
X163754547Y-122686904D01*
X163968833Y-122877380D02*
X164016452Y-122901190D01*
X164111690Y-122901190D01*
X164159309Y-122877380D01*
X164183119Y-122829761D01*
X164183119Y-122805952D01*
X164159309Y-122758333D01*
X164111690Y-122734523D01*
X164040261Y-122734523D01*
X163992642Y-122710714D01*
X163968833Y-122663095D01*
X163968833Y-122639285D01*
X163992642Y-122591666D01*
X164040261Y-122567857D01*
X164111690Y-122567857D01*
X164159309Y-122591666D01*
X164373595Y-122877380D02*
X164421214Y-122901190D01*
X164516452Y-122901190D01*
X164564071Y-122877380D01*
X164587880Y-122829761D01*
X164587880Y-122805952D01*
X164564071Y-122758333D01*
X164516452Y-122734523D01*
X164445023Y-122734523D01*
X164397404Y-122710714D01*
X164373595Y-122663095D01*
X164373595Y-122639285D01*
X164397404Y-122591666D01*
X164445023Y-122567857D01*
X164516452Y-122567857D01*
X164564071Y-122591666D01*
D10*
X168783023Y-121753380D02*
X168306833Y-121753380D01*
X168259214Y-122229571D01*
X168306833Y-122181952D01*
X168402071Y-122134333D01*
X168640166Y-122134333D01*
X168735404Y-122181952D01*
X168783023Y-122229571D01*
X168830642Y-122324809D01*
X168830642Y-122562904D01*
X168783023Y-122658142D01*
X168735404Y-122705761D01*
X168640166Y-122753380D01*
X168402071Y-122753380D01*
X168306833Y-122705761D01*
X168259214Y-122658142D01*
X169116357Y-121753380D02*
X169449690Y-122753380D01*
X169783023Y-121753380D01*
X156781619Y-122277214D02*
X156781619Y-122943880D01*
X156543523Y-121896261D02*
X156305428Y-122610547D01*
X156924476Y-122610547D01*
X157305428Y-122848642D02*
X157353047Y-122896261D01*
X157305428Y-122943880D01*
X157257809Y-122896261D01*
X157305428Y-122848642D01*
X157305428Y-122943880D01*
X157686380Y-121943880D02*
X158305428Y-121943880D01*
X157972095Y-122324833D01*
X158114952Y-122324833D01*
X158210190Y-122372452D01*
X158257809Y-122420071D01*
X158305428Y-122515309D01*
X158305428Y-122753404D01*
X158257809Y-122848642D01*
X158210190Y-122896261D01*
X158114952Y-122943880D01*
X157829238Y-122943880D01*
X157734000Y-122896261D01*
X157686380Y-122848642D01*
X158591142Y-121943880D02*
X158924476Y-122943880D01*
X159257809Y-121943880D01*
X152003309Y-121753380D02*
X152622357Y-121753380D01*
X152289023Y-122134333D01*
X152431880Y-122134333D01*
X152527119Y-122181952D01*
X152574738Y-122229571D01*
X152622357Y-122324809D01*
X152622357Y-122562904D01*
X152574738Y-122658142D01*
X152527119Y-122705761D01*
X152431880Y-122753380D01*
X152146166Y-122753380D01*
X152050928Y-122705761D01*
X152003309Y-122658142D01*
X153050928Y-122658142D02*
X153098547Y-122705761D01*
X153050928Y-122753380D01*
X153003309Y-122705761D01*
X153050928Y-122658142D01*
X153050928Y-122753380D01*
X153431880Y-121753380D02*
X154050928Y-121753380D01*
X153717595Y-122134333D01*
X153860452Y-122134333D01*
X153955690Y-122181952D01*
X154003309Y-122229571D01*
X154050928Y-122324809D01*
X154050928Y-122562904D01*
X154003309Y-122658142D01*
X153955690Y-122705761D01*
X153860452Y-122753380D01*
X153574738Y-122753380D01*
X153479500Y-122705761D01*
X153431880Y-122658142D01*
X154336642Y-121753380D02*
X154669976Y-122753380D01*
X155003309Y-121753380D01*
D12*
X135721900Y-123364800D02*
X135721900Y-141404800D01*
X179161900Y-123364800D02*
X135721900Y-123364800D01*
X179161900Y-141404800D02*
X179161900Y-123364800D01*
X176491900Y-138734800D02*
X176491900Y-141404800D01*
X140931900Y-138734800D02*
X176491900Y-138734800D01*
X140931900Y-138734800D02*
X140931900Y-141404800D01*
X176491900Y-126034800D02*
X176491900Y-123364800D01*
X138391900Y-126034800D02*
X176491900Y-126034800D01*
X138391900Y-126034800D02*
X138391900Y-123364800D01*
X135721900Y-141404800D02*
X138391900Y-141404800D01*
X140931900Y-141404800D02*
X179161900Y-141404800D01*
X138391900Y-138734800D02*
X138391900Y-141404800D01*
X140931900Y-138734800D02*
X138391900Y-138734800D01*
X143861022Y-133044000D02*
X144378178Y-133044000D01*
X143861022Y-131624000D02*
X144378178Y-131624000D01*
X101528378Y-136653200D02*
X101011222Y-136653200D01*
X101528378Y-138073200D02*
X101011222Y-138073200D01*
X109215422Y-147395000D02*
X109732578Y-147395000D01*
X109215422Y-145975000D02*
X109732578Y-145975000D01*
X117635522Y-146902100D02*
X118152678Y-146902100D01*
X117635522Y-148322100D02*
X118152678Y-148322100D01*
X106986000Y-141101578D02*
X106986000Y-140584422D01*
X108406000Y-141101578D02*
X108406000Y-140584422D01*
X143769822Y-135230800D02*
X144286978Y-135230800D01*
X143769822Y-136650800D02*
X144286978Y-136650800D01*
X139504922Y-127877500D02*
X140022078Y-127877500D01*
X139504922Y-129297500D02*
X140022078Y-129297500D01*
X156649922Y-129437200D02*
X157167078Y-129437200D01*
X156649922Y-128017200D02*
X157167078Y-128017200D01*
X156675322Y-131484300D02*
X157192478Y-131484300D01*
X156675322Y-132904300D02*
X157192478Y-132904300D01*
X114758400Y-133659378D02*
X114758400Y-133142222D01*
X116178400Y-133659378D02*
X116178400Y-133142222D01*
X119886800Y-133760978D02*
X119886800Y-133243822D01*
X118466800Y-133760978D02*
X118466800Y-133243822D01*
X123442800Y-133659378D02*
X123442800Y-133142222D01*
X122022800Y-133659378D02*
X122022800Y-133142222D01*
X131306500Y-129544578D02*
X131306500Y-129027422D01*
X132726500Y-129544578D02*
X132726500Y-129027422D01*
X128802200Y-123937022D02*
X128802200Y-124454178D01*
X127382200Y-123937022D02*
X127382200Y-124454178D01*
X131370000Y-124416078D02*
X131370000Y-123898922D01*
X132790000Y-124416078D02*
X132790000Y-123898922D01*
X114939578Y-116714200D02*
X114422422Y-116714200D01*
X114939578Y-118134200D02*
X114422422Y-118134200D01*
X161485078Y-131431100D02*
X160967922Y-131431100D01*
X161485078Y-130011100D02*
X160967922Y-130011100D01*
X161612078Y-133008300D02*
X161094922Y-133008300D01*
X161612078Y-134428300D02*
X161094922Y-134428300D01*
X152149500Y-120964000D02*
X154809500Y-120964000D01*
X152149500Y-120904000D02*
X152149500Y-120964000D01*
X154809500Y-120904000D02*
X154809500Y-120964000D01*
X152149500Y-120904000D02*
X154809500Y-120904000D01*
X152149500Y-119634000D02*
X152149500Y-118304000D01*
X152149500Y-118304000D02*
X153479500Y-118304000D01*
X98555500Y-135251500D02*
X101215500Y-135251500D01*
X98555500Y-135191500D02*
X98555500Y-135251500D01*
X101215500Y-135191500D02*
X101215500Y-135251500D01*
X98555500Y-135191500D02*
X101215500Y-135191500D01*
X98555500Y-133921500D02*
X98555500Y-132591500D01*
X98555500Y-132591500D02*
X99885500Y-132591500D01*
X167516500Y-121027500D02*
X170176500Y-121027500D01*
X167516500Y-120967500D02*
X167516500Y-121027500D01*
X170176500Y-120967500D02*
X170176500Y-121027500D01*
X167516500Y-120967500D02*
X170176500Y-120967500D01*
X167516500Y-119697500D02*
X167516500Y-118367500D01*
X167516500Y-118367500D02*
X168846500Y-118367500D01*
X156467500Y-118367500D02*
X157797500Y-118367500D01*
X156467500Y-119697500D02*
X156467500Y-118367500D01*
X156467500Y-120967500D02*
X159127500Y-120967500D01*
X159127500Y-120967500D02*
X159127500Y-121027500D01*
X156467500Y-120967500D02*
X156467500Y-121027500D01*
X156467500Y-121027500D02*
X159127500Y-121027500D01*
X109541000Y-135703000D02*
X109541000Y-138363000D01*
X109601000Y-135703000D02*
X109541000Y-135703000D01*
X109601000Y-138363000D02*
X109541000Y-138363000D01*
X109601000Y-135703000D02*
X109601000Y-138363000D01*
X110871000Y-135703000D02*
X112201000Y-135703000D01*
X112201000Y-135703000D02*
X112201000Y-137033000D01*
X151190000Y-142624500D02*
X148530000Y-142624500D01*
X151190000Y-142684500D02*
X151190000Y-142624500D01*
X148530000Y-142684500D02*
X148530000Y-142624500D01*
X151190000Y-142684500D02*
X148530000Y-142684500D01*
X151190000Y-143954500D02*
X151190000Y-145284500D01*
X151190000Y-145284500D02*
X149860000Y-145284500D01*
X159889500Y-145284500D02*
X158559500Y-145284500D01*
X159889500Y-143954500D02*
X159889500Y-145284500D01*
X159889500Y-142684500D02*
X157229500Y-142684500D01*
X157229500Y-142684500D02*
X157229500Y-142624500D01*
X159889500Y-142684500D02*
X159889500Y-142624500D01*
X159889500Y-142624500D02*
X157229500Y-142624500D01*
X155508000Y-142624500D02*
X152848000Y-142624500D01*
X155508000Y-142684500D02*
X155508000Y-142624500D01*
X152848000Y-142684500D02*
X152848000Y-142624500D01*
X155508000Y-142684500D02*
X152848000Y-142684500D01*
X155508000Y-143954500D02*
X155508000Y-145284500D01*
X155508000Y-145284500D02*
X154178000Y-145284500D01*
X113058900Y-128260800D02*
X114388900Y-128260800D01*
X113058900Y-129590800D02*
X113058900Y-128260800D01*
X113058900Y-130860800D02*
X115718900Y-130860800D01*
X115718900Y-130860800D02*
X115718900Y-130920800D01*
X113058900Y-130860800D02*
X113058900Y-130920800D01*
X113058900Y-130920800D02*
X115718900Y-130920800D01*
X117249900Y-130920800D02*
X119909900Y-130920800D01*
X117249900Y-130860800D02*
X117249900Y-130920800D01*
X119909900Y-130860800D02*
X119909900Y-130920800D01*
X117249900Y-130860800D02*
X119909900Y-130860800D01*
X117249900Y-129590800D02*
X117249900Y-128260800D01*
X117249900Y-128260800D02*
X118579900Y-128260800D01*
X121555200Y-130844600D02*
X124215200Y-130844600D01*
X121555200Y-130784600D02*
X121555200Y-130844600D01*
X124215200Y-130784600D02*
X124215200Y-130844600D01*
X121555200Y-130784600D02*
X124215200Y-130784600D01*
X121555200Y-129514600D02*
X121555200Y-128184600D01*
X121555200Y-128184600D02*
X122885200Y-128184600D01*
X125682700Y-128159200D02*
X127012700Y-128159200D01*
X125682700Y-129489200D02*
X125682700Y-128159200D01*
X125682700Y-130759200D02*
X128342700Y-130759200D01*
X128342700Y-130759200D02*
X128342700Y-130819200D01*
X125682700Y-130759200D02*
X125682700Y-130819200D01*
X125682700Y-130819200D02*
X128342700Y-130819200D01*
D13*
X172922600Y-139293600D02*
G75*
G03*
X172922600Y-139293600I-100000J0D01*
G01*
D14*
X176632600Y-127935600D02*
X177432600Y-127935600D01*
X177432600Y-136935600D02*
X176632600Y-136935600D01*
X179432600Y-129435600D02*
X177432600Y-129435600D01*
X179432600Y-135435600D02*
X177432600Y-135435600D01*
X176632600Y-126435600D02*
X176632600Y-127935600D01*
X164432600Y-126435600D02*
X176632600Y-126435600D01*
X176632600Y-138435600D02*
X164432600Y-138435600D01*
X176632600Y-136935600D02*
X176632600Y-138435600D01*
X164432600Y-138435600D02*
X164432600Y-126435600D01*
X177432600Y-129435600D02*
X177432600Y-127935600D01*
X177432600Y-135435600D02*
X177432600Y-129435600D01*
X177432600Y-136935600D02*
X177432600Y-135435600D01*
X179432600Y-135435600D02*
X179432600Y-129435600D01*
D12*
X112563600Y-125790000D02*
X115223600Y-125790000D01*
X112563600Y-123190000D02*
X112563600Y-125790000D01*
X115223600Y-123190000D02*
X115223600Y-125790000D01*
X112563600Y-123190000D02*
X115223600Y-123190000D01*
X112563600Y-121920000D02*
X112563600Y-120590000D01*
X112563600Y-120590000D02*
X113893600Y-120590000D01*
X165922000Y-120900500D02*
X165922000Y-118240500D01*
X163322000Y-120900500D02*
X165922000Y-120900500D01*
X163322000Y-118240500D02*
X165922000Y-118240500D01*
X163322000Y-120900500D02*
X163322000Y-118240500D01*
X162052000Y-120900500D02*
X160722000Y-120900500D01*
X160722000Y-120900500D02*
X160722000Y-119570500D01*
X166747500Y-142624500D02*
X166747500Y-143954500D01*
X165417500Y-142624500D02*
X166747500Y-142624500D01*
X164147500Y-142624500D02*
X164147500Y-145284500D01*
X164147500Y-145284500D02*
X161547500Y-145284500D01*
X164147500Y-142624500D02*
X161547500Y-142624500D01*
X161547500Y-142624500D02*
X161547500Y-145284500D01*
X173542000Y-142624500D02*
X173542000Y-143954500D01*
X172212000Y-142624500D02*
X173542000Y-142624500D01*
X170942000Y-142624500D02*
X170942000Y-145284500D01*
X170942000Y-145284500D02*
X168342000Y-145284500D01*
X170942000Y-142624500D02*
X168342000Y-142624500D01*
X168342000Y-142624500D02*
X168342000Y-145284500D01*
X97588300Y-148936200D02*
X97588300Y-143794200D01*
X97588300Y-140838200D02*
X97588300Y-135696200D01*
X104328300Y-148936200D02*
X104328300Y-143794200D01*
X104328300Y-140838200D02*
X104328300Y-135696200D01*
X97588300Y-148936200D02*
X104328300Y-148936200D01*
X97588300Y-135696200D02*
X104328300Y-135696200D01*
X111941600Y-149353900D02*
X106701600Y-149353900D01*
X111941600Y-139113900D02*
X106701600Y-139113900D01*
X106701600Y-145488900D02*
X106701600Y-149353900D01*
X106701600Y-139113900D02*
X106701600Y-142978900D01*
X111941600Y-145488900D02*
X111941600Y-149353900D01*
X111941600Y-139113900D02*
X111941600Y-142978900D01*
X114352300Y-136204200D02*
X121092300Y-136204200D01*
X114352300Y-149444200D02*
X121092300Y-149444200D01*
X121092300Y-141346200D02*
X121092300Y-136204200D01*
X121092300Y-149444200D02*
X121092300Y-144302200D01*
X114352300Y-141346200D02*
X114352300Y-136204200D01*
X114352300Y-149444200D02*
X114352300Y-144302200D01*
D15*
X138968000Y-135950000D02*
X138968000Y-135650000D01*
X139343000Y-135950000D02*
X138968000Y-135950000D01*
X138968000Y-132650000D02*
X139418000Y-132650000D01*
X138968000Y-132950000D02*
X138968000Y-132650000D01*
X138968000Y-132875000D02*
X138968000Y-133000000D01*
X140618000Y-132650000D02*
X140618000Y-133000000D01*
X140143000Y-132650000D02*
X140618000Y-132650000D01*
X140618000Y-135625000D02*
X141393000Y-135625000D01*
X140618000Y-135675000D02*
X140618000Y-135625000D01*
X140243000Y-135950000D02*
X140618000Y-135675000D01*
X139968000Y-135950000D02*
X140243000Y-135950000D01*
D12*
X152978900Y-131193700D02*
X152978900Y-130263700D01*
X152978900Y-128033700D02*
X152978900Y-128963700D01*
X152978900Y-128033700D02*
X150818900Y-128033700D01*
X152978900Y-131193700D02*
X151518900Y-131193700D01*
X153299700Y-137050900D02*
X151839700Y-137050900D01*
X153299700Y-133890900D02*
X151139700Y-133890900D01*
X153299700Y-133890900D02*
X153299700Y-134820900D01*
X153299700Y-137050900D02*
X153299700Y-136120900D01*
X147874222Y-127953700D02*
X148391378Y-127953700D01*
X147874222Y-129373700D02*
X148391378Y-129373700D01*
X143721322Y-129348300D02*
X144238478Y-129348300D01*
X143721322Y-127928300D02*
X144238478Y-127928300D01*
X147874222Y-133005900D02*
X148391378Y-133005900D01*
X147874222Y-131585900D02*
X148391378Y-131585900D01*
X147808422Y-135167300D02*
X148325578Y-135167300D01*
X147808422Y-136587300D02*
X148325578Y-136587300D01*
X156914322Y-136790500D02*
X157431478Y-136790500D01*
X156914322Y-135370500D02*
X157431478Y-135370500D01*
X110313400Y-140660622D02*
X110313400Y-141177778D01*
X111733400Y-140660622D02*
X111733400Y-141177778D01*
X106859000Y-137228078D02*
X106859000Y-136710922D01*
X108279000Y-137228078D02*
X108279000Y-136710922D01*
X124471500Y-138092922D02*
X124471500Y-138610078D01*
X123051500Y-138092922D02*
X123051500Y-138610078D01*
X133338500Y-138107922D02*
X133338500Y-138625078D01*
X134758500Y-138107922D02*
X134758500Y-138625078D01*
X127900500Y-137980922D02*
X127900500Y-138498078D01*
X126480500Y-137980922D02*
X126480500Y-138498078D01*
X129909500Y-138044422D02*
X129909500Y-138561578D01*
X131329500Y-138044422D02*
X131329500Y-138561578D01*
X115190200Y-137968222D02*
X115190200Y-138485378D01*
X116610200Y-137968222D02*
X116610200Y-138485378D01*
X120521800Y-138016722D02*
X120521800Y-138533878D01*
X119101800Y-138016722D02*
X119101800Y-138533878D01*
X123775400Y-124424178D02*
X123775400Y-123907022D01*
X125195400Y-124424178D02*
X125195400Y-123907022D01*
X125731200Y-133243822D02*
X125731200Y-133760978D01*
X127151200Y-133243822D02*
X127151200Y-133760978D01*
D10*
X139613300Y-144133700D02*
X139613300Y-142908700D01*
X136488300Y-144133700D02*
X136488300Y-147483700D01*
X139838300Y-144133700D02*
X139838300Y-147483700D01*
X136488300Y-144133700D02*
X136788300Y-144133700D01*
X136488300Y-147483700D02*
X136788300Y-147483700D01*
X139838300Y-147483700D02*
X139538300Y-147483700D01*
X139838300Y-144133700D02*
X139613300Y-144133700D01*
X133599000Y-142501800D02*
X133574000Y-142501800D01*
X133599000Y-146651800D02*
X133494000Y-146651800D01*
X123449000Y-146651800D02*
X123554000Y-146651800D01*
X123449000Y-142501800D02*
X123554000Y-142501800D01*
X133599000Y-142501800D02*
X133599000Y-146651800D01*
X123449000Y-142501800D02*
X123449000Y-146651800D01*
X133574000Y-142501800D02*
X133574000Y-141126800D01*
X117503500Y-124439500D02*
X117553500Y-124439500D01*
X117503500Y-120289500D02*
X117648500Y-120289500D01*
X122653500Y-120289500D02*
X122508500Y-120289500D01*
X122653500Y-124439500D02*
X122508500Y-124439500D01*
X117503500Y-124439500D02*
X117503500Y-120289500D01*
X122653500Y-124439500D02*
X122653500Y-120289500D01*
X117553500Y-124439500D02*
X117553500Y-125839500D01*
D12*
X145477500Y-143732500D02*
X142177500Y-143732500D01*
X142177500Y-143732500D02*
X142177500Y-147732500D01*
X96948600Y-124625100D02*
X97948600Y-123625100D01*
X96948600Y-124625100D02*
X97948600Y-125625100D01*
X111748600Y-132125100D02*
X96748600Y-132125100D01*
X111748600Y-117125100D02*
X111748600Y-132125100D01*
X96748600Y-117125100D02*
X111748600Y-117125100D01*
X96748600Y-132125100D02*
X96748600Y-117125100D01*
D10*
X137034566Y-132616485D02*
X137034566Y-132140295D01*
X137320280Y-132711723D02*
X136320280Y-132378390D01*
X137320280Y-132045057D01*
X137320280Y-131187914D02*
X137320280Y-131759342D01*
X137320280Y-131473628D02*
X136320280Y-131473628D01*
X136463138Y-131568866D01*
X136558376Y-131664104D01*
X136605995Y-131759342D01*
X143952933Y-131041142D02*
X143905314Y-131088761D01*
X143762457Y-131136380D01*
X143667219Y-131136380D01*
X143524361Y-131088761D01*
X143429123Y-130993523D01*
X143381504Y-130898285D01*
X143333885Y-130707809D01*
X143333885Y-130564952D01*
X143381504Y-130374476D01*
X143429123Y-130279238D01*
X143524361Y-130184000D01*
X143667219Y-130136380D01*
X143762457Y-130136380D01*
X143905314Y-130184000D01*
X143952933Y-130231619D01*
X144905314Y-131136380D02*
X144333885Y-131136380D01*
X144619600Y-131136380D02*
X144619600Y-130136380D01*
X144524361Y-130279238D01*
X144429123Y-130374476D01*
X144333885Y-130422095D01*
X101103133Y-139370342D02*
X101055514Y-139417961D01*
X100912657Y-139465580D01*
X100817419Y-139465580D01*
X100674561Y-139417961D01*
X100579323Y-139322723D01*
X100531704Y-139227485D01*
X100484085Y-139037009D01*
X100484085Y-138894152D01*
X100531704Y-138703676D01*
X100579323Y-138608438D01*
X100674561Y-138513200D01*
X100817419Y-138465580D01*
X100912657Y-138465580D01*
X101055514Y-138513200D01*
X101103133Y-138560819D01*
X101484085Y-138560819D02*
X101531704Y-138513200D01*
X101626942Y-138465580D01*
X101865038Y-138465580D01*
X101960276Y-138513200D01*
X102007895Y-138560819D01*
X102055514Y-138656057D01*
X102055514Y-138751295D01*
X102007895Y-138894152D01*
X101436466Y-139465580D01*
X102055514Y-139465580D01*
X109167633Y-148959842D02*
X109120014Y-149007461D01*
X108977157Y-149055080D01*
X108881919Y-149055080D01*
X108739061Y-149007461D01*
X108643823Y-148912223D01*
X108596204Y-148816985D01*
X108548585Y-148626509D01*
X108548585Y-148483652D01*
X108596204Y-148293176D01*
X108643823Y-148197938D01*
X108739061Y-148102700D01*
X108881919Y-148055080D01*
X108977157Y-148055080D01*
X109120014Y-148102700D01*
X109167633Y-148150319D01*
X109500966Y-148055080D02*
X110120014Y-148055080D01*
X109786680Y-148436033D01*
X109929538Y-148436033D01*
X110024776Y-148483652D01*
X110072395Y-148531271D01*
X110120014Y-148626509D01*
X110120014Y-148864604D01*
X110072395Y-148959842D01*
X110024776Y-149007461D01*
X109929538Y-149055080D01*
X109643823Y-149055080D01*
X109548585Y-149007461D01*
X109500966Y-148959842D01*
X117676633Y-146267442D02*
X117629014Y-146315061D01*
X117486157Y-146362680D01*
X117390919Y-146362680D01*
X117248061Y-146315061D01*
X117152823Y-146219823D01*
X117105204Y-146124585D01*
X117057585Y-145934109D01*
X117057585Y-145791252D01*
X117105204Y-145600776D01*
X117152823Y-145505538D01*
X117248061Y-145410300D01*
X117390919Y-145362680D01*
X117486157Y-145362680D01*
X117629014Y-145410300D01*
X117676633Y-145457919D01*
X118533776Y-145696014D02*
X118533776Y-146362680D01*
X118295680Y-145315061D02*
X118057585Y-146029347D01*
X118676633Y-146029347D01*
X106338642Y-141200166D02*
X106386261Y-141247785D01*
X106433880Y-141390642D01*
X106433880Y-141485880D01*
X106386261Y-141628738D01*
X106291023Y-141723976D01*
X106195785Y-141771595D01*
X106005309Y-141819214D01*
X105862452Y-141819214D01*
X105671976Y-141771595D01*
X105576738Y-141723976D01*
X105481500Y-141628738D01*
X105433880Y-141485880D01*
X105433880Y-141390642D01*
X105481500Y-141247785D01*
X105529119Y-141200166D01*
X105433880Y-140295404D02*
X105433880Y-140771595D01*
X105910071Y-140819214D01*
X105862452Y-140771595D01*
X105814833Y-140676357D01*
X105814833Y-140438261D01*
X105862452Y-140343023D01*
X105910071Y-140295404D01*
X106005309Y-140247785D01*
X106243404Y-140247785D01*
X106338642Y-140295404D01*
X106386261Y-140343023D01*
X106433880Y-140438261D01*
X106433880Y-140676357D01*
X106386261Y-140771595D01*
X106338642Y-140819214D01*
X143861733Y-134647942D02*
X143814114Y-134695561D01*
X143671257Y-134743180D01*
X143576019Y-134743180D01*
X143433161Y-134695561D01*
X143337923Y-134600323D01*
X143290304Y-134505085D01*
X143242685Y-134314609D01*
X143242685Y-134171752D01*
X143290304Y-133981276D01*
X143337923Y-133886038D01*
X143433161Y-133790800D01*
X143576019Y-133743180D01*
X143671257Y-133743180D01*
X143814114Y-133790800D01*
X143861733Y-133838419D01*
X144718876Y-133743180D02*
X144528400Y-133743180D01*
X144433161Y-133790800D01*
X144385542Y-133838419D01*
X144290304Y-133981276D01*
X144242685Y-134171752D01*
X144242685Y-134552704D01*
X144290304Y-134647942D01*
X144337923Y-134695561D01*
X144433161Y-134743180D01*
X144623638Y-134743180D01*
X144718876Y-134695561D01*
X144766495Y-134647942D01*
X144814114Y-134552704D01*
X144814114Y-134314609D01*
X144766495Y-134219371D01*
X144718876Y-134171752D01*
X144623638Y-134124133D01*
X144433161Y-134124133D01*
X144337923Y-134171752D01*
X144290304Y-134219371D01*
X144242685Y-134314609D01*
X139520633Y-127230142D02*
X139473014Y-127277761D01*
X139330157Y-127325380D01*
X139234919Y-127325380D01*
X139092061Y-127277761D01*
X138996823Y-127182523D01*
X138949204Y-127087285D01*
X138901585Y-126896809D01*
X138901585Y-126753952D01*
X138949204Y-126563476D01*
X138996823Y-126468238D01*
X139092061Y-126373000D01*
X139234919Y-126325380D01*
X139330157Y-126325380D01*
X139473014Y-126373000D01*
X139520633Y-126420619D01*
X139853966Y-126325380D02*
X140520633Y-126325380D01*
X140092061Y-127325380D01*
X156741833Y-127434342D02*
X156694214Y-127481961D01*
X156551357Y-127529580D01*
X156456119Y-127529580D01*
X156313261Y-127481961D01*
X156218023Y-127386723D01*
X156170404Y-127291485D01*
X156122785Y-127101009D01*
X156122785Y-126958152D01*
X156170404Y-126767676D01*
X156218023Y-126672438D01*
X156313261Y-126577200D01*
X156456119Y-126529580D01*
X156551357Y-126529580D01*
X156694214Y-126577200D01*
X156741833Y-126624819D01*
X157313261Y-126958152D02*
X157218023Y-126910533D01*
X157170404Y-126862914D01*
X157122785Y-126767676D01*
X157122785Y-126720057D01*
X157170404Y-126624819D01*
X157218023Y-126577200D01*
X157313261Y-126529580D01*
X157503738Y-126529580D01*
X157598976Y-126577200D01*
X157646595Y-126624819D01*
X157694214Y-126720057D01*
X157694214Y-126767676D01*
X157646595Y-126862914D01*
X157598976Y-126910533D01*
X157503738Y-126958152D01*
X157313261Y-126958152D01*
X157218023Y-127005771D01*
X157170404Y-127053390D01*
X157122785Y-127148628D01*
X157122785Y-127339104D01*
X157170404Y-127434342D01*
X157218023Y-127481961D01*
X157313261Y-127529580D01*
X157503738Y-127529580D01*
X157598976Y-127481961D01*
X157646595Y-127434342D01*
X157694214Y-127339104D01*
X157694214Y-127148628D01*
X157646595Y-127053390D01*
X157598976Y-127005771D01*
X157503738Y-126958152D01*
X156767233Y-130901442D02*
X156719614Y-130949061D01*
X156576757Y-130996680D01*
X156481519Y-130996680D01*
X156338661Y-130949061D01*
X156243423Y-130853823D01*
X156195804Y-130758585D01*
X156148185Y-130568109D01*
X156148185Y-130425252D01*
X156195804Y-130234776D01*
X156243423Y-130139538D01*
X156338661Y-130044300D01*
X156481519Y-129996680D01*
X156576757Y-129996680D01*
X156719614Y-130044300D01*
X156767233Y-130091919D01*
X157243423Y-130996680D02*
X157433900Y-130996680D01*
X157529138Y-130949061D01*
X157576757Y-130901442D01*
X157671995Y-130758585D01*
X157719614Y-130568109D01*
X157719614Y-130187157D01*
X157671995Y-130091919D01*
X157624376Y-130044300D01*
X157529138Y-129996680D01*
X157338661Y-129996680D01*
X157243423Y-130044300D01*
X157195804Y-130091919D01*
X157148185Y-130187157D01*
X157148185Y-130425252D01*
X157195804Y-130520490D01*
X157243423Y-130568109D01*
X157338661Y-130615728D01*
X157529138Y-130615728D01*
X157624376Y-130568109D01*
X157671995Y-130520490D01*
X157719614Y-130425252D01*
X114175542Y-134043657D02*
X114223161Y-134091276D01*
X114270780Y-134234133D01*
X114270780Y-134329371D01*
X114223161Y-134472228D01*
X114127923Y-134567466D01*
X114032685Y-134615085D01*
X113842209Y-134662704D01*
X113699352Y-134662704D01*
X113508876Y-134615085D01*
X113413638Y-134567466D01*
X113318400Y-134472228D01*
X113270780Y-134329371D01*
X113270780Y-134234133D01*
X113318400Y-134091276D01*
X113366019Y-134043657D01*
X114270780Y-133091276D02*
X114270780Y-133662704D01*
X114270780Y-133376990D02*
X113270780Y-133376990D01*
X113413638Y-133472228D01*
X113508876Y-133567466D01*
X113556495Y-133662704D01*
X113270780Y-132472228D02*
X113270780Y-132376990D01*
X113318400Y-132281752D01*
X113366019Y-132234133D01*
X113461257Y-132186514D01*
X113651733Y-132138895D01*
X113889828Y-132138895D01*
X114080304Y-132186514D01*
X114175542Y-132234133D01*
X114223161Y-132281752D01*
X114270780Y-132376990D01*
X114270780Y-132472228D01*
X114223161Y-132567466D01*
X114175542Y-132615085D01*
X114080304Y-132662704D01*
X113889828Y-132710323D01*
X113651733Y-132710323D01*
X113461257Y-132662704D01*
X113366019Y-132615085D01*
X113318400Y-132567466D01*
X113270780Y-132472228D01*
X117883942Y-134145257D02*
X117931561Y-134192876D01*
X117979180Y-134335733D01*
X117979180Y-134430971D01*
X117931561Y-134573828D01*
X117836323Y-134669066D01*
X117741085Y-134716685D01*
X117550609Y-134764304D01*
X117407752Y-134764304D01*
X117217276Y-134716685D01*
X117122038Y-134669066D01*
X117026800Y-134573828D01*
X116979180Y-134430971D01*
X116979180Y-134335733D01*
X117026800Y-134192876D01*
X117074419Y-134145257D01*
X117979180Y-133192876D02*
X117979180Y-133764304D01*
X117979180Y-133478590D02*
X116979180Y-133478590D01*
X117122038Y-133573828D01*
X117217276Y-133669066D01*
X117264895Y-133764304D01*
X117979180Y-132240495D02*
X117979180Y-132811923D01*
X117979180Y-132526209D02*
X116979180Y-132526209D01*
X117122038Y-132621447D01*
X117217276Y-132716685D01*
X117264895Y-132811923D01*
X121439942Y-134043657D02*
X121487561Y-134091276D01*
X121535180Y-134234133D01*
X121535180Y-134329371D01*
X121487561Y-134472228D01*
X121392323Y-134567466D01*
X121297085Y-134615085D01*
X121106609Y-134662704D01*
X120963752Y-134662704D01*
X120773276Y-134615085D01*
X120678038Y-134567466D01*
X120582800Y-134472228D01*
X120535180Y-134329371D01*
X120535180Y-134234133D01*
X120582800Y-134091276D01*
X120630419Y-134043657D01*
X121535180Y-133091276D02*
X121535180Y-133662704D01*
X121535180Y-133376990D02*
X120535180Y-133376990D01*
X120678038Y-133472228D01*
X120773276Y-133567466D01*
X120820895Y-133662704D01*
X120630419Y-132710323D02*
X120582800Y-132662704D01*
X120535180Y-132567466D01*
X120535180Y-132329371D01*
X120582800Y-132234133D01*
X120630419Y-132186514D01*
X120725657Y-132138895D01*
X120820895Y-132138895D01*
X120963752Y-132186514D01*
X121535180Y-132757942D01*
X121535180Y-132138895D01*
X130723642Y-129928857D02*
X130771261Y-129976476D01*
X130818880Y-130119333D01*
X130818880Y-130214571D01*
X130771261Y-130357428D01*
X130676023Y-130452666D01*
X130580785Y-130500285D01*
X130390309Y-130547904D01*
X130247452Y-130547904D01*
X130056976Y-130500285D01*
X129961738Y-130452666D01*
X129866500Y-130357428D01*
X129818880Y-130214571D01*
X129818880Y-130119333D01*
X129866500Y-129976476D01*
X129914119Y-129928857D01*
X130818880Y-128976476D02*
X130818880Y-129547904D01*
X130818880Y-129262190D02*
X129818880Y-129262190D01*
X129961738Y-129357428D01*
X130056976Y-129452666D01*
X130104595Y-129547904D01*
X129818880Y-128643142D02*
X129818880Y-128024095D01*
X130199833Y-128357428D01*
X130199833Y-128214571D01*
X130247452Y-128119333D01*
X130295071Y-128071714D01*
X130390309Y-128024095D01*
X130628404Y-128024095D01*
X130723642Y-128071714D01*
X130771261Y-128119333D01*
X130818880Y-128214571D01*
X130818880Y-128500285D01*
X130771261Y-128595523D01*
X130723642Y-128643142D01*
X126671342Y-124711457D02*
X126718961Y-124759076D01*
X126766580Y-124901933D01*
X126766580Y-124997171D01*
X126718961Y-125140028D01*
X126623723Y-125235266D01*
X126528485Y-125282885D01*
X126338009Y-125330504D01*
X126195152Y-125330504D01*
X126004676Y-125282885D01*
X125909438Y-125235266D01*
X125814200Y-125140028D01*
X125766580Y-124997171D01*
X125766580Y-124901933D01*
X125814200Y-124759076D01*
X125861819Y-124711457D01*
X126766580Y-123759076D02*
X126766580Y-124330504D01*
X126766580Y-124044790D02*
X125766580Y-124044790D01*
X125909438Y-124140028D01*
X126004676Y-124235266D01*
X126052295Y-124330504D01*
X126099914Y-122901933D02*
X126766580Y-122901933D01*
X125718961Y-123140028D02*
X126433247Y-123378123D01*
X126433247Y-122759076D01*
X130328942Y-124724157D02*
X130376561Y-124771776D01*
X130424180Y-124914633D01*
X130424180Y-125009871D01*
X130376561Y-125152728D01*
X130281323Y-125247966D01*
X130186085Y-125295585D01*
X129995609Y-125343204D01*
X129852752Y-125343204D01*
X129662276Y-125295585D01*
X129567038Y-125247966D01*
X129471800Y-125152728D01*
X129424180Y-125009871D01*
X129424180Y-124914633D01*
X129471800Y-124771776D01*
X129519419Y-124724157D01*
X130424180Y-123771776D02*
X130424180Y-124343204D01*
X130424180Y-124057490D02*
X129424180Y-124057490D01*
X129567038Y-124152728D01*
X129662276Y-124247966D01*
X129709895Y-124343204D01*
X129424180Y-122867014D02*
X129424180Y-123343204D01*
X129900371Y-123390823D01*
X129852752Y-123343204D01*
X129805133Y-123247966D01*
X129805133Y-123009871D01*
X129852752Y-122914633D01*
X129900371Y-122867014D01*
X129995609Y-122819395D01*
X130233704Y-122819395D01*
X130328942Y-122867014D01*
X130376561Y-122914633D01*
X130424180Y-123009871D01*
X130424180Y-123247966D01*
X130376561Y-123343204D01*
X130328942Y-123390823D01*
X117568742Y-117781342D02*
X117521123Y-117828961D01*
X117378266Y-117876580D01*
X117283028Y-117876580D01*
X117140171Y-117828961D01*
X117044933Y-117733723D01*
X116997314Y-117638485D01*
X116949695Y-117448009D01*
X116949695Y-117305152D01*
X116997314Y-117114676D01*
X117044933Y-117019438D01*
X117140171Y-116924200D01*
X117283028Y-116876580D01*
X117378266Y-116876580D01*
X117521123Y-116924200D01*
X117568742Y-116971819D01*
X118521123Y-117876580D02*
X117949695Y-117876580D01*
X118235409Y-117876580D02*
X118235409Y-116876580D01*
X118140171Y-117019438D01*
X118044933Y-117114676D01*
X117949695Y-117162295D01*
X119378266Y-116876580D02*
X119187790Y-116876580D01*
X119092552Y-116924200D01*
X119044933Y-116971819D01*
X118949695Y-117114676D01*
X118902076Y-117305152D01*
X118902076Y-117686104D01*
X118949695Y-117781342D01*
X118997314Y-117828961D01*
X119092552Y-117876580D01*
X119283028Y-117876580D01*
X119378266Y-117828961D01*
X119425885Y-117781342D01*
X119473504Y-117686104D01*
X119473504Y-117448009D01*
X119425885Y-117352771D01*
X119378266Y-117305152D01*
X119283028Y-117257533D01*
X119092552Y-117257533D01*
X118997314Y-117305152D01*
X118949695Y-117352771D01*
X118902076Y-117448009D01*
X160507442Y-128957342D02*
X160459823Y-129004961D01*
X160316966Y-129052580D01*
X160221728Y-129052580D01*
X160078871Y-129004961D01*
X159983633Y-128909723D01*
X159936014Y-128814485D01*
X159888395Y-128624009D01*
X159888395Y-128481152D01*
X159936014Y-128290676D01*
X159983633Y-128195438D01*
X160078871Y-128100200D01*
X160221728Y-128052580D01*
X160316966Y-128052580D01*
X160459823Y-128100200D01*
X160507442Y-128147819D01*
X161459823Y-129052580D02*
X160888395Y-129052580D01*
X161174109Y-129052580D02*
X161174109Y-128052580D01*
X161078871Y-128195438D01*
X160983633Y-128290676D01*
X160888395Y-128338295D01*
X161793157Y-128052580D02*
X162459823Y-128052580D01*
X162031252Y-129052580D01*
X160710642Y-135725442D02*
X160663023Y-135773061D01*
X160520166Y-135820680D01*
X160424928Y-135820680D01*
X160282071Y-135773061D01*
X160186833Y-135677823D01*
X160139214Y-135582585D01*
X160091595Y-135392109D01*
X160091595Y-135249252D01*
X160139214Y-135058776D01*
X160186833Y-134963538D01*
X160282071Y-134868300D01*
X160424928Y-134820680D01*
X160520166Y-134820680D01*
X160663023Y-134868300D01*
X160710642Y-134915919D01*
X161663023Y-135820680D02*
X161091595Y-135820680D01*
X161377309Y-135820680D02*
X161377309Y-134820680D01*
X161282071Y-134963538D01*
X161186833Y-135058776D01*
X161091595Y-135106395D01*
X162234452Y-135249252D02*
X162139214Y-135201633D01*
X162091595Y-135154014D01*
X162043976Y-135058776D01*
X162043976Y-135011157D01*
X162091595Y-134915919D01*
X162139214Y-134868300D01*
X162234452Y-134820680D01*
X162424928Y-134820680D01*
X162520166Y-134868300D01*
X162567785Y-134915919D01*
X162615404Y-135011157D01*
X162615404Y-135058776D01*
X162567785Y-135154014D01*
X162520166Y-135201633D01*
X162424928Y-135249252D01*
X162234452Y-135249252D01*
X162139214Y-135296871D01*
X162091595Y-135344490D01*
X162043976Y-135439728D01*
X162043976Y-135630204D01*
X162091595Y-135725442D01*
X162139214Y-135773061D01*
X162234452Y-135820680D01*
X162424928Y-135820680D01*
X162520166Y-135773061D01*
X162567785Y-135725442D01*
X162615404Y-135630204D01*
X162615404Y-135439728D01*
X162567785Y-135344490D01*
X162520166Y-135296871D01*
X162424928Y-135249252D01*
X153146166Y-116736880D02*
X153146166Y-117451166D01*
X153098547Y-117594023D01*
X153003309Y-117689261D01*
X152860452Y-117736880D01*
X152765214Y-117736880D01*
X153574738Y-116832119D02*
X153622357Y-116784500D01*
X153717595Y-116736880D01*
X153955690Y-116736880D01*
X154050928Y-116784500D01*
X154098547Y-116832119D01*
X154146166Y-116927357D01*
X154146166Y-117022595D01*
X154098547Y-117165452D01*
X153527119Y-117736880D01*
X154146166Y-117736880D01*
X96670880Y-134051633D02*
X97385166Y-134051633D01*
X97528023Y-134099252D01*
X97623261Y-134194490D01*
X97670880Y-134337347D01*
X97670880Y-134432585D01*
X96670880Y-133670680D02*
X96670880Y-133051633D01*
X97051833Y-133384966D01*
X97051833Y-133242109D01*
X97099452Y-133146871D01*
X97147071Y-133099252D01*
X97242309Y-133051633D01*
X97480404Y-133051633D01*
X97575642Y-133099252D01*
X97623261Y-133146871D01*
X97670880Y-133242109D01*
X97670880Y-133527823D01*
X97623261Y-133623061D01*
X97575642Y-133670680D01*
X168513166Y-116736880D02*
X168513166Y-117451166D01*
X168465547Y-117594023D01*
X168370309Y-117689261D01*
X168227452Y-117736880D01*
X168132214Y-117736880D01*
X169417928Y-117070214D02*
X169417928Y-117736880D01*
X169179833Y-116689261D02*
X168941738Y-117403547D01*
X169560785Y-117403547D01*
X157464166Y-116736880D02*
X157464166Y-117451166D01*
X157416547Y-117594023D01*
X157321309Y-117689261D01*
X157178452Y-117736880D01*
X157083214Y-117736880D01*
X158416547Y-116736880D02*
X157940357Y-116736880D01*
X157892738Y-117213071D01*
X157940357Y-117165452D01*
X158035595Y-117117833D01*
X158273690Y-117117833D01*
X158368928Y-117165452D01*
X158416547Y-117213071D01*
X158464166Y-117308309D01*
X158464166Y-117546404D01*
X158416547Y-117641642D01*
X158368928Y-117689261D01*
X158273690Y-117736880D01*
X158035595Y-117736880D01*
X157940357Y-117689261D01*
X157892738Y-117641642D01*
X112653380Y-137366333D02*
X113367666Y-137366333D01*
X113510523Y-137413952D01*
X113605761Y-137509190D01*
X113653380Y-137652047D01*
X113653380Y-137747285D01*
X112653380Y-136461571D02*
X112653380Y-136652047D01*
X112701000Y-136747285D01*
X112748619Y-136794904D01*
X112891476Y-136890142D01*
X113081952Y-136937761D01*
X113462904Y-136937761D01*
X113558142Y-136890142D01*
X113605761Y-136842523D01*
X113653380Y-136747285D01*
X113653380Y-136556809D01*
X113605761Y-136461571D01*
X113558142Y-136413952D01*
X113462904Y-136366333D01*
X113224809Y-136366333D01*
X113129571Y-136413952D01*
X113081952Y-136461571D01*
X113034333Y-136556809D01*
X113034333Y-136747285D01*
X113081952Y-136842523D01*
X113129571Y-136890142D01*
X113224809Y-136937761D01*
X149656833Y-146119904D02*
X149656833Y-146691333D01*
X149618738Y-146805619D01*
X149542547Y-146881809D01*
X149428261Y-146919904D01*
X149352071Y-146919904D01*
X149961595Y-146119904D02*
X150494928Y-146119904D01*
X150152071Y-146919904D01*
X158229333Y-146119904D02*
X158229333Y-146691333D01*
X158191238Y-146805619D01*
X158115047Y-146881809D01*
X158000761Y-146919904D01*
X157924571Y-146919904D01*
X158724571Y-146462761D02*
X158648380Y-146424666D01*
X158610285Y-146386571D01*
X158572190Y-146310380D01*
X158572190Y-146272285D01*
X158610285Y-146196095D01*
X158648380Y-146158000D01*
X158724571Y-146119904D01*
X158876952Y-146119904D01*
X158953142Y-146158000D01*
X158991238Y-146196095D01*
X159029333Y-146272285D01*
X159029333Y-146310380D01*
X158991238Y-146386571D01*
X158953142Y-146424666D01*
X158876952Y-146462761D01*
X158724571Y-146462761D01*
X158648380Y-146500857D01*
X158610285Y-146538952D01*
X158572190Y-146615142D01*
X158572190Y-146767523D01*
X158610285Y-146843714D01*
X158648380Y-146881809D01*
X158724571Y-146919904D01*
X158876952Y-146919904D01*
X158953142Y-146881809D01*
X158991238Y-146843714D01*
X159029333Y-146767523D01*
X159029333Y-146615142D01*
X158991238Y-146538952D01*
X158953142Y-146500857D01*
X158876952Y-146462761D01*
X153847833Y-146056404D02*
X153847833Y-146627833D01*
X153809738Y-146742119D01*
X153733547Y-146818309D01*
X153619261Y-146856404D01*
X153543071Y-146856404D01*
X154266880Y-146856404D02*
X154419261Y-146856404D01*
X154495452Y-146818309D01*
X154533547Y-146780214D01*
X154609738Y-146665928D01*
X154647833Y-146513547D01*
X154647833Y-146208785D01*
X154609738Y-146132595D01*
X154571642Y-146094500D01*
X154495452Y-146056404D01*
X154343071Y-146056404D01*
X154266880Y-146094500D01*
X154228785Y-146132595D01*
X154190690Y-146208785D01*
X154190690Y-146399261D01*
X154228785Y-146475452D01*
X154266880Y-146513547D01*
X154343071Y-146551642D01*
X154495452Y-146551642D01*
X154571642Y-146513547D01*
X154609738Y-146475452D01*
X154647833Y-146399261D01*
D16*
X113703185Y-127622704D02*
X113703185Y-126822704D01*
X114846042Y-126822704D02*
X114922233Y-126822704D01*
X114998423Y-126860800D01*
X115036519Y-126898895D01*
X115074614Y-126975085D01*
X115112709Y-127127466D01*
X115112709Y-127317942D01*
X115074614Y-127470323D01*
X115036519Y-127546514D01*
X114998423Y-127584609D01*
X114922233Y-127622704D01*
X114846042Y-127622704D01*
X114769852Y-127584609D01*
X114731757Y-127546514D01*
X114693661Y-127470323D01*
X114655566Y-127317942D01*
X114655566Y-127127466D01*
X114693661Y-126975085D01*
X114731757Y-126898895D01*
X114769852Y-126860800D01*
X114846042Y-126822704D01*
X117132280Y-127622704D02*
X117132280Y-126822704D01*
X118541804Y-127622704D02*
X118084661Y-127622704D01*
X118313233Y-127622704D02*
X118313233Y-126822704D01*
X118237042Y-126936990D01*
X118160852Y-127013180D01*
X118084661Y-127051276D01*
X118998947Y-127165561D02*
X118922757Y-127127466D01*
X118884661Y-127089371D01*
X118846566Y-127013180D01*
X118846566Y-126975085D01*
X118884661Y-126898895D01*
X118922757Y-126860800D01*
X118998947Y-126822704D01*
X119151328Y-126822704D01*
X119227519Y-126860800D01*
X119265614Y-126898895D01*
X119303709Y-126975085D01*
X119303709Y-127013180D01*
X119265614Y-127089371D01*
X119227519Y-127127466D01*
X119151328Y-127165561D01*
X118998947Y-127165561D01*
X118922757Y-127203657D01*
X118884661Y-127241752D01*
X118846566Y-127317942D01*
X118846566Y-127470323D01*
X118884661Y-127546514D01*
X118922757Y-127584609D01*
X118998947Y-127622704D01*
X119151328Y-127622704D01*
X119227519Y-127584609D01*
X119265614Y-127546514D01*
X119303709Y-127470323D01*
X119303709Y-127317942D01*
X119265614Y-127241752D01*
X119227519Y-127203657D01*
X119151328Y-127165561D01*
X119798947Y-126822704D02*
X119875138Y-126822704D01*
X119951328Y-126860800D01*
X119989423Y-126898895D01*
X120027519Y-126975085D01*
X120065614Y-127127466D01*
X120065614Y-127317942D01*
X120027519Y-127470323D01*
X119989423Y-127546514D01*
X119951328Y-127584609D01*
X119875138Y-127622704D01*
X119798947Y-127622704D01*
X119722757Y-127584609D01*
X119684661Y-127546514D01*
X119646566Y-127470323D01*
X119608471Y-127317942D01*
X119608471Y-127127466D01*
X119646566Y-126975085D01*
X119684661Y-126898895D01*
X119722757Y-126860800D01*
X119798947Y-126822704D01*
X122123295Y-127622695D02*
X122047104Y-127584600D01*
X121970914Y-127508409D01*
X121856628Y-127394123D01*
X121780438Y-127356028D01*
X121704247Y-127356028D01*
X121742342Y-127546504D02*
X121666152Y-127508409D01*
X121589961Y-127432219D01*
X121551866Y-127279838D01*
X121551866Y-127013171D01*
X121589961Y-126860790D01*
X121666152Y-126784600D01*
X121742342Y-126746504D01*
X121894723Y-126746504D01*
X121970914Y-126784600D01*
X122047104Y-126860790D01*
X122085200Y-127013171D01*
X122085200Y-127279838D01*
X122047104Y-127432219D01*
X121970914Y-127508409D01*
X121894723Y-127546504D01*
X121742342Y-127546504D01*
X123075676Y-127546504D02*
X123228057Y-127546504D01*
X123304247Y-127508409D01*
X123342342Y-127470314D01*
X123418533Y-127356028D01*
X123456628Y-127203647D01*
X123456628Y-126898885D01*
X123418533Y-126822695D01*
X123380438Y-126784600D01*
X123304247Y-126746504D01*
X123151866Y-126746504D01*
X123075676Y-126784600D01*
X123037580Y-126822695D01*
X122999485Y-126898885D01*
X122999485Y-127089361D01*
X123037580Y-127165552D01*
X123075676Y-127203647D01*
X123151866Y-127241742D01*
X123304247Y-127241742D01*
X123380438Y-127203647D01*
X123418533Y-127165552D01*
X123456628Y-127089361D01*
X123951866Y-126746504D02*
X124028057Y-126746504D01*
X124104247Y-126784600D01*
X124142342Y-126822695D01*
X124180438Y-126898885D01*
X124218533Y-127051266D01*
X124218533Y-127241742D01*
X124180438Y-127394123D01*
X124142342Y-127470314D01*
X124104247Y-127508409D01*
X124028057Y-127546504D01*
X123951866Y-127546504D01*
X123875676Y-127508409D01*
X123837580Y-127470314D01*
X123799485Y-127394123D01*
X123761390Y-127241742D01*
X123761390Y-127051266D01*
X123799485Y-126898885D01*
X123837580Y-126822695D01*
X123875676Y-126784600D01*
X123951866Y-126746504D01*
X125869842Y-127597295D02*
X125793652Y-127559200D01*
X125717461Y-127483009D01*
X125603176Y-127368723D01*
X125526985Y-127330628D01*
X125450795Y-127330628D01*
X125488890Y-127521104D02*
X125412700Y-127483009D01*
X125336509Y-127406819D01*
X125298414Y-127254438D01*
X125298414Y-126987771D01*
X125336509Y-126835390D01*
X125412700Y-126759200D01*
X125488890Y-126721104D01*
X125641271Y-126721104D01*
X125717461Y-126759200D01*
X125793652Y-126835390D01*
X125831747Y-126987771D01*
X125831747Y-127254438D01*
X125793652Y-127406819D01*
X125717461Y-127483009D01*
X125641271Y-127521104D01*
X125488890Y-127521104D01*
X126746033Y-126797295D02*
X126784128Y-126759200D01*
X126860319Y-126721104D01*
X127050795Y-126721104D01*
X127126985Y-126759200D01*
X127165080Y-126797295D01*
X127203176Y-126873485D01*
X127203176Y-126949676D01*
X127165080Y-127063961D01*
X126707938Y-127521104D01*
X127203176Y-127521104D01*
X127469842Y-126721104D02*
X128003176Y-126721104D01*
X127660319Y-127521104D01*
X128460319Y-126721104D02*
X128536509Y-126721104D01*
X128612700Y-126759200D01*
X128650795Y-126797295D01*
X128688890Y-126873485D01*
X128726985Y-127025866D01*
X128726985Y-127216342D01*
X128688890Y-127368723D01*
X128650795Y-127444914D01*
X128612700Y-127483009D01*
X128536509Y-127521104D01*
X128460319Y-127521104D01*
X128384128Y-127483009D01*
X128346033Y-127444914D01*
X128307938Y-127368723D01*
X128269842Y-127216342D01*
X128269842Y-127025866D01*
X128307938Y-126873485D01*
X128346033Y-126797295D01*
X128384128Y-126759200D01*
X128460319Y-126721104D01*
D17*
X162772268Y-137972646D02*
X163489309Y-137972646D01*
X163632717Y-138020449D01*
X163728323Y-138116055D01*
X163776126Y-138259463D01*
X163776126Y-138355069D01*
X163776126Y-136968788D02*
X163776126Y-137542422D01*
X163776126Y-137255605D02*
X162772268Y-137255605D01*
X162915676Y-137351211D01*
X163011282Y-137446816D01*
X163059084Y-137542422D01*
X163106887Y-136108339D02*
X163776126Y-136108339D01*
X162724465Y-136347353D02*
X163441506Y-136586366D01*
X163441506Y-135964930D01*
D10*
X113009466Y-118654580D02*
X113009466Y-119368866D01*
X112961847Y-119511723D01*
X112866609Y-119606961D01*
X112723752Y-119654580D01*
X112628514Y-119654580D01*
X113485657Y-119654580D02*
X113485657Y-118654580D01*
X113866609Y-118654580D01*
X113961847Y-118702200D01*
X114009466Y-118749819D01*
X114057085Y-118845057D01*
X114057085Y-118987914D01*
X114009466Y-119083152D01*
X113961847Y-119130771D01*
X113866609Y-119178390D01*
X113485657Y-119178390D01*
X115009466Y-119654580D02*
X114438038Y-119654580D01*
X114723752Y-119654580D02*
X114723752Y-118654580D01*
X114628514Y-118797438D01*
X114533276Y-118892676D01*
X114438038Y-118940295D01*
X162298166Y-116736880D02*
X162298166Y-117451166D01*
X162250547Y-117594023D01*
X162155309Y-117689261D01*
X162012452Y-117736880D01*
X161917214Y-117736880D01*
X162774357Y-117736880D02*
X162774357Y-116736880D01*
X163155309Y-116736880D01*
X163250547Y-116784500D01*
X163298166Y-116832119D01*
X163345785Y-116927357D01*
X163345785Y-117070214D01*
X163298166Y-117165452D01*
X163250547Y-117213071D01*
X163155309Y-117260690D01*
X162774357Y-117260690D01*
X163726738Y-116832119D02*
X163774357Y-116784500D01*
X163869595Y-116736880D01*
X164107690Y-116736880D01*
X164202928Y-116784500D01*
X164250547Y-116832119D01*
X164298166Y-116927357D01*
X164298166Y-117022595D01*
X164250547Y-117165452D01*
X163679119Y-117736880D01*
X164298166Y-117736880D01*
X163544333Y-146056404D02*
X163544333Y-146627833D01*
X163506238Y-146742119D01*
X163430047Y-146818309D01*
X163315761Y-146856404D01*
X163239571Y-146856404D01*
X163925285Y-146856404D02*
X163925285Y-146056404D01*
X164230047Y-146056404D01*
X164306238Y-146094500D01*
X164344333Y-146132595D01*
X164382428Y-146208785D01*
X164382428Y-146323071D01*
X164344333Y-146399261D01*
X164306238Y-146437357D01*
X164230047Y-146475452D01*
X163925285Y-146475452D01*
X164649095Y-146056404D02*
X165144333Y-146056404D01*
X164877666Y-146361166D01*
X164991952Y-146361166D01*
X165068142Y-146399261D01*
X165106238Y-146437357D01*
X165144333Y-146513547D01*
X165144333Y-146704023D01*
X165106238Y-146780214D01*
X165068142Y-146818309D01*
X164991952Y-146856404D01*
X164763380Y-146856404D01*
X164687190Y-146818309D01*
X164649095Y-146780214D01*
D11*
X169703833Y-145980204D02*
X169703833Y-146551633D01*
X169665738Y-146665919D01*
X169589547Y-146742109D01*
X169475261Y-146780204D01*
X169399071Y-146780204D01*
X170084785Y-146780204D02*
X170084785Y-145980204D01*
X170389547Y-145980204D01*
X170465738Y-146018300D01*
X170503833Y-146056395D01*
X170541928Y-146132585D01*
X170541928Y-146246871D01*
X170503833Y-146323061D01*
X170465738Y-146361157D01*
X170389547Y-146399252D01*
X170084785Y-146399252D01*
X171227642Y-146246871D02*
X171227642Y-146780204D01*
X171037166Y-145942109D02*
X170846690Y-146513538D01*
X171341928Y-146513538D01*
D10*
X101176080Y-142051066D02*
X101176080Y-142527257D01*
X100176080Y-142527257D01*
X101176080Y-141193923D02*
X101176080Y-141765352D01*
X101176080Y-141479638D02*
X100176080Y-141479638D01*
X100318938Y-141574876D01*
X100414176Y-141670114D01*
X100461795Y-141765352D01*
X109862880Y-144184666D02*
X109862880Y-144660857D01*
X108862880Y-144660857D01*
X108958119Y-143898952D02*
X108910500Y-143851333D01*
X108862880Y-143756095D01*
X108862880Y-143518000D01*
X108910500Y-143422761D01*
X108958119Y-143375142D01*
X109053357Y-143327523D01*
X109148595Y-143327523D01*
X109291452Y-143375142D01*
X109862880Y-143946571D01*
X109862880Y-143327523D01*
X118282980Y-143321066D02*
X118282980Y-143797257D01*
X117282980Y-143797257D01*
X117282980Y-143082971D02*
X117282980Y-142463923D01*
X117663933Y-142797257D01*
X117663933Y-142654400D01*
X117711552Y-142559161D01*
X117759171Y-142511542D01*
X117854409Y-142463923D01*
X118092504Y-142463923D01*
X118187742Y-142511542D01*
X118235361Y-142559161D01*
X118282980Y-142654400D01*
X118282980Y-142940114D01*
X118235361Y-143035352D01*
X118187742Y-143082971D01*
X139786661Y-131850419D02*
X139691423Y-131802800D01*
X139596185Y-131707561D01*
X139453328Y-131564704D01*
X139358090Y-131517085D01*
X139262852Y-131517085D01*
X139310471Y-131755180D02*
X139215233Y-131707561D01*
X139119995Y-131612323D01*
X139072376Y-131421847D01*
X139072376Y-131088514D01*
X139119995Y-130898038D01*
X139215233Y-130802800D01*
X139310471Y-130755180D01*
X139500947Y-130755180D01*
X139596185Y-130802800D01*
X139691423Y-130898038D01*
X139739042Y-131088514D01*
X139739042Y-131421847D01*
X139691423Y-131612323D01*
X139596185Y-131707561D01*
X139500947Y-131755180D01*
X139310471Y-131755180D01*
X140691423Y-131755180D02*
X140119995Y-131755180D01*
X140405709Y-131755180D02*
X140405709Y-130755180D01*
X140310471Y-130898038D01*
X140215233Y-130993276D01*
X140119995Y-131040895D01*
X152123661Y-127661319D02*
X152028423Y-127613700D01*
X151933185Y-127518461D01*
X151790328Y-127375604D01*
X151695090Y-127327985D01*
X151599852Y-127327985D01*
X151647471Y-127566080D02*
X151552233Y-127518461D01*
X151456995Y-127423223D01*
X151409376Y-127232747D01*
X151409376Y-126899414D01*
X151456995Y-126708938D01*
X151552233Y-126613700D01*
X151647471Y-126566080D01*
X151837947Y-126566080D01*
X151933185Y-126613700D01*
X152028423Y-126708938D01*
X152076042Y-126899414D01*
X152076042Y-127232747D01*
X152028423Y-127423223D01*
X151933185Y-127518461D01*
X151837947Y-127566080D01*
X151647471Y-127566080D01*
X152456995Y-126661319D02*
X152504614Y-126613700D01*
X152599852Y-126566080D01*
X152837947Y-126566080D01*
X152933185Y-126613700D01*
X152980804Y-126661319D01*
X153028423Y-126756557D01*
X153028423Y-126851795D01*
X152980804Y-126994652D01*
X152409376Y-127566080D01*
X153028423Y-127566080D01*
X152444461Y-133518519D02*
X152349223Y-133470900D01*
X152253985Y-133375661D01*
X152111128Y-133232804D01*
X152015890Y-133185185D01*
X151920652Y-133185185D01*
X151968271Y-133423280D02*
X151873033Y-133375661D01*
X151777795Y-133280423D01*
X151730176Y-133089947D01*
X151730176Y-132756614D01*
X151777795Y-132566138D01*
X151873033Y-132470900D01*
X151968271Y-132423280D01*
X152158747Y-132423280D01*
X152253985Y-132470900D01*
X152349223Y-132566138D01*
X152396842Y-132756614D01*
X152396842Y-133089947D01*
X152349223Y-133280423D01*
X152253985Y-133375661D01*
X152158747Y-133423280D01*
X151968271Y-133423280D01*
X152730176Y-132423280D02*
X153349223Y-132423280D01*
X153015890Y-132804233D01*
X153158747Y-132804233D01*
X153253985Y-132851852D01*
X153301604Y-132899471D01*
X153349223Y-132994709D01*
X153349223Y-133232804D01*
X153301604Y-133328042D01*
X153253985Y-133375661D01*
X153158747Y-133423280D01*
X152873033Y-133423280D01*
X152777795Y-133375661D01*
X152730176Y-133328042D01*
X147966133Y-127466080D02*
X147632800Y-126989890D01*
X147394704Y-127466080D02*
X147394704Y-126466080D01*
X147775657Y-126466080D01*
X147870895Y-126513700D01*
X147918514Y-126561319D01*
X147966133Y-126656557D01*
X147966133Y-126799414D01*
X147918514Y-126894652D01*
X147870895Y-126942271D01*
X147775657Y-126989890D01*
X147394704Y-126989890D01*
X148918514Y-127466080D02*
X148347085Y-127466080D01*
X148632800Y-127466080D02*
X148632800Y-126466080D01*
X148537561Y-126608938D01*
X148442323Y-126704176D01*
X148347085Y-126751795D01*
X143813233Y-127440680D02*
X143479900Y-126964490D01*
X143241804Y-127440680D02*
X143241804Y-126440680D01*
X143622757Y-126440680D01*
X143717995Y-126488300D01*
X143765614Y-126535919D01*
X143813233Y-126631157D01*
X143813233Y-126774014D01*
X143765614Y-126869252D01*
X143717995Y-126916871D01*
X143622757Y-126964490D01*
X143241804Y-126964490D01*
X144194185Y-126535919D02*
X144241804Y-126488300D01*
X144337042Y-126440680D01*
X144575138Y-126440680D01*
X144670376Y-126488300D01*
X144717995Y-126535919D01*
X144765614Y-126631157D01*
X144765614Y-126726395D01*
X144717995Y-126869252D01*
X144146566Y-127440680D01*
X144765614Y-127440680D01*
X147966133Y-131098280D02*
X147632800Y-130622090D01*
X147394704Y-131098280D02*
X147394704Y-130098280D01*
X147775657Y-130098280D01*
X147870895Y-130145900D01*
X147918514Y-130193519D01*
X147966133Y-130288757D01*
X147966133Y-130431614D01*
X147918514Y-130526852D01*
X147870895Y-130574471D01*
X147775657Y-130622090D01*
X147394704Y-130622090D01*
X148299466Y-130098280D02*
X148918514Y-130098280D01*
X148585180Y-130479233D01*
X148728038Y-130479233D01*
X148823276Y-130526852D01*
X148870895Y-130574471D01*
X148918514Y-130669709D01*
X148918514Y-130907804D01*
X148870895Y-131003042D01*
X148823276Y-131050661D01*
X148728038Y-131098280D01*
X148442323Y-131098280D01*
X148347085Y-131050661D01*
X148299466Y-131003042D01*
X147900333Y-134679680D02*
X147567000Y-134203490D01*
X147328904Y-134679680D02*
X147328904Y-133679680D01*
X147709857Y-133679680D01*
X147805095Y-133727300D01*
X147852714Y-133774919D01*
X147900333Y-133870157D01*
X147900333Y-134013014D01*
X147852714Y-134108252D01*
X147805095Y-134155871D01*
X147709857Y-134203490D01*
X147328904Y-134203490D01*
X148757476Y-134013014D02*
X148757476Y-134679680D01*
X148519380Y-133632061D02*
X148281285Y-134346347D01*
X148900333Y-134346347D01*
X157006233Y-134882880D02*
X156672900Y-134406690D01*
X156434804Y-134882880D02*
X156434804Y-133882880D01*
X156815757Y-133882880D01*
X156910995Y-133930500D01*
X156958614Y-133978119D01*
X157006233Y-134073357D01*
X157006233Y-134216214D01*
X156958614Y-134311452D01*
X156910995Y-134359071D01*
X156815757Y-134406690D01*
X156434804Y-134406690D01*
X157910995Y-133882880D02*
X157434804Y-133882880D01*
X157387185Y-134359071D01*
X157434804Y-134311452D01*
X157530042Y-134263833D01*
X157768138Y-134263833D01*
X157863376Y-134311452D01*
X157910995Y-134359071D01*
X157958614Y-134454309D01*
X157958614Y-134692404D01*
X157910995Y-134787642D01*
X157863376Y-134835261D01*
X157768138Y-134882880D01*
X157530042Y-134882880D01*
X157434804Y-134835261D01*
X157387185Y-134787642D01*
X109824780Y-141060466D02*
X109348590Y-141393800D01*
X109824780Y-141631895D02*
X108824780Y-141631895D01*
X108824780Y-141250942D01*
X108872400Y-141155704D01*
X108920019Y-141108085D01*
X109015257Y-141060466D01*
X109158114Y-141060466D01*
X109253352Y-141108085D01*
X109300971Y-141155704D01*
X109348590Y-141250942D01*
X109348590Y-141631895D01*
X108824780Y-140203323D02*
X108824780Y-140393800D01*
X108872400Y-140489038D01*
X108920019Y-140536657D01*
X109062876Y-140631895D01*
X109253352Y-140679514D01*
X109634304Y-140679514D01*
X109729542Y-140631895D01*
X109777161Y-140584276D01*
X109824780Y-140489038D01*
X109824780Y-140298561D01*
X109777161Y-140203323D01*
X109729542Y-140155704D01*
X109634304Y-140108085D01*
X109396209Y-140108085D01*
X109300971Y-140155704D01*
X109253352Y-140203323D01*
X109205733Y-140298561D01*
X109205733Y-140489038D01*
X109253352Y-140584276D01*
X109300971Y-140631895D01*
X109396209Y-140679514D01*
X106371380Y-137136166D02*
X105895190Y-137469500D01*
X106371380Y-137707595D02*
X105371380Y-137707595D01*
X105371380Y-137326642D01*
X105419000Y-137231404D01*
X105466619Y-137183785D01*
X105561857Y-137136166D01*
X105704714Y-137136166D01*
X105799952Y-137183785D01*
X105847571Y-137231404D01*
X105895190Y-137326642D01*
X105895190Y-137707595D01*
X105371380Y-136802833D02*
X105371380Y-136136166D01*
X106371380Y-136564738D01*
X122499380Y-138391166D02*
X122023190Y-138724500D01*
X122499380Y-138962595D02*
X121499380Y-138962595D01*
X121499380Y-138581642D01*
X121547000Y-138486404D01*
X121594619Y-138438785D01*
X121689857Y-138391166D01*
X121832714Y-138391166D01*
X121927952Y-138438785D01*
X121975571Y-138486404D01*
X122023190Y-138581642D01*
X122023190Y-138962595D01*
X121927952Y-137819738D02*
X121880333Y-137914976D01*
X121832714Y-137962595D01*
X121737476Y-138010214D01*
X121689857Y-138010214D01*
X121594619Y-137962595D01*
X121547000Y-137914976D01*
X121499380Y-137819738D01*
X121499380Y-137629261D01*
X121547000Y-137534023D01*
X121594619Y-137486404D01*
X121689857Y-137438785D01*
X121737476Y-137438785D01*
X121832714Y-137486404D01*
X121880333Y-137534023D01*
X121927952Y-137629261D01*
X121927952Y-137819738D01*
X121975571Y-137914976D01*
X122023190Y-137962595D01*
X122118428Y-138010214D01*
X122308904Y-138010214D01*
X122404142Y-137962595D01*
X122451761Y-137914976D01*
X122499380Y-137819738D01*
X122499380Y-137629261D01*
X122451761Y-137534023D01*
X122404142Y-137486404D01*
X122308904Y-137438785D01*
X122118428Y-137438785D01*
X122023190Y-137486404D01*
X121975571Y-137534023D01*
X121927952Y-137629261D01*
X132811780Y-138495066D02*
X132335590Y-138828400D01*
X132811780Y-139066495D02*
X131811780Y-139066495D01*
X131811780Y-138685542D01*
X131859400Y-138590304D01*
X131907019Y-138542685D01*
X132002257Y-138495066D01*
X132145114Y-138495066D01*
X132240352Y-138542685D01*
X132287971Y-138590304D01*
X132335590Y-138685542D01*
X132335590Y-139066495D01*
X132811780Y-138018876D02*
X132811780Y-137828400D01*
X132764161Y-137733161D01*
X132716542Y-137685542D01*
X132573685Y-137590304D01*
X132383209Y-137542685D01*
X132002257Y-137542685D01*
X131907019Y-137590304D01*
X131859400Y-137637923D01*
X131811780Y-137733161D01*
X131811780Y-137923638D01*
X131859400Y-138018876D01*
X131907019Y-138066495D01*
X132002257Y-138114114D01*
X132240352Y-138114114D01*
X132335590Y-138066495D01*
X132383209Y-138018876D01*
X132430828Y-137923638D01*
X132430828Y-137733161D01*
X132383209Y-137637923D01*
X132335590Y-137590304D01*
X132240352Y-137542685D01*
X126004580Y-138844257D02*
X125528390Y-139177590D01*
X126004580Y-139415685D02*
X125004580Y-139415685D01*
X125004580Y-139034733D01*
X125052200Y-138939495D01*
X125099819Y-138891876D01*
X125195057Y-138844257D01*
X125337914Y-138844257D01*
X125433152Y-138891876D01*
X125480771Y-138939495D01*
X125528390Y-139034733D01*
X125528390Y-139415685D01*
X126004580Y-137891876D02*
X126004580Y-138463304D01*
X126004580Y-138177590D02*
X125004580Y-138177590D01*
X125147438Y-138272828D01*
X125242676Y-138368066D01*
X125290295Y-138463304D01*
X125004580Y-137272828D02*
X125004580Y-137177590D01*
X125052200Y-137082352D01*
X125099819Y-137034733D01*
X125195057Y-136987114D01*
X125385533Y-136939495D01*
X125623628Y-136939495D01*
X125814104Y-136987114D01*
X125909342Y-137034733D01*
X125956961Y-137082352D01*
X126004580Y-137177590D01*
X126004580Y-137272828D01*
X125956961Y-137368066D01*
X125909342Y-137415685D01*
X125814104Y-137463304D01*
X125623628Y-137510923D01*
X125385533Y-137510923D01*
X125195057Y-137463304D01*
X125099819Y-137415685D01*
X125052200Y-137368066D01*
X125004580Y-137272828D01*
X129458980Y-139060157D02*
X128982790Y-139393490D01*
X129458980Y-139631585D02*
X128458980Y-139631585D01*
X128458980Y-139250633D01*
X128506600Y-139155395D01*
X128554219Y-139107776D01*
X128649457Y-139060157D01*
X128792314Y-139060157D01*
X128887552Y-139107776D01*
X128935171Y-139155395D01*
X128982790Y-139250633D01*
X128982790Y-139631585D01*
X129458980Y-138107776D02*
X129458980Y-138679204D01*
X129458980Y-138393490D02*
X128458980Y-138393490D01*
X128601838Y-138488728D01*
X128697076Y-138583966D01*
X128744695Y-138679204D01*
X129458980Y-137155395D02*
X129458980Y-137726823D01*
X129458980Y-137441109D02*
X128458980Y-137441109D01*
X128601838Y-137536347D01*
X128697076Y-137631585D01*
X128744695Y-137726823D01*
X116146342Y-141193780D02*
X115813009Y-140717590D01*
X115574914Y-141193780D02*
X115574914Y-140193780D01*
X115955866Y-140193780D01*
X116051104Y-140241400D01*
X116098723Y-140289019D01*
X116146342Y-140384257D01*
X116146342Y-140527114D01*
X116098723Y-140622352D01*
X116051104Y-140669971D01*
X115955866Y-140717590D01*
X115574914Y-140717590D01*
X117098723Y-141193780D02*
X116527295Y-141193780D01*
X116813009Y-141193780D02*
X116813009Y-140193780D01*
X116717771Y-140336638D01*
X116622533Y-140431876D01*
X116527295Y-140479495D01*
X117479676Y-140289019D02*
X117527295Y-140241400D01*
X117622533Y-140193780D01*
X117860628Y-140193780D01*
X117955866Y-140241400D01*
X118003485Y-140289019D01*
X118051104Y-140384257D01*
X118051104Y-140479495D01*
X118003485Y-140622352D01*
X117432057Y-141193780D01*
X118051104Y-141193780D01*
X118562380Y-138742657D02*
X118086190Y-139075990D01*
X118562380Y-139314085D02*
X117562380Y-139314085D01*
X117562380Y-138933133D01*
X117610000Y-138837895D01*
X117657619Y-138790276D01*
X117752857Y-138742657D01*
X117895714Y-138742657D01*
X117990952Y-138790276D01*
X118038571Y-138837895D01*
X118086190Y-138933133D01*
X118086190Y-139314085D01*
X118562380Y-137790276D02*
X118562380Y-138361704D01*
X118562380Y-138075990D02*
X117562380Y-138075990D01*
X117705238Y-138171228D01*
X117800476Y-138266466D01*
X117848095Y-138361704D01*
X117562380Y-137456942D02*
X117562380Y-136837895D01*
X117943333Y-137171228D01*
X117943333Y-137028371D01*
X117990952Y-136933133D01*
X118038571Y-136885514D01*
X118133809Y-136837895D01*
X118371904Y-136837895D01*
X118467142Y-136885514D01*
X118514761Y-136933133D01*
X118562380Y-137028371D01*
X118562380Y-137314085D01*
X118514761Y-137409323D01*
X118467142Y-137456942D01*
X124848880Y-121356357D02*
X124372690Y-121689690D01*
X124848880Y-121927785D02*
X123848880Y-121927785D01*
X123848880Y-121546833D01*
X123896500Y-121451595D01*
X123944119Y-121403976D01*
X124039357Y-121356357D01*
X124182214Y-121356357D01*
X124277452Y-121403976D01*
X124325071Y-121451595D01*
X124372690Y-121546833D01*
X124372690Y-121927785D01*
X124848880Y-120403976D02*
X124848880Y-120975404D01*
X124848880Y-120689690D02*
X123848880Y-120689690D01*
X123991738Y-120784928D01*
X124086976Y-120880166D01*
X124134595Y-120975404D01*
X124182214Y-119546833D02*
X124848880Y-119546833D01*
X123801261Y-119784928D02*
X124515547Y-120023023D01*
X124515547Y-119403976D01*
X125166380Y-134094457D02*
X124690190Y-134427790D01*
X125166380Y-134665885D02*
X124166380Y-134665885D01*
X124166380Y-134284933D01*
X124214000Y-134189695D01*
X124261619Y-134142076D01*
X124356857Y-134094457D01*
X124499714Y-134094457D01*
X124594952Y-134142076D01*
X124642571Y-134189695D01*
X124690190Y-134284933D01*
X124690190Y-134665885D01*
X125166380Y-133142076D02*
X125166380Y-133713504D01*
X125166380Y-133427790D02*
X124166380Y-133427790D01*
X124309238Y-133523028D01*
X124404476Y-133618266D01*
X124452095Y-133713504D01*
X124166380Y-132237314D02*
X124166380Y-132713504D01*
X124642571Y-132761123D01*
X124594952Y-132713504D01*
X124547333Y-132618266D01*
X124547333Y-132380171D01*
X124594952Y-132284933D01*
X124642571Y-132237314D01*
X124737809Y-132189695D01*
X124975904Y-132189695D01*
X125071142Y-132237314D01*
X125118761Y-132284933D01*
X125166380Y-132380171D01*
X125166380Y-132618266D01*
X125118761Y-132713504D01*
X125071142Y-132761123D01*
X140215680Y-146570604D02*
X141025204Y-146570604D01*
X141120442Y-146522985D01*
X141168061Y-146475366D01*
X141215680Y-146380128D01*
X141215680Y-146189652D01*
X141168061Y-146094414D01*
X141120442Y-146046795D01*
X141025204Y-145999176D01*
X140215680Y-145999176D01*
X141215680Y-144999176D02*
X141215680Y-145570604D01*
X141215680Y-145284890D02*
X140215680Y-145284890D01*
X140358538Y-145380128D01*
X140453776Y-145475366D01*
X140501395Y-145570604D01*
X133976380Y-145338704D02*
X134785904Y-145338704D01*
X134881142Y-145291085D01*
X134928761Y-145243466D01*
X134976380Y-145148228D01*
X134976380Y-144957752D01*
X134928761Y-144862514D01*
X134881142Y-144814895D01*
X134785904Y-144767276D01*
X133976380Y-144767276D01*
X134071619Y-144338704D02*
X134024000Y-144291085D01*
X133976380Y-144195847D01*
X133976380Y-143957752D01*
X134024000Y-143862514D01*
X134071619Y-143814895D01*
X134166857Y-143767276D01*
X134262095Y-143767276D01*
X134404952Y-143814895D01*
X134976380Y-144386323D01*
X134976380Y-143767276D01*
X121158095Y-117244880D02*
X121158095Y-118054404D01*
X121205714Y-118149642D01*
X121253333Y-118197261D01*
X121348571Y-118244880D01*
X121539047Y-118244880D01*
X121634285Y-118197261D01*
X121681904Y-118149642D01*
X121729523Y-118054404D01*
X121729523Y-117244880D01*
X122110476Y-117244880D02*
X122729523Y-117244880D01*
X122396190Y-117625833D01*
X122539047Y-117625833D01*
X122634285Y-117673452D01*
X122681904Y-117721071D01*
X122729523Y-117816309D01*
X122729523Y-118054404D01*
X122681904Y-118149642D01*
X122634285Y-118197261D01*
X122539047Y-118244880D01*
X122253333Y-118244880D01*
X122158095Y-118197261D01*
X122110476Y-118149642D01*
X146253690Y-146208690D02*
X146729880Y-146208690D01*
X145729880Y-146542023D02*
X146253690Y-146208690D01*
X145729880Y-145875357D01*
X146729880Y-145018214D02*
X146729880Y-145589642D01*
X146729880Y-145303928D02*
X145729880Y-145303928D01*
X145872738Y-145399166D01*
X145967976Y-145494404D01*
X146015595Y-145589642D01*
X106283166Y-132611880D02*
X106283166Y-133326166D01*
X106235547Y-133469023D01*
X106140309Y-133564261D01*
X105997452Y-133611880D01*
X105902214Y-133611880D01*
X107283166Y-133611880D02*
X106711738Y-133611880D01*
X106997452Y-133611880D02*
X106997452Y-132611880D01*
X106902214Y-132754738D01*
X106806976Y-132849976D01*
X106711738Y-132897595D01*
M02*
